<svg width="167" height="168" viewBox="0 0 167 168" fill="none" xmlns="http://www.w3.org/2000/svg">
<g clip-path="url(#clip0_2304_9522)">
<path d="M33.357 44.9471C27.0877 50.3455 23.4321 56.2833 22.2188 58.3786C20.011 62.1721 16.7533 67.9166 15.9578 75.9774C15.3078 82.5563 16.5849 87.7407 17.5408 91.5035C19.9396 100.886 22.7309 101.462 24.0828 109.917C24.9659 115.436 24.6654 120.764 24.5488 122.801C24.2575 127.577 23.5814 130.324 23.7344 135.604C23.85 139.442 23.8951 141.36 24.5262 143.367C26.6312 150.083 32.91 153.632 36.5959 155.704C44.1655 159.978 51.2543 160.493 55.5564 160.767C63.5198 161.273 69.3149 159.894 76.2855 158.229C78.6737 157.661 89.5002 154.994 102.624 148.335C111.418 143.868 117.386 139.568 121.363 136.672C128.965 131.139 131.949 127.871 133.619 125.882C136.317 122.66 139.271 119.069 140.834 113.486C141.679 110.506 142.826 106.633 141.567 101.964C140.828 99.2298 139.882 95.712 136.934 93.9561C135.572 93.1496 133.812 92.7289 133.257 91.1511C132.864 90.0462 133.393 89.0003 133.42 88.5904C133.42 88.5904 133.78 83.1245 132.872 76.9863C131.34 66.7078 126.331 58.5736 126.331 58.5736C120.889 49.7435 113.639 45.2971 108.103 41.9883C103.646 39.3138 90.305 31.588 71.4631 31.945C66.0315 32.0494 47.9489 32.3903 33.357 44.9471Z" fill="#FBDBCD"/>
<path d="M159.25 72.1211C155.335 37.0742 122.494 18.2353 118.495 16.0143C97.6365 4.42937 71.6211 2.56893 49.3167 11.0741C42.2686 13.7626 24.4991 20.8978 14.6103 39.3453C0.724685 65.2514 10.2991 99.0385 17.6509 99.8662C18.1615 99.9242 18.6323 99.8 19.0734 99.5327L19.2956 100.485C24.4385 101.275 29.9296 99.4261 33.4843 95.6798C37.0394 91.9341 38.5857 86.4149 37.4524 81.3937C41.9023 86.8184 49.577 89.4407 56.4753 87.9C63.3607 86.358 69.13 80.7348 70.7703 73.949C71.5056 80.9757 76.0128 87.5229 82.3623 90.7678C88.7248 94.013 96.7297 93.8666 102.941 90.3926L110.68 112.211C110.552 111.598 108.796 102.424 115.58 95.8114C116.731 94.6889 118.025 93.7431 119.409 92.9955C121.193 92.029 122.696 91.4561 123.587 91.1786C125.252 90.6674 127.351 90.0172 130.07 90.3054C130.555 90.3622 132.89 90.6394 135.11 91.9115C141.074 95.3503 141.827 103.523 141.977 105.203C142.446 110.362 140.909 114.314 139.964 116.644C137.615 122.46 133.899 126.311 130.106 130.158C124.279 136.073 121.505 136.848 121.854 138.631C122.665 142.861 139.46 144.983 141.658 140.534C142.808 138.216 139.112 136.104 138.387 131.327C137.205 123.436 146.907 117.626 152.575 110.376C162.131 98.1683 160.306 81.7907 159.225 72.1195L159.25 72.1211Z" fill="#403030"/>
<path d="M22.8047 108.575C26.0215 117.419 24.3752 125.309 23.588 134.862C23.1204 140.591 24.0166 145.7 28.1192 149.714C36.9893 158.403 51.7483 161 63.6032 160.353C73.033 159.834 82.2654 157.362 91.0112 153.856" stroke="black" stroke-width="1.62927" stroke-linecap="round" stroke-linejoin="round"/>
<path d="M123.458 101.133C122.764 107.401 123.487 113.809 125.551 119.764" stroke="black" stroke-width="1.62927" stroke-linecap="round" stroke-linejoin="round"/>
<path d="M124.121 112.307L129.043 108.481" stroke="black" stroke-width="1.62927" stroke-linecap="round" stroke-linejoin="round"/>
<path d="M19.7339 100.513C24.8634 101.315 30.3313 99.4256 33.8751 95.6532C37.4322 91.8687 38.9564 86.2967 37.8514 81.2389C42.2859 86.7016 49.9331 89.3475 56.794 87.7915C63.6544 86.2354 69.4153 80.5469 71.0584 73.7098C71.7772 80.8003 76.2683 87.3975 82.6032 90.6673C88.9382 93.9366 96.9048 93.7879 103.106 90.2743" stroke="black" stroke-width="1.71907" stroke-linecap="round" stroke-linejoin="round"/>
<path d="M8.90508 85.8126C7.64166 80.8215 2.95996 60.0459 14.6119 39.3455C25.1186 20.6803 42.1915 13.7832 49.3183 11.0743C71.6222 2.56905 97.6252 4.4287 118.497 16.0144C122.495 18.2355 155.324 37.0736 159.252 72.1213C160.333 81.7924 162.159 98.1571 152.602 110.378C146.934 117.628 137.232 123.438 138.414 131.329C139.094 135.807 142.775 138.162 141.685 140.535C140.253 143.658 132.233 143.019 126.159 142.119" stroke="black" stroke-width="1.71907" stroke-linecap="round" stroke-linejoin="round"/>
<path d="M100.592 149.568C114.182 142.848 129.544 133.336 137.59 120.028C141.412 113.69 142.884 106.109 140.445 98.9868C137.928 91.6667 129.629 89.7635 122.861 92.0966C112.951 95.5154 109.124 106.16 112.515 115.708" stroke="black" stroke-width="1.62927" stroke-linecap="round" stroke-linejoin="round"/>
<path d="M40.395 105.1C39.315 105.236 37.41 105.644 35.37 107.021C33.345 108.398 32.115 110.098 31.5 111.118" stroke="black" stroke-width="1.905" stroke-linecap="round" stroke-linejoin="round"/>
<path d="M58.7266 105.1C59.8066 105.236 61.7116 105.644 63.7516 107.021C65.7766 108.398 67.0066 110.098 67.6216 111.118" stroke="black" stroke-width="1.905" stroke-linecap="round" stroke-linejoin="round"/>
<path d="M37.4823 117.249C36.1588 117.018 34.8608 118.508 35.285 119.793C35.7092 121.079 37.6491 121.502 38.5743 120.513" stroke="black" stroke-width="1.63182" stroke-linecap="round" stroke-linejoin="round"/>
<path d="M59.5811 116.08C58.1035 116.363 57.3197 118.406 58.2323 119.6C59.1442 120.796 61.3288 120.564 61.9712 119.202" stroke="black" stroke-width="1.63182" stroke-linecap="round" stroke-linejoin="round"/>
<path d="M37.4827 116.633C36.3648 116.401 35.5036 115.297 35.5423 114.153" stroke="black" stroke-width="1.63182" stroke-linecap="round" stroke-linejoin="round"/>
<path d="M59.9822 116.132C58.5814 115.309 57.8363 113.536 58.2085 111.956" stroke="black" stroke-width="1.63182" stroke-linecap="round" stroke-linejoin="round"/>
<path d="M44.9993 129.86C45.2181 128.421 46.4642 127.188 47.9164 127.02C49.3686 126.854 50.8715 127.727 51.4238 129.076" stroke="black" stroke-width="1.63182" stroke-linecap="round" stroke-linejoin="round"/>
<path d="M72.4994 121C72 127 72.0007 127.835 72.4987 129C73.8773 132.225 77.9996 128.5 75.4995 130C78.4994 126 76.4994 131 76.4994 123.5" fill="#90B8DA"/>
<path d="M74.0684 130.418C75.3424 130.847 77.4349 129.423 77.2399 126.133C77.0579 123.17 74.081 120.598 72.872 121.052C72.053 121.355 72.0269 123.057 72.0009 126.133C71.9619 129.524 73.1454 130.103 74.0684 130.418Z" stroke="black" stroke-width="1.50091" stroke-linecap="round" stroke-linejoin="round"/>
</g>
<defs>
<clipPath id="clip0_2304_9522">
<rect width="156.614" height="158" fill="white" transform="translate(10.0293) rotate(3.63951)"/>
</clipPath>
</defs>
</svg>
