<svg width="167" height="168" viewBox="0 0 167 168" fill="none" xmlns="http://www.w3.org/2000/svg">
<g clip-path="url(#clip0_2304_9591)">
<path d="M33.3589 44.9471C27.0897 50.3455 23.4341 56.2833 22.2208 58.3786C20.013 62.1721 16.7553 67.9166 15.9597 75.9774C15.3098 82.5563 16.5868 87.7407 17.5427 91.5035C19.9415 100.886 22.7329 101.462 24.0847 109.917C24.9678 115.436 24.6673 120.764 24.5508 122.801C24.2594 127.577 23.5834 130.324 23.7364 135.604C23.852 139.442 23.897 141.36 24.5281 143.367C26.6332 150.083 32.9119 153.632 36.5978 155.704C44.1674 159.978 51.2562 160.493 55.5584 160.767C63.5217 161.273 69.3168 159.894 76.2874 158.229C78.6756 157.661 89.5022 154.994 102.626 148.335C111.42 143.868 117.388 139.568 121.365 136.672C128.967 131.139 131.951 127.871 133.621 125.882C136.319 122.66 139.273 119.069 140.836 113.486C141.681 110.506 142.828 106.633 141.569 101.964C140.83 99.2298 139.884 95.712 136.936 93.9561C135.574 93.1496 133.814 92.7289 133.259 91.1511C132.866 90.0462 133.395 89.0003 133.421 88.5904C133.421 88.5904 133.782 83.1245 132.874 76.9863C131.342 66.7078 126.332 58.5736 126.332 58.5736C120.891 49.7435 113.641 45.2971 108.105 41.9883C103.648 39.3138 90.3069 31.588 71.4651 31.945C66.0334 32.0494 47.9509 32.3903 33.3589 44.9471Z" fill="#FBDBCD"/>
<path d="M159.252 72.1211C155.337 37.0742 122.496 18.2353 118.497 16.0143C97.6385 4.42937 71.623 2.56893 49.3187 11.0741C42.2705 13.7626 24.5011 20.8978 14.6123 39.3453C0.726638 65.2514 10.301 99.0385 17.6528 99.8662C18.1634 99.9242 18.6343 99.8 19.0753 99.5327L19.2976 100.485C24.4404 101.275 29.9316 99.4261 33.4862 95.6798C37.0413 91.9341 38.5877 86.4149 37.4544 81.3937C41.9043 86.8184 49.5789 89.4407 56.4773 87.9C63.3627 86.358 69.1319 80.7348 70.7722 73.949C71.5076 80.9757 76.0148 87.5229 82.3643 90.7678C88.7267 94.013 96.7316 93.8666 102.943 90.3926L110.682 112.211C110.554 111.598 108.798 102.424 115.582 95.8114C116.733 94.6889 118.027 93.7431 119.411 92.9955C121.195 92.029 122.697 91.4561 123.589 91.1786C125.254 90.6674 127.353 90.0172 130.072 90.3054C130.557 90.3622 132.892 90.6394 135.112 91.9115C141.076 95.3503 141.829 103.523 141.979 105.203C142.448 110.362 140.911 114.314 139.966 116.644C137.617 122.46 133.901 126.311 130.108 130.158C124.281 136.073 121.507 136.848 121.856 138.631C122.667 142.861 139.462 144.983 141.66 140.534C142.81 138.216 139.114 136.104 138.389 131.327C137.207 123.436 146.909 117.626 152.577 110.376C162.133 98.1683 160.308 81.7907 159.227 72.1195L159.252 72.1211Z" fill="#403030"/>
<path d="M22.8066 108.575C26.0234 117.419 24.3772 125.309 23.59 134.862C23.1223 140.591 24.0185 145.7 28.1211 149.714C36.9913 158.403 51.7502 161 63.6051 160.353C73.035 159.834 82.2673 157.362 91.0132 153.856" stroke="black" stroke-width="1.62927" stroke-linecap="round" stroke-linejoin="round"/>
<path d="M123.46 101.133C122.766 107.401 123.489 113.809 125.553 119.764" stroke="black" stroke-width="1.62927" stroke-linecap="round" stroke-linejoin="round"/>
<path d="M124.123 112.307L129.045 108.481" stroke="black" stroke-width="1.62927" stroke-linecap="round" stroke-linejoin="round"/>
<path d="M19.7358 100.513C24.8654 101.315 30.3332 99.4256 33.877 95.6532C37.4341 91.8687 38.9583 86.2967 37.8533 81.2389C42.2879 86.7016 49.9351 89.3475 56.7959 87.7915C63.6564 86.2354 69.4173 80.5469 71.0604 73.7098C71.7792 80.8003 76.2702 87.3975 82.6052 90.6673C88.9402 93.9366 96.9068 93.7879 103.108 90.2743" stroke="black" stroke-width="1.71907" stroke-linecap="round" stroke-linejoin="round"/>
<path d="M8.90703 85.8126C7.64362 80.8215 2.96192 60.0459 14.6138 39.3455C25.1206 20.6803 42.1935 13.7832 49.3203 11.0743C71.6241 2.56905 97.6271 4.4287 118.499 16.0144C122.497 18.2355 155.326 37.0736 159.254 72.1213C160.335 81.7924 162.161 98.1571 152.604 110.378C146.936 117.628 137.234 123.438 138.416 131.329C139.096 135.807 142.777 138.162 141.687 140.535C140.255 143.658 132.235 143.019 126.161 142.119" stroke="#242424" stroke-width="1.71907" stroke-linecap="round" stroke-linejoin="round"/>
<path d="M100.593 149.568C114.184 142.848 129.546 133.336 137.592 120.028C141.414 113.69 142.886 106.109 140.447 98.9868C137.93 91.6667 129.631 89.7635 122.863 92.0966C112.953 95.5154 109.126 106.16 112.517 115.708" stroke="black" stroke-width="1.62927" stroke-linecap="round" stroke-linejoin="round"/>
<path d="M33.1069 115.748C31.803 115.434 30.4157 116.837 30.7566 118.144C31.0975 119.451 33.0038 119.997 33.9886 119.07" stroke="black" stroke-width="1.62927" stroke-linecap="round" stroke-linejoin="round"/>
<path d="M55.2 115.984C53.7099 116.172 52.7993 118.158 53.6324 119.407C54.4658 120.655 56.6571 120.563 57.3834 119.247" stroke="black" stroke-width="1.62927" stroke-linecap="round" stroke-linejoin="round"/>
<path d="M37.6659 106.423C34.721 106.441 31.7891 106.46 28.8437 106.478" stroke="black" stroke-width="1.66775" stroke-linecap="round" stroke-linejoin="round"/>
<path d="M60.6706 107.333C57.7097 107.197 54.7363 107.059 51.7754 106.922" stroke="black" stroke-width="1.62927" stroke-linecap="round" stroke-linejoin="round"/>
<path d="M38.8121 131.678C39.5309 131.891 40.7624 132.137 42.2557 131.897C44.6451 131.523 46.1726 130.141 46.7223 129.585" stroke="black" stroke-width="1.62927" stroke-linecap="round" stroke-linejoin="round"/>
</g>
<defs>
<clipPath id="clip0_2304_9591">
<rect width="156.614" height="158" fill="white" transform="translate(10.0312) rotate(3.63951)"/>
</clipPath>
</defs>
</svg>
