<svg width="200" height="200" viewBox="0 0 200 200" fill="none" xmlns="http://www.w3.org/2000/svg">
<path d="M66.4667 60.8195C61.8567 65.3295 59.3067 70.1295 58.4667 71.8195C56.9367 74.8795 54.6867 79.5095 54.4667 85.8195C54.2867 90.9695 55.5367 94.9395 56.4667 97.8195C58.7967 105 60.9967 105.31 62.4667 111.819C63.4267 116.07 63.4567 120.229 63.4667 121.819C63.4767 125.549 63.0867 127.719 63.4667 131.819C63.7467 134.799 63.8767 136.289 64.4667 137.819C66.4367 142.939 71.4967 145.389 74.4667 146.819C80.5667 149.769 86.1067 149.819 89.4667 149.819C95.6867 149.819 100.127 148.459 105.467 146.819C107.297 146.259 115.587 143.649 125.467 137.819C132.087 133.909 136.517 130.269 139.467 127.819C145.107 123.139 147.267 120.449 148.467 118.819C150.407 116.179 152.527 113.24 153.467 108.819C153.977 106.459 154.677 103.389 153.467 99.8195C152.757 97.7295 151.847 95.0395 149.467 93.8195C148.367 93.2595 146.977 93.0195 146.467 91.8195C146.107 90.9795 146.467 90.1395 146.467 89.8195C146.467 89.8195 146.477 85.5495 145.467 80.8195C143.767 72.8995 139.467 66.8195 139.467 66.8195C134.797 60.2195 128.937 57.1195 124.467 54.8195C120.867 52.9595 110.107 47.6095 95.4667 48.8195C91.2467 49.1695 77.1967 50.3295 66.4667 60.8195Z" fill="#FBDBCD"/>
<path d="M165.746 75.7295C160.966 48.6595 134.486 35.6295 131.266 34.0995C114.466 26.1195 94.1362 25.9595 77.2062 33.6795C71.8562 36.1195 58.3862 42.5495 51.6062 57.3895C42.0862 78.2295 51.2062 104.04 56.9662 104.32C57.3662 104.34 57.7262 104.22 58.0562 103.99L58.2762 104.72C62.3162 105.08 66.4962 103.369 69.0762 100.28C71.6562 97.1895 72.5862 92.8195 71.4562 88.9695C75.1862 92.9695 81.2862 94.6295 86.5762 93.0895C91.8562 91.5495 96.0662 86.8895 97.0062 81.5295C97.9262 86.9595 101.756 91.8295 106.856 94.0395C111.966 96.2495 118.186 95.7395 122.846 92.7295L129.946 109.32C129.816 108.85 127.996 101.8 132.946 96.3195C133.786 95.3895 134.746 94.5895 135.786 93.9395C137.126 93.0995 138.266 92.5795 138.946 92.3195C140.216 91.8395 141.816 91.2295 143.946 91.3195C144.326 91.3395 146.156 91.4395 147.946 92.3195C152.756 94.6995 153.746 101.02 153.946 102.32C154.566 106.31 153.566 109.46 152.946 111.32C151.406 115.96 148.706 119.14 145.946 122.32C141.706 127.21 139.586 127.95 139.946 129.32C140.786 132.57 153.956 133.39 155.446 129.82C156.226 127.96 153.246 126.5 152.446 122.82C151.136 116.74 158.396 111.74 162.446 105.82C169.276 95.8495 167.046 83.1995 165.726 75.7295H165.746Z" fill="#2AA971"/>
<path d="M61.4062 110.839C64.3463 117.559 63.4563 123.779 63.3163 131.249C63.2363 135.729 64.1863 139.659 67.5763 142.579C74.9063 148.899 86.5162 150.189 95.7062 149.099C103.016 148.229 110.076 145.849 116.706 142.689" stroke="black" stroke-width="1.27" stroke-linecap="round" stroke-linejoin="round"/>
<path d="M139.337 100.069C139.107 104.979 139.987 109.929 141.887 114.459" stroke="black" stroke-width="1.27" stroke-linecap="round" stroke-linejoin="round"/>
<path d="M140.406 108.73L144.046 105.51" stroke="black" stroke-width="1.27" stroke-linecap="round" stroke-linejoin="round"/>
<path d="M58.6162 104.719C62.6462 105.089 66.8062 103.349 69.3762 100.239C71.9562 97.1195 72.8662 92.7095 71.7562 88.8295C75.4762 92.8595 81.5562 94.5395 86.8162 92.9895C92.0762 91.4395 96.2762 86.7295 97.2162 81.3295C98.1262 86.8095 101.946 91.7195 107.036 93.9495C112.126 96.1795 118.316 95.6695 122.966 92.6295" stroke="black" stroke-width="1.34" stroke-linecap="round" stroke-linejoin="round"/>
<path d="M49.4666 93.8195C48.2366 89.9995 43.5666 74.0695 51.6066 57.3895C58.8566 42.3495 71.7966 36.1395 77.2066 33.6795C94.1366 25.9595 114.457 26.1195 131.267 34.0995C134.487 35.6295 160.957 48.6595 165.747 75.7295C167.067 83.1995 169.297 95.8395 162.467 105.82C158.417 111.74 151.157 116.74 152.467 122.82C153.217 126.27 156.197 127.92 155.467 129.82C154.507 132.32 148.237 132.22 143.467 131.82" stroke="black" stroke-width="1.34" stroke-linecap="round" stroke-linejoin="round"/>
<path d="M123.946 138.879C134.186 132.979 145.666 124.819 151.266 114.069C153.926 108.949 154.696 102.979 152.446 97.5595C150.126 91.9895 143.576 90.9195 138.426 93.0695C130.886 96.2195 128.436 104.689 131.546 111.949" stroke="black" stroke-width="1.27" stroke-linecap="round" stroke-linejoin="round"/>
<path d="M78.75 108.549C78.22 107.319 77.06 106.369 75.75 106.089C74.44 105.809 73 106.199 72 107.099" stroke="black" stroke-width="1.27" stroke-linecap="round" stroke-linejoin="round"/>
<path d="M89.9199 108.705C90.4099 107.455 91.5199 106.475 92.8199 106.135C94.1199 105.795 95.5699 106.105 96.6099 106.955" stroke="black" stroke-width="1.27" stroke-linecap="round" stroke-linejoin="round"/>
<path d="M73.0087 114.703C73.1287 115.833 74.5387 116.613 75.6987 116.723C77.0887 116.853 78.9087 116.073 79.0587 114.703C79.2087 113.403 77.7587 112.153 76.3687 112.013C74.6687 111.843 72.8587 113.333 73.0087 114.703Z" stroke="black" stroke-width="1.27" stroke-linecap="round" stroke-linejoin="round"/>
<path d="M73.0087 114.703C73.1287 115.833 74.5387 116.613 75.6987 116.723C77.0887 116.853 78.9087 116.073 79.0587 114.703C79.2087 113.403 77.7587 112.153 76.3687 112.013C74.6687 111.843 72.8587 113.333 73.0087 114.703Z" stroke="black" stroke-width="1.27" stroke-linecap="round" stroke-linejoin="round"/>
<path d="M90.0087 114.703C90.1287 115.833 91.5387 116.613 92.6987 116.723C94.0887 116.853 95.9087 116.073 96.0587 114.703C96.2087 113.403 94.7587 112.153 93.3687 112.013C91.6687 111.843 89.8587 113.333 90.0087 114.703Z" stroke="black" stroke-width="1.27" stroke-linecap="round" stroke-linejoin="round"/>
<path d="M90.0087 114.703C90.1287 115.833 91.5387 116.613 92.6987 116.723C94.0887 116.853 95.9087 116.073 96.0587 114.703C96.2087 113.403 94.7587 112.153 93.3687 112.013C91.6687 111.843 89.8587 113.333 90.0087 114.703Z" stroke="black" stroke-width="1.27" stroke-linecap="round" stroke-linejoin="round"/>
<path d="M91.0029 114.852C91.0429 115.417 91.5129 115.807 91.8996 115.862C92.3629 115.927 92.9696 115.537 93.0196 114.852C93.0696 114.202 92.5862 113.577 92.1229 113.507C91.5562 113.422 90.9529 114.167 91.0029 114.852Z" stroke="black" stroke-width="1.27" stroke-linecap="round" stroke-linejoin="round"/>
<path d="M91.0029 114.852C91.0429 115.417 91.5129 115.807 91.8996 115.862C92.3629 115.927 92.9696 115.537 93.0196 114.852C93.0696 114.202 92.5862 113.577 92.1229 113.507C91.5562 113.422 90.9529 114.167 91.0029 114.852Z" stroke="black" stroke-width="1.27" stroke-linecap="round" stroke-linejoin="round"/>
<path d="M74.0029 114.852C74.0429 115.417 74.5129 115.807 74.8996 115.862C75.3629 115.927 75.9696 115.537 76.0196 114.852C76.0696 114.202 75.5862 113.577 75.1229 113.507C74.5562 113.422 73.9529 114.167 74.0029 114.852Z" stroke="black" stroke-width="1.27" stroke-linecap="round" stroke-linejoin="round"/>
<path d="M74.0029 114.852C74.0429 115.417 74.5129 115.807 74.8996 115.862C75.3629 115.927 75.9696 115.537 76.0196 114.852C76.0696 114.202 75.5862 113.577 75.1229 113.507C74.5562 113.422 73.9529 114.167 74.0029 114.852Z" stroke="black" stroke-width="1.27" stroke-linecap="round" stroke-linejoin="round"/>
<path d="M82 126.02C82.57 126.15 83.54 126.28 84.69 126.02C86.53 125.61 87.65 124.46 88.05 124" stroke="black" stroke-width="1.27" stroke-linecap="round" stroke-linejoin="round"/>
</svg>
