<svg width="21" height="20" viewBox="0 0 21 20" fill="none" xmlns="http://www.w3.org/2000/svg">
<path d="M10.5 0C8.52219 0 6.58879 0.58649 4.9443 1.6853C3.29981 2.78412 2.01809 4.3459 1.26121 6.17317C0.504333 8.00043 0.306299 10.0111 0.692152 11.9509C1.078 13.8907 2.03041 15.6725 3.42894 17.0711C4.82746 18.4696 6.60929 19.422 8.5491 19.8079C10.4889 20.1937 12.4996 19.9957 14.3268 19.2388C16.1541 18.4819 17.7159 17.2002 18.8147 15.5557C19.9135 13.9112 20.5 11.9778 20.5 10C20.4971 7.34872 19.4426 4.80684 17.5679 2.9321C15.6932 1.05736 13.1513 0.00286757 10.5 0V0ZM17.0658 15.1133C16.3545 14.5191 15.7752 13.7828 15.365 12.9517L16.6425 12.4408C16.8478 12.3588 17.0122 12.1986 17.0994 11.9955C17.1866 11.7923 17.1895 11.5628 17.1075 11.3575C17.0255 11.1522 16.8653 10.9878 16.6621 10.9006C16.459 10.8134 16.2295 10.8105 16.0242 10.8925L14.82 11.3742C14.6153 10.4689 14.6153 9.52941 14.82 8.62417L16.0242 9.10583C16.1258 9.14643 16.2345 9.16661 16.344 9.16522C16.4534 9.16382 16.5615 9.14088 16.6621 9.0977C16.7627 9.05452 16.8538 8.99195 16.9303 8.91356C17.0067 8.83517 17.0669 8.7425 17.1075 8.64083C17.1481 8.53917 17.1683 8.4305 17.1669 8.32104C17.1655 8.21158 17.1425 8.10346 17.0994 8.00286C17.0562 7.90227 16.9936 7.81116 16.9152 7.73474C16.8368 7.65833 16.7442 7.5981 16.6425 7.5575L15.365 7.04667C15.7752 6.21551 16.3545 5.47922 17.0658 4.885C18.211 6.34344 18.8334 8.14406 18.8334 9.99833C18.8334 11.8526 18.211 13.6532 17.0658 15.1117V15.1133ZM3.93417 4.88667C4.6455 5.48089 5.22482 6.21717 5.635 7.04833L4.3575 7.55917C4.15218 7.64116 3.98784 7.80136 3.90064 8.00453C3.81343 8.20769 3.81051 8.43718 3.8925 8.6425C3.9745 8.84782 4.1347 9.01216 4.33787 9.09937C4.54103 9.18657 4.77052 9.1895 4.97584 9.1075L6.18 8.62583C6.27861 9.07734 6.32999 9.53787 6.33334 10C6.32999 10.4621 6.27861 10.9227 6.18 11.3742L4.97584 10.8925C4.87417 10.8519 4.76551 10.8317 4.65604 10.8331C4.54658 10.8345 4.43846 10.8575 4.33787 10.9006C4.23727 10.9438 4.14616 11.0064 4.06975 11.0848C3.99333 11.1632 3.9331 11.2558 3.8925 11.3575C3.8519 11.4592 3.83173 11.5678 3.83312 11.6773C3.83452 11.7868 3.85746 11.8949 3.90064 11.9955C3.94382 12.0961 4.00639 12.1872 4.08478 12.2636C4.16317 12.34 4.25584 12.4002 4.3575 12.4408L5.635 12.9517C5.22482 13.7828 4.6455 14.5191 3.93417 15.1133C2.78906 13.6549 2.16664 11.8543 2.16664 10C2.16664 8.14572 2.78906 6.34511 3.93417 4.88667V4.88667ZM5.08917 16.325C5.97253 15.5639 6.68553 14.6252 7.18167 13.57L8.52417 14.1075C8.62584 14.1481 8.7345 14.1683 8.84397 14.1669C8.95343 14.1655 9.06155 14.1425 9.16214 14.0994C9.26274 14.0562 9.35385 13.9936 9.43026 13.9152C9.50668 13.8368 9.5669 13.7442 9.6075 13.6425C9.6481 13.5408 9.66828 13.4322 9.66689 13.3227C9.66549 13.2132 9.64255 13.1051 9.59937 13.0045C9.55619 12.9039 9.49362 12.8128 9.41523 12.7364C9.33684 12.66 9.24417 12.5998 9.1425 12.5592L7.75417 12.0042C7.9168 11.3485 7.99934 10.6755 8 10C7.99901 9.32586 7.91646 8.65432 7.75417 8L9.1425 7.445C9.34783 7.363 9.51217 7.2028 9.59937 6.99964C9.68657 6.79647 9.6895 6.56699 9.6075 6.36167C9.52551 6.15635 9.36531 5.99201 9.16214 5.9048C8.95898 5.8176 8.72949 5.81467 8.52417 5.89667L7.18167 6.43417C6.68603 5.37749 5.973 4.43728 5.08917 3.675C6.59417 2.37935 8.51412 1.66675 10.5 1.66675C12.4859 1.66675 14.4058 2.37935 15.9108 3.675C15.0275 4.43608 14.3145 5.37482 13.8183 6.43L12.4758 5.8925C12.3742 5.8519 12.2655 5.83172 12.156 5.83312C12.0466 5.83451 11.9385 5.85746 11.8379 5.90063C11.7373 5.94381 11.6462 6.00638 11.5697 6.08477C11.4933 6.16316 11.4331 6.25584 11.3925 6.3575C11.3519 6.45917 11.3317 6.56783 11.3331 6.67729C11.3345 6.78676 11.3575 6.89487 11.4006 6.99547C11.4438 7.09607 11.5064 7.18718 11.5848 7.26359C11.6632 7.34001 11.7558 7.40023 11.8575 7.44083L13.25 8C12.9222 9.31601 12.9222 10.6923 13.25 12.0083L11.8617 12.5633C11.6563 12.6453 11.492 12.8055 11.4048 13.0087C11.3176 13.2119 11.3147 13.4413 11.3967 13.6467C11.4787 13.852 11.6389 14.0163 11.842 14.1035C12.0452 14.1907 12.2747 14.1937 12.48 14.1117L13.8225 13.5742C14.3186 14.6293 15.0316 15.5681 15.915 16.3292C14.41 17.6248 12.4901 18.3374 10.5042 18.3374C8.51829 18.3374 6.59833 17.6248 5.09334 16.3292L5.08917 16.325Z" fill="#A2A2A2"/>
</svg>
