<svg width="19" height="18" viewBox="0 0 19 18" fill="none" xmlns="http://www.w3.org/2000/svg">
<g clip-path="url(#clip0_1323_2373)">
<path d="M9.5 0C7.71997 0 5.97991 0.527841 4.49987 1.51677C3.01983 2.50571 1.86628 3.91131 1.18509 5.55585C0.5039 7.20038 0.32567 9.00998 0.672937 10.7558C1.0202 12.5016 1.87737 14.1053 3.13604 15.364C4.39472 16.6226 5.99836 17.4798 7.74419 17.8271C9.49002 18.1743 11.2996 17.9961 12.9442 17.3149C14.5887 16.6337 15.9943 15.4802 16.9832 14.0001C17.9722 12.5201 18.5 10.78 18.5 9C18.4974 6.61384 17.5484 4.32616 15.8611 2.63889C14.1738 0.951621 11.8862 0.00258081 9.5 0V0ZM15.4093 13.602C14.7691 13.0672 14.2477 12.4045 13.8785 11.6565L15.0283 11.1968C15.213 11.123 15.3609 10.9788 15.4394 10.7959C15.5179 10.6131 15.5206 10.4065 15.4468 10.2218C15.373 10.037 15.2288 9.88906 15.0459 9.81057C14.8631 9.73209 14.6565 9.72945 14.4718 9.80325L13.388 10.2368C13.2038 9.42204 13.2038 8.57647 13.388 7.76175L14.4718 8.19525C14.5633 8.23179 14.6611 8.24995 14.7596 8.2487C14.8581 8.24744 14.9554 8.22679 15.0459 8.18793C15.1365 8.14907 15.2185 8.09275 15.2872 8.0222C15.356 7.95165 15.4102 7.86825 15.4468 7.77675C15.4833 7.68525 15.5015 7.58745 15.5002 7.48894C15.4989 7.39042 15.4783 7.29311 15.4394 7.20258C15.4006 7.11204 15.3443 7.03004 15.2737 6.96127C15.2032 6.8925 15.1198 6.83829 15.0283 6.80175L13.8785 6.342C14.2477 5.59396 14.7691 4.9313 15.4093 4.3965C16.4399 5.7091 17 7.32965 17 8.9985C17 10.6674 16.4399 12.2879 15.4093 13.6005V13.602ZM3.59075 4.398C4.23095 4.9328 4.75234 5.59546 5.1215 6.3435L3.97175 6.80325C3.78696 6.87705 3.63906 7.02123 3.56058 7.20408C3.48209 7.38692 3.47946 7.59346 3.55325 7.77825C3.62705 7.96304 3.77123 8.11095 3.95408 8.18943C4.13693 8.26791 4.34346 8.27055 4.52825 8.19675L5.612 7.76325C5.70075 8.1696 5.74699 8.58408 5.75 9C5.74699 9.41592 5.70075 9.8304 5.612 10.2368L4.52825 9.80325C4.43676 9.76671 4.33896 9.74855 4.24044 9.74981C4.14192 9.75106 4.04462 9.77171 3.95408 9.81057C3.86354 9.84943 3.78155 9.90575 3.71277 9.9763C3.644 10.0468 3.58979 10.1303 3.55325 10.2218C3.51671 10.3132 3.49855 10.411 3.49981 10.5096C3.50107 10.6081 3.52171 10.7054 3.56057 10.7959C3.59944 10.8865 3.65575 10.9685 3.7263 11.0372C3.79685 11.106 3.88026 11.1602 3.97175 11.1968L5.1215 11.6565C4.75234 12.4045 4.23095 13.0672 3.59075 13.602C2.56015 12.2894 1.99997 10.6689 1.99997 9C1.99997 7.33115 2.56015 5.7106 3.59075 4.398ZM4.63025 14.6925C5.42528 14.0075 6.06698 13.1627 6.5135 12.213L7.72175 12.6968C7.81325 12.7333 7.91105 12.7515 8.00957 12.7502C8.10809 12.7489 8.20539 12.7283 8.29593 12.6894C8.38647 12.6506 8.46846 12.5943 8.53724 12.5237C8.60601 12.4532 8.66021 12.3698 8.69675 12.2783C8.73329 12.1868 8.75146 12.089 8.7502 11.9904C8.74894 11.8919 8.7283 11.7946 8.68943 11.7041C8.65057 11.6135 8.59426 11.5315 8.52371 11.4628C8.45316 11.394 8.36975 11.3398 8.27825 11.3033L7.02875 10.8038C7.17512 10.2136 7.24941 9.60798 7.25 9C7.24911 8.39327 7.17482 7.78888 7.02875 7.2L8.27825 6.7005C8.46304 6.6267 8.61095 6.48252 8.68943 6.29967C8.76792 6.11683 8.77055 5.91029 8.69675 5.7255C8.62296 5.54071 8.47878 5.39281 8.29593 5.31432C8.11308 5.23584 7.90654 5.2332 7.72175 5.307L6.5135 5.79075C6.06743 4.83974 5.4257 3.99356 4.63025 3.3075C5.98475 2.14141 7.71271 1.50007 9.5 1.50007C11.2873 1.50007 13.0153 2.14141 14.3698 3.3075C13.5747 3.99247 12.933 4.83734 12.4865 5.787L11.2783 5.30325C11.1868 5.26671 11.089 5.24855 10.9904 5.24981C10.8919 5.25106 10.7946 5.27171 10.7041 5.31057C10.6135 5.34943 10.5315 5.40575 10.4628 5.4763C10.394 5.54685 10.3398 5.63025 10.3033 5.72175C10.2667 5.81325 10.2486 5.91105 10.2498 6.00957C10.2511 6.10808 10.2717 6.20539 10.3106 6.29592C10.3494 6.38646 10.4057 6.46846 10.4763 6.53723C10.5469 6.60601 10.6303 6.66021 10.7218 6.69675L11.975 7.2C11.68 8.38441 11.68 9.62309 11.975 10.8075L10.7255 11.307C10.5407 11.3808 10.3928 11.525 10.3143 11.7078C10.2358 11.8907 10.2332 12.0972 10.307 12.282C10.3808 12.4668 10.525 12.6147 10.7078 12.6932C10.8907 12.7717 11.0972 12.7743 11.282 12.7005L12.4903 12.2168C12.9368 13.1664 13.5785 14.0113 14.3735 14.6963C13.019 15.8623 11.291 16.5037 9.50375 16.5037C7.71646 16.5037 5.9885 15.8623 4.634 14.6963L4.63025 14.6925Z" fill="#A2A2A2"/>
</g>
<defs>
<clipPath id="clip0_1323_2373">
<rect width="18" height="18" fill="white" transform="translate(0.5)"/>
</clipPath>
</defs>
</svg>
