<svg width="21" height="22" viewBox="0 0 21 22" fill="none" xmlns="http://www.w3.org/2000/svg">
<path d="M10.5 21C11.8135 21.0016 13.1143 20.7437 14.3278 20.2411C15.5412 19.7384 16.6434 19.0009 17.571 18.071C18.5009 17.1434 19.2384 16.0412 19.7411 14.8278C20.2437 13.6143 20.5016 12.3135 20.5 11C20.5016 9.68655 20.2437 8.38572 19.7411 7.17225C19.2384 5.95878 18.5009 4.85659 17.571 3.92901C16.6434 2.99909 15.5412 2.26162 14.3278 1.75897C13.1143 1.25631 11.8135 0.998388 10.5 1.00001C9.18655 0.998388 7.88572 1.25631 6.67225 1.75897C5.45878 2.26162 4.35659 2.99909 3.42901 3.92901C2.49909 4.85659 1.76162 5.95878 1.25897 7.17225C0.756313 8.38572 0.498388 9.68655 0.500008 11C0.498388 12.3135 0.756313 13.6143 1.25897 14.8278C1.76162 16.0412 2.49909 17.1434 3.42901 18.071C4.35659 19.0009 5.45878 19.7384 6.67225 20.2411C7.88572 20.7437 9.18655 21.0016 10.5 21Z" stroke="#2AA966" stroke-linejoin="round"/>
<path d="M6.5 11L9.5 14L15.5 8" stroke="#2AA966" stroke-linecap="round" stroke-linejoin="round"/>
</svg>
