<svg width="21" height="20" viewBox="0 0 21 20" fill="none" xmlns="http://www.w3.org/2000/svg">
<path d="M10.5996 0C13.2518 0 15.7953 1.05357 17.6707 2.92893C19.546 4.8043 20.5996 7.34784 20.5996 10C20.5996 12.6522 19.546 15.1957 17.6707 17.0711C15.7953 18.9464 13.2518 20 10.5996 20C7.94744 20 5.40391 18.9464 3.52854 17.0711C1.65318 15.1957 0.599609 12.6522 0.599609 10C0.599609 7.34784 1.65318 4.8043 3.52854 2.92893C5.40391 1.05357 7.94744 0 10.5996 0ZM10.5996 1.25C9.45054 1.25 8.31273 1.47633 7.25113 1.91605C6.18953 2.35578 5.22494 3.0003 4.41243 3.81282C3.59991 4.62533 2.95539 5.58992 2.51566 6.65152C2.07593 7.71312 1.84961 8.85093 1.84961 10C1.84961 11.1491 2.07593 12.2869 2.51566 13.3485C2.95539 14.4101 3.59991 15.3747 4.41243 16.1872C5.22494 16.9997 6.18953 17.6442 7.25113 18.0839C8.31273 18.5237 9.45054 18.75 10.5996 18.75C12.9203 18.75 15.1459 17.8281 16.7868 16.1872C18.4277 14.5462 19.3496 12.3206 19.3496 10C19.3496 7.67936 18.4277 5.45376 16.7868 3.81282C15.1459 2.17187 12.9203 1.25 10.5996 1.25ZM10.5996 13.125C10.8483 13.125 11.0867 13.2238 11.2625 13.3996C11.4383 13.5754 11.5371 13.8139 11.5371 14.0625C11.5371 14.3111 11.4383 14.5496 11.2625 14.7254C11.0867 14.9012 10.8483 15 10.5996 15C10.351 15 10.1125 14.9012 9.9367 14.7254C9.76088 14.5496 9.66211 14.3111 9.66211 14.0625C9.66211 13.8139 9.76088 13.5754 9.9367 13.3996C10.1125 13.2238 10.351 13.125 10.5996 13.125ZM10.5996 5C10.7459 4.99995 10.8876 5.05121 10.9999 5.14486C11.1123 5.23851 11.1883 5.36861 11.2146 5.5125L11.2246 5.625V11.25C11.2249 11.4062 11.1667 11.5568 11.0615 11.6722C10.9562 11.7876 10.8116 11.8595 10.6561 11.8736C10.5005 11.8877 10.3453 11.8431 10.2211 11.7485C10.0968 11.6539 10.0124 11.5162 9.98461 11.3625L9.97461 11.25V5.625C9.97461 5.45924 10.0405 5.30027 10.1577 5.18306C10.2749 5.06585 10.4338 5 10.5996 5Z" fill="#E46662"/>
</svg>
