<svg width="18" height="18" viewBox="0 0 18 18" fill="none" xmlns="http://www.w3.org/2000/svg">
<rect width="18" height="18" rx="9" fill="#2AA966"/>
<g clip-path="url(#clip0_1344_5350)">
<path d="M13.2998 5.84625L7.54184 11.6038C7.50313 11.6426 7.45712 11.6735 7.40646 11.6945C7.3558 11.7155 7.30149 11.7264 7.24663 11.7264C7.19178 11.7264 7.13746 11.7155 7.0868 11.6945C7.03614 11.6735 6.99013 11.6426 6.95142 11.6038L4.72476 9.375C4.68604 9.33614 4.64004 9.3053 4.58938 9.28426C4.53872 9.26321 4.4844 9.25238 4.42955 9.25238C4.37469 9.25238 4.32038 9.26321 4.26972 9.28426C4.21906 9.3053 4.17305 9.33614 4.13434 9.375C4.09547 9.41372 4.06464 9.45972 4.04359 9.51038C4.02255 9.56104 4.01172 9.61536 4.01172 9.67021C4.01172 9.72507 4.02255 9.77938 4.04359 9.83004C4.06464 9.8807 4.09547 9.92671 4.13434 9.96542L6.36184 12.1925C6.59682 12.427 6.91525 12.5588 7.24726 12.5588C7.57926 12.5588 7.89769 12.427 8.13267 12.1925L13.8902 6.43625C13.929 6.39755 13.9598 6.35157 13.9808 6.30095C14.0018 6.25033 14.0126 6.19606 14.0126 6.14125C14.0126 6.08645 14.0018 6.03218 13.9808 5.98156C13.9598 5.93094 13.929 5.88496 13.8902 5.84625C13.8515 5.80739 13.8055 5.77655 13.7548 5.75551C13.7041 5.73446 13.6498 5.72363 13.595 5.72363C13.5401 5.72363 13.4858 5.73446 13.4351 5.75551C13.3845 5.77655 13.3385 5.80739 13.2998 5.84625Z" fill="white"/>
</g>
<defs>
<clipPath id="clip0_1344_5350">
<rect width="10" height="10" fill="white" transform="translate(4 4)"/>
</clipPath>
</defs>
</svg>
