<svg width="21" height="20" viewBox="0 0 21 20" fill="none" xmlns="http://www.w3.org/2000/svg">
<g clip-path="url(#clip0_2014_5892)">
<path d="M19.6017 1.41671C19.321 1.18149 18.9919 1.01112 18.6379 0.917774C18.2838 0.824429 17.9135 0.810407 17.5533 0.87671L12.4033 1.81254C11.6664 1.94542 10.9958 2.323 10.5 2.88421C10.0046 2.32207 9.33396 1.94359 8.59667 1.81004L3.44667 0.87421C3.08647 0.808803 2.71631 0.8233 2.36234 0.916675C2.00836 1.01005 1.67921 1.18002 1.39815 1.41459C1.11709 1.64915 0.890969 1.94258 0.735772 2.27414C0.580575 2.6057 0.500089 2.96729 0.5 3.33338L0.5 17.3617L10.5 19.1809L20.5 17.3617V3.33338C20.5 2.96756 20.4196 2.60622 20.2643 2.27498C20.1091 1.94374 19.8828 1.65072 19.6017 1.41671V1.41671ZM9.66667 17.3334L2.16667 15.9717V3.33338C2.16677 3.21137 2.19366 3.09087 2.24545 2.9804C2.29723 2.86992 2.37264 2.77217 2.46635 2.69403C2.56006 2.6159 2.66979 2.5593 2.78777 2.52823C2.90576 2.49716 3.02913 2.49237 3.14917 2.51421L8.29833 3.45004C8.68235 3.51991 9.02967 3.72235 9.27973 4.02205C9.52979 4.32176 9.66673 4.69972 9.66667 5.09004V17.3334ZM18.8333 15.97L11.3333 17.3334V5.09004C11.3333 4.69972 11.4702 4.32176 11.7203 4.02205C11.9703 3.72235 12.3176 3.51991 12.7017 3.45004L17.8508 2.51421C17.9709 2.49237 18.0942 2.49716 18.2122 2.52823C18.3302 2.5593 18.4399 2.6159 18.5336 2.69403C18.6274 2.77217 18.7028 2.86992 18.7546 2.9804C18.8063 3.09087 18.8332 3.21137 18.8333 3.33338V15.97Z" fill="#A2A2A2"/>
</g>
<defs>
<clipPath id="clip0_2014_5892">
<rect width="20" height="20" fill="white" transform="translate(0.5)"/>
</clipPath>
</defs>
</svg>
