<svg width="19" height="18" viewBox="0 0 19 18" fill="none" xmlns="http://www.w3.org/2000/svg">
<path fill-rule="evenodd" clip-rule="evenodd" d="M15.9821 0.612084C15.1622 -0.204464 13.8332 -0.203964 13.0139 0.613203L6.67675 6.93459C6.1699 7.44009 5.87192 8.11678 5.84176 8.83076L5.75155 10.9665C5.71047 11.9391 6.49049 12.7499 7.46721 12.7499L9.56852 12.75C10.34 12.75 11.0788 12.4397 11.6175 11.8893L17.9036 5.44684C18.7061 4.62692 18.6977 3.3163 17.8847 2.50671L15.9821 0.612084ZM13.8237 1.41965C14.1961 1.04821 14.8002 1.04799 15.1729 1.41914L17.0755 3.31377C17.445 3.68177 17.4488 4.2775 17.0841 4.65019L15.8216 5.94011L12.5539 2.68607L13.8237 1.41965ZM11.7447 3.49313L7.48658 7.74104C7.18247 8.04434 7.00368 8.45036 6.98559 8.87874L6.89538 11.0145C6.88168 11.3387 7.14169 11.609 7.46726 11.609L9.56857 11.6091C10.0315 11.6091 10.4748 11.4229 10.798 11.0927L15.0222 6.75691L11.7447 3.49313Z" fill="#A2A2A2"/>
<path d="M16.8 9.34971V11.9997C16.8 14.7611 14.5614 16.9997 11.8 16.9997H6.5C3.73858 16.9997 1.5 14.7611 1.5 11.9997V6.69971C1.5 3.93829 3.73858 1.69971 6.5 1.69971H9.15" stroke="#A2A2A2" stroke-width="1.5" stroke-linecap="round"/>
</svg>
