<svg width="29" height="29" viewBox="0 0 29 29" fill="none" xmlns="http://www.w3.org/2000/svg">
<path d="M0.5 14.5C0.5 6.76801 6.76801 0.5 14.5 0.5C22.232 0.5 28.5 6.76801 28.5 14.5C28.5 22.232 22.232 28.5 14.5 28.5C6.76801 28.5 0.5 22.232 0.5 14.5Z" fill="#2AA966"/>
<path fill-rule="evenodd" clip-rule="evenodd" d="M13.7929 6.79289C14.1834 6.40237 14.8166 6.40237 15.2071 6.79289L21.2071 12.7929C21.5976 13.1834 21.5976 13.8166 21.2071 14.2071C20.8166 14.5976 20.1834 14.5976 19.7929 14.2071L15.5 9.91421V21.5C15.5 22.0523 15.0523 22.5 14.5 22.5C13.9477 22.5 13.5 22.0523 13.5 21.5V9.91421L9.20711 14.2071C8.81658 14.5976 8.18342 14.5976 7.79289 14.2071C7.40237 13.8166 7.40237 13.1834 7.79289 12.7929L13.7929 6.79289Z" fill="white"/>
</svg>
