<svg width="34" height="35" viewBox="0 0 34 35" fill="none" xmlns="http://www.w3.org/2000/svg">
<path d="M21.25 17.5C21.25 18.3406 21.0007 19.1623 20.5337 19.8612C20.0667 20.5601 19.403 21.1048 18.6264 21.4265C17.8498 21.7482 16.9953 21.8323 16.1709 21.6683C15.3464 21.5044 14.5892 21.0996 13.9948 20.5052C13.4004 19.9108 12.9956 19.1536 12.8317 18.3291C12.6677 17.5047 12.7518 16.6502 13.0735 15.8736C13.3952 15.097 13.9399 14.4333 14.6388 13.9663C15.3377 13.4993 16.1594 13.25 17 13.25C18.1261 13.2535 19.2051 13.7024 20.0013 14.4987C20.7976 15.2949 21.2465 16.3739 21.25 17.5ZM30.2812 11.6562V23.3438C30.2812 25.3163 29.4977 27.2081 28.1029 28.6029C26.7081 29.9977 24.8163 30.7812 22.8438 30.7812H11.1562C9.1837 30.7812 7.29194 29.9977 5.89714 28.6029C4.50234 27.2081 3.71875 25.3163 3.71875 23.3438V11.6562C3.71875 9.6837 4.50234 7.79194 5.89714 6.39714C7.29194 5.00234 9.1837 4.21875 11.1562 4.21875H22.8438C24.8163 4.21875 26.7081 5.00234 28.1029 6.39714C29.4977 7.79194 30.2812 9.6837 30.2812 11.6562ZM23.375 17.5C23.375 16.2391 23.0011 15.0066 22.3006 13.9582C21.6001 12.9099 20.6045 12.0928 19.4396 11.6103C18.2747 11.1278 16.9929 11.0015 15.7563 11.2475C14.5197 11.4935 13.3838 12.1006 12.4922 12.9922C11.6006 13.8838 10.9935 15.0197 10.7475 16.2563C10.5015 17.4929 10.6278 18.7747 11.1103 19.9396C11.5928 21.1045 12.4099 22.1001 13.4582 22.8006C14.5066 23.5011 15.7391 23.875 17 23.875C18.6908 23.875 20.3123 23.2034 21.5078 22.0078C22.7034 20.8123 23.375 19.1908 23.375 17.5ZM25.5 10.5938C25.5 10.2785 25.4065 9.9704 25.2314 9.70831C25.0563 9.44622 24.8074 9.24194 24.5162 9.12132C24.2249 9.00069 23.9045 8.96913 23.5953 9.03062C23.2862 9.09212 23.0022 9.24391 22.7793 9.4668C22.5564 9.68969 22.4046 9.97367 22.3431 10.2828C22.2816 10.592 22.3132 10.9124 22.4338 11.2037C22.5544 11.4949 22.7587 11.7438 23.0208 11.9189C23.2829 12.094 23.591 12.1875 23.9062 12.1875C24.3289 12.1875 24.7343 12.0196 25.0332 11.7207C25.3321 11.4218 25.5 11.0164 25.5 10.5938Z" fill="#707070"/>
</svg>
