<svg width="18" height="18" viewBox="0 0 18 18" fill="none" xmlns="http://www.w3.org/2000/svg">
<path d="M9 3C10.65 3 12 4.35 12 6C12 7.575 10.425 10.125 9 11.925C7.575 10.05 6 7.575 6 6C6 4.35 7.35 3 9 3ZM9 1.5C6.525 1.5 4.5 3.525 4.5 6C4.5 9.375 9 14.25 9 14.25C9 14.25 13.5 9.3 13.5 6C13.5 3.525 11.475 1.5 9 1.5ZM9 4.5C8.175 4.5 7.5 5.175 7.5 6C7.5 6.825 8.175 7.5 9 7.5C9.825 7.5 10.5 6.825 10.5 6C10.5 5.175 9.825 4.5 9 4.5ZM15 14.25C15 15.9 12.3 17.25 9 17.25C5.7 17.25 3 15.9 3 14.25C3 13.275 3.9 12.45 5.325 11.85L5.775 12.525C5.025 12.9 4.5 13.35 4.5 13.875C4.5 14.925 6.525 15.75 9 15.75C11.475 15.75 13.5 14.925 13.5 13.875C13.5 13.35 12.975 12.9 12.15 12.525L12.6 11.85C14.1 12.45 15 13.275 15 14.25Z" fill="#242424"/>
</svg>
