<svg width="12" height="12" viewBox="0 0 12 12" fill="none" xmlns="http://www.w3.org/2000/svg">
<path d="M6 2C7.1 2 8 2.9 8 4C8 5.05 6.95 6.75 6 7.95C5.05 6.7 4 5.05 4 4C4 2.9 4.9 2 6 2ZM6 1C4.35 1 3 2.35 3 4C3 6.25 6 9.5 6 9.5C6 9.5 9 6.2 9 4C9 2.35 7.65 1 6 1ZM6 3C5.45 3 5 3.45 5 4C5 4.55 5.45 5 6 5C6.55 5 7 4.55 7 4C7 3.45 6.55 3 6 3ZM10 9.5C10 10.6 8.2 11.5 6 11.5C3.8 11.5 2 10.6 2 9.5C2 8.85 2.6 8.3 3.55 7.9L3.85 8.35C3.35 8.6 3 8.9 3 9.25C3 9.95 4.35 10.5 6 10.5C7.65 10.5 9 9.95 9 9.25C9 8.9 8.65 8.6 8.1 8.35L8.4 7.9C9.4 8.3 10 8.85 10 9.5Z" fill="white"/>
</svg>
