<svg width="46" height="34" viewBox="0 0 46 34" fill="none" xmlns="http://www.w3.org/2000/svg">
<path d="M23.1071 0.03125C13.768 0.03125 6.19629 7.54301 6.19629 16.8099C6.19629 26.0758 13.768 33.588 23.1071 33.588C32.4468 33.588 40.0185 26.0763 40.0185 16.8099C40.0185 7.54301 32.4468 0.03125 23.1071 0.03125Z" fill="#570514"/>
<path d="M23.1066 32.9737C14.1087 32.9737 6.81445 25.7376 6.81445 16.8093C6.81445 7.88256 14.1087 0.64502 23.1066 0.64502C32.1055 0.64502 39.3998 7.88256 39.3998 16.8093C39.3998 25.7381 32.1055 32.9737 23.1066 32.9737Z" fill="#7D0521"/>
<path d="M12.2475 9.45741L10.6034 8.22147L10.8961 7.83893L11.5536 8.33321L11.557 8.32833L11.1149 7.55202L11.4139 7.1607L11.8733 8.05411L13.0742 8.3742L12.7654 8.77918L12.0321 8.55961L12.1334 8.76942L12.5386 9.07438L12.2475 9.45741ZM13.5901 7.83064L12.1221 6.39415L12.4614 6.05162L13.9294 7.48859L13.5901 7.83064ZM15.2484 5.60955L15.2534 5.60663L14.5107 4.36532L14.8791 4.09452L15.8347 5.93891L15.3984 6.26095L14.4119 5.19383L14.408 5.19725L15.1471 6.44636L14.7163 6.7645L13.208 5.3285L13.5827 5.05184L14.5649 6.11847V6.11018L13.8596 4.84691L14.2353 4.56879L15.2484 5.60955ZM16.8104 3.74369C16.7963 3.71519 16.7808 3.68735 16.7642 3.66025C16.749 3.63355 16.7294 3.60961 16.7061 3.5895C16.6854 3.57029 16.6594 3.55771 16.6314 3.5534C16.5983 3.54868 16.5646 3.55485 16.5355 3.57096C16.5069 3.58276 16.4829 3.60325 16.4669 3.62948C16.4509 3.65571 16.4438 3.68631 16.4465 3.71685C16.4475 3.74757 16.4536 3.77791 16.4646 3.80663C16.4764 3.83591 16.4883 3.86665 16.5025 3.89446L16.8773 4.64783C16.8896 4.67321 16.9058 4.70102 16.925 4.73078C16.9432 4.76006 16.9643 4.78494 16.9879 4.80593C17.0106 4.82657 17.0385 4.84073 17.0686 4.84691C17.1014 4.85342 17.1356 4.84824 17.165 4.83227C17.1955 4.81892 17.2203 4.79522 17.2348 4.76543C17.2466 4.73825 17.2512 4.7085 17.2481 4.67906C17.2447 4.64641 17.2368 4.61439 17.2245 4.58391C17.2122 4.55427 17.1991 4.52498 17.1851 4.49609L16.8104 3.74369ZM17.6007 4.24724C17.6523 4.34971 17.6872 4.44632 17.7069 4.53414C17.7266 4.62295 17.7261 4.70492 17.7069 4.77958C17.6846 4.85756 17.6427 4.92861 17.585 4.98597C17.525 5.04989 17.4394 5.10845 17.3292 5.16212C17.2191 5.21579 17.1202 5.24751 17.0322 5.25727C16.9437 5.26702 16.8635 5.25726 16.7912 5.22896C16.7136 5.19642 16.6451 5.14569 16.5915 5.08112C16.5256 5.00234 16.4696 4.91581 16.4248 4.82349L16.054 4.07793C15.9655 3.89934 15.9493 3.73881 16.0038 3.59487C16.0594 3.4519 16.1829 3.33334 16.3727 3.24014C16.563 3.14646 16.7317 3.12304 16.8782 3.16695C17.0248 3.21282 17.1414 3.32407 17.2294 3.50167L17.6007 4.24724ZM18.9708 2.92006C18.961 2.89078 18.9512 2.86004 18.9384 2.82979C18.9276 2.80154 18.9123 2.77518 18.8931 2.75172C18.8749 2.72975 18.8511 2.71292 18.8243 2.70292C18.792 2.69317 18.7573 2.69455 18.7259 2.70683C18.6945 2.71489 18.6664 2.73266 18.6458 2.75757C18.6297 2.78081 18.6195 2.80762 18.6162 2.83564C18.6123 2.86618 18.6133 2.89714 18.6192 2.92737C18.6256 2.96007 18.634 2.99081 18.6423 3.02008L18.8917 3.82274C18.9005 3.85104 18.9123 3.8808 18.9261 3.913C18.9385 3.94287 18.9553 3.97081 18.9758 3.99595C18.9959 4.02133 19.0205 4.03938 19.049 4.0506C19.0805 4.06202 19.115 4.06202 19.1464 4.0506C19.1788 4.04271 19.2073 4.02348 19.2266 3.99644C19.2425 3.97132 19.2518 3.94262 19.2536 3.913C19.2549 3.88007 19.2519 3.84711 19.2448 3.81493C19.238 3.78368 19.2298 3.75274 19.2202 3.72222L18.9708 2.92006ZM19.6702 3.54266C19.7046 3.65147 19.7243 3.75247 19.7292 3.84225C19.7341 3.93398 19.7203 4.01401 19.6893 4.08427C19.6553 4.15795 19.6028 4.22178 19.5369 4.26968C19.4515 4.32956 19.3563 4.37445 19.2556 4.4024C19.1563 4.43573 19.052 4.45174 18.9472 4.44973C18.865 4.44679 18.7848 4.42384 18.7136 4.38288C18.6422 4.33858 18.5828 4.2776 18.5405 4.20528C18.4879 4.11758 18.4465 4.02364 18.4176 3.92569L18.1707 3.13036C18.1117 2.94055 18.1215 2.78002 18.1982 2.6473C18.2764 2.51361 18.4166 2.41553 18.6192 2.35356C18.8223 2.2916 18.993 2.29452 19.1297 2.36186C19.2674 2.42968 19.3648 2.55801 19.4238 2.74733L19.6702 3.54266ZM20.6346 3.97887L20.3946 1.94711L21.0718 1.86807L21.4623 3.04009L21.4672 3.03862L21.5828 1.80903L22.2545 1.73096L22.4945 3.76223L22.0357 3.8159L21.8965 2.21694L21.8916 2.21792L21.7406 3.85055L21.3831 3.89202L20.8642 2.33746H20.8593L21.0905 3.92569L20.6346 3.97887ZM24.5601 3.84518L24.8866 1.82513L25.3647 1.90125L25.2393 2.67658L25.5707 2.72976L25.6956 1.95394L26.1737 2.02957L25.8471 4.04963L25.3691 3.97351L25.5048 3.1328L25.1738 3.08059L25.0376 3.92081L24.5601 3.84518ZM26.6232 4.2409L27.2576 2.29599L28.312 2.63413L28.1841 3.0235L27.5905 2.83223L27.474 3.19086L28.0494 3.37579L27.922 3.76418L27.3466 3.57926L27.2099 3.99986L27.8345 4.20089L27.7086 4.59026L26.6232 4.2409ZM29.4008 4.04816L29.5474 4.12135C29.5741 4.13635 29.6048 4.14314 29.6354 4.14087C29.6618 4.13818 29.687 4.12877 29.7087 4.11354C29.7326 4.09691 29.7533 4.07607 29.7697 4.05206C29.7875 4.02697 29.8032 4.00054 29.8169 3.97302C29.8406 3.93108 29.8568 3.88534 29.8646 3.83786C29.8701 3.80467 29.8631 3.77061 29.8449 3.74223C29.8242 3.71161 29.7962 3.68661 29.7633 3.66952C29.7193 3.64454 29.6743 3.62126 29.6285 3.59975L29.4008 4.04816ZM28.8662 5.09771L28.4344 4.88107L29.3639 3.05521L29.9939 3.37042C30.1729 3.45971 30.2861 3.56462 30.3343 3.68563C30.3829 3.80761 30.3603 3.95887 30.2684 4.14038C30.2182 4.23797 30.1602 4.3136 30.0943 4.36727C30.0269 4.42192 29.9389 4.44632 29.8277 4.44193L29.8257 4.44729C29.8769 4.48687 29.9149 4.54074 29.9349 4.60197C29.9527 4.66453 29.9473 4.73137 29.9197 4.79031L29.8582 4.93084L29.7825 5.09771L29.7107 5.26019C29.6923 5.30138 29.6769 5.34377 29.6644 5.38706C29.6619 5.4156 29.6655 5.44434 29.6748 5.47147L29.662 5.49587L29.1898 5.2597C29.1938 5.23872 29.1962 5.21872 29.2012 5.1992C29.2059 5.17989 29.2122 5.16096 29.2198 5.1426C29.2572 5.05965 29.2961 4.98256 29.3339 4.91132C29.3718 4.84008 29.4028 4.7747 29.4249 4.7137C29.4454 4.6642 29.4554 4.61106 29.4544 4.55757C29.451 4.51365 29.4249 4.47657 29.3757 4.44827L29.2331 4.37703L28.8662 5.09771ZM31.79 5.17041C31.8082 5.14455 31.8259 5.11869 31.8426 5.09039C31.859 5.06465 31.8711 5.03649 31.8785 5.00695C31.8849 4.97956 31.8841 4.95097 31.876 4.924C31.8645 4.89252 31.8429 4.86563 31.8145 4.8474C31.7889 4.82741 31.7576 4.81596 31.725 4.81471C31.6962 4.81588 31.6681 4.82373 31.6429 4.83764C31.6168 4.85381 31.5932 4.87351 31.5726 4.89619C31.55 4.92059 31.5298 4.94499 31.5116 4.96987L31.0154 5.65103C30.9987 5.67445 30.981 5.70177 30.9633 5.73203C30.9463 5.76025 30.9337 5.79084 30.9259 5.82278C30.9185 5.85233 30.919 5.88327 30.9274 5.91256C30.9372 5.94452 30.9581 5.97201 30.9864 5.99014C31.012 6.01076 31.0443 6.0215 31.0773 6.0204C31.1073 6.01783 31.136 6.00776 31.161 5.99112C31.1887 5.97332 31.2136 5.95144 31.2347 5.92622C31.2569 5.89939 31.277 5.87499 31.2937 5.85059L31.79 5.17041ZM31.7098 6.09895C31.6419 6.19166 31.5731 6.26778 31.5032 6.32682C31.4406 6.38142 31.3658 6.42039 31.2849 6.44051C31.2051 6.45803 31.122 6.45467 31.0439 6.43075C30.9443 6.39965 30.851 6.35161 30.768 6.28876C30.6817 6.2294 30.6059 6.15618 30.5438 6.07212C30.4963 6.00521 30.4667 5.9275 30.4577 5.8462C30.4493 5.7696 30.4626 5.68811 30.4946 5.60321C30.529 5.51782 30.5801 5.42902 30.647 5.33631L31.1388 4.66198C31.2559 4.50097 31.3906 4.41167 31.5446 4.39362C31.699 4.37508 31.8618 4.42777 32.0339 4.55122C32.2065 4.67467 32.3063 4.81129 32.3349 4.96011C32.3634 5.10893 32.3186 5.26458 32.2011 5.42511L31.7098 6.09895ZM31.9277 7.14362L33.3755 5.68665L34.1643 6.45856L33.8752 6.74986L33.4306 6.31462L33.164 6.58299L33.5953 7.00407L33.3052 7.29586L32.8749 6.87428L32.5616 7.189L33.0293 7.64668L32.7406 7.93847L31.9277 7.14362ZM34.036 8.41323L33.9199 8.50008C33.8974 8.51682 33.8768 8.53596 33.8584 8.55717C33.8407 8.57604 33.8273 8.59851 33.8191 8.62304C33.8109 8.64778 33.8097 8.67429 33.8157 8.69965C33.8228 8.73129 33.8373 8.76086 33.858 8.78601C33.8924 8.82993 33.9332 8.85042 33.9829 8.84554C34.032 8.84066 34.0778 8.82261 34.1196 8.7904C34.1518 8.7684 34.1777 8.73847 34.1948 8.70355C34.21 8.67258 34.2197 8.63923 34.2234 8.60499C34.227 8.56957 34.2261 8.53384 34.2209 8.49862C34.217 8.46192 34.2137 8.42516 34.2111 8.38835C34.2 8.30967 34.1925 8.23055 34.1884 8.15121C34.1848 8.07983 34.1907 8.00829 34.2061 7.93847C34.2224 7.87113 34.2489 7.80868 34.2853 7.75013C34.3227 7.69157 34.3773 7.63546 34.4515 7.58081C34.6065 7.46517 34.755 7.41979 34.8991 7.44761C35.0422 7.47444 35.171 7.56325 35.2842 7.71255C35.3471 7.7955 35.3894 7.87845 35.411 7.9614C35.4327 8.04435 35.4346 8.1234 35.4179 8.19951C35.4017 8.27612 35.3688 8.34785 35.3176 8.41616C35.2621 8.48727 35.1949 8.54863 35.1189 8.59767L34.8519 8.2444L34.9237 8.18341C34.9489 8.16358 34.9711 8.14025 34.9896 8.11413C35.0069 8.09065 35.0176 8.06303 35.0206 8.0341C35.0216 8.00107 35.012 7.96857 34.993 7.9414C34.966 7.89943 34.934 7.87455 34.8971 7.86723C34.8572 7.85997 34.816 7.86818 34.782 7.89016C34.7279 7.9209 34.6945 7.95945 34.6827 8.00385C34.6702 8.05342 34.6652 8.10457 34.6679 8.1556C34.6758 8.26392 34.6876 8.36053 34.6994 8.44543C34.7122 8.53082 34.7142 8.61133 34.7063 8.68745C34.6977 8.76493 34.6727 8.83975 34.633 8.90702C34.5922 8.97533 34.5214 9.04755 34.4211 9.12318C34.2612 9.24223 34.1073 9.29151 33.9593 9.27053C33.8112 9.24858 33.676 9.15782 33.5555 8.99729C33.4957 8.92236 33.4491 8.83788 33.4178 8.74747C33.393 8.67503 33.3841 8.59817 33.3917 8.52204C33.3988 8.45537 33.421 8.39115 33.4567 8.33419C33.4926 8.27807 33.5373 8.22977 33.5914 8.18927L33.767 8.05753L34.036 8.41323ZM11.0323 23.7739C11.1488 23.7095 11.2565 23.6358 11.1808 23.5056C11.1351 23.425 11.0726 23.3924 10.9856 23.4407C10.8872 23.4963 10.8843 23.5792 10.8798 23.6812C10.8749 23.7886 10.8621 23.9881 10.8341 24.0911C10.8007 24.2184 10.7372 24.2887 10.6261 24.3516C10.3816 24.4897 10.1628 24.4004 10.0285 24.1662C9.86428 23.8798 9.96756 23.6861 10.1977 23.5563L10.2921 23.5026L10.4289 23.7417L10.3531 23.7842C10.2252 23.85 10.1554 23.9388 10.2228 24.0574C10.2808 24.1574 10.3615 24.1745 10.4589 24.1208C10.5356 24.0769 10.5671 24.014 10.5749 23.9281C10.601 23.7476 10.5828 23.5529 10.6561 23.3836C10.6912 23.3107 10.7478 23.2501 10.8184 23.2099C11.0392 23.0864 11.2295 23.1406 11.3741 23.3933C11.5924 23.7739 11.291 23.931 11.1646 24.0042L11.0323 23.7739ZM10.538 24.9376L11.7601 24.1033L12.2018 24.7391L12.0233 24.8625L11.738 24.4517L11.4301 24.6615L11.6923 25.0401L11.5133 25.1626L11.2511 24.7835L10.8744 25.0416L11.1597 25.4514L10.9806 25.5734L10.538 24.9376ZM11.829 25.8315C11.7341 25.9101 11.587 26.0443 11.708 26.1887C11.8344 26.34 11.9928 26.2131 12.1024 26.1228L12.395 25.8813C12.486 25.8067 12.6926 25.6447 12.5613 25.4875C12.4221 25.3217 12.2342 25.4993 12.1457 25.5715L11.829 25.8315ZM11.9165 25.3934C12.2151 25.1626 12.4506 25.0074 12.7329 25.3456C13.0167 25.6837 12.8185 25.8847 12.5352 26.1336L12.3729 26.2673C12.068 26.5176 11.8265 26.6781 11.5369 26.3307C11.2457 25.9838 11.4488 25.7774 11.7533 25.5271L11.9165 25.3934ZM13.7347 26.4678L13.9319 26.662L13.2041 27.391C12.9729 27.6228 12.787 27.6584 12.5293 27.4051C12.2687 27.1504 12.3031 26.9665 12.5342 26.7342L13.2621 26.0043L13.4598 26.1975L12.7482 26.9099C12.6478 27.0109 12.5544 27.1173 12.6887 27.2495C12.816 27.3754 12.9237 27.2812 13.024 27.1812L13.7347 26.4678ZM13.2768 28.0516L14.2231 26.9177L14.4355 27.0933L13.629 28.0604L14.0249 28.3859L13.8872 28.5518L13.2768 28.0516ZM14.8368 29.2315L15.6163 27.9794L15.8514 28.1234L15.543 28.6196L15.873 28.8211L16.1814 28.3254L16.4174 28.4693L15.6379 29.7228L15.4019 29.5774L15.7584 29.0056L15.4289 28.8036L15.0719 29.3759L14.8368 29.2315ZM16.087 29.9648L16.7499 28.6484L17.4473 28.9938L17.3504 29.1876L16.9014 28.9641L16.7332 29.2959L17.1478 29.5018L17.0504 29.695L16.6363 29.4896L16.4322 29.8956L16.8817 30.1181L16.7838 30.3113L16.087 29.9648ZM17.7772 29.8087L17.9809 29.8877C18.0674 29.9151 18.1554 29.8853 18.2091 29.7482C18.2695 29.5945 18.2154 29.5438 18.1186 29.5047L17.9268 29.431L17.7772 29.8087ZM17.6986 30.0097L17.4664 30.6011L17.2083 30.5001L17.7477 29.1295L18.2361 29.3198C18.4594 29.4047 18.599 29.5472 18.4992 29.7999C18.4402 29.9492 18.3394 30.0917 18.1569 30.0488L18.1554 30.0522C18.3 30.1317 18.3089 30.2464 18.2563 30.3776C18.2341 30.4347 18.0945 30.768 18.1412 30.8329L18.1313 30.8578L17.8471 30.748C17.8505 30.648 17.9223 30.4821 17.9563 30.3903C17.9882 30.3049 18.035 30.1908 17.9563 30.1303C17.8938 30.0839 17.8181 30.0561 17.7443 30.0278L17.6986 30.0097ZM18.9885 30.5943C18.9546 30.7114 18.9099 30.9051 19.0928 30.9554C19.2841 31.0085 19.3402 30.8148 19.379 30.6787L19.4823 30.3157C19.5143 30.203 19.591 29.9526 19.3933 29.8985C19.1838 29.839 19.1307 30.0912 19.0997 30.201L18.9885 30.5943ZM18.809 30.1834C18.9226 29.8248 19.0274 29.5647 19.4543 29.6853C19.8802 29.8033 19.833 30.08 19.7415 30.4435L19.6844 30.6455C19.5777 31.0232 19.4705 31.2915 19.0328 31.1691C18.5941 31.0471 18.6443 30.7631 18.7515 30.385L18.809 30.1834ZM19.9957 31.372L20.2652 29.9243L21.0324 30.0649L20.9926 30.2766L20.4984 30.1859L20.43 30.5513L20.8854 30.6353L20.8461 30.847L20.3916 30.7641L20.308 31.2096L20.8023 31.3003L20.7629 31.5121L19.9957 31.372ZM21.8877 30.6118C21.9024 30.4821 21.9034 30.3513 21.7514 30.3367C21.6595 30.3288 21.5965 30.3596 21.5867 30.4586C21.5759 30.5699 21.6423 30.6206 21.7239 30.6831C21.809 30.748 21.9649 30.8739 22.0347 30.9554C22.1203 31.0564 22.1419 31.1461 22.1291 31.2745C22.1021 31.5516 21.9029 31.678 21.6334 31.6526C21.3024 31.6204 21.2021 31.4257 21.2277 31.1637L21.2385 31.0564L21.5139 31.0822L21.5055 31.1691C21.4859 31.3106 21.5193 31.4194 21.6546 31.4316C21.7706 31.4428 21.8321 31.3877 21.8429 31.2759C21.8513 31.1905 21.8173 31.1276 21.7514 31.0725C21.6187 30.9466 21.4475 30.85 21.3492 30.6924C21.3103 30.6217 21.2932 30.5413 21.3 30.4611C21.3246 30.2103 21.48 30.0878 21.7711 30.1156C22.2103 30.1586 22.1655 30.4933 22.1532 30.6372L21.8877 30.6118ZM23.6144 31.4638C23.6724 31.4618 23.7314 31.4648 23.7801 31.4413C23.8539 31.4057 23.8598 31.3091 23.8563 31.2335C23.8504 31.0749 23.817 31.009 23.6449 31.0163L23.5372 31.0207L23.5549 31.4662L23.6144 31.4638ZM23.5799 30.8026C23.6473 30.8007 23.7339 30.8007 23.7757 30.7441C23.8003 30.706 23.8017 30.6538 23.7988 30.5831C23.7949 30.4733 23.7693 30.4201 23.6424 30.4215L23.5145 30.4264L23.5283 30.8046L23.5799 30.8026ZM23.2868 31.6921L23.2283 30.221L23.6749 30.2034C23.7944 30.1986 23.9109 30.202 23.9945 30.2991C24.0604 30.3776 24.0732 30.4611 24.0776 30.5611C24.0826 30.688 24.0604 30.8153 23.9119 30.8758V30.8802C24.0688 30.8953 24.1337 31.0227 24.1411 31.213C24.143 31.2745 24.1425 31.335 24.1283 31.3935C24.0766 31.5828 23.9724 31.6653 23.7752 31.6736L23.2868 31.6921ZM24.862 30.9944L25.0976 30.9641L24.9697 30.5591C24.9471 30.4928 24.9319 30.4274 24.9152 30.3601C24.9087 30.3278 24.901 30.2957 24.892 30.2639L24.8886 30.2649C24.8886 30.2962 24.8886 30.3298 24.8916 30.3635C24.892 30.4318 24.895 30.4991 24.8901 30.5694L24.862 30.9944ZM24.5281 31.6316L24.6889 30.1264L25.0593 30.0785L25.584 31.496L25.2889 31.5331L25.1684 31.173L24.8468 31.214L24.8232 31.5936L24.5281 31.6316ZM26.3094 30.2986C26.2828 30.1698 26.242 30.0463 26.0935 30.0785C26.003 30.0985 25.9533 30.1478 25.9755 30.2454C25.9996 30.3547 26.0787 30.382 26.1756 30.4167C26.2764 30.4523 26.4658 30.524 26.5573 30.5796C26.6699 30.6494 26.7186 30.7294 26.7461 30.8539C26.8071 31.1261 26.6576 31.3076 26.393 31.3662C26.0679 31.4379 25.912 31.2832 25.8545 31.0266L25.8309 30.9202L26.1014 30.8617L26.1201 30.9461C26.1461 31.0866 26.211 31.1783 26.3443 31.1496C26.4584 31.1242 26.4987 31.0534 26.4746 30.9432C26.4564 30.8602 26.4043 30.8099 26.3241 30.7777C26.1579 30.6997 25.9651 30.6606 25.822 30.5406C25.7632 30.4852 25.722 30.414 25.7035 30.3357C25.6494 30.0907 25.7576 29.9258 26.0428 29.8624C26.4737 29.7672 26.5361 30.0995 26.57 30.2405L26.3094 30.2986ZM27.2856 31.1071L26.8381 29.7033L27.5797 29.4701L27.6461 29.6765L27.1671 29.8272L27.2797 30.1805L27.7213 30.041L27.7872 30.2478L27.3456 30.3864L27.4833 30.8187L27.9633 30.668L28.0287 30.8739L27.2856 31.1071ZM28.6916 30.3898C28.7443 30.3674 28.8013 30.3508 28.8382 30.3118C28.8948 30.2527 28.8667 30.159 28.8382 30.0912C28.7767 29.9439 28.7216 29.8951 28.5628 29.96L28.4635 30.0005L28.6366 30.4118L28.6916 30.3898ZM28.4285 29.7814C28.4905 29.7565 28.5721 29.7277 28.5908 29.6594C28.6007 29.6155 28.5849 29.5662 28.5574 29.5008C28.5151 29.3983 28.4718 29.3579 28.3533 29.4023L28.2348 29.452L28.3808 29.8014L28.4285 29.7814ZM28.4635 30.7172L27.8949 29.3579L28.308 29.1876C28.4177 29.1417 28.5289 29.1046 28.6405 29.1676C28.729 29.2183 28.7713 29.292 28.8107 29.3837C28.8598 29.5018 28.883 29.6291 28.7654 29.736L28.7669 29.7394C28.9198 29.7004 29.0236 29.798 29.0984 29.9731C29.122 30.0292 29.1416 30.0878 29.1495 30.1468C29.1672 30.3425 29.0989 30.4557 28.9159 30.5318L28.4635 30.7172ZM29.6949 29.5213L29.9049 29.411L29.6423 29.0768C29.598 29.0222 29.5621 28.9646 29.5223 28.9085C29.5051 28.8802 29.4854 28.8519 29.4682 28.8265L29.4643 28.828C29.4751 28.8572 29.4879 28.8889 29.5012 28.9192C29.5262 28.9836 29.5528 29.0461 29.573 29.1124L29.6949 29.5213ZM29.6054 30.2332L29.2287 28.7665L29.5597 28.5937L30.5467 29.7423L30.2841 29.878L30.0446 29.5823L29.7574 29.7331L29.867 30.0961L29.6054 30.2332ZM30.8934 29.5325L30.0908 28.2946L30.3239 28.1453L31.0075 29.2032L31.4408 28.9275L31.5588 29.109L30.8934 29.5325ZM31.9227 28.8519L31.0218 27.6828L31.2416 27.5154L32.0103 28.5147L32.4195 28.2039L32.5508 28.3751L31.9227 28.8519ZM33.675 26.624C33.6927 26.6454 33.7134 26.6669 33.7306 26.6874C33.913 26.8865 33.9962 27.0972 33.7783 27.3129C33.4562 27.6335 33.2309 27.452 32.9516 27.1743L32.8011 27.026C32.5419 26.7528 32.3639 26.5351 32.6762 26.2238C32.8547 26.0521 33.0421 26.0443 33.2353 26.2077C33.2653 26.2306 33.2934 26.2557 33.3194 26.2829L33.1262 26.4746C33.0509 26.4161 32.9319 26.2843 32.835 26.381C32.6816 26.5337 32.8778 26.703 32.958 26.783L33.2501 27.0714C33.3362 27.1568 33.4857 27.29 33.6199 27.1563C33.7276 27.0489 33.5412 26.8909 33.4778 26.8196L33.675 26.624ZM34.364 26.6474L33.2275 25.7008L33.4055 25.4895L34.3753 26.2975L34.7058 25.9072L34.873 26.0462L34.364 26.6474ZM34.3109 24.3072L34.4698 24.0823L35.3186 24.6703C35.5876 24.8566 35.655 25.0313 35.4479 25.3275C35.2389 25.6247 35.0496 25.6237 34.7801 25.4368L33.9302 24.8493L34.0891 24.6239L34.9188 25.1977C35.0353 25.2782 35.1583 25.3514 35.266 25.1982C35.3692 25.0518 35.2576 24.964 35.1406 24.8815L34.3109 24.3072ZM35.9358 24.0935C35.9648 24.0437 35.9982 23.9959 36.0051 23.9423C36.012 23.8608 35.9328 23.8042 35.8674 23.7681C35.7273 23.6895 35.6535 23.6851 35.5689 23.8325L35.5168 23.9252L35.9078 24.1448L35.9358 24.0935ZM35.352 23.7739C35.386 23.7163 35.4317 23.6436 35.4047 23.5787C35.3845 23.5373 35.3417 23.5099 35.2802 23.4748C35.1838 23.4207 35.1233 23.4128 35.0584 23.5221L34.9945 23.6324L35.3269 23.8193L35.352 23.7739ZM35.9604 24.4902L34.6689 23.7661L34.8893 23.3797C34.9473 23.2772 35.0122 23.1796 35.1386 23.1616C35.2409 23.1459 35.3196 23.1791 35.4066 23.2274C35.5197 23.2909 35.6156 23.3763 35.5891 23.5334L35.593 23.5353C35.6884 23.4104 35.8315 23.4236 35.9983 23.5173C36.0523 23.5475 36.104 23.5807 36.1473 23.6236C36.2815 23.7661 36.2987 23.8979 36.2004 24.0686L35.9604 24.4902Z" fill="white"/>
<path d="M23.1069 28.8779C16.389 28.8779 10.9434 23.4745 10.9434 16.8093C10.9434 10.1441 16.389 4.74121 23.1069 4.74121C29.8248 4.74121 35.2715 10.1446 35.2715 16.8093C35.2715 23.4745 29.8253 28.8779 23.1069 28.8779Z" fill="#570514"/>
<path d="M27.5235 27.382C21.6348 29.8012 14.8849 27.0278 12.4456 21.1852C10.0073 15.3442 12.8031 8.64629 18.6909 6.22662C24.5786 3.80792 31.33 6.58086 33.7673 12.4224C36.2066 18.265 33.4113 24.9624 27.5235 27.382Z" fill="white"/>
<path d="M13.1897 11.9419C13.2163 11.8453 13.2939 11.755 13.3618 11.7384C13.41 11.7267 13.4405 11.7555 13.4459 11.8067C13.447 11.8336 13.4443 11.8606 13.438 11.8868C13.3594 12.1585 13.199 13.0149 13.199 13.0149C13.199 13.0149 12.7397 13.4925 12.5223 13.7092C12.4658 13.7648 12.4048 13.7473 12.3866 13.6706C12.3796 13.6271 12.3824 13.5826 12.3947 13.5403C12.407 13.4979 12.4286 13.4588 12.4579 13.4257C12.6295 13.2525 12.8041 13.0749 12.9841 12.8831C13.0333 12.5645 13.1022 12.2498 13.1897 11.9419ZM13.6274 12.1429C13.6446 12.0419 13.7253 11.9385 13.8049 11.9121C13.8689 11.8916 13.9131 11.9224 13.923 11.9839C13.9254 12.005 13.9248 12.0263 13.921 12.0473C13.8694 12.3366 13.8059 13.2256 13.8059 13.2256C13.8059 13.2256 13.3112 13.797 13.0731 14.0532C13.0102 14.1205 12.9325 14.1137 12.901 14.0366C12.869 13.9585 12.8931 13.8414 12.9561 13.7731C13.1405 13.5711 13.3299 13.3535 13.5241 13.1276C13.5354 12.7972 13.5694 12.4703 13.6274 12.1429ZM14.2461 12.2971C14.2514 12.2433 14.2704 12.1916 14.3013 12.147C14.3322 12.1024 14.3739 12.0662 14.4226 12.0419C14.5033 12.0097 14.5662 12.04 14.58 12.1122C14.5831 12.1266 14.5844 12.1414 14.5839 12.1561C14.5697 12.444 14.6238 13.3428 14.6238 13.3428C14.6238 13.3428 14.1089 13.9956 13.8566 14.3025C13.7912 14.3835 13.6967 14.3904 13.6451 14.3181C13.5964 14.2464 13.6087 14.1225 13.6746 14.041C13.8738 13.7946 14.071 13.5496 14.2697 13.2915C14.238 12.961 14.2303 12.6287 14.2466 12.2971M15.0103 12.3488C15.002 12.2473 15.0777 12.1229 15.181 12.0722C15.2764 12.0253 15.362 12.0561 15.3826 12.1405L15.388 12.1649C15.4146 12.4557 15.6064 13.3418 15.6064 13.3418C15.6064 13.3418 15.0861 14.082 14.8229 14.4289C14.7546 14.5216 14.642 14.5411 14.5741 14.4748C14.5072 14.4089 14.5087 14.2796 14.5761 14.1879C14.7777 13.9166 14.9803 13.6301 15.1815 13.3398C15.0979 13.011 15.0398 12.6811 15.0098 12.3488M15.9546 12.4342C15.9408 12.3888 15.9282 12.3431 15.9167 12.2971C15.8896 12.1995 15.959 12.0663 16.0721 12.0039C16.1852 11.937 16.3003 11.9663 16.3269 12.0649C16.3392 12.1107 16.3519 12.1551 16.3657 12.1985C16.436 12.4328 16.7542 13.1998 16.7542 13.1998C16.7542 13.1998 16.2457 14.0146 15.9856 14.4118C15.9167 14.5167 15.7888 14.5548 15.6978 14.4992C15.6098 14.4426 15.5931 14.3123 15.6605 14.2059C15.8645 13.8925 16.0643 13.5765 16.26 13.2579C16.137 12.9846 16.0357 12.7079 15.9541 12.4342M17.489 13.0334C17.2824 12.7358 17.1034 12.4323 16.9573 12.1229C16.9116 12.0278 16.9736 11.8916 17.0911 11.8155C17.2136 11.7409 17.3468 11.7535 17.3935 11.8477C17.5239 12.1156 18.0422 12.9197 18.0422 12.9197C18.0422 12.9197 17.5785 13.8004 17.3252 14.2308C17.2573 14.3459 17.1137 14.4011 17.0045 14.3542C16.8964 14.3074 16.8619 14.1761 16.9288 14.0605C17.1241 13.7253 17.3104 13.3789 17.4895 13.0334M18.8414 12.6679C18.58 12.4063 18.3368 12.1274 18.1135 11.8331C18.0491 11.7467 18.0939 11.6057 18.2158 11.5198C18.3388 11.433 18.4922 11.432 18.5581 11.5189C18.745 11.7618 19.4335 12.4952 19.4335 12.4952C19.4335 12.4952 19.0411 13.414 18.8183 13.8775C18.7563 14.0029 18.6049 14.0766 18.4765 14.0434C18.3486 14.0107 18.2935 13.8839 18.3511 13.7604C18.5267 13.3911 18.6904 13.029 18.8414 12.6679ZM19.8835 13.2896C20.0261 12.9095 20.154 12.5362 20.2642 12.1673C19.9462 11.938 19.6415 11.6912 19.3514 11.4281C19.2668 11.3495 19.2939 11.2095 19.4134 11.1144C19.5314 11.0187 19.7001 11.0041 19.7851 11.0821C20.0271 11.2968 20.8681 11.8267 20.8681 11.8267C20.8681 11.8267 20.5848 12.8826 20.4028 13.3608C20.3537 13.4906 20.1978 13.5784 20.0542 13.5599C19.9125 13.5404 19.8348 13.4194 19.8835 13.2896ZM21.6677 12.9275C21.5168 12.9197 21.4214 12.808 21.4563 12.6767C21.5534 12.308 21.6333 11.9349 21.6958 11.5589C21.3284 11.363 20.9702 11.1507 20.6222 10.9226C20.5204 10.8543 20.5268 10.7186 20.6399 10.6201C20.7525 10.5205 20.9251 10.4932 21.0274 10.561C21.3195 10.7504 22.2825 11.2119 22.2825 11.2119C22.2825 11.2119 22.1354 12.2268 22.0081 12.7045C21.9717 12.8353 21.8212 12.9339 21.6677 12.9275ZM22.9936 11.9599C23.0365 11.5983 23.0618 11.2349 23.0694 10.8709C22.6664 10.7086 22.2682 10.5348 21.8753 10.3498C21.7582 10.2932 21.741 10.1643 21.8379 10.0624C21.9338 9.96039 22.1089 9.92281 22.2269 9.97795C22.5515 10.1287 23.6084 10.523 23.6084 10.523C23.6084 10.523 23.6034 11.4666 23.5528 11.937C23.538 12.0649 23.4013 12.1732 23.2479 12.1795C23.094 12.1868 22.9794 12.0878 22.9936 11.9599ZM24.4124 11.1534C24.4031 10.8016 24.3657 10.4591 24.3116 10.1316C23.8852 10.0047 23.4621 9.8671 23.0428 9.71886C22.9135 9.67397 22.8756 9.55491 22.9567 9.45342C23.0374 9.35388 23.2041 9.30899 23.3315 9.35388C23.6836 9.47831 24.7906 9.80034 24.7906 9.80034C24.7906 9.80034 24.9367 10.6615 24.951 11.1031C24.9529 11.2246 24.8369 11.3334 24.6878 11.3471C24.5388 11.3622 24.4154 11.2749 24.4124 11.1534ZM25.6493 10.318C25.5822 9.99917 25.4928 9.68532 25.3818 9.37877C24.9446 9.27923 24.5123 9.17627 24.0898 9.06893C23.9565 9.0338 23.8931 8.92743 23.9546 8.82984C24.0121 8.73372 24.1675 8.68199 24.2988 8.71713C24.6598 8.80788 25.7855 9.06942 25.7855 9.06942C25.7855 9.06942 26.056 9.82816 26.146 10.2375C26.1711 10.3498 26.0806 10.4586 25.9444 10.4815C25.8067 10.503 25.6739 10.4312 25.6493 10.318ZM26.6585 9.4744C26.5431 9.18265 26.4046 8.90039 26.2444 8.63027C25.8224 8.56391 25.3985 8.49121 24.9726 8.41314C24.8369 8.38875 24.7582 8.2936 24.796 8.20138C24.8344 8.11111 24.9716 8.05695 25.1039 8.0833C25.4678 8.15112 26.5695 8.34239 26.5695 8.34239C26.5695 8.34239 26.777 8.68687 26.8699 8.86936C26.9545 9.0338 27.0322 9.20457 27.1016 9.38023C27.1434 9.48026 27.077 9.58468 26.9555 9.61054C26.8336 9.63689 26.6998 9.57784 26.6585 9.4744ZM27.435 8.6615C27.2736 8.40086 27.0945 8.15143 26.899 7.91496C26.4932 7.87158 26.0878 7.82522 25.6828 7.7759C25.5519 7.75882 25.457 7.67831 25.4733 7.59341C25.488 7.51046 25.606 7.45679 25.7349 7.47143C26.0845 7.51534 27.1355 7.63976 27.1355 7.63976C27.1355 7.63976 27.6096 8.22529 27.8142 8.55318C27.8176 8.55708 27.8191 8.5605 27.8211 8.56538C27.8663 8.65125 27.826 8.74006 27.7276 8.76933C27.6737 8.78345 27.6166 8.78067 27.5643 8.76136C27.512 8.74206 27.467 8.70718 27.4355 8.6615M27.9726 7.88617C27.7817 7.65684 27.5693 7.44069 27.347 7.23917C26.9781 7.21965 26.5985 7.19526 26.207 7.16744C26.0831 7.15866 25.9783 7.0884 25.9759 7.0113C25.9709 6.93519 26.0693 6.88103 26.1923 6.89176C26.5267 6.91616 27.5053 6.98447 27.5053 6.98447C27.5053 6.98447 28.0512 7.49046 28.2912 7.77639C28.2985 7.7845 28.3049 7.79333 28.3104 7.80274C28.3522 7.87349 28.3301 7.94716 28.2534 7.974C28.1639 8.00328 28.0399 7.96619 27.973 7.88617M28.3035 7.17086C28.0773 6.96837 27.8491 6.78539 27.6081 6.6151C27.2717 6.61168 26.9216 6.60583 26.5655 6.59851C26.4475 6.59705 26.3354 6.53849 26.3137 6.46921C26.2936 6.40138 26.3698 6.34966 26.4859 6.35162C26.7913 6.35893 27.6913 6.37845 27.6913 6.37845C27.6913 6.37845 28.2839 6.80784 28.5588 7.05571C28.5721 7.06785 28.5839 7.08143 28.5942 7.0962C28.6316 7.15183 28.6252 7.20892 28.5686 7.23575C28.4973 7.26796 28.3788 7.23868 28.303 7.17037M33.0257 21.6674C32.9987 21.7635 32.9215 21.8543 32.8531 21.8714C32.8054 21.8821 32.7749 21.8538 32.7695 21.8026C32.7686 21.7756 32.7714 21.7487 32.7779 21.7226C32.8556 21.4518 33.0164 20.5935 33.0164 20.5935C33.0164 20.5935 33.4757 20.1163 33.6931 19.9006C33.7487 19.843 33.8106 19.8616 33.8288 19.9396C33.8359 19.9829 33.8332 20.0271 33.8209 20.0691C33.8085 20.1112 33.7869 20.1499 33.7575 20.1826C33.5854 20.3568 33.4113 20.5344 33.2303 20.7262C33.1812 21.0433 33.1123 21.3595 33.0257 21.6674ZM32.588 21.4664C32.5708 21.5664 32.4902 21.6708 32.4095 21.6962C32.3466 21.7172 32.3018 21.6869 32.2915 21.6259C32.2896 21.6043 32.2906 21.5825 32.2944 21.561C32.3451 21.2722 32.4085 20.3832 32.4085 20.3832C32.4085 20.3832 32.9043 19.8118 33.1418 19.5556C33.2057 19.4873 33.2825 19.4956 33.3139 19.5727C33.3454 19.6503 33.3223 19.7679 33.2584 19.8362C33.0749 20.0377 32.8851 20.2558 32.6913 20.4812C32.6802 20.8116 32.6457 21.1408 32.588 21.4664ZM31.9694 21.3122C31.9639 21.366 31.9449 21.4176 31.914 21.4622C31.8832 21.5068 31.8415 21.543 31.7928 21.5674C31.7122 21.5996 31.6492 21.5693 31.6354 21.4966C31.6315 21.483 31.631 21.4683 31.6315 21.4522C31.6463 21.1644 31.5917 20.2656 31.5917 20.2656C31.5917 20.2656 32.1066 19.6132 32.3589 19.3068C32.4248 19.2253 32.5182 19.219 32.5703 19.2912C32.6185 19.3624 32.6067 19.4863 32.5408 19.5673C32.339 19.815 32.1403 20.0652 31.9448 20.3178C31.9777 20.6506 31.9846 20.9863 31.9694 21.3122ZM31.2051 21.26C31.213 21.3625 31.1377 21.4859 31.034 21.5371C30.9391 21.584 30.853 21.5523 30.8323 21.4698L30.8274 21.4444C30.8004 21.1531 30.6081 20.267 30.6081 20.267C30.6081 20.267 31.1294 19.5264 31.3915 19.1794C31.4604 19.0867 31.5735 19.0672 31.6404 19.1345C31.7082 19.2004 31.7063 19.3287 31.6384 19.4215C31.4377 19.6927 31.2351 19.9782 31.0335 20.269C31.1171 20.5979 31.1756 20.9277 31.2056 21.2595M30.2609 21.1746C30.2746 21.2205 30.2869 21.2658 30.2987 21.3122C30.3248 21.4098 30.2564 21.543 30.1433 21.6054C30.0297 21.6708 29.9151 21.6425 29.8886 21.5435C29.8758 21.4996 29.8635 21.4542 29.8497 21.4098C29.7789 21.1766 29.4612 20.4085 29.4612 20.4085C29.4612 20.4085 29.9692 19.5947 30.2299 19.1975C30.2987 19.0931 30.4261 19.054 30.5176 19.1101C30.6051 19.1663 30.6218 19.297 30.554 19.4029C30.3494 19.7201 30.1507 20.0309 29.955 20.351C30.0779 20.6232 30.1797 20.9009 30.2614 21.1746M28.7255 20.5759C28.933 20.8735 29.112 21.1766 29.2576 21.4864C29.3029 21.5806 29.2414 21.7172 29.1233 21.7938C29.0014 21.8689 28.8676 21.8543 28.8219 21.7611C28.6911 21.4932 28.1742 20.6891 28.1742 20.6891C28.1742 20.6891 28.6365 19.8089 28.8902 19.378C28.9581 19.2629 29.1012 19.2072 29.2109 19.2551C29.3191 19.3014 29.3535 19.4332 29.2866 19.5478C29.0919 19.8862 28.9045 20.229 28.7255 20.5759ZM27.375 20.9404C27.6354 21.2028 27.8782 21.4819 28.1019 21.7757C28.1658 21.8626 28.1216 22.0021 27.9991 22.089C27.8762 22.1768 27.7237 22.1778 27.6573 22.0905C27.4704 21.847 26.7819 21.1141 26.7819 21.1141C26.7819 21.1141 27.1739 20.1963 27.3971 19.7303C27.4581 19.6059 27.6106 19.5317 27.7389 19.5644C27.8668 19.5976 27.9209 19.7254 27.8634 19.8484C27.6883 20.2178 27.5255 20.5803 27.375 20.9404ZM26.3314 20.3188C26.1888 20.6998 26.0614 21.0731 25.9503 21.4415C26.2818 21.6796 26.5896 21.9319 26.864 22.1812C26.9477 22.2593 26.9221 22.3983 26.8021 22.4935C26.684 22.5901 26.5159 22.6047 26.4293 22.5267C26.1878 22.312 25.3473 21.7831 25.3473 21.7831C25.3473 21.7831 25.6296 20.7267 25.8121 20.248C25.8613 20.1177 26.0167 20.0299 26.1613 20.0494C26.3019 20.0699 26.3801 20.1895 26.3314 20.3188ZM24.5467 20.6828C24.6987 20.6891 24.7941 20.8013 24.7582 20.9316C24.6614 21.3007 24.5816 21.6741 24.5192 22.0504C24.8998 22.2564 25.2559 22.4608 25.5928 22.6862C25.6951 22.7541 25.6887 22.8897 25.5751 22.9892C25.4629 23.0883 25.2898 23.1146 25.1875 23.0478C24.8954 22.8585 23.933 22.3979 23.933 22.3979C23.933 22.3979 24.079 21.3825 24.2074 20.9043C24.2438 20.774 24.3943 20.6754 24.5467 20.6828ZM23.2213 21.6489C23.1782 22.0105 23.1531 22.3739 23.1461 22.7379C23.5636 22.9048 23.9654 23.0844 24.3401 23.26C24.4567 23.3157 24.4734 23.443 24.3775 23.5469C24.2816 23.6484 24.1066 23.6865 23.9875 23.6314C23.6639 23.4796 22.6066 23.0863 22.6066 23.0863C22.6066 23.0863 22.612 22.1427 22.6636 21.6713C22.6779 21.5449 22.8131 21.4361 22.9671 21.4303C23.1225 21.422 23.2361 21.5206 23.2213 21.6489ZM21.803 22.4559C21.8128 22.8072 21.8487 23.1503 21.9033 23.4757C22.3371 23.6065 22.7605 23.7441 23.1721 23.8895C23.301 23.9349 23.3398 24.0554 23.2592 24.1544C23.178 24.2559 23.0113 24.3008 22.8839 24.2559C22.5318 24.131 21.4253 23.809 21.4253 23.809C21.4253 23.809 21.2787 22.9478 21.264 22.5052C21.262 22.3842 21.3786 22.2754 21.5271 22.2603C21.6761 22.2471 21.8005 22.3335 21.803 22.4559ZM20.5651 23.2908C20.6369 23.6236 20.7245 23.9339 20.8337 24.2305C21.2699 24.3306 21.7027 24.433 22.1256 24.5399C22.2589 24.575 22.3223 24.6814 22.2608 24.779C22.2028 24.8756 22.0489 24.9263 21.9161 24.8922C21.5546 24.8009 20.4289 24.5399 20.4289 24.5399C20.4289 24.5399 20.1594 23.7816 20.0694 23.3718C20.0433 23.2596 20.1343 23.1507 20.271 23.1283C20.4087 23.1059 20.5415 23.1776 20.5651 23.2908ZM19.556 24.1349C19.672 24.4261 19.8104 24.708 19.9701 24.9781C20.3925 25.0454 20.8169 25.1176 21.2428 25.1962C21.3781 25.2206 21.4563 25.3152 21.4194 25.4079C21.381 25.4972 21.2438 25.5519 21.111 25.5255C20.623 25.438 20.1348 25.3514 19.6465 25.2659C19.6465 25.2659 19.4384 24.9224 19.3455 24.7395C19.2609 24.575 19.1832 24.4042 19.1129 24.2291C19.072 24.1286 19.1379 24.0241 19.2594 23.9978C19.3824 23.9724 19.5152 24.032 19.556 24.1349ZM18.7804 24.9473C18.9471 25.2152 19.1232 25.4606 19.3165 25.6944C19.7221 25.7372 20.1273 25.7834 20.5322 25.8329C20.663 25.849 20.7579 25.9305 20.7422 26.0149C20.7274 26.0993 20.6094 26.1535 20.4801 26.1384C20.1309 26.094 19.0789 25.9695 19.0789 25.9695C19.0789 25.9695 18.6053 25.384 18.4003 25.0556C18.3973 25.0521 18.3952 25.0479 18.3944 25.0434C18.3491 24.9581 18.3885 24.8688 18.4868 24.839C18.541 24.825 18.5983 24.8279 18.6508 24.8473C18.7033 24.8667 18.7486 24.9016 18.7804 24.9473ZM18.2429 25.7226C18.4337 25.952 18.6462 26.1686 18.8675 26.3697C19.2368 26.3897 19.6165 26.4136 20.0084 26.4414C20.1329 26.4502 20.2371 26.5199 20.2405 26.5975C20.244 26.6741 20.1456 26.7278 20.0242 26.7176C19.6883 26.6922 18.7096 26.6244 18.7096 26.6244C18.7096 26.6244 18.1637 26.1179 17.9242 25.8324C17.9168 25.8243 17.9103 25.8154 17.9045 25.8061C17.8627 25.7363 17.8849 25.6621 17.9621 25.6343C18.0516 25.6055 18.1755 25.6441 18.2424 25.7226M17.9119 26.4389C18.1381 26.6409 18.3663 26.8244 18.6068 26.9927C18.9427 26.9966 19.2938 27.0025 19.6494 27.0108C19.7674 27.0123 19.8796 27.0708 19.9012 27.1401C19.9214 27.2074 19.8456 27.2596 19.7306 27.2572C19.4242 27.2494 18.5242 27.2304 18.5242 27.2304C18.5242 27.2304 17.9316 26.801 17.6567 26.5531C17.6438 26.541 17.6318 26.5279 17.6208 26.5141C17.5834 26.457 17.5913 26.3999 17.6468 26.3736C17.7176 26.3418 17.8367 26.3701 17.9124 26.4389" fill="#7D0521"/>
<path d="M41.1981 11.1091L41.1676 11.1115L39.6972 12.73L39.4454 11.2676L35.7702 11.6033L35.5725 12.0093C35.2676 11.8263 34.8948 11.7302 34.4871 11.7302C34.406 11.7302 34.3233 11.7351 34.2422 11.7414L31.9283 11.9522C31.1827 12.0205 30.3413 12.4011 29.6621 12.973C29.2824 12.4968 28.6279 12.2528 27.8892 12.3206L25.5748 12.5309L12.6888 13.7054L14.1224 12.1293L7.66559 12.7188L7.29085 13.4858L3.59157 13.8225L1.93766 17.1961L2.70487 17.1268L0 22.6263L4.19205 22.2457L5.04187 20.5174L6.06579 23.5163L10.0026 23.1576L9.52606 21.7597L10.9818 21.6275L12.8029 17.925L12.6249 21.4767L15.9922 21.1703L16.0281 21.1669L16.5563 20.393L16.5204 21.121L19.8862 20.8146L19.9221 20.8117L20.734 19.6221C20.7586 19.6718 20.7852 19.7197 20.8142 19.766C21.1786 20.3442 21.8485 20.6345 22.6865 20.5589L24.9841 20.351C25.7376 20.2818 26.5849 19.8997 27.2646 19.3249C27.6034 19.7572 28.139 19.9934 28.7862 19.9934C28.8678 19.9934 28.9529 19.9895 29.0395 19.9812L31.3372 19.7724C31.795 19.7304 32.2765 19.5811 32.7412 19.34L32.5848 19.6592L36.7764 19.2771L37.0075 18.8092L37.2559 20.2549L38.268 19.1424L42.0007 18.8009L46 10.6714L41.1981 11.1091Z" fill="#570514"/>
<path d="M6.92233 15.33L7.4102 15.2852L6.39021 16.4064L6.92233 15.33ZM8.36378 19.8957L7.77364 18.1664L10.9128 14.7143L8.36378 19.8957ZM26.3182 15.0061L25.0838 17.5165L24.2576 17.5921L25.492 15.0812L26.3182 15.0061ZM32.6712 14.4279L31.4358 16.9393L30.6106 17.0139L31.8445 14.503L32.6712 14.4279ZM41.4586 11.4846L41.4291 11.488L39.3503 13.7735L38.9952 11.7086L36.1256 11.9706L35.7199 12.8021C35.7008 12.7597 35.6786 12.7187 35.6535 12.6796C35.4297 12.3234 35.0176 12.1272 34.4943 12.1272C34.4294 12.1272 34.3601 12.1307 34.2917 12.137L31.9778 12.3478C31.0916 12.4278 30.0932 13.0138 29.4711 13.7974C29.4607 13.6062 29.402 13.4206 29.3005 13.2578C29.0767 12.9016 28.6646 12.7064 28.1398 12.7064C28.0749 12.7064 28.0071 12.7098 27.9387 12.7152L25.6243 12.927C25.1768 12.9675 24.6771 13.1456 24.2109 13.4266L24.4814 13.0304L21.4662 13.3056L19.9942 15.4623L20.0965 13.4291L17.5712 13.6603L16.0997 15.8155L16.2015 13.7843L11.3554 14.2273L12.7885 12.6518L8.02101 13.087L7.64478 13.8531L3.94502 14.1897L2.84634 16.4328L3.616 16.3635L0.911133 21.8625L3.83829 21.5961L5.13269 18.9637L6.44186 22.8008L9.26771 22.5427L8.79017 21.1448L10.6275 20.9784L12.967 16.2235L13.4263 16.1805L13.1981 20.7427L15.7225 20.5129L17.193 18.3587L17.0926 20.387L19.6165 20.1577L21.7017 17.1027L21.3142 17.8917C21.0452 18.4392 21.0309 18.9535 21.2749 19.3404C21.4991 19.6961 21.9108 19.8927 22.4326 19.8927C22.4989 19.8927 22.5673 19.8888 22.6367 19.883L24.9348 19.6736C25.8333 19.5922 26.839 19.0032 27.4577 18.2147C27.469 18.4162 27.5266 18.6002 27.6284 18.7622C27.8807 19.1623 28.37 19.3609 28.9901 19.3048L31.2873 19.0954C32.3939 18.9944 33.6533 18.1166 34.1545 17.0964L35.5979 14.1619L35.834 14.1405L33.4955 18.8944L36.4226 18.629L37.2587 16.9319L37.6025 18.9286L39.489 16.8548L38.7198 18.4197L41.647 18.1528L45.089 11.1553L41.4586 11.4846Z" fill="#EB008A"/>
<path d="M11.8996 13.0927L8.25585 13.4254L7.52701 14.9141L8.29715 14.8448L5.25098 18.194L6.69243 22.4171L8.77765 22.2268L7.36225 18.0818L11.8996 13.0927ZM41.602 11.8318L39.1189 14.5628L38.695 12.0958L36.3609 12.3086L35.6355 13.7982L36.4401 13.7226L34.1011 18.4795L36.1863 18.2892L37.4267 15.7749L37.8329 18.1389L40.9386 14.7248L39.3255 18.0037L41.4107 17.8134L44.4819 11.5698L41.602 11.8318Z" fill="white"/>
<path d="M11.3786 14.585L8.30729 20.8292L10.392 20.6394L13.4638 14.3948L11.3786 14.585ZM4.18113 14.5294L3.4518 16.0176L4.22245 15.9488L1.51758 21.4469L3.60229 21.2581L7.03994 14.2689L4.18113 14.5294ZM25.3194 17.8557L23.6513 18.0074L25.2565 14.7427L26.9242 14.5914L25.3194 17.8557ZM27.9722 13.0729L25.6578 13.2832C24.7347 13.3676 23.6641 14.0917 23.1713 14.9325L21.6389 18.0494C21.1943 18.9535 21.6266 19.6157 22.6033 19.5259L24.9014 19.3166C25.8796 19.2273 27.0324 18.4227 27.477 17.518L28.9366 14.5494C29.3817 13.6443 28.9499 12.9841 27.9722 13.0729ZM31.672 17.277L30.0033 17.4292L31.6095 14.1649L33.2772 14.0127L31.672 17.277ZM34.3252 12.4938L32.0108 12.705C31.0882 12.789 30.0166 13.5126 29.5243 14.3543L27.9919 17.4722C27.5473 18.3753 27.9796 19.0355 28.9568 18.9477L31.2544 18.7384C32.2316 18.6491 33.3849 17.844 33.8295 16.9398L35.2896 13.9707C35.7347 13.0661 35.3029 12.4054 34.3252 12.4938ZM21.6693 13.6467L19.5694 16.7242L19.715 13.8248L17.7748 14.0015L15.6749 17.0784L15.82 14.1801L13.7298 14.3718L13 15.8605L13.8085 15.7859L13.5803 20.3476L15.519 20.1714L17.6175 17.0965L17.4748 19.9938L19.414 19.8162L23.7541 13.4569L21.6693 13.6467Z" fill="white"/>
<path d="M4.22182 15.9488L5.63081 15.1091L3.81609 15.2735L3.45117 16.0181L4.22182 15.9488ZM8.29732 14.8451L10.147 13.9683L7.8916 14.1703L7.52718 14.9144L8.29732 14.8451Z" fill="#D1D1D1"/>
<path d="M11.9002 13.0927L10.1475 13.968L6.32031 18.177L7.73668 22.3229L6.69309 22.4171L8.77831 22.2268L7.36291 18.0818L11.9002 13.0927ZM37.1691 14.2788L35.5103 17.6407L34.1018 18.4795L36.187 18.2892L37.4273 15.7749L37.1691 14.2788ZM38.2294 15.5421L39.1196 14.5628L38.6956 12.0958L37.7529 12.776L38.2294 15.5421ZM43.0736 12.4096L40.7351 17.165L39.3266 18.0042L41.4108 17.8139L44.4826 11.5698L43.0736 12.4096ZM42.0649 12.4354L38.4601 16.3965L37.8335 18.1389L40.9392 14.7248L42.0649 12.4354Z" fill="#D1D1D1"/>
<path d="M12.0508 15.2443L9.71481 19.9924L8.30779 20.8293L10.3925 20.6394L13.4643 14.3948L12.0508 15.2443ZM5.63144 15.1092L2.92657 20.6063L1.51758 21.447L3.60229 21.2581L7.03994 14.269L5.63144 15.1092ZM18.4491 18.3652L19.5694 16.7243L19.715 13.8249L18.6355 14.6364L18.4491 18.3652ZM17.6932 15.5522L14.9927 19.5094L13.5803 20.3477L15.519 20.1715L17.6175 17.0965L17.6932 15.5522ZM22.1931 14.3114L18.8873 19.1556L17.4743 19.9934L19.414 19.8163L23.7541 13.457L22.1931 14.3114ZM13.8085 15.786L14.7419 14.9906L13.3654 15.115L13 15.8606L13.8085 15.786ZM36.4409 13.723L37.753 12.7764L36.0489 12.932L35.6324 13.7986L36.4409 13.723Z" fill="#D1D1D1"/>
<path d="M14.5537 18.7196L15.675 17.0782L15.8196 14.1799L14.7416 14.9903L14.5537 18.7196ZM25.6216 13.9993L24.213 14.8371L22.2405 18.8494L23.6509 18.0082L25.2561 14.7425L26.9238 14.5912L28.3323 13.7524L25.6216 13.9993Z" fill="#D1D1D1"/>
<path d="M28.9488 13.3856L28.3321 13.7525L26.358 17.7663L24.9579 18.6026L22.2402 18.8495L21.6279 19.2154C21.8138 19.4462 22.1492 19.5672 22.6027 19.5258L24.9008 19.3164C24.9485 19.3125 24.9977 19.3047 25.0464 19.2969C25.9901 19.1466 27.0529 18.3781 27.4759 17.5179L28.936 14.5493C29.174 14.0653 29.1607 13.6525 28.9488 13.3856ZM31.9748 13.4212L30.5663 14.259L28.5937 18.2713L30.0027 17.4291L31.6089 14.1648L33.2766 14.0126L34.6856 13.1733L31.9748 13.4212Z" fill="#D1D1D1"/>
<path d="M35.3028 12.8071L34.6861 13.1741L32.7115 17.1878L31.3119 18.0241L28.5942 18.271L27.9824 18.637C28.1678 18.8678 28.5037 18.9878 28.9567 18.9473L31.2543 18.738C31.3025 18.7341 31.3512 18.7258 31.3999 18.7185C32.3432 18.5687 33.4064 17.7997 33.8294 16.9395L35.2895 13.9704C35.528 13.4868 35.5143 13.0731 35.3028 12.8071Z" fill="#D1D1D1"/>
</svg>
