<svg width="46" height="38" viewBox="0 0 46 38" fill="none" xmlns="http://www.w3.org/2000/svg">
<path d="M37.1538 20.4531V20.048L38.4675 18.3006L41.6299 20.4531H37.1538ZM46 12.9018H41.5628L43.1555 10.7845L42.2285 9.61136C39.9804 6.75218 37.1085 4.44196 33.831 2.85631C30.5535 1.27066 26.9568 0.451341 23.3143 0.460629C19.6718 0.451341 16.075 1.27066 12.7976 2.85631C9.52011 4.44196 6.64819 6.75218 4.40012 9.61136L3.47313 10.7845L5.06756 12.9035H0V16.3207H2.88339V23.8897H6.80501V16.4986L12.517 24.0923H9.97973L14.0249 28.9045H17.1043L23.3143 37.1587L29.5225 28.9045H32.6036L36.8237 23.8897H46V19.0545L41.923 16.2785H46V12.9018Z" fill="white"/>
<path d="M23.3682 23.2124H25.9885V13.5789H23.3682V23.2124Z" fill="#C00C3F"/>
<path d="M33.9317 18.7733L30.0277 13.5787H27.1055L27.8983 14.6338V23.2139H30.4409V18.0176L34.3448 23.2139H36.4743V13.5787H33.9317V18.7733Z" fill="#C00C3F"/>
<path d="M19.1221 13.579V19.4711L18.1262 20.7939L17.1304 19.4711V13.579H14.6372V19.4711L13.6431 20.7939L12.6473 19.4711V13.579H10.1523V19.8216L12.7038 23.2124H14.5807L15.8838 21.4791L17.1887 23.2124H19.0638L21.617 19.8216V13.579H19.1221Z" fill="#C00C3F"/>
<path d="M23.3135 31.8199V36.0298L30.6464 26.2837H27.4788L23.3135 31.8199Z" fill="#231F20"/>
<path d="M23.3144 36.0303V31.8204L19.1491 26.2824H15.9814L23.3144 36.0303Z" fill="#C00C3F"/>
<path d="M22.8629 10.4941H20.7017V6.86726H19.6582V11.373H22.8629V10.4941Z" fill="#6D6E71"/>
<path d="M25.2125 11.4399C25.9152 11.4399 26.5985 11.262 26.9711 11.0013V8.81362H25.1613V9.65559H26.0106V10.4447C25.767 10.5232 25.5126 10.563 25.2566 10.5627C24.319 10.5627 24.0047 10.0871 24.0047 9.12011C24.0047 8.19711 24.3014 7.65459 25.2425 7.65459C25.7634 7.65459 26.0618 7.8184 26.3072 8.13018L26.957 7.53481C26.5632 6.97114 25.8693 6.79852 25.2195 6.79852C23.7593 6.79852 22.9912 7.5947 22.9912 9.1113C22.9912 10.6226 23.6834 11.4399 25.2125 11.4399Z" fill="#6D6E71"/>
<path d="M11.4355 24.7688L14.3419 28.2266H32.2885L35.1948 24.7688H11.4355Z" fill="#6D6E71"/>
<path d="M17.9381 26.9905C18.0763 27.0675 18.2317 27.1087 18.3901 27.1103C18.6214 27.1103 18.7079 27.0239 18.7079 26.913C18.7079 26.809 18.6231 26.7562 18.5825 26.7351C18.4519 26.6681 18.2983 26.6223 18.157 26.5642C17.9486 26.4585 17.8427 26.3599 17.8427 26.0992C17.8427 25.7909 18.0634 25.606 18.4713 25.606C18.6607 25.6009 18.8481 25.6453 19.0151 25.7346L18.9021 25.9917C18.7712 25.9165 18.6224 25.8776 18.4713 25.879C18.2594 25.879 18.1747 25.9565 18.1747 26.071C18.1747 26.1274 18.1923 26.1714 18.2259 26.2013C18.2575 26.229 18.2933 26.2515 18.3318 26.2683C18.4413 26.3194 18.6037 26.3757 18.7379 26.4391C18.9004 26.5202 19.0346 26.6206 19.0346 26.8936C19.0346 27.2001 18.7944 27.3921 18.3954 27.3921C18.1933 27.3914 17.9943 27.3431 17.8145 27.2512L17.9381 26.9905Z" fill="white"/>
<path d="M20.29 25.6313H21.3495V25.9061H20.622V26.3376H21.3247V26.6054H20.622V27.0915H21.3777V27.3628H20.29V25.6313Z" fill="white"/>
<path d="M22.9603 26.5179C22.9603 26.8491 23.0468 27.1221 23.3382 27.1221C23.6807 27.1221 23.7831 26.8913 23.7831 26.4721C23.7831 26.1445 23.7001 25.8679 23.4053 25.8679C23.0733 25.8679 22.9603 26.104 22.9603 26.5179ZM24.1274 26.5056C24.1274 27.0957 23.8714 27.3916 23.3452 27.3916C22.8031 27.3916 22.623 27.0411 22.623 26.488C22.623 25.8961 22.8738 25.6055 23.4017 25.6055C23.9367 25.6055 24.1274 25.949 24.1274 26.5056Z" fill="white"/>
<path d="M25.3945 25.6311H25.7247V26.6986C25.7247 26.9645 25.8077 27.1248 26.0249 27.1248C26.2809 27.1248 26.3727 26.998 26.3727 26.6528V25.6311H26.7029V26.6757C26.7029 27.1759 26.4592 27.3926 26.0284 27.3926C25.6011 27.3926 25.3945 27.1794 25.3945 26.6563V25.6311Z" fill="white"/>
<path d="M28.0361 25.6313H28.3681V27.0915H29.0408V27.3628H28.0361V25.6313Z" fill="white"/>
<path d="M23.3139 3.66389V1.13621C19.7739 1.12757 16.2784 1.92422 13.0934 3.46561C9.9083 5.007 7.11744 7.25255 4.93297 10.0315L4.3291 10.7942L5.25256 12.022H8.42023L7.53914 10.8524C9.4933 8.59014 11.9149 6.7764 14.6378 5.53559C17.3607 4.29479 20.3204 3.65628 23.3139 3.66389Z" fill="#C00C3F"/>
<path d="M42.301 10.7947L41.6971 10.032C39.5121 7.25319 36.7209 5.00779 33.5356 3.46642C30.3503 1.92506 26.8547 1.12831 23.3145 1.1367V3.66438C29.4185 3.66438 35.1146 6.27133 39.0892 10.8511L38.2099 12.0225H41.3776L42.301 10.7947Z" fill="#231F20"/>
<path d="M0.677734 15.6436H3.56289V23.2144H6.12668V15.6436H9.01007V13.5792H0.677734V15.6436Z" fill="#C00C3F"/>
<path d="M45.3218 15.6009V13.5787H38.1513V17.2672L42.7598 20.4026V21.1301H37.9854V23.2139H45.3218V19.4109L40.6833 16.2544V15.6009H45.3218Z" fill="#C00C3F"/>
</svg>
