<svg width="46" height="40" viewBox="0 0 46 40" fill="none" xmlns="http://www.w3.org/2000/svg">
<path d="M42.3909 19.8093C42.3909 30.4461 33.6788 39.0698 22.932 39.0698C12.1857 39.0698 3.47363 30.4466 3.47363 19.8093C3.47363 9.1721 12.1852 0.549316 22.9315 0.549316C33.6783 0.549316 42.3909 9.1721 42.3909 19.8093Z" fill="white"/>
<path d="M41.8538 19.7934C41.8538 30.1369 33.3826 38.5213 22.9325 38.5213C12.4829 38.5213 4.01172 30.1369 4.01172 19.7934C4.01172 9.45029 12.4829 1.06543 22.9325 1.06543C33.3826 1.06543 41.8538 9.45029 41.8538 19.7934Z" fill="#131230"/>
<path d="M37.7219 19.7773C37.7219 27.8506 31.1106 34.3954 22.9537 34.3954C14.7973 34.3954 8.18555 27.8506 8.18555 19.7773C8.18555 11.704 14.7978 5.15918 22.9537 5.15918C31.1101 5.15918 37.7219 11.704 37.7219 19.7773Z" fill="white"/>
<path d="M19.2433 19.6594C19.2433 19.6279 19.2413 19.5969 19.2413 19.5654L20.3008 20.1513L20.4736 19.8445L19.2325 19.1583C19.2207 18.7008 19.1922 18.2439 19.1468 17.7884L20.265 18.3292L20.4207 18.0142L19.1003 17.3746C19.045 16.9239 18.9725 16.4786 18.8849 16.0381L20.0902 16.4267L20.2004 16.0933L18.8051 15.6426C18.7173 15.2491 18.6165 14.8585 18.503 14.4714L19.679 14.7088L19.7495 14.3648L18.3904 14.09C18.2842 13.7537 18.1682 13.4205 18.0428 13.0908L19.2687 13.3384L19.3397 12.9944L17.8906 12.7012C17.7342 12.3168 17.5651 11.9376 17.3834 11.5643L18.6328 11.6952L18.6695 11.3463L17.1998 11.1922C16.9984 10.8018 16.7832 10.4186 16.5545 10.0432L17.7667 10.0427V9.69139H16.3401C16.1058 9.32523 15.8587 8.96723 15.5993 8.61803L16.7479 8.52305L16.7185 8.17366L15.3482 8.28657C15.2297 8.13344 15.1117 7.98079 14.9883 7.83105L14.5311 8.07916C14.6632 8.23762 14.79 8.39899 14.9164 8.56182L14.4155 9.90704L14.7484 10.0282L15.17 8.89715C15.4317 9.24849 15.6807 9.60893 15.9166 9.97779L15.3261 11.23L15.6478 11.3783L16.1374 10.3398C16.3616 10.7129 16.5736 11.0933 16.7719 11.4824L16.0791 12.6212L16.3826 12.802L16.9584 11.857C17.1297 12.2147 17.2889 12.58 17.4372 12.9503L16.6367 14.0183L16.9222 14.2267L17.5895 13.336C17.7021 13.6364 17.8059 13.9408 17.9028 14.248L17.047 15.3882L17.3324 15.5976L18.0276 14.6696C18.1373 15.0519 18.2357 15.4386 18.3204 15.8307L17.398 16.8061L17.6575 17.0465L18.4066 16.2537C18.4844 16.6622 18.5476 17.0756 18.5975 17.4933L17.5454 18.3355L17.7686 18.6083L18.6445 17.9076C18.6856 18.334 18.7096 18.7648 18.7204 19.1986L17.5846 20.0088L17.7926 20.2942L18.7302 19.6255L18.7307 19.6594C18.7307 20.0102 18.717 20.3582 18.6974 20.7047L17.5062 21.3908L17.6844 21.6947L18.6685 21.1277C18.642 21.4672 18.6057 21.8059 18.5598 22.1434L17.2982 22.7816L17.4602 23.0947L18.4923 22.5723C18.4345 22.926 18.3699 23.2773 18.2925 23.6238L17.0387 24.183L17.1841 24.5029L18.1858 24.0571C18.1039 24.3858 18.0128 24.7122 17.9126 25.0359L16.6294 25.536L16.7591 25.8626L17.7701 25.4687C17.6512 25.8176 17.5239 26.1616 17.3848 26.5008L16.0767 26.8638L16.1726 27.2016L17.2076 26.9147C17.0734 27.2195 16.9315 27.5199 16.7817 27.816L15.4451 28.0549L15.5083 28.4014L16.576 28.21C16.425 28.4896 16.2667 28.7653 16.1011 29.0367L14.7303 29.1351L14.7558 29.4854L15.875 29.4055C15.7096 29.6616 15.5379 29.9137 15.3599 30.1614L14.0527 30.1837L14.0591 30.535L15.0995 30.5166C14.9161 30.7619 14.7265 31.0027 14.5311 31.2387L14.816 31.6927C15.0975 31.3591 15.3673 31.016 15.6248 30.6639L16.2015 31.8342L16.5202 31.6792L15.8598 30.3407C16.0324 30.0946 16.1991 29.8445 16.3596 29.5906L16.9667 30.6664L17.2766 30.4953L16.5726 29.247C16.7567 28.9422 16.9339 28.6325 17.1009 28.3171L17.8328 29.343L18.1226 29.1404L17.2805 27.9614C17.4445 27.6343 17.6017 27.3038 17.7466 26.966L18.5769 27.9226L18.8462 27.6929L17.8964 26.5982C18.0448 26.23 18.1843 25.8578 18.3096 25.4784L19.2252 26.3385L19.4695 26.0836L18.4266 25.1038C18.5329 24.7553 18.6303 24.4035 18.717 24.0474L19.6702 24.8605L19.9018 24.5949L18.8071 23.6607C18.8844 23.3088 18.95 22.9532 19.0078 22.5946L19.9615 23.3292L20.1793 23.052L19.0704 22.1982C19.1204 21.8357 19.1556 21.4684 19.184 21.0996L20.1945 21.7945L20.3967 21.5062L19.2119 20.6911C19.2305 20.349 19.2433 20.0064 19.2433 19.6594ZM31.8573 30.1837L30.5506 30.1609C30.3728 29.9132 30.2012 29.6612 30.0361 29.405L31.1552 29.4854L31.1797 29.1351L29.8099 29.0367C29.6442 28.7653 29.4858 28.4897 29.335 28.21L30.4023 28.4009L30.4654 28.0549L29.1294 27.816C28.979 27.5195 28.837 27.219 28.7034 26.9147L29.7374 27.2016L29.8334 26.8638L28.5257 26.5008C28.3867 26.1609 28.2582 25.8168 28.1404 25.4691L29.1504 25.8626L29.2806 25.536L27.9979 25.0359C27.8971 24.7132 27.807 24.3866 27.7238 24.0566L28.7255 24.5029L28.8714 24.183L27.618 23.6238C27.5402 23.2773 27.4761 22.926 27.4183 22.5723L28.4493 23.0947L28.6114 22.7816L27.3507 22.1439C27.3048 21.8062 27.2684 21.4674 27.2415 21.1277L28.2256 21.6947L28.4038 21.3908L27.2131 20.7047C27.1921 20.3565 27.181 20.0077 27.1799 19.6589L27.1803 19.625L28.1174 20.2937L28.325 20.0088L27.1901 19.1995C27.2009 18.7648 27.2249 18.334 27.266 17.9076L28.1414 18.6083L28.3642 18.3355L27.312 17.4938C27.3625 17.0761 27.4261 16.6622 27.504 16.2537L28.253 17.0465L28.512 16.8066L27.5901 15.8307C27.6746 15.4407 27.7721 15.0536 27.8824 14.6701L28.5776 15.5976L28.8625 15.3882L28.0077 14.248C28.1037 13.9416 28.2078 13.6378 28.3201 13.337L28.9874 14.2267L29.2728 14.0183L28.4728 12.9503C28.6217 12.58 28.7798 12.2151 28.9516 11.857L29.5269 12.802L29.8309 12.6207L29.1382 11.4829C29.336 11.0938 29.5484 10.7124 29.7732 10.3403L30.2618 11.3783L30.5834 11.23L29.9935 9.97827C30.2285 9.60853 30.4791 9.24896 30.7401 8.89764L31.1611 10.0287L31.4945 9.90752L30.9932 8.5623C31.12 8.39948 31.2478 8.23762 31.3795 8.07916L30.9217 7.83105C30.7983 7.98031 30.6804 8.13344 30.5619 8.28657L29.1915 8.17366L29.1622 8.52353L30.3107 8.61851C30.0512 8.96764 29.8042 9.32565 29.57 9.69188H28.1433V10.0427H29.3555C29.1269 10.4182 28.9116 10.8016 28.7103 11.1922L27.2401 11.3463L27.2773 11.6952L28.5262 11.5643C28.3451 11.937 28.1762 12.3154 28.02 12.7012L26.5703 12.9944L26.6413 13.3384L27.8672 13.0913C27.7418 13.4208 27.6259 13.7539 27.5196 14.09L26.1601 14.3653L26.2306 14.7093L27.407 14.4714C27.2944 14.8571 27.1916 15.2467 27.1045 15.6426L25.7092 16.0933L25.8193 16.4267L27.0247 16.0381C26.9375 16.4786 26.8651 16.9239 26.8092 17.375L25.4893 18.0142L25.6445 18.3292L26.7632 17.7879C26.7182 18.2405 26.6898 18.6975 26.6775 19.1588L25.4365 19.8445L25.6088 20.1508L26.6687 19.5659C26.6687 19.5969 26.6663 19.6279 26.6663 19.6589C26.6663 20.0059 26.679 20.3495 26.6981 20.6911L25.5133 21.5062L25.7155 21.7945L26.726 21.0996C26.7544 21.4684 26.7897 21.8357 26.8391 22.1982L25.7312 23.052L25.9486 23.3292L26.9023 22.5941C26.96 22.9527 27.0256 23.3088 27.103 23.6607L26.0083 24.5949L26.2399 24.8605L27.1931 24.0469C27.2797 24.403 27.3772 24.7553 27.4839 25.1033L26.4411 26.0841L26.6854 26.3385L27.6004 25.4784C27.7257 25.8578 27.8653 26.2304 28.0141 26.5982L27.0643 27.6934L27.3331 27.9226L28.1634 26.966C28.3078 27.3038 28.4655 27.6348 28.629 27.9614L27.7874 29.1399L28.0773 29.3425L28.8097 28.3166C28.9761 28.6325 29.1538 28.9417 29.3384 29.247L28.6344 30.4948L28.9443 30.6659L29.5504 29.5901C29.712 29.844 29.8779 30.0946 30.0508 30.3402L29.3898 31.6792L29.7085 31.8337L30.2862 30.6639C30.5436 31.0159 30.8131 31.3589 31.0945 31.6922L31.38 31.2387C31.1841 31.0032 30.9952 30.7613 30.8111 30.5166L31.8509 30.5346L31.8573 30.1837Z" fill="#C7C6C6"/>
<path d="M15.0738 11.6591H15.2696C15.6505 11.6577 15.7347 11.5656 15.9477 10.9565C16.1661 10.3527 16.1528 10.2567 15.7715 10.2577H15.5751L15.0738 11.6591ZM14.7424 9.83609L16.1705 9.83706C17.3092 9.83851 17.1751 10.3706 16.9646 10.956C16.7521 11.5457 16.5029 12.0783 15.3695 12.0783H13.9395L14.7424 9.83609ZM18.1792 11.7289C18.4808 11.7279 18.5704 11.5651 18.7878 10.9565C19.0037 10.3531 19.0316 10.1869 18.731 10.1884C18.4289 10.1889 18.3374 10.3531 18.1239 10.9565C17.9036 11.5646 17.8771 11.7274 18.1792 11.7289ZM18.8725 9.79199C19.8761 9.79248 20.1028 10.1186 19.8051 10.9565C19.5035 11.7977 19.0428 12.1243 18.0372 12.1243C17.0316 12.1234 16.8069 11.7967 17.1056 10.9565C17.4042 10.1196 17.8659 9.79345 18.8725 9.79199ZM21.0232 11.7279C21.3228 11.7299 21.4149 11.5661 21.6312 10.9565C21.8467 10.3536 21.8746 10.1894 21.5701 10.1879C21.2714 10.1884 21.1828 10.3522 20.964 10.9584C20.749 11.5666 20.7226 11.7279 21.0232 11.7279ZM21.715 9.79248C22.7196 9.79248 22.9477 10.1196 22.6476 10.9565C22.346 11.7972 21.8873 12.1234 20.8812 12.1229C19.8751 12.1229 19.6489 11.7972 19.9481 10.9565C20.2501 10.1201 20.7094 9.79393 21.715 9.79248ZM24.4738 10.485L24.4958 10.4321C24.5398 10.2989 24.4899 10.1898 24.3 10.1894C24.0894 10.1894 23.9587 10.2872 23.921 10.3856C23.7653 10.83 25.4485 10.6139 25.1552 11.4333C24.9854 11.9101 24.4385 12.1238 23.5719 12.1243C22.7568 12.1243 22.3617 11.9581 22.5277 11.4924L22.5556 11.4149L23.5054 11.4159L23.4882 11.4682C23.4187 11.6591 23.5264 11.7279 23.7188 11.727C23.9181 11.7299 24.0669 11.6334 24.1105 11.5103C24.272 11.0679 22.6466 11.2884 22.9311 10.4917C23.0941 10.0425 23.5881 9.79296 24.4199 9.79248C25.2776 9.79393 25.5675 10.0033 25.3937 10.484L24.4738 10.485ZM27.047 10.296H27.0367L26.4257 11.2492H26.9765L27.047 10.296ZM26.5868 9.83803L27.822 9.839L27.9385 12.0797L26.8918 12.0788L26.9339 11.6867L26.1506 11.6848L25.9116 12.0793L24.8635 12.0783L26.5868 9.83803ZM28.8668 9.83851H29.9634L30.1044 11.2201H30.1162L30.6106 9.83754H31.5311L30.7281 12.0802L29.6486 12.0788L29.489 10.6962L29.4787 10.6948L28.9813 12.0807L28.0638 12.0783L28.8668 9.83851ZM19.7121 28.8659V29.7949L19.2127 30.2804H18.1988L17.7337 29.8114V29.3054H18.543V29.554H18.8823V29.1601H18.0857L17.7126 28.7787V27.9864L18.1988 27.5134H19.2382L19.6783 27.9578V28.4133H18.9023V28.2355H18.5425V28.5005H19.3552L19.7121 28.8659Z" fill="black"/>
<path d="M19.4688 28.965L19.2216 28.7203H18.3918L18.2958 28.6248V28.1562L18.4549 28.0026H18.9827L19.1296 28.1562V28.1974H19.4688V28.0942L19.1291 27.7501H18.3164L17.9648 28.0942V28.683L18.2204 28.9398H19.0414L19.1296 29.0358V29.6328L18.9621 29.7946H18.4549L18.2958 29.6328V29.5165H17.9648V29.6866L18.3169 30.0393H19.0958L19.4688 29.6866V28.965ZM21.9123 27.5132V28.401H21.1628V28.2352H20.802V28.5299H21.4644V29.2344H20.802V29.5543H21.1628V29.3551H21.9123V30.2807H19.7714V29.5538H19.9643V28.2352H19.7714V27.5132H21.9123Z" fill="black"/>
<path d="M21.6621 27.7501H20.0234V28.0031H20.2163V29.7946H20.0234V30.0393H21.6621V29.5993H21.4109V29.7946H20.5473V28.9902H21.218V28.7663H20.5473V28.0031H21.4109V28.1645H21.6621V27.7501ZM24.0086 28.0031V29.7946L23.5141 30.2802H22.4542L21.972 29.7946V27.99L22.4664 27.5132H23.5141L24.0086 28.0031Z" fill="black"/>
<path d="M23.7565 28.1023L23.4001 27.75H22.5825L22.2139 28.1023V29.6821L22.5536 30.0392H23.4001L23.7565 29.6947V28.1023Z" fill="black"/>
<path d="M23.4217 28.1643V29.6287L23.2582 29.7945H22.705L22.5547 29.6287V28.1643L22.7216 28.0029H23.2582L23.4217 28.1643Z" fill="black"/>
<path d="M23.1739 28.2354H22.7969V29.5539H23.1739V28.2354Z" fill="white"/>
<path d="M26.4889 27.5132V28.2352H26.2666V29.7946L25.7766 30.2802H24.7499L24.2638 29.7946V28.2352H24.0459V27.5132H25.2106V28.211H25.1019V29.5538H25.4368V28.2105H25.3281V27.5127L26.4889 27.5132Z" fill="black"/>
<path d="M26.2415 27.7501H25.5502V28.0031H25.6843V29.6371L25.5247 29.7946H25.0053L24.8545 29.6371V28.0031H24.9887V27.7501H24.2969V28.0031H24.5152V29.6909L24.8545 30.0393H25.6672L26.0192 29.7074V28.0031H26.2415V27.7501ZM27.8547 27.5132V28.2352H27.6246V29.5538H27.934V29.1104H28.6801V30.2802H26.6013V29.5538H26.7947V28.2352H26.6013V27.5132H27.8547Z" fill="black"/>
<path d="M27.608 27.75H26.8535V28.003H27.0464V29.7945H26.8535V30.0392H28.4329V29.3462H28.1817V29.7945H27.3779V28.003H27.608V27.75Z" fill="black"/>
<path d="M22.9542 5.97184C28.2774 5.97184 32.9024 8.92445 35.2529 13.2649H36.1758C33.7563 8.46118 28.7454 5.16016 22.9542 5.16016C17.1624 5.16016 12.1516 8.46118 9.73206 13.2649H10.6549C13.0049 8.92445 17.63 5.97184 22.9542 5.97184ZM22.9542 33.5833C17.5928 33.5833 12.9413 30.5885 10.6069 26.1981H9.68555C12.0874 31.0523 17.1252 34.3954 22.9542 34.3954C28.7821 34.3954 33.8204 31.0518 36.2223 26.1981H35.3009C32.9661 30.5885 28.3146 33.5833 22.9537 33.5833" fill="#ED1C24"/>
<path d="M8.81636 15.6026V18.6124L8.30965 19.1678L8.81636 19.7027V22.8754L6.74789 24.8631H0V21.6644H0.766683V16.9585L0.00342706 16.9527V13.7559H6.95841L8.81636 15.6026Z" fill="white"/>
<path d="M17.4205 13.7548V17.3864H14.1452V16.7617H13.096V17.5637H15.6546V20.6283H13.096V21.5146H14.1452V20.8933H17.4029L17.4205 24.7051H8.74609V21.565H9.43787V16.7535H8.80533V13.7495L17.4205 13.7548Z" fill="white"/>
<path d="M24.257 13.7549L26.7029 21.6677H27.7046V24.8631H22.8069V21.8388H23.4888L23.3865 21.503H21.5619L21.4933 21.8388H22.0906V24.8631H17.3877L17.4034 20.8934L18.2753 21.8092L20.9655 13.7549H24.257Z" fill="white"/>
<path d="M37.3085 21.6677V24.8631H32.584V21.8747H32.7436L32.3108 20.8619H31.8506V21.8747H32.4988V24.8631H27.6035V21.6658H28.4569V16.9532H27.6931V13.7534H34.5595L36.4527 15.6646L36.4218 18.9371L35.5176 19.8491L36.3367 21.6677H37.3085Z" fill="white"/>
<path d="M45.2127 19.0665L45.1755 22.9034L43.1222 24.8631H39.0881L37.19 23.0091L37.1895 20.7029H40.6352V21.6881H41.6241V20.5396H38.669L37.1165 19.0044L37.1043 15.715L39.1086 13.7554L43.3161 13.7534L45.0419 15.497V17.6626H41.6755V16.927H40.618V17.5948L43.8728 17.6742L45.2127 19.0665ZM9.69515 16.6377V19.4968L9.6785 20.0831L9.69515 20.5871L9.51107 23.7592L7.58652 25.6326L0.758837 25.6293L0.00488281 24.8563L1.6675 22.5555V17.8453H0.881232V14.6392H7.7427L9.69515 16.6377Z" fill="white"/>
<path d="M18.2423 14.62V18.3503H14.967V17.747H13.9183V18.2045H16.5014V21.6131H13.9183V22.4999H14.967V21.7652L18.2423 21.7919L18.2384 25.6318H9.63941L8.62598 24.5851L10.2597 22.5498V17.7378H9.56842L17.4012 13.7666L18.2423 14.62Z" fill="white"/>
<path d="M25.0948 14.6112L27.5687 22.6069H28.5704V25.6293L21.7554 25.6327V22.7227H24.3546L24.2518 22.3874H22.4276L22.3591 22.7227H22.9564V25.6327H18.2393V22.6069H19.1714L24.2572 13.7549L25.0948 14.6112Z" fill="white"/>
<path d="M38.1335 22.6508V25.6296H32.4495L33.4629 22.803H33.6225L33.1902 21.7897H32.7295V22.803H33.3782V25.6296H28.4824V22.6508H29.3181V17.8558H28.5333V14.6914H35.4864L37.2459 16.4602L37.2542 19.6769L36.3172 20.5995L37.2082 22.5195L38.1335 22.6508Z" fill="white"/>
<path d="M46.0004 19.8663V23.6326L43.953 25.6373L39.8767 25.6422L38.1093 23.8962L38.0344 21.6428H41.5144V22.5723H42.5033V21.4238L39.5414 21.4306L38.0433 19.8949L37.9365 16.5493L39.9257 14.6134L44.1175 14.5625L45.8702 16.3308L45.8672 18.3951H42.5547V17.8112H41.4972V18.479H44.6359L46.0004 19.8663Z" fill="white"/>
<path d="M45.8028 19.9464V23.5488L43.869 25.431H39.9362L38.133 23.6128V21.6502H41.2693V22.6155H42.5853V21.0881H39.498L38.0518 19.6086V16.5363L39.9366 14.7026H43.9659L45.6726 16.4239V18.1931H42.6665V17.5011H41.2693V18.5309H44.4222L45.8028 19.9464Z" fill="white"/>
<path d="M9.4684 16.6013V19.3838L8.94113 19.9459L9.46792 20.4668V23.5328L7.50176 25.4315H0.936488L0.213867 24.6886L1.70121 22.616V17.5016L1.79227 17.4556L0.937467 14.7031H7.61583L9.4684 16.6013Z" fill="#131230"/>
<path d="M0.40918 24.6187L1.77903 22.6944V17.3252H1.00108V14.7593L7.4655 14.7758L9.37193 16.6337V19.3294L8.78002 19.9526L9.36997 20.5298V21.9399L9.26226 21.9225L9.21771 23.6355L7.49928 25.2797L1.06032 25.2807L0.40918 24.6187Z" fill="#131230"/>
<path d="M8.74334 15.8581V18.6411L8.24005 19.1717L8.74334 19.7019V22.7906L6.77719 24.6888H0.211914V21.8733H0.97566V16.759H0.211914V13.9604H6.89077L8.74334 15.8581Z" fill="#ED1C24"/>
<path d="M8.00554 16.3569L6.30572 14.6899H0.949711V16.0274H1.71199V22.6028H0.948242V23.9587H6.22347L8.00505 22.2602V20.0568L6.90643 19.2044L8.00505 18.352L8.00554 16.3569Z" fill="white"/>
<path d="M5.63122 16.0259L6.23243 16.4698V18.1741L5.66403 18.5501H3.4712V16.0259H5.63122ZM5.59695 19.8706L6.23047 20.3295V22.1307L5.54848 22.6003H3.46973V19.8706H5.59695Z" fill="#ED1C24"/>
<path d="M5.49315 16.7589H4.20996V17.8202H5.49413L5.49315 16.7589ZM5.49315 20.6037H4.20996V21.8733H5.49413L5.49315 20.6037ZM18.0377 14.7033L18.0342 18.1483H15.11L15.1291 17.5018H13.7323L14.8696 17.1452L16.2992 18.6508V21.3781H13.7323V22.6162H15.1291L17.3126 21.1018L18.0372 21.8442V25.4316H9.73488L9.00981 24.6888L10.7875 23.9885L10.482 17.5018L10.9241 17.6409L17.3141 13.9595L18.0377 14.7033Z" fill="#131230"/>
<path d="M15.5106 18.0387L16.1446 18.7108V21.2282H13.5865V22.7644H15.2579L17.3044 21.3101L17.8845 21.9013V25.2804H9.79423L9.13477 24.6039L10.6182 22.7479V17.3787H9.87991L17.2114 14.0771L17.8845 14.7691V17.9965H15.5081L15.5106 18.0387Z" fill="#131230"/>
<path d="M17.313 13.9604V17.4025H14.4049V16.759H13.0072V17.9016H15.5745V20.6347H13.0072V21.8733H14.4049V21.1018H17.313V24.6888H9.00977V21.8733H9.75736V16.759H9.00977V13.9604H17.313Z" fill="#ED1C24"/>
<path d="M16.5743 14.687H9.74512V16.0259H10.4937V22.6018H9.74512V23.9558H16.5743V21.8303H15.1408V22.6018H12.2684V19.9026H14.8353V18.6301H12.2665V16.0259H15.1403V16.67H16.5743V14.687ZM24.6372 20.1052H21.4324V23.7183H24.6372V20.1052ZM34.4958 20.1052H31.2911V23.7183H34.4958V20.1052ZM43.1267 20.4764H39.9219V24.0895H43.1267V20.4764Z" fill="white"/>
<path d="M34.488 20.105H31.2832V23.7181H34.488V20.105ZM43.1193 20.4762H39.914V24.0893H43.1193V20.4762Z" fill="white"/>
<path d="M24.9091 14.7048L27.2395 22.2208L27.6126 21.8748L28.3377 22.6177V25.4331H23.7875L23.104 24.699L24.4866 22.7301L24.2918 22.1195H22.2272L22.0328 22.7301H22.6987L23.9569 25.4326H18.2949L17.5703 24.6898L19.1884 22.6177L24.1845 13.9619L24.9091 14.7048Z" fill="#131230"/>
<path d="M24.7727 14.7856L27.2402 22.7503L27.5471 22.0273L28.1846 22.6834V25.2799H23.2726L22.5578 23.8886L24.7433 22.8589L24.4344 21.9556H22.0824L21.8073 22.8589H22.526L23.7832 25.2799H18.3572L17.6943 24.5966L19.3819 22.7828L24.1421 14.1377L24.7727 14.7856Z" fill="#131230"/>
<path d="M24.6389 20.1064H21.4346V23.72H24.6389V20.1064Z" fill="#131230"/>
<path d="M24.1841 13.9619L26.6369 21.8748H27.6121V24.6902H23.0624V21.9872H23.7611L23.5662 21.3766H21.5016L21.3068 21.9872H21.9726V24.6898H17.5693V21.8743H18.4633L21.1119 13.9619H24.1841Z" fill="#ED1C24"/>
<path d="M23.6347 14.6929H21.6446L18.9999 22.6014H18.3066V23.9587H21.2363V22.6019H20.2978L20.9866 20.6465H24.0915L24.7476 22.5994H23.7988V23.9582H26.8753V22.6014H26.089L23.6347 14.6929Z" fill="white"/>
<path d="M22.6563 15.8594L23.9072 19.85H21.1611L22.4781 15.8594H22.6563Z" fill="#ED1C24"/>
<path d="M22.5591 18.0137L22.1855 19.1239H22.9165L22.5591 18.0137Z" fill="#131230"/>
<path d="M37.0905 22.031L37.8258 22.7608V25.2884H33.7324L32.3826 23.8211L34.0903 22.9178L33.3231 21.2804H32.3846V22.9183H32.9648L33.9958 25.288H28.7588L28.0273 24.5485L29.5534 22.7661V17.3969H28.7588V14.8228L35.1419 14.8586L36.9044 16.6269V19.5073L35.8817 20.5424L36.7492 22.2675L37.0905 22.031Z" fill="white"/>
<path d="M34.4982 20.1064H31.293V23.72H34.4982V20.1064ZM43.1291 20.4781H39.9238V24.0912H43.1291V20.4781Z" fill="white"/>
<path d="M37.1999 21.8745L37.9284 22.6052L37.9333 25.4309L33.6054 25.4289L32.172 23.9141L33.8497 22.8039L33.2157 21.4369H32.5181V22.8034H33.086L34.1175 25.4289L28.6612 25.4309L27.9082 24.6909L29.3975 22.643V17.5287L29.068 17.4647L28.6338 14.7302L35.2118 14.6914L37.0477 16.5406L37.0487 19.6003L36.0724 20.5583L36.8597 22.2423L37.1999 21.8745ZM45.7955 19.9477V23.5507L43.8617 25.4328L39.9421 25.4352L38.1385 23.6171L38.1257 21.653H41.262V22.6178H42.5785V21.0894H39.4897L38.0435 19.6105V16.5382L39.9284 14.705H43.9581L45.6643 16.4258V18.1945H42.6588V17.5035H41.262V18.5323H44.4144L45.7955 19.9477Z" fill="#131230"/>
<path d="M45.7949 19.9473V23.5502L43.8611 25.4324L39.9415 25.4348L38.1379 23.6166L38.1251 21.6526H41.2614V22.6174H42.5779V21.089H39.4891L38.0429 19.61V16.5377L39.9278 14.7045L43.959 14.6948L45.6647 16.4103L45.6637 18.1945H42.6577V17.503H41.2614L40.8756 18.1509H44.0285L45.7949 19.9473ZM37.0765 21.9942L37.7668 22.7032L37.778 25.2797L33.7032 25.2802L32.3486 23.8259L34.0567 22.9227L33.2891 21.2852H32.3505V22.9232H32.9312L33.9666 25.2802L28.7032 25.2821L27.9541 24.547L29.5193 22.771V17.4017H28.7252V14.8276L35.1044 14.8387L36.8674 16.6075L36.8708 19.5281L35.8657 20.5288L36.6872 22.2961C36.7132 22.3227 37.0765 21.9942 37.0765 21.9942Z" fill="#131230"/>
<path d="M45.6426 20.0063L45.6416 23.49L43.8027 25.2801L40.0061 25.282L38.2553 23.5249L38.2685 21.8022H41.1443V22.7481H42.7311V20.9406H39.5414L38.1892 19.5566V16.6113L40.03 14.8217L43.8639 14.811L45.5148 16.48L45.5124 18.0428H42.8162V17.3619H41.111V18.6616L44.2992 18.6306L45.6426 20.0063ZM34.489 20.1061H31.2842V23.7197H34.4885L34.489 20.1061Z" fill="#131230"/>
<path d="M43.1203 20.4779H39.915V24.091H43.1203V20.4779ZM43.7 15.2104H40.4957V18.824H43.7V15.2104Z" fill="#131230"/>
<path d="M37.2009 21.8743V24.6898H32.8779V22.0357H33.1227L32.4882 20.6681H31.7896V22.0357H32.359V24.6893H27.9062V21.8738H28.67V16.7604H27.9062V13.9619H34.4867L36.3236 15.8111V18.818L35.316 19.8153L36.2742 21.8738L37.2009 21.8743Z" fill="#ED1C24"/>
<path d="M36.4622 22.5979H35.8081L34.4299 19.6647L35.5873 18.4983L35.5839 16.0942L34.1704 14.6807H28.6416V16.0239H29.4053V22.5984H28.6431V23.9552H31.6222V22.5984H31.0543V19.9356L32.9812 19.9404L34.2346 22.5984H33.6118V23.9552H36.4626L36.4622 22.5979Z" fill="white"/>
<path d="M33.9219 16.6161V17.9157L33.2394 18.5913H31.1611V16.021H33.304L33.9219 16.6161Z" fill="#ED1C24"/>
<path d="M33.1855 16.7539H31.9014V17.8636H33.185L33.1855 16.7539Z" fill="#131230"/>
<path d="M45.0704 19.2052V22.8076L43.1365 24.6898H39.2037L37.4006 22.8721V20.9095H40.5364V21.8748H41.8524V20.3469H38.7656L37.3193 18.8669V15.7951L39.2042 13.9619H43.2335L44.9401 15.6832V17.4519H41.9341V16.7604H40.5364V17.7892H43.6893L45.0704 19.2052Z" fill="#ED1C24"/>
<path d="M44.3321 19.5024L43.3696 18.5187L40.1726 18.5162L39.7991 18.145V16.6234L40.4159 16.0293H42.1011L42.67 16.6239V16.7204H44.3365L44.336 16.1122L42.9177 14.6875H39.5004L38.0537 16.1122L38.0557 18.57L39.0711 19.6148H42.2484L42.5892 19.9845V21.9762L41.939 22.6033H40.4145L39.7971 21.9762V21.637H38.1365V22.5752L39.5244 23.9625L42.8252 23.9543L44.3316 22.5165L44.3321 19.5024Z" fill="white"/>
</svg>
