<svg width="46" height="35" viewBox="0 0 46 35" fill="none" xmlns="http://www.w3.org/2000/svg">
<path d="M10.296 0.645508V8.16005L0 8.15181L2.75346 11.8248L4.9621 11.7113L4.95995 19.6015L10.296 18.3176V25.9183L22.9934 34.974L35.6986 25.9144V18.3321L41.2267 19.8356C42.9034 19.877 43.335 18.94 43.4457 18.3136C43.4992 18.0036 43.5324 17.6711 43.5442 17.4014C43.5558 17.2102 43.5584 17.0202 43.5585 16.8333C43.5587 16.5772 43.5582 16.24 43.5575 15.904C43.5562 15.2319 43.5539 14.5645 43.5539 14.5641V14.5638C43.553 14.1844 43.5161 13.7501 43.2834 13.3221C43.1213 13.0246 42.8731 12.7744 42.579 12.5784L46 8.16561L35.6988 8.16507V0.645508H10.296Z" fill="white"/>
<path d="M22.9952 31.2464L11.2236 24.5571V25.4425L22.9952 33.8318L34.7665 25.4425V24.5571L22.9952 31.2464Z" fill="#06141F"/>
<path d="M20.9333 25.989H25.0595L26.0505 28.0615L34.7667 23.569V18.4784C27.0105 16.7816 18.9796 16.7819 11.2236 18.4793V23.5692L19.9395 28.0617L20.9333 25.989Z" fill="#06141F"/>
<path d="M19.8886 9.10596H14.0801C14.1709 9.14646 14.9098 9.40185 14.9098 10.1454L14.9052 15.1952C14.8939 15.9162 15.4251 16.2628 16.4512 16.1576C18.1145 15.9924 19.7837 15.8921 21.4548 15.857V12.2133C20.3584 12.2239 19.416 12.2473 18.3204 12.285V13.509C18.6752 13.4926 18.8645 13.4789 19.2202 13.4651V14.7322C18.5993 14.7602 18.0761 14.7967 17.4534 14.8396C17.2906 14.8503 17.2159 14.7966 17.2159 14.6675V10.5035C17.2159 10.3947 17.294 10.3402 17.4541 10.3383C17.9647 10.3299 18.4259 10.3234 18.9363 10.3178C19.0957 10.3166 19.1607 10.3741 19.1607 10.4965V11.2256C19.9296 11.2118 20.7015 11.2018 21.4697 11.1966L21.4734 10.175C21.4747 9.50687 20.9021 9.10596 19.889 9.10596" fill="#EA0029"/>
<path d="M33.3034 10.6813V12.4622C33.3034 12.5941 33.2294 12.6707 33.0702 12.6585C32.4903 12.6151 32.0266 12.5751 31.4444 12.537V10.4048C32.0257 10.4191 32.4831 10.4356 33.0634 10.4501C33.2239 10.4562 33.3034 10.527 33.3034 10.6813ZM35.6138 13.0298V10.3777C35.5984 9.58107 34.9427 9.10667 33.9294 9.10596H28.3057C28.404 9.14718 29.1644 9.39271 29.1644 10.1184L29.1668 16.1561C29.9127 16.2282 30.7016 16.3158 31.4444 16.4139V13.7829C31.818 13.8141 32.2136 13.8481 32.5872 13.8845C32.9835 14.8183 33.2787 15.7421 33.6741 16.7259C34.4233 16.8531 35.2393 17.0255 35.9845 17.1797C35.58 16.1427 35.1641 15.1102 34.7367 14.0824C35.3055 13.977 35.6229 13.5978 35.6138 13.0298Z" fill="#EA0029"/>
<path d="M3.23856 10.8539C4.14212 10.8041 5.00197 10.7562 5.90821 10.7136V18.1118C6.652 17.91 7.46708 17.7211 8.21678 17.5446V10.6105C8.75892 10.5878 9.39113 10.5662 9.93219 10.5471V9.10614H1.90625C2.33916 9.69712 2.78335 10.2799 3.23856 10.8539ZM41.7827 13.2098C41.0896 12.8988 39.4992 12.1751 39.0085 11.9471C38.8286 11.8626 38.7618 11.7183 38.7618 11.6195V10.8915C38.7595 10.737 38.8392 10.6614 38.9974 10.6693C40.1771 10.7227 41.5567 10.7822 42.7317 10.8476L44.0814 9.10614H35.6359C35.7521 9.16886 36.5108 9.42963 36.5108 10.2867C36.5108 10.2867 36.517 11.2061 36.517 11.6962C36.517 12.1878 36.7706 12.583 37.3842 12.8639C37.996 13.1445 39.9874 13.9994 40.1395 14.082C40.3383 14.1874 40.3716 14.2908 40.3716 14.5837V16.3911C40.3725 16.6366 40.1955 16.597 40.1379 16.5839C39.7331 16.4922 39.3971 16.4235 38.9902 16.3375C38.9325 16.3253 38.7878 16.2861 38.7851 16.0529V14.8571C38.0472 14.7341 37.3077 14.6202 36.567 14.5154V15.8925C36.5813 16.7768 37.2202 17.4336 38.2315 17.6858C39.1818 17.9184 40.0952 18.1718 41.0348 18.4484C42.0349 18.7513 42.6171 18.338 42.6151 17.2655C42.6223 17.2386 42.6134 14.5668 42.6134 14.5668C42.6116 13.9431 42.4756 13.5232 41.7825 13.2098M11.132 10.2302V16.9273C11.896 16.7874 12.6728 16.6585 13.442 16.5445V9.10596H10.3065C10.5146 9.16689 11.1321 9.51207 11.1321 10.2304M21.7129 9.10596C21.8279 9.15865 22.5909 9.40095 22.5909 10.0741C22.5889 11.998 22.5889 13.9209 22.5876 15.8436C24.3885 15.8346 26.1587 15.9031 27.954 16.0438V14.8132C26.9146 14.7445 25.874 14.6978 24.8326 14.6731V13.1286C25.7604 13.147 26.6851 13.1676 27.6114 13.2078V11.9418C26.6853 11.913 25.7591 11.8932 24.8326 11.8824C24.8351 10.3471 24.8326 10.3471 24.8326 10.3083C25.8687 10.3157 26.8407 10.3252 27.8759 10.3395V9.10614L21.7129 9.10596Z" fill="#EA0029"/>
<path d="M15.2679 20.9184C15.3422 20.9087 15.395 20.8836 15.426 20.8431C15.4565 20.8037 15.4717 20.7523 15.4717 20.6904C15.4717 20.6198 15.4543 20.5696 15.4164 20.5435C15.3805 20.518 15.3311 20.5085 15.2677 20.516C15.1617 20.5309 15.0551 20.5454 14.9482 20.56V20.9605C15.0551 20.9462 15.1617 20.9322 15.2679 20.9184ZM15.2267 20.2843C15.3007 20.2741 15.3535 20.2495 15.3839 20.2108C15.4153 20.1727 15.4309 20.1236 15.4309 20.0632C15.4298 19.9924 15.4131 19.9443 15.378 19.9192C15.3427 19.8941 15.2924 19.8863 15.2267 19.895C15.1338 19.9068 15.0409 19.9194 14.9482 19.9327V20.3221C15.0424 20.3096 15.1336 20.296 15.2267 20.2843ZM15.2326 19.6565C15.3204 19.6447 15.3929 19.6432 15.4543 19.6526C15.5159 19.6621 15.5639 19.6818 15.6039 19.7119C15.6415 19.7434 15.671 19.7841 15.687 19.8357C15.7034 19.8872 15.7128 19.9504 15.7128 20.0257C15.7128 20.0917 15.7022 20.1506 15.6834 20.2006C15.6637 20.2495 15.6332 20.2927 15.5935 20.3322C15.6435 20.3524 15.6834 20.3872 15.7117 20.4366C15.7396 20.4861 15.7538 20.5589 15.7538 20.6551C15.7538 20.7358 15.7434 20.8039 15.7197 20.8625C15.6988 20.9185 15.6653 20.969 15.6218 21.01C15.5759 21.0521 15.5223 21.0849 15.4638 21.1064C15.3966 21.132 15.3265 21.1494 15.2552 21.1582C15.0621 21.1833 14.869 21.2102 14.6758 21.2365V19.7328C14.8606 19.7069 15.0471 19.6812 15.2326 19.6565ZM16.4562 20.4116C16.5767 20.3981 16.6994 20.3843 16.8201 20.3712C16.7601 20.1848 16.7007 19.9983 16.6396 19.8119C16.5791 20.0112 16.5153 20.211 16.4562 20.4116ZM16.898 20.6017C16.725 20.6196 16.5515 20.6386 16.3797 20.6583C16.3412 20.7827 16.3036 20.9071 16.2664 21.0324C16.1691 21.0437 16.0733 21.0553 15.9771 21.0664C16.1387 20.5454 16.3024 20.0257 16.4632 19.5056C16.5801 19.4927 16.6985 19.4803 16.8151 19.4676L17.3001 20.9229C17.2039 20.9322 17.1081 20.9417 17.0123 20.9524C16.9725 20.8349 16.936 20.7182 16.898 20.6017ZM18.4728 19.5959C18.3975 19.5821 18.3211 19.5742 18.2445 19.5724C18.1729 19.5694 18.1066 19.5724 18.0439 19.576C18.0102 19.5792 17.9767 19.5842 17.9436 19.5911C17.911 19.5965 17.8842 19.6074 17.8593 19.6228C17.8356 19.636 17.8159 19.6551 17.8019 19.6784C17.7864 19.702 17.7799 19.7321 17.7799 19.7696C17.7778 19.7984 17.7833 19.8273 17.796 19.8533C17.807 19.8754 17.8247 19.8935 17.8467 19.9047C17.8711 19.9192 17.9013 19.93 17.9402 19.9384C17.9775 19.9474 18.0244 19.9553 18.079 19.9646C18.1555 19.9782 18.2223 19.9936 18.2805 20.0108C18.3401 20.0273 18.3887 20.0515 18.4283 20.0816C18.4669 20.1119 18.4972 20.1488 18.5182 20.1931C18.5379 20.2384 18.5499 20.2936 18.5499 20.3594C18.5499 20.518 18.501 20.6386 18.4037 20.7243C18.3077 20.81 18.1727 20.8573 18.0027 20.8696C17.9284 20.8738 17.8496 20.8738 17.7659 20.868C17.6837 20.8631 17.6019 20.8523 17.5211 20.8358V20.6143C17.6132 20.6245 17.6979 20.6304 17.7753 20.6329C17.851 20.6376 17.9257 20.6359 18.0009 20.63C18.0923 20.622 18.1603 20.5985 18.2012 20.561C18.2445 20.5234 18.2644 20.4648 18.2644 20.3865C18.265 20.3617 18.2585 20.3372 18.2456 20.316C18.2327 20.2948 18.214 20.2778 18.1917 20.2669C18.1629 20.2527 18.1322 20.2428 18.1005 20.2375C18.0647 20.23 18.0185 20.2221 17.9703 20.2146C17.9014 20.2044 17.8335 20.1887 17.7672 20.1676C17.713 20.151 17.6621 20.1247 17.6171 20.0902C17.5771 20.0588 17.5453 20.0181 17.5245 19.9716C17.5024 19.9161 17.4914 19.8569 17.4923 19.7972C17.4923 19.6682 17.5342 19.5631 17.6196 19.4827C17.7038 19.402 17.837 19.3551 18.0244 19.3386C18.1747 19.3259 18.3261 19.3374 18.4728 19.3726V19.5959ZM18.8656 19.288C19.2041 19.2644 19.5437 19.2439 19.8829 19.2248C19.882 19.3051 19.882 19.385 19.8829 19.4647C19.6395 19.4782 19.3948 19.492 19.1516 19.5083V19.8929C19.3868 19.8784 19.6219 19.8642 19.8575 19.8515C19.827 19.933 19.795 20.0151 19.7638 20.0965C19.5603 20.1083 19.3554 20.1194 19.1516 20.1336V20.5324C19.3948 20.5162 19.6395 20.5024 19.8829 20.4897C19.882 20.5691 19.882 20.6497 19.8829 20.7299C19.5437 20.7469 19.2041 20.7684 18.8656 20.7922V19.288ZM20.8171 20.4496C20.8921 20.4478 20.9446 20.4268 20.9747 20.3904C21.0058 20.3524 21.022 20.3044 21.022 20.2415C21.022 20.1698 21.0044 20.1189 20.9664 20.089C20.9306 20.0603 20.879 20.0459 20.8171 20.0488C20.7093 20.0529 20.6029 20.0569 20.4949 20.0605V20.4619C20.6029 20.458 20.7091 20.4535 20.8171 20.4496ZM20.7746 19.8121C20.8497 19.8092 20.9023 19.7897 20.934 19.7531C20.9641 19.7187 20.9797 19.6696 20.9797 19.6101C20.9797 19.5402 20.9636 19.49 20.9269 19.462C20.8921 19.433 20.8418 19.4203 20.7746 19.4224C20.6813 19.426 20.5889 19.4294 20.4949 19.4337V19.8226C20.5889 19.8189 20.6811 19.8148 20.7746 19.8121ZM20.7821 19.1837C20.8685 19.1808 20.9423 19.1877 21.0044 19.2022C21.0651 19.2165 21.1167 19.2423 21.1552 19.2762C21.1928 19.3099 21.2218 19.3533 21.2387 19.4067C21.256 19.4604 21.2637 19.5239 21.2637 19.5984C21.2637 19.6658 21.2548 19.7239 21.2349 19.7714C21.2152 19.8189 21.1844 19.8596 21.1448 19.894C21.1962 19.9192 21.2349 19.9594 21.263 20.0108C21.2917 20.0623 21.306 20.1363 21.306 20.2322C21.306 20.3133 21.2945 20.3798 21.2722 20.4365C21.2509 20.49 21.2167 20.5374 21.1728 20.5745C21.1258 20.6128 21.0715 20.641 21.0132 20.6575C20.9454 20.676 20.8755 20.6862 20.8052 20.6879C20.6099 20.6954 20.4143 20.7039 20.2201 20.7126V19.2083C20.4075 19.1984 20.5937 19.1914 20.7821 19.1837ZM22.0118 20.0556L22.3784 20.0495C22.3165 19.8574 22.257 19.6653 22.1947 19.4724C22.1336 19.6669 22.0717 19.8608 22.0118 20.0556ZM22.4542 20.2868C22.2814 20.2888 22.1082 20.292 21.9336 20.2936C21.896 20.4155 21.8578 20.5377 21.82 20.6589C21.7229 20.6605 21.6257 20.6628 21.5299 20.6648C21.6923 20.1601 21.8566 19.6558 22.019 19.1502C22.1363 19.1488 22.2545 19.1475 22.3711 19.1459C22.5341 19.6459 22.6953 20.146 22.8591 20.6476C22.7624 20.6476 22.6652 20.6476 22.5679 20.6487C22.5305 20.5277 22.4933 20.4076 22.4542 20.2868ZM23.0945 20.6476V19.1416C23.1898 19.1416 23.2854 19.1438 23.3816 19.1438V20.4082C23.6098 20.4097 23.8379 20.4127 24.0661 20.4171C24.034 20.4956 24.0031 20.5755 23.9724 20.6551C23.6798 20.6503 23.3871 20.6478 23.0945 20.6476ZM24.319 20.6605V19.1561C24.4139 19.1593 24.5079 19.1615 24.6039 19.1647V20.428C24.8328 20.4343 25.0606 20.4424 25.2879 20.4506C25.2575 20.5304 25.227 20.6083 25.1955 20.6872C24.9032 20.6775 24.6098 20.6678 24.319 20.6605ZM27.2329 20.7318C27.1565 20.7496 27.079 20.7628 27.001 20.7713C26.924 20.7806 26.8491 20.782 26.7778 20.7779C26.6691 20.7704 26.5781 20.7467 26.5017 20.7039C26.4277 20.6623 26.3644 20.604 26.3168 20.5336C26.2677 20.4578 26.2327 20.3738 26.2135 20.2856C26.1908 20.1842 26.1797 20.0805 26.1805 19.9766C26.1805 19.8596 26.1916 19.7531 26.2135 19.6606C26.235 19.5667 26.269 19.4893 26.3168 19.4248C26.3646 19.362 26.4254 19.3142 26.5017 19.2841C26.5781 19.2533 26.6714 19.2411 26.7778 19.2479C26.8575 19.2533 26.9336 19.2645 27.0053 19.2807C27.0753 19.2968 27.1529 19.3214 27.2327 19.3533V19.5694C27.1885 19.5581 27.1491 19.5468 27.1129 19.537C27.0762 19.5285 27.0416 19.5199 27.0087 19.5133C26.9766 19.5076 26.9442 19.5029 26.9123 19.499C26.8804 19.4959 26.8461 19.4918 26.8108 19.49C26.6897 19.4828 26.6012 19.523 26.55 19.6101C26.4972 19.6993 26.4712 19.8264 26.4712 19.9931C26.4712 20.073 26.4762 20.1461 26.4902 20.211C26.5017 20.2766 26.5214 20.334 26.55 20.3798C26.5781 20.428 26.6139 20.465 26.6575 20.4929C26.6996 20.5203 26.751 20.5363 26.8126 20.5395C26.8461 20.542 26.8788 20.542 26.9087 20.542C26.941 20.542 26.9723 20.542 27.0064 20.5395C27.0386 20.5363 27.0728 20.5331 27.1104 20.5288C27.1466 20.5248 27.1885 20.5194 27.2329 20.5105V20.7318ZM27.5322 20.8205V19.3158C27.6257 19.3228 27.7199 19.3305 27.8173 19.3386V20.6028C28.0439 20.622 28.2719 20.6417 28.5 20.6619C28.4676 20.739 28.4372 20.817 28.4065 20.8935C28.1153 20.8667 27.8238 20.8425 27.5322 20.8205ZM29.0475 20.4639C29.0475 20.5589 29.073 20.6282 29.1238 20.6714C29.1747 20.7168 29.2395 20.7429 29.3226 20.7503C29.4091 20.7603 29.4768 20.7489 29.5272 20.7157C29.5775 20.6825 29.6026 20.6184 29.6026 20.523V19.5113C29.6984 19.5215 29.7938 19.533 29.8918 19.545V20.5583C29.8918 20.6487 29.8769 20.725 29.8542 20.786C29.8284 20.8465 29.7915 20.8937 29.7437 20.9284C29.6948 20.9634 29.6341 20.9847 29.5646 20.9947C29.4843 21.006 29.4029 21.0061 29.3226 20.9953C29.2405 20.9877 29.1596 20.9705 29.0816 20.9438C29.0168 20.9211 28.9574 20.8853 28.9069 20.8388C28.8584 20.7924 28.8216 20.7351 28.7995 20.6716C28.774 20.596 28.7616 20.5165 28.763 20.4366V19.4235C28.8579 19.433 28.9537 19.4418 29.0475 19.4513V20.4639ZM30.858 20.9322C30.9315 20.9417 30.9847 20.9311 31.0148 20.8994C31.0459 20.868 31.062 20.8205 31.062 20.7591C31.062 20.6872 31.0436 20.6331 31.0069 20.5974C30.9689 20.5616 30.9198 20.5395 30.8582 20.5309C30.7515 20.516 30.6438 20.5022 30.5371 20.4886V20.8899C30.6438 20.9032 30.7515 20.9186 30.858 20.9322ZM30.8161 20.287C30.8896 20.2972 30.9433 20.287 30.973 20.256C31.0044 20.2266 31.0196 20.1816 31.0196 20.1194C31.0208 20.0495 31.0031 19.9976 30.9682 19.9624C30.9327 19.9289 30.8828 19.9069 30.8161 19.8985C30.7232 19.8856 30.6302 19.8736 30.5371 19.8622V20.2512C30.6302 20.2632 30.7226 20.2754 30.8161 20.287ZM30.8226 19.6606C30.9096 19.6732 30.982 19.6915 31.0443 19.7171C31.105 19.7422 31.1557 19.7762 31.193 19.8156C31.2302 19.856 31.2594 19.9047 31.2762 19.9608C31.2936 20.0176 31.3017 20.0834 31.3027 20.1571C31.3027 20.225 31.2911 20.2807 31.2728 20.325C31.2519 20.3691 31.223 20.4055 31.1828 20.4315C31.234 20.4677 31.2728 20.5126 31.3017 20.5691C31.3285 20.6259 31.3421 20.7017 31.3421 20.7989C31.3421 20.8786 31.3314 20.944 31.3097 20.9964C31.2888 21.0454 31.2545 21.0875 31.2109 21.118C31.167 21.148 31.1142 21.1664 31.0522 21.1727C30.9833 21.1802 30.9138 21.1786 30.8453 21.168C30.6519 21.1426 30.4583 21.1172 30.2633 21.0935V19.5893C30.4499 19.6122 30.6367 19.6364 30.8226 19.6606Z" fill="white"/>
<path d="M12.6457 7.53619V2.9951H15.5138L17.5399 7.53619H28.3659L30.4828 2.9951H33.3448V7.53619H34.7668V1.57227H11.2236V7.53619H12.6457Z" fill="#06141F"/>
<path d="M23.8234 5.93162C23.8234 5.94954 23.8287 5.95976 23.8393 5.95976C23.8475 5.95863 23.8553 5.95542 23.8619 5.95044L26.7889 4.04891C26.8383 4.01432 26.8974 3.99657 26.9578 3.99819H27.6011C27.6996 3.99819 27.7664 4.06396 27.7664 4.16271V5.39216C27.7664 5.54056 27.7334 5.62694 27.602 5.70598L26.8216 6.1759C26.8139 6.18134 26.8048 6.18462 26.7953 6.18539C26.786 6.18539 26.7765 6.17787 26.7765 6.15063V4.71632C26.7765 4.6993 26.7719 4.68801 26.7606 4.68801C26.7523 4.68899 26.7445 4.69229 26.738 4.6975L24.599 6.08862C24.5506 6.12165 24.4932 6.13904 24.4346 6.13844H23.0167C22.9171 6.13844 22.8514 6.07267 22.8514 5.97302V4.20124C22.8514 4.18798 22.8458 4.17579 22.8346 4.17579C22.8263 4.17678 22.8185 4.18 22.812 4.18511L21.4007 5.03301C21.3864 5.04233 21.3828 5.04914 21.3828 5.05559C21.3828 5.06114 21.3856 5.06688 21.395 5.07709L22.4035 6.08575C22.4167 6.09883 22.426 6.10923 22.426 6.12052C22.426 6.12984 22.411 6.13736 22.3933 6.13736H21.4824C21.4109 6.13736 21.3556 6.12715 21.3171 6.08862L20.7058 5.47747C20.7035 5.47471 20.7006 5.47246 20.6974 5.47086C20.6941 5.46925 20.6906 5.46833 20.687 5.46815C20.6803 5.46853 20.6739 5.4705 20.6682 5.47389L19.6464 6.08862C19.5845 6.12625 19.5422 6.13647 19.4811 6.13647H18.5412C18.4409 6.13754 18.375 6.07069 18.375 5.97194V4.76615C18.375 4.61668 18.408 4.53101 18.5403 4.45215L19.3253 3.98026C19.3315 3.9762 19.3387 3.97391 19.3461 3.97363C19.3582 3.97363 19.3647 3.986 19.3647 4.01306V5.62784C19.3647 5.64487 19.3685 5.65239 19.3808 5.65239C19.3892 5.65106 19.3971 5.64788 19.4041 5.64307L22.056 4.04622C22.1067 4.01127 22.1688 3.99424 22.2306 3.99729H23.658C23.7565 3.99729 23.8234 4.06306 23.8234 4.16164L23.8225 5.93162H23.8234Z" fill="white"/>
</svg>
