<svg width="46" height="36" viewBox="0 0 46 36" fill="none" xmlns="http://www.w3.org/2000/svg">
<g clip-path="url(#clip0_1464_4940)">
<path d="M23.7472 34.8443C16.6352 34.9374 10.4691 30.6334 7.84079 24.4583C7.95573 24.4118 8.06567 24.3514 8.17103 24.2813C10.729 30.341 16.763 34.5593 23.7421 34.4674C31.2984 34.3651 37.6114 29.2519 39.5606 22.3321C39.6776 22.3763 39.7993 22.4071 39.9233 22.4242C37.928 29.4973 31.4634 34.7398 23.7472 34.8443ZM6.48869 18.035C6.3674 8.64722 13.9092 0.904016 23.3006 0.77431C32.5203 0.659509 40.1487 7.9227 40.543 17.0667C40.4201 17.0359 40.2932 17.019 40.1638 17.0173C39.7449 8.08915 32.3149 1.03903 23.3054 1.15118C14.1035 1.27823 6.74693 8.83182 6.86601 18.0303C6.87117 18.4198 6.89079 18.8058 6.92237 19.1885C6.79547 19.2105 6.67147 19.2469 6.55273 19.2968C6.5158 18.8771 6.49444 18.4562 6.48869 18.035ZM42.2423 19.7268C42.2423 18.5359 41.6457 17.5268 40.8173 17.1625C40.4722 7.82325 32.699 0.387705 23.2971 0.504868C13.7571 0.636639 6.09604 8.50217 6.2191 18.0385C6.22545 18.5081 6.25127 18.9732 6.29465 19.4328C5.59138 19.8718 5.10547 20.7975 5.10547 21.8718C5.10547 23.3693 6.04734 24.5832 7.20923 24.5832C7.33657 24.5832 7.46067 24.5663 7.58197 24.5381C10.2456 30.8246 16.5163 35.2089 23.7508 35.1137C31.612 35.0075 38.1946 29.6512 40.2007 22.4342C41.3335 22.3915 42.2423 21.1972 42.2423 19.7268Z" fill="#BEC0C2"/>
<path d="M12.3568 14.5648C14.1512 8.42218 20.5884 4.89491 26.7352 6.69086C32.8797 8.48504 36.4051 14.9212 34.6107 21.0659C32.8154 27.2089 26.3779 30.734 20.232 28.9401C14.0885 27.1446 10.5614 20.7099 12.3568 14.5648Z" fill="white"/>
<path d="M29.6912 9.97489L30.0329 8.80002L30.3503 8.66175L29.1763 8.04584C29.0691 7.988 28.9842 8.02415 28.9551 8.08066L28.9202 8.15503C28.8892 8.21538 28.9242 8.30953 29.0196 8.35926L29.9318 8.84045L29.6203 8.97797L29.3657 9.87558C29.3339 9.97961 29.376 10.0687 29.4416 10.0907L29.5166 10.1136C29.5761 10.1313 29.6593 10.0925 29.6912 9.97489Z" fill="#BEC0C2"/>
<path d="M28.4917 10.3874L28.9112 9.24219L29.2359 9.12783L28.1076 8.42751C28.0039 8.36273 27.9174 8.39239 27.8842 8.44669L27.8444 8.51561C27.81 8.57625 27.8373 8.67128 27.9295 8.72794L28.8069 9.27332L28.488 9.38798L28.1699 10.2639C28.1327 10.3672 28.1681 10.4594 28.2307 10.4849L28.3054 10.513C28.3642 10.5354 28.4498 10.5019 28.4917 10.3874Z" fill="#BEC0C2"/>
<path d="M27.2644 10.7115L27.7602 9.60086L28.094 9.50893L27.0146 8.72966C26.9164 8.65839 26.8275 8.67993 26.7911 8.73232L26.745 8.80064C26.708 8.85657 26.7288 8.95336 26.8166 9.01667L27.6544 9.62417L27.3292 9.71581L26.9522 10.5665C26.9081 10.6665 26.9379 10.7607 26.998 10.7914L27.0706 10.8244C27.1284 10.8513 27.2163 10.824 27.2644 10.7115Z" fill="#BEC0C2"/>
<path d="M26.0178 10.9486L26.5887 9.87481L26.9267 9.80723L25.9031 8.953C25.8116 8.87273 25.721 8.89044 25.6803 8.94105L25.6303 9.00362C25.5878 9.0563 25.6034 9.15575 25.6869 9.22422L26.4824 9.89045L26.1501 9.95936L25.7163 10.7811C25.6655 10.8753 25.6883 10.9728 25.7476 11.0051L25.8175 11.0467C25.8726 11.0759 25.9617 11.0572 26.0178 10.9486Z" fill="#BEC0C2"/>
<path d="M24.7577 11.0931L25.4015 10.0638L25.7434 10.0222L24.7781 9.0946C24.6919 9.00886 24.6021 9.0189 24.5579 9.06597L24.5038 9.12544C24.4582 9.1765 24.4675 9.27492 24.5444 9.34988L25.2932 10.072L24.9574 10.1166L24.47 10.9028C24.4121 10.9968 24.4284 11.0951 24.4827 11.1321L24.5516 11.1756C24.604 11.2108 24.694 11.1964 24.7577 11.0931Z" fill="#BEC0C2"/>
<path d="M23.4924 11.1446L24.202 10.1652L24.5486 10.1496L23.6486 9.15489C23.5684 9.06384 23.4745 9.06606 23.4298 9.10959L23.3705 9.16521C23.3231 9.21243 23.3243 9.31248 23.3967 9.39143L24.0946 10.1676L23.7575 10.1868L23.2158 10.9367C23.1524 11.0236 23.1623 11.1223 23.2158 11.1644L23.2793 11.2138C23.3293 11.2511 23.4209 11.2451 23.4924 11.1446Z" fill="#BEC0C2"/>
<path d="M22.224 11.1069L23 10.1813L23.3459 10.1885L22.5164 9.13225C22.4418 9.03486 22.3491 9.03205 22.3009 9.07175L22.2393 9.1234C22.1874 9.16663 22.1821 9.26653 22.2494 9.35078L22.8914 10.1749L22.5527 10.1693L21.9643 10.8783C21.8942 10.9601 21.8966 11.0597 21.9463 11.1059L22.0072 11.1593C22.0534 11.2013 22.1455 11.2007 22.224 11.1069Z" fill="#BEC0C2"/>
<path d="M20.9622 10.9768L21.7996 10.11L22.1443 10.1417L21.3879 9.02867C21.3211 8.927 21.23 8.91697 21.1794 8.95253L21.1132 8.9996C21.0574 9.03811 21.0451 9.13875 21.108 9.22743L21.6918 10.0943L21.3561 10.0656L20.7183 10.7287C20.6428 10.8063 20.6391 10.9071 20.6863 10.9573L20.7425 11.012C20.7877 11.0581 20.8783 11.0653 20.9622 10.9768Z" fill="#BEC0C2"/>
<path d="M19.7107 10.7552L20.6052 9.95259L20.9471 10.009L20.2692 8.84353C20.2087 8.73685 20.1181 8.72002 20.0645 8.75293L19.9949 8.79322C19.9385 8.83011 19.9209 8.92794 19.9757 9.0212L20.4998 9.92884L20.1651 9.87483L19.4842 10.4922C19.4046 10.5625 19.3939 10.6616 19.4375 10.7131L19.4901 10.7758C19.5311 10.8239 19.6224 10.8375 19.7107 10.7552Z" fill="#BEC0C2"/>
<path d="M18.4791 10.4441L19.4263 9.70751L19.7621 9.78866L19.1646 8.57853C19.1137 8.46594 19.0231 8.4438 18.9675 8.47199L18.8965 8.50873C18.8376 8.5406 18.813 8.63578 18.8611 8.73391L19.323 9.6777L18.9923 9.59817L18.271 10.1644C18.1857 10.23 18.1695 10.3286 18.2087 10.3829L18.257 10.4484C18.2945 10.5008 18.3858 10.5203 18.4791 10.4441Z" fill="#BEC0C2"/>
<path d="M17.2703 10.0458L18.2652 9.37886L18.5957 9.48554L18.0821 8.23276C18.0366 8.11958 17.9492 8.08992 17.8914 8.11427L17.8181 8.14496C17.7576 8.17211 17.7242 8.26596 17.7676 8.36748L18.1631 9.3402L17.8414 9.23941L17.0814 9.75159C16.9919 9.81003 16.9665 9.90668 17.0041 9.96585L17.0478 10.0327C17.0814 10.0866 17.171 10.1133 17.2703 10.0458Z" fill="#BEC0C2"/>
<path d="M16.091 9.55901L17.1299 8.96508L17.4513 9.09626L17.0243 7.8116C16.9874 7.69341 16.9028 7.65681 16.8417 7.67747L16.7675 7.70359C16.7048 7.72691 16.6656 7.81825 16.7013 7.92065L17.0302 8.9214L16.7138 8.79568L15.9238 9.25223C15.8305 9.30403 15.8003 9.39891 15.8308 9.45793L15.8699 9.5295C15.9008 9.58778 15.9875 9.61936 16.091 9.55901ZM16.6005 25.9079L16.4243 27.0305L16.1398 27.2019L17.3278 27.6116C17.4358 27.6506 17.5121 27.6068 17.5317 27.55L17.5571 27.4785C17.5778 27.4191 17.5347 27.3388 17.4376 27.3038L16.514 26.9817L16.7905 26.8136L16.9231 25.9568C16.9387 25.8561 16.8878 25.7792 16.8245 25.7691L16.7497 25.757C16.6902 25.7485 16.6157 25.7959 16.6005 25.9079Z" fill="#BEC0C2"/>
<path d="M17.6863 25.3708L17.4297 26.4797L17.1357 26.6285L18.2913 27.1216C18.3969 27.1684 18.4757 27.1299 18.5002 27.0748L18.5294 27.0045C18.5554 26.9463 18.5166 26.8621 18.4228 26.8218L17.5237 26.4355L17.8132 26.288L18.0028 25.4418C18.0273 25.3435 17.982 25.2632 17.9174 25.2472L17.8448 25.2314C17.7872 25.2181 17.7102 25.26 17.6863 25.3708Z" fill="#BEC0C2"/>
<path d="M18.8069 24.9114L18.474 25.9984L18.1709 26.125L19.2894 26.6996C19.3915 26.7534 19.4721 26.7202 19.5009 26.6678L19.5345 26.6014C19.564 26.5432 19.5323 26.4568 19.4414 26.4108L18.5718 25.9627L18.8696 25.8359L19.1206 25.005C19.1504 24.907 19.1109 24.8241 19.0499 24.8049L18.9773 24.7838C18.9195 24.7662 18.8389 24.8028 18.8069 24.9114Z" fill="#BEC0C2"/>
<path d="M19.9572 24.5319L19.5507 25.5917L19.2373 25.6988L20.3135 26.3494C20.4108 26.4089 20.4939 26.3832 20.5254 26.333L20.5655 26.2665C20.598 26.2122 20.5718 26.1242 20.4848 26.071L19.6497 25.5632L19.9543 25.4571L20.263 24.6461C20.2997 24.5506 20.2658 24.4654 20.2071 24.4407L20.1352 24.4153C20.0793 24.3941 19.9965 24.4248 19.9572 24.5319Z" fill="#BEC0C2"/>
<path d="M21.1329 24.2327L20.6526 25.2625L20.334 25.3471L21.3601 26.0706C21.4528 26.1395 21.5382 26.1178 21.5736 26.0681L21.6175 26.0071C21.6546 25.9558 21.6341 25.8646 21.5505 25.8066L20.752 25.2416L21.0648 25.1569L21.4301 24.3676C21.4724 24.2779 21.4458 24.1886 21.3876 24.1625L21.3181 24.129C21.2641 24.1049 21.1798 24.1287 21.1329 24.2327Z" fill="#BEC0C2"/>
<path d="M22.3251 24.0172L21.7725 25.011L21.4492 25.0721L22.4234 25.8674C22.5114 25.9412 22.5966 25.9271 22.6356 25.8792L22.6836 25.8211C22.7243 25.7712 22.7098 25.6811 22.6315 25.6157L21.8752 24.9957L22.1928 24.9341L22.6111 24.1748C22.6604 24.0846 22.6391 23.9946 22.5851 23.9638L22.5173 23.9282C22.4647 23.8987 22.3799 23.9174 22.3251 24.0172Z" fill="#BEC0C2"/>
<path d="M23.529 23.8866L22.9099 24.8391L22.5801 24.8766L23.4972 25.738C23.5791 25.8176 23.6682 25.8091 23.7089 25.7662L23.7616 25.7112C23.8041 25.6645 23.7973 25.571 23.7234 25.5031L23.0124 24.8302L23.3317 24.7905L23.8042 24.0626C23.8596 23.9778 23.8445 23.8861 23.7911 23.8516L23.7278 23.8094C23.677 23.778 23.5909 23.7904 23.529 23.8866Z" fill="#BEC0C2"/>
<path d="M24.7409 23.8403L24.0559 24.747L23.7246 24.7635L24.5791 25.6856C24.656 25.7714 24.7438 25.7684 24.7878 25.7283L24.8437 25.6762C24.8903 25.6334 24.889 25.5406 24.8202 25.4667L24.1593 24.7463L24.4826 24.7289L25.0026 24.0355C25.064 23.9558 25.0555 23.863 25.0062 23.8233L24.9445 23.7784C24.8977 23.7418 24.8104 23.7485 24.7409 23.8403Z" fill="#BEC0C2"/>
<path d="M25.9524 23.8794L25.2053 24.7354L24.874 24.7288L25.6615 25.71C25.7315 25.799 25.8193 25.8029 25.865 25.7666L25.9261 25.7183C25.9766 25.6796 25.9821 25.5854 25.9171 25.5073L25.3086 24.7423L25.6309 24.7482L26.1998 24.0932C26.267 24.0169 26.2646 23.9228 26.217 23.8797L26.1597 23.8325C26.1141 23.7931 26.0269 23.7922 25.9524 23.8794Z" fill="#BEC0C2"/>
<path d="M27.1578 24.0024L26.3533 24.8032L26.0244 24.7734L26.7386 25.8079C26.8029 25.9025 26.8899 25.9121 26.9397 25.8779L27.0036 25.8363C27.0556 25.7989 27.0662 25.7079 27.0085 25.6247L26.4544 24.8183L26.7767 24.8469L27.3899 24.2322C27.4612 24.1615 27.4658 24.0694 27.4217 24.0242L27.3672 23.9702C27.3257 23.9273 27.2379 23.9211 27.1578 24.0024Z" fill="#BEC0C2"/>
<path d="M28.3519 24.2118L27.4921 24.9547L27.167 24.9001L27.8083 25.9822C27.8638 26.0824 27.9516 26.0973 28.0032 26.0672L28.0683 26.029C28.1229 25.9959 28.1409 25.9062 28.0891 25.8186L27.593 24.9757L27.9128 25.0272L28.567 24.457C28.6445 24.3914 28.6544 24.299 28.6134 24.2504L28.5638 24.193C28.5253 24.1472 28.4366 24.1353 28.3519 24.2118Z" fill="#BEC0C2"/>
<path d="M29.5271 24.5025L28.617 25.1838L28.2959 25.1059L28.8606 26.2315C28.9103 26.3336 28.9962 26.3562 29.0492 26.3296L29.1174 26.296C29.1734 26.2666 29.1994 26.1782 29.1529 26.0875L28.7173 25.2126L29.0302 25.2844L29.7241 24.7616C29.8068 24.7023 29.8245 24.6111 29.7857 24.5593L29.7401 24.4996C29.7049 24.4516 29.6177 24.4332 29.5271 24.5025Z" fill="#BEC0C2"/>
<path d="M30.6807 24.8762L29.7259 25.4924L29.4111 25.3918L29.8948 26.5531C29.9373 26.6602 30.0197 26.6877 30.0769 26.665L30.1455 26.6362C30.2046 26.6104 30.2366 26.5242 30.1963 26.4312L29.8237 25.5267L30.1329 25.622L30.8593 25.1488C30.9446 25.0949 30.9685 25.0049 30.9353 24.9522L30.894 24.8886C30.8612 24.8368 30.7759 24.8137 30.6807 24.8762Z" fill="#BEC0C2"/>
<path d="M31.8052 25.3302L30.8092 25.8753L30.502 25.7548L30.9024 26.9469C30.9377 27.0561 31.0177 27.0905 31.0745 27.0719L31.1475 27.0471C31.2076 27.0273 31.2446 26.9422 31.2122 26.8468L30.9041 25.9188L31.2042 26.0357L31.9644 25.6132C32.0531 25.5656 32.0834 25.4784 32.0527 25.4227L32.0167 25.3559C31.9867 25.3037 31.9038 25.2733 31.8052 25.3302Z" fill="#BEC0C2"/>
<path d="M15.5447 10.0683C14.356 10.279 13.3701 11.2737 13.3002 12.333C13.2975 12.3737 13.2962 12.4144 13.2963 12.4551C13.2963 12.9284 13.4823 13.3537 13.8275 13.6636C14.2584 14.0495 14.8894 14.2034 15.558 14.0847C16.7461 13.8755 17.7326 12.8809 17.8033 11.8203C17.8372 11.2973 17.6507 10.8251 17.276 10.4894C16.8447 10.103 16.214 9.94965 15.5447 10.0683ZM4.06646 13.0764L3.53864 15.125C3.53864 15.125 3.94236 15.0167 4.22582 14.9403C3.87522 16.5029 2.07086 24.5585 2.05905 24.6127C1.96565 24.918 1.56561 25.1424 1.21929 25.2519L0.925055 25.3449L0 28.4067L1.14034 27.9331C4.8739 26.3832 10.4571 24.8873 10.5134 24.8725L10.8082 24.7937L12.1024 21.2194L10.7065 21.5484C10.517 21.5926 10.3987 21.6734 10.3218 21.7652C10.147 21.9795 9.58224 22.5662 9.05118 22.7403L6.59298 23.4173L6.58117 23.4201C6.59298 23.3674 9.38274 11.2021 9.38274 11.2021L4.06646 13.0764Z" fill="#A1A1A4"/>
<path d="M12.586 14.9747L12.0778 16.9631C12.0778 16.9631 12.3841 16.8832 12.6627 16.8098C12.3348 18.063 11.6168 20.8116 11.6168 20.8116C11.5355 21.1436 11.4961 21.4656 11.4961 21.7693C11.4961 22.4389 11.6891 23.02 12.0623 23.4334C12.4135 23.8225 13.0914 24.2514 14.3272 24.0814C15.2857 23.9506 16.176 23.4868 16.9744 22.7018L17.5131 22.1722L15.8561 21.1775L15.5333 21.4852C15.5099 21.5081 15.4858 21.5274 15.4631 21.5466C15.4722 21.475 15.4867 21.3906 15.5099 21.2931C15.5083 21.2978 17.2205 14.2849 17.2205 14.2849L17.4774 13.2319L12.586 14.9747Z" fill="#A1A1A4"/>
<path d="M23.0378 13.6944C23.1069 13.6866 23.1811 13.6857 23.2508 13.6895L21.7522 19.7473C21.6947 19.9691 21.356 20.1609 20.9654 20.1885C20.9487 20.1897 20.9317 20.1854 20.914 20.1811C20.9924 19.8702 22.464 13.9929 22.4717 13.9616C22.5268 13.8769 22.8069 13.7204 23.0378 13.6944ZM23.4013 11.4214C20.5767 11.7693 18.4477 13.4552 17.8474 15.8202L17.0063 19.2233L17.0096 19.209C16.7115 20.2956 16.8272 21.1537 17.3543 21.7596C17.9631 22.4586 19.0264 22.7142 20.5154 22.5198C23.3539 22.1488 25.4553 20.6035 26.0013 18.486C26.0016 18.4836 26.9523 14.7205 26.9523 14.7205C27.2192 13.6243 27.0847 12.7695 26.5554 12.1737C25.9465 11.4915 24.8859 11.2377 23.4013 11.4214ZM35.043 8.99817C34.4574 9.09275 33.7756 9.33165 33.1593 9.63666C33.2125 9.42491 33.2701 9.19781 33.2701 9.19781L28.3326 11.0339L27.8597 13.0091L28.4462 12.8321L26.475 20.9055L30.6443 19.8851L32.3318 12.9023C32.4272 12.4894 32.6331 12.2308 32.9897 12.0748L31.9897 16.2835C31.9913 16.2779 31.9347 16.4986 31.9347 16.4986C31.7123 17.3509 31.4085 18.5189 32.0492 19.2399C32.403 19.6384 32.9521 19.7903 33.6809 19.6905C34.9701 19.5134 36.1043 18.8414 37.0531 17.6917L37.4751 17.181C37.4751 17.181 36.0553 16.2805 35.9211 16.1961C36.2372 14.8772 37.0168 11.6207 37.0168 11.6207C37.0959 11.2977 37.1363 11.0008 37.1363 10.7301C37.1363 10.2126 36.9898 9.79233 36.6991 9.47626C36.3187 9.06368 35.7155 8.89015 35.043 8.99817ZM3.20653 30.6244L2.94727 29.8788L3.82628 29.4798C8.51868 27.4766 14.9901 25.2246 21.5813 23.3C28.3426 21.3262 34.3492 19.9658 38.0618 19.5682L38.7217 19.4971L38.6844 21.3833L38.22 21.4735C35.0173 22.0913 23.6892 24.6996 12.3918 32.3243L12.0768 32.5366L11.7545 32.3348C9.30385 30.8015 5.8812 30.591 4.05928 30.6017C3.78939 30.5975 3.20653 30.6244 3.20653 30.6244Z" fill="#A1A1A4"/>
<path d="M41.2265 7.90226C38.8373 8.40367 37.496 10.1162 37.5477 12.6032C37.5782 14.0915 38.5027 15.3191 39.397 16.5062C40.1643 17.5242 40.889 18.4863 40.9131 19.4532C40.9572 21.2501 40.1649 21.503 39.9021 21.5625C39.4392 21.6664 39.0969 21.3861 39.0004 21.2685C39.8045 20.8934 40.6122 20.1794 40.6122 19.1549C40.6122 19.088 40.6088 19.0202 40.602 18.9508C40.535 18.2899 40.2153 17.9281 39.9591 17.7399C39.3889 17.3231 38.7132 17.4227 38.5199 17.463C37.1132 17.756 36.219 19.1453 36.4839 20.6261C36.9127 23.0236 39.1537 23.7629 41.0549 23.4338C42.4307 23.1957 43.5804 22.5038 44.2913 21.4846C44.9946 20.4748 45.2324 19.2123 44.9783 17.8339C44.7157 16.4063 43.9522 15.2808 43.2141 14.1914C42.4483 13.0617 41.7238 11.9938 41.6706 10.7119C41.6534 10.3031 41.7719 9.99732 41.8965 9.87602C41.9451 9.82895 41.9764 9.82629 42.006 9.82821C42.0508 9.83131 42.1552 9.83883 42.2668 10.0081C42.5153 10.3864 42.5494 11.1695 42.3437 11.7542L42.2752 11.9491L42.6292 12.9497L46 11.3735L45.9528 10.957C45.8425 9.95482 45.3422 9.08658 44.5464 8.50917C43.6462 7.85784 42.4675 7.64241 41.2265 7.90226Z" fill="#A1A1A4"/>
<path d="M15.6179 10.482C14.6282 10.657 13.7762 11.5003 13.7197 12.3614C13.7174 12.392 13.7164 12.4227 13.7166 12.4534C13.7166 12.8066 13.8535 13.1224 14.1079 13.3505C14.4422 13.6502 14.9439 13.7672 15.485 13.6712C16.4749 13.4968 17.327 12.6539 17.3844 11.7921C17.41 11.4017 17.2719 11.0501 16.9955 10.8026C16.6616 10.5025 16.1596 10.3859 15.6179 10.482ZM4.41768 13.3982L4.12536 14.532C4.12536 14.532 4.59991 14.4047 4.78761 14.3536C4.67473 14.8587 2.46797 24.7095 2.46413 24.7256C2.29724 25.2962 1.62643 25.5643 1.34592 25.6526L1.26285 25.679L0.65918 27.6781L0.979828 27.5452C4.73951 25.9847 10.3486 24.4817 10.4046 24.4669L10.488 24.4441L11.4429 21.8067L10.9431 21.9239C10.7282 21.9745 10.6487 21.9938 10.6236 22.0594C10.4935 22.2116 9.86146 22.9204 9.17604 23.1417L6.69084 23.8259C6.44294 23.8857 6.26115 23.8766 6.18515 23.7997C6.11683 23.7297 6.10945 23.5727 6.16449 23.3561C6.16582 23.352 8.80272 11.8526 8.80272 11.8526L4.41768 13.3982ZM12.9373 15.2946L12.6613 16.3759C12.6613 16.3759 13.0924 16.2632 13.2508 16.2216C13.1236 16.7069 12.0257 20.9084 12.0257 20.9084C11.9516 21.2104 11.9158 21.5006 11.9158 21.7719C11.9158 22.3357 12.0719 22.8166 12.3748 23.1523C12.6576 23.4656 13.2171 23.8096 14.2703 23.6654C15.1366 23.5468 15.9479 23.1218 16.6804 22.4021L16.8322 22.2535L15.9142 21.7024L15.8244 21.7892C15.6283 21.9755 15.4324 22.0831 15.2412 22.1088C15.1524 22.1215 15.1234 22.0898 15.1106 22.0762C15.0309 21.989 14.9812 21.7073 15.1013 21.197L16.8846 13.889L12.9373 15.2946ZM22.0679 13.8426C22.1396 13.5533 22.6614 13.3148 22.9899 13.277C23.2664 13.2459 23.6459 13.2882 23.7378 13.393C23.747 13.4029 23.752 13.4113 23.7463 13.4361L22.1595 19.8485C22.0546 20.2538 21.5758 20.5663 20.9946 20.6078C20.819 20.6201 20.6274 20.5489 20.5261 20.4349C20.483 20.3857 20.4625 20.3354 20.4625 20.2817C20.4625 20.268 20.4641 20.2537 20.467 20.2388C20.4697 20.2268 22.0679 13.8426 22.0679 13.8426ZM23.4531 11.8382C20.8033 12.165 18.8111 13.73 18.2542 15.9241L17.414 19.3243C17.1558 20.2633 17.2421 20.9904 17.6708 21.4836C18.1744 22.0619 19.1388 22.276 20.4611 22.1036C23.1256 21.7549 25.0926 20.3298 25.594 18.3813L26.5455 14.6176C26.7761 13.667 26.6743 12.9394 26.2411 12.4539C25.7303 11.8798 24.7916 11.6729 23.4531 11.8382ZM35.1104 9.41288C34.2841 9.54657 33.2196 10.0036 32.5047 10.506L32.666 9.87135L28.6888 11.3498L28.4381 12.3961C28.4381 12.3961 28.871 12.266 29.0285 12.2181L27.0469 20.3332L30.2963 19.5386L31.9237 12.8032C32.061 12.2069 32.407 11.8227 32.9803 11.6269C33.2026 11.5516 33.374 11.5833 33.4452 11.6492C33.4613 11.6638 33.5104 11.7092 33.4793 11.8301L32.3981 16.3807C32.3992 16.3793 32.3407 16.6045 32.3407 16.6045C32.1429 17.3659 31.8719 18.4081 32.3624 18.961C32.618 19.2491 33.0419 19.3538 33.6238 19.2742C34.805 19.1124 35.85 18.4902 36.7292 17.4245L36.8478 17.2811L35.907 16.6843L35.8173 16.8117C35.6051 17.1103 35.3663 17.2442 35.2691 17.2309C35.2635 17.2139 35.2609 17.1961 35.2615 17.1782C35.2615 17.1508 35.2654 17.116 35.2776 17.0773L35.2795 17.0717L36.6076 11.5233C36.6797 11.232 36.7152 10.9674 36.7152 10.7316C36.7152 10.3217 36.6073 9.99678 36.3902 9.76127C36.1074 9.45479 35.6408 9.32745 35.1104 9.41288ZM38.1061 19.9861C34.4173 20.381 28.4376 21.7362 21.6987 23.7036C15.1234 25.6232 8.66888 27.8698 3.99123 29.8662L3.81578 29.9422L3.88395 30.1778L4.05645 30.1818C5.92427 30.1701 9.43634 30.3893 11.9773 31.9795L12.0684 32.0366L12.1563 31.9766C23.5199 24.3068 34.9171 21.6826 38.1398 21.0613L38.2709 21.0359L38.2918 19.9661L38.1061 19.9861Z" fill="white"/>
<path d="M41.3123 8.31371C39.1077 8.77587 37.9197 10.296 37.9669 12.5946C37.9947 13.9474 38.8781 15.1196 39.7322 16.253C40.5414 17.3265 41.3053 18.3413 41.3319 19.4434C41.3667 20.8569 40.9209 21.6936 40.0066 21.93C39.6577 22.0195 39.2122 21.93 38.871 21.6995C38.6244 21.5333 38.4618 21.3074 38.3917 21.0552C39.1629 20.8172 40.1914 20.1495 40.1914 19.1461C40.1914 19.0955 40.1889 19.0452 40.1837 18.9935C40.1424 18.5864 39.9827 18.2786 39.7106 18.0788C39.3689 17.8291 38.9157 17.8092 38.6056 17.8741C37.4033 18.1247 36.6685 19.2756 36.897 20.5512C37.2755 22.667 39.2801 23.3138 40.9825 23.02C42.2473 22.8014 43.2994 22.1709 43.9455 21.2441C44.5843 20.3282 44.7985 19.176 44.5646 17.9097C44.3178 16.5692 43.5798 15.4806 42.8656 14.4265C42.065 13.2461 41.3078 12.1312 41.25 10.7297C41.2298 10.2488 41.3652 9.80628 41.6025 9.57521C41.7272 9.45406 41.8728 9.39857 42.0347 9.40949C42.2714 9.42632 42.4672 9.54953 42.617 9.77721C42.9387 10.2678 42.9916 11.1773 42.739 11.8937L42.7201 11.9483L42.87 12.3728L45.5483 11.1202L45.5351 11.003C45.4374 10.1201 44.9983 9.35593 44.2987 8.84965C43.4963 8.26842 42.4359 8.07791 41.3123 8.31371Z" fill="white"/>
<path d="M17.2196 11.7821C17.1665 12.5732 16.3772 13.3476 15.4561 13.5092C14.5343 13.6729 13.8302 13.1631 13.8828 12.3722C13.9351 11.5798 14.725 10.8065 15.6465 10.6441C16.5677 10.4805 17.2717 10.9903 17.2196 11.7821ZM10.7767 22.1323L11.1846 22.0361L10.3619 24.3085C10.3619 24.3085 4.73029 25.8103 0.916016 27.3931L1.395 25.8103C1.91588 25.6457 2.46614 25.3063 2.62225 24.77L5.00726 14.1242L4.35461 14.3007L4.55381 13.5239L8.57526 12.1063L6.00506 23.3157C5.85455 23.9045 6.11293 24.1333 6.73445 23.9846L9.22644 23.2981C10.0486 23.0322 10.7767 22.1323 10.7767 22.1323ZM15.9367 21.9078C15.7257 22.1097 15.5001 22.2401 15.2621 22.2721C14.846 22.3309 14.7912 21.7973 14.9407 21.1595L16.6524 14.1462L13.0747 15.4209L12.8898 16.1468L13.4807 15.9913L12.1843 20.95C11.8365 22.3769 12.3071 23.7686 14.247 23.5025C15.1315 23.3811 15.9035 22.9338 16.5646 22.285L15.9367 21.9078ZM26.3854 14.5776C26.9062 12.4337 25.6164 11.7368 23.4723 12.0012C21.0002 12.3068 18.9784 13.7393 18.4131 15.9643L17.5733 19.364C16.9878 21.4938 18.2975 22.2199 20.4391 21.9407C22.8946 21.6198 24.9214 20.3331 25.4344 18.3407L26.3854 14.5776ZM21.0059 20.7725C20.6486 20.7971 20.2352 20.5498 20.3051 20.2054L21.908 13.8031C22.0013 13.4245 22.6011 13.1557 22.9709 13.114C23.2936 13.0772 23.9892 13.1203 23.9054 13.4737L22.3188 19.8883C22.1857 20.4029 21.611 20.7293 21.0059 20.7725ZM28.8282 11.474L28.6642 12.1557L29.2556 11.9778L27.2702 20.1095L30.1596 19.4028L31.7633 12.7649C31.9296 12.0477 32.3664 11.6624 32.9266 11.4708C33.3621 11.3228 33.733 11.4981 33.6383 11.8707L32.5574 16.4187C32.3115 17.408 31.6532 19.3785 33.601 19.1116C35.0547 18.9125 36.0213 18.0235 36.6018 17.3197L35.9506 16.9072C35.7127 17.2423 35.4018 17.4462 35.2075 17.3861C35.0922 17.3495 35.0735 17.1784 35.1206 17.0283L36.4467 11.4848C36.8622 9.8023 35.9369 9.4458 35.1358 9.5758C34.1421 9.73575 32.8382 10.3661 32.2254 10.939L32.4297 10.1345L28.8282 11.474Z" fill="#0066B3"/>
<path d="M41.0866 10.7356C41.0529 9.92422 41.4279 9.20279 42.047 9.24558C43.0323 9.3142 43.2702 10.8832 42.8955 11.9483L42.965 12.1469L45.3726 11.0219C45.1704 9.20353 43.4733 8.02896 41.346 8.47444C39.055 8.95445 38.0905 10.5711 38.1317 12.5908C38.1847 15.1381 41.4392 17.0806 41.4972 19.4387C41.5406 21.199 40.8378 21.8848 40.0483 22.0893C39.3402 22.272 38.3089 21.8094 38.1947 20.9393C39.0159 20.7404 40.1255 20.0393 40.0203 19.0099C39.9171 17.991 39.0293 17.9534 38.6399 18.0345C37.6514 18.2404 36.9385 19.1623 37.0287 20.2844C28.8053 21.4265 13.2383 26.098 4.05566 30.0177C6.63368 30.0018 9.78852 30.4154 12.0643 31.8401C21.1891 25.6818 30.93 22.4141 37.2122 21.0828C37.7808 22.5984 39.401 23.1262 40.9554 22.8581C43.2887 22.455 44.896 20.6135 44.4036 17.9403C43.8924 15.1614 41.2009 13.4704 41.0866 10.7356ZM15.5898 7.92419C15.0049 8.37631 14.6294 8.11646 14.3524 7.70624L14.8247 7.34118C14.9916 7.55691 15.1412 7.73147 15.4011 7.53079C15.5605 7.40743 15.559 7.24364 15.4405 7.09048C15.1262 6.68365 14.1557 7.39312 13.6361 6.72054C13.3629 6.36684 13.3143 5.95471 13.8899 5.50996C14.3502 5.15478 14.738 5.18488 15.0719 5.68142L14.6117 6.0369C14.4811 5.86779 14.3202 5.71743 14.1291 5.86499C13.976 5.98318 13.9506 6.13797 14.0711 6.29439C14.4026 6.72305 15.3247 5.95101 15.8733 6.66122C16.3253 7.24659 15.9497 7.64648 15.5898 7.92419ZM16.6921 4.46052L16.685 4.46376L16.9893 5.69013L17.4991 5.43692L16.6921 4.46052ZM16.6869 7.03647L16.1252 4.12806L16.8301 3.77834L18.7938 5.99012L18.2307 6.26975L17.808 5.77365L17.0784 6.13576L17.2149 6.7744L16.6869 7.03647ZM19.2349 5.80493L18.6079 3.01974L19.5455 2.80932L20.4075 4.60497L20.415 4.6032L20.4521 2.6051L21.3585 2.40117L21.9854 5.18636L21.4183 5.31385L20.9347 3.16508L20.9269 3.16685L20.8741 5.43618L20.3188 5.56101L19.326 3.5272L19.3184 3.52867L19.8019 5.67729L19.2349 5.80493ZM23.4557 5.22694C22.7161 5.22237 22.5806 4.78647 22.615 4.29229L23.2122 4.29643C23.2106 4.56912 23.2212 4.79828 23.5491 4.80079C23.7508 4.80182 23.8502 4.67211 23.8517 4.47807C23.8547 3.96442 22.6531 3.92487 22.6584 3.07493C22.6611 2.62811 22.8769 2.27368 23.6043 2.27825C24.1855 2.28179 24.4725 2.54489 24.4294 3.14147L23.8483 3.13749C23.8496 2.92427 23.8153 2.70632 23.5742 2.70514C23.3801 2.70396 23.265 2.80976 23.2638 3.00749C23.2603 3.54918 24.4628 3.50934 24.4572 4.4068C24.4526 5.14637 23.9103 5.22989 23.4557 5.22694ZM27.5442 2.8406L27.1361 4.82336C27.0498 5.24155 26.7226 5.6345 26.0102 5.48782C25.3672 5.35531 25.126 4.95838 25.2345 4.43189L25.6426 2.44912L26.2273 2.56953L25.8272 4.51334C25.756 4.85818 25.8753 5.02405 26.0884 5.06787C26.344 5.1204 26.4952 4.97402 26.5591 4.66414L26.9593 2.72019L27.5442 2.8406ZM27.6349 5.84005L28.7916 3.23031L29.5289 3.557L29.4221 5.67168L29.4293 5.67508L30.2304 3.86791L30.74 4.09383L29.5834 6.70357L28.8639 6.38469L28.9979 4.16067L28.9905 4.15742L28.1447 6.06596L27.6349 5.84005ZM32.4047 6.23404C32.5636 6.02229 32.6661 5.80803 32.4102 5.62181C32.1096 5.40327 31.8142 5.80936 31.4882 6.25676C30.9625 6.97906 30.9396 7.15835 31.215 7.35844C31.2948 7.41658 31.395 7.46011 31.4871 7.48829L31.8593 6.9767L31.5971 6.78591L31.8554 6.43088L32.6002 6.97316L31.749 8.14331C31.599 8.07322 31.2327 7.88479 31.0407 7.74534C30.2287 7.15422 30.3801 6.75094 31.018 5.87547C31.4415 5.29334 31.9005 4.72287 32.6901 5.29762C33.1633 5.64202 33.2643 6.12174 32.884 6.58331L32.4047 6.23404ZM18.983 31.0943L19.267 31.1846C19.36 31.2143 19.5089 31.1936 19.5714 30.9967C19.619 30.8476 19.5524 30.7055 19.4091 30.6601L19.1475 30.577L18.983 31.0943ZM18.7004 31.9831L18.9366 32.0582C19.0267 32.0868 19.2301 32.1485 19.3203 31.8645C19.3775 31.6844 19.3449 31.5531 19.1313 31.4852L18.8837 31.4064L18.7004 31.9831ZM18.1763 32.1602L18.8221 30.1297L19.5759 30.3694C19.8992 30.4721 20.1369 30.65 19.9992 31.0831C19.925 31.3167 19.756 31.4485 19.5111 31.4203L19.5093 31.4259C19.7969 31.5639 19.8139 31.7828 19.7253 32.0614C19.5617 32.576 19.1074 32.4562 18.9273 32.3989L18.1763 32.1602ZM21.0072 31.1436L21.0014 31.1424L20.6362 32.012L21.0544 32.088L21.0072 31.1436ZM19.8543 32.6827L20.8164 30.6921L21.3941 30.7972L21.5819 32.997L21.1202 32.9129L21.0888 32.4272L20.4906 32.3183L20.2871 32.7613L19.8543 32.6827ZM22.4856 33.0896C21.9348 33.0579 21.8504 32.7278 21.8951 32.3608L22.34 32.3865C22.3283 32.5899 22.3273 32.7612 22.5718 32.7755C22.7221 32.784 22.8014 32.6909 22.8098 32.5466C22.8318 32.1637 21.9376 32.0883 21.9742 31.455C21.993 31.1219 22.1676 30.8661 22.7097 30.8973C23.1428 30.9223 23.3468 31.1292 23.2916 31.5723L22.8585 31.5473C22.8676 31.3883 22.8505 31.2249 22.6708 31.2145C22.5265 31.206 22.4363 31.2807 22.4279 31.428C22.4046 31.8315 23.3023 31.8479 23.2637 32.5168C23.232 33.0677 22.8245 33.1091 22.4856 33.0896ZM23.6684 33.0908L23.5557 30.9632L24.7169 30.9016L24.7344 31.2289L24.0182 31.2667L24.0459 31.7914L24.7059 31.7564L24.7233 32.0834L24.0632 32.1184L24.0961 32.7402L24.8358 32.7011L24.8531 33.0283L23.6684 33.0908ZM25.6491 32.59L25.8936 32.5488C25.9868 32.5332 26.1958 32.495 26.1463 32.201C26.1148 32.0148 26.026 31.9131 25.8048 31.9503L25.5487 31.9936L25.6491 32.59ZM25.4942 31.6704L25.7881 31.621C25.8843 31.6047 26.0074 31.518 25.973 31.3145C25.9471 31.1603 25.8233 31.0644 25.6748 31.0895L25.404 31.1349L25.4942 31.6704ZM25.264 32.9869L24.9102 30.8858L25.69 30.7545C26.0248 30.6983 26.3174 30.7477 26.393 31.196C26.4336 31.4374 26.3437 31.6322 26.1129 31.7188L26.114 31.7247C26.4327 31.716 26.5481 31.903 26.5965 32.1913C26.6863 32.7238 26.2274 32.8251 26.0411 32.8562L25.264 32.9869ZM27.3182 30.7899L27.3126 30.7915L27.384 31.7318L27.7908 31.609L27.3182 30.7899ZM26.9937 32.6852L26.9425 30.4749L27.5049 30.305L28.6747 32.1774L28.2255 32.3132L27.9759 31.8954L27.3939 32.0712L27.4147 32.5581L26.9937 32.6852ZM28.9781 32.0429L28.1395 30.0841L28.5491 29.9088L29.2484 31.542L29.8618 31.2795L30.001 31.605L28.9781 32.0429ZM30.2808 31.4597L29.2602 29.5894L29.6514 29.376L30.5024 30.9356L31.0879 30.6162L31.2576 30.9269L30.2808 31.4597ZM31.5043 29.4988C31.1601 29.0521 30.8325 28.6267 31.4145 28.1781C31.7746 27.9008 32.0726 27.9879 32.3377 28.3611L31.9917 28.6276C31.8188 28.4031 31.7141 28.3497 31.6091 28.4307C31.4103 28.5838 31.5288 28.7906 31.8619 29.223C32.1952 29.6556 32.365 29.8228 32.5638 29.6698C32.7274 29.5436 32.5582 29.3387 32.4602 29.2019L32.8086 28.9333C33.1562 29.3844 33.0879 29.6682 32.7584 29.9223C32.1762 30.3708 31.8449 29.9406 31.5043 29.4988ZM33.5424 29.2296L32.0724 27.6869L32.3951 27.3797L33.6208 28.6659L34.1037 28.2057L34.3479 28.4623L33.5424 29.2296ZM33.8634 25.7611L35.0196 26.7336C35.2636 26.939 35.4052 27.2933 35.0555 27.7089C34.7402 28.0837 34.394 28.1009 34.0868 27.8426L32.9306 26.8698L33.2175 26.529L34.351 27.4827C34.5522 27.6516 34.7033 27.6324 34.8079 27.508C34.9333 27.3593 34.891 27.2076 34.7102 27.0558L33.5765 26.1019L33.8634 25.7611Z" fill="#0066B3"/>
<path d="M35.7487 26.1887L35.8832 25.9805C35.9344 25.9013 36.0474 25.7211 35.7968 25.5592C35.6381 25.4568 35.5031 25.4539 35.3813 25.6424L35.2404 25.8604L35.7487 26.1887ZM34.9653 25.6827L35.1271 25.4325C35.1799 25.3504 35.1989 25.2014 35.0254 25.0892C34.8939 25.0044 34.7396 25.0309 34.658 25.1576L34.5091 25.388L34.9653 25.6827ZM35.7822 26.7407L33.9922 25.5844L34.4211 24.9203C34.6054 24.6353 34.8392 24.4524 35.2211 24.6992C35.4268 24.8322 35.51 25.0298 35.4184 25.2586L35.4232 25.2619C35.6317 25.0206 35.8476 25.0618 36.0931 25.2201C36.5467 25.5132 36.3121 25.9203 36.2096 26.0789L35.7822 26.7407Z" fill="#0066B3"/>
</g>
<defs>
<clipPath id="clip0_1464_4940">
<rect width="46" height="34.6118" fill="white" transform="translate(0 0.503418)"/>
</clipPath>
</defs>
</svg>
