<svg width="17" height="16" viewBox="0 0 17 16" fill="none" xmlns="http://www.w3.org/2000/svg">
<path fill-rule="evenodd" clip-rule="evenodd" d="M1.90039 4.00039C1.90039 2.56445 3.06445 1.40039 4.50039 1.40039H8.50039C9.93633 1.40039 11.1004 2.56445 11.1004 4.00039V4.66706C11.1004 4.99843 10.8318 5.26706 10.5004 5.26706C10.169 5.26706 9.90039 4.99843 9.90039 4.66706V4.00039C9.90039 3.22719 9.27359 2.60039 8.50039 2.60039H4.50039C3.72719 2.60039 3.10039 3.22719 3.10039 4.00039V12.0004C3.10039 12.7736 3.72719 13.4004 4.50039 13.4004H8.50039C9.27359 13.4004 9.90039 12.7736 9.90039 12.0004V11.3337C9.90039 11.0024 10.169 10.7337 10.5004 10.7337C10.8318 10.7337 11.1004 11.0024 11.1004 11.3337V12.0004C11.1004 13.4363 9.93633 14.6004 8.50039 14.6004H4.50039C3.06445 14.6004 1.90039 13.4363 1.90039 12.0004V4.00039ZM12.7428 5.57613C12.9771 5.34181 13.357 5.34181 13.5913 5.57613L15.5913 7.57613C15.8256 7.81044 15.8256 8.19034 15.5913 8.42466L13.5913 10.4247C13.357 10.659 12.9771 10.659 12.7428 10.4247C12.5085 10.1903 12.5085 9.81044 12.7428 9.57613L13.7185 8.60039L7.83372 8.60039C7.50235 8.60039 7.23372 8.33176 7.23372 8.00039C7.23372 7.66902 7.50235 7.40039 7.83372 7.40039L13.7185 7.40039L12.7428 6.42466C12.5085 6.19034 12.5085 5.81044 12.7428 5.57613Z" fill="#A2A2A2"/>
</svg>
