<svg width="46" height="30" viewBox="0 0 46 30" fill="none" xmlns="http://www.w3.org/2000/svg">
<path d="M38.7046 14.8094C38.7046 22.6971 32.3201 29.092 24.4435 29.092C16.5672 29.092 10.1826 22.6972 10.1826 14.8094C10.1827 6.92175 16.5672 0.527344 24.4437 0.527344C32.3201 0.527344 38.7046 6.92175 38.7046 14.8094Z" fill="#F15A28"/>
<path d="M37.8249 14.8094C37.8249 22.2096 31.8344 28.2093 24.4446 28.2093C17.0551 28.2093 11.0645 22.2095 11.0645 14.8094C11.0645 7.40861 17.0552 1.40918 24.4446 1.40918C31.8345 1.40918 37.8249 7.40861 37.8249 14.8094Z" fill="black"/>
<path d="M33.125 15.3636C32.8198 20.1624 28.6877 23.8055 23.8956 23.5002C19.1031 23.1943 15.4656 19.0561 15.7708 14.2571C16.076 9.45756 20.2076 5.81479 25.0003 6.12045C29.7928 6.42573 33.43 10.5639 33.125 15.3636Z" fill="white"/>
<path d="M17.6205 19.7078C17.6205 19.7078 17.6003 19.865 17.5928 19.9721C17.6328 20.0243 17.6713 20.0744 17.7111 20.1236C17.6992 20.0639 17.6591 19.8355 17.6878 19.7851L17.6205 19.7078ZM17.9315 19.9822C17.9315 19.9822 17.903 20.1571 17.912 20.3753C17.9626 20.435 18.0141 20.4917 18.067 20.5502C18.0247 20.4073 18.0286 20.2516 18.0141 20.0934L17.9315 19.9822ZM18.5027 20.5195L18.3178 20.3606C18.3178 20.3606 18.349 20.6927 18.4038 20.7874C18.4099 20.8491 18.4066 20.8849 18.4228 20.9253C18.4997 21.0006 18.5757 21.0737 18.6534 21.1458C18.6293 21.0836 18.5796 20.9516 18.6028 20.8781C18.5005 20.7609 18.5096 20.6286 18.5027 20.5195ZM19.0396 20.8868L18.8495 20.7324C18.8255 20.7764 18.8733 21.099 18.9569 21.2449C18.9474 21.3217 18.9689 21.3849 18.9865 21.4366C19.0601 21.4983 19.1318 21.5556 19.2055 21.6157C19.1961 21.586 19.1447 21.4268 19.1604 21.3249C19.0514 21.2017 19.0389 21.0232 19.0396 20.8868ZM19.5771 21.8869C19.5447 21.8147 19.4394 21.7319 19.4832 21.6359C19.4045 21.5214 19.3599 21.2629 19.3915 21.0874L19.5764 21.2659C19.5723 21.3978 19.5811 21.6123 19.6832 21.7512C19.6365 21.8179 19.8353 22.0418 19.8556 22.0751L19.5771 21.8869ZM20.1669 22.1788C20.1333 22.1046 20.1568 22.1018 20.1405 22.0291C20.0652 21.9146 19.9681 21.6631 19.9576 21.4701L20.2126 21.5684C20.2118 21.6979 20.2585 21.889 20.3605 22.0293C20.3149 22.0969 20.4419 22.3146 20.4593 22.3473L20.1669 22.1788ZM21.2082 22.6586C21.1823 22.5611 21.2364 22.4879 21.2766 22.391C21.1408 22.2381 20.9171 22.0291 20.8214 21.7483L20.5441 21.6638C20.6643 21.9717 20.8596 22.2593 20.9897 22.3843C20.9568 22.4553 20.9508 22.575 20.9508 22.575L21.2082 22.6586ZM22.0412 22.8305C22.0171 22.7313 22.0946 22.6451 22.135 22.5486C21.9751 22.4494 21.7347 22.166 21.5845 21.8226L21.2743 21.7867C21.533 22.2892 21.7152 22.4492 21.8786 22.5541C21.8239 22.659 21.8183 22.7665 21.8183 22.7665L22.0412 22.8305ZM22.9041 22.8805C22.8988 22.7368 22.9724 22.7056 23.0136 22.6112C22.8543 22.5115 22.5395 22.3015 22.3884 21.9565L22.0799 21.9222C22.3934 22.4142 22.604 22.6623 22.7416 22.6279C22.6852 22.7302 22.653 22.8743 22.653 22.8743L22.9041 22.8805ZM23.6961 22.897C23.707 22.7848 23.8202 22.6518 23.8593 22.5546C23.6975 22.4554 23.4463 22.3577 23.2995 22.0119L22.9614 22.0126C23.208 22.4169 23.4492 22.6266 23.5895 22.5921C23.5002 22.7148 23.4358 22.9377 23.4358 22.9377L23.6961 22.897ZM24.4926 22.8475C24.4883 22.7056 24.6162 22.6005 24.6548 22.5064C24.4977 22.4064 24.2328 22.273 24.0809 21.9279L23.758 21.9434C23.9946 22.3327 24.2429 22.5496 24.3801 22.5137C24.2605 22.6749 24.2105 22.9022 24.2105 22.9022L24.4926 22.8475ZM25.3961 22.7078C25.3881 22.5665 25.5009 22.4314 25.5425 22.3334C25.3811 22.2359 25.1572 22.1328 25.0066 21.7881L24.7131 21.8251C25.0398 22.2909 25.1558 22.3929 25.2925 22.3576C25.1935 22.5165 25.1142 22.7821 25.1142 22.7821L25.3961 22.7078ZM26.2321 22.5661C26.225 22.4201 26.3376 22.2864 26.3781 22.1893C26.2189 22.0916 25.9412 21.9329 25.7909 21.5894L25.5037 21.6546C25.8179 22.1051 25.9878 22.2816 26.1276 22.2466C26.0721 22.351 25.9639 22.6635 25.9639 22.6635L26.2321 22.5661ZM27.0832 22.3372C27.1178 22.1718 27.2504 21.9822 27.2934 21.886C27.1316 21.7874 26.7973 21.6841 26.6509 21.3419L26.4088 21.4214C26.7232 21.8629 26.819 21.9037 27.0253 21.9329C26.969 22.0386 26.7991 22.445 26.7991 22.445L27.0832 22.3372ZM27.983 22.0538C28.0306 21.7654 28.1377 21.5947 28.1699 21.4998C28.0102 21.5108 27.7526 21.3483 27.583 21.0155L27.3287 21.116C27.58 21.4811 27.7482 21.6141 27.8872 21.5963C27.8322 21.7064 27.7133 22.1673 27.7133 22.1673L27.983 22.0538ZM28.8733 21.6535C28.8574 21.535 29.0412 21.1852 29.0815 21.088C29.0595 21.0848 29.0074 21.0964 28.9497 21.0882C28.8466 21.074 28.6508 20.9692 28.4505 20.6089L28.2206 20.7227C28.4738 21.1238 28.6518 21.1933 28.7115 21.2037C28.7604 21.2187 28.8215 21.1985 28.8578 21.1885C28.729 21.3527 28.6274 21.7818 28.6274 21.7818L28.8733 21.6535ZM30.4039 20.7526C30.3555 20.6094 30.34 20.4118 30.3795 20.315C30.2183 20.2186 30.1033 20.0106 30.0831 19.6768L29.8548 19.825C29.9056 20.2156 30.0265 20.3557 30.16 20.428C30.1034 20.5334 30.1778 20.9093 30.1778 20.9093L30.4039 20.7526ZM29.6639 21.2185C29.6607 21.0748 29.7252 20.8106 29.77 20.7177C29.6205 20.7177 29.5174 20.6789 29.327 20.1442L29.0985 20.28C29.4147 20.857 29.46 20.8159 29.5419 20.7892C29.4822 20.8941 29.4052 21.382 29.4052 21.382L29.6639 21.2185ZM30.9913 20.2546C30.9419 20.0955 30.9526 19.9644 30.9945 19.8666C30.9042 19.8851 30.8885 19.7724 30.8702 19.6254C30.8558 19.4919 30.8627 19.3834 30.854 19.2261L30.6259 19.374C30.6172 19.734 30.6459 20.0632 30.7819 20.0277C30.7248 20.1328 30.7675 20.475 30.7675 20.475L30.9913 20.2546ZM31.5089 19.8121C31.4854 19.6721 31.4961 19.5464 31.5448 19.445C31.4555 19.3315 31.4362 19.1978 31.4636 18.8218L31.2553 18.9757C31.1951 19.3781 31.2849 19.5017 31.3432 19.5967C31.2803 19.7055 31.2948 19.9884 31.2948 19.9884L31.5089 19.8121ZM32.0257 19.0956C32.098 18.739 32.0356 18.5662 32.0147 18.3476L31.8073 18.5437C31.8505 18.7204 31.9089 19.1032 31.8136 19.4511L32.0257 19.0956ZM32.4223 17.9C32.4223 17.9 32.4106 18.1674 32.382 18.3938C32.4289 18.2903 32.4731 18.1866 32.5165 18.0809C32.515 17.9782 32.5097 17.8543 32.4901 17.7671L32.4223 17.9Z" fill="#F9A983"/>
<path d="M23.964 10.0437C24.0229 10.1483 23.9318 10.8957 23.8677 11.1472L23.5595 10.971C23.5595 10.971 23.7454 10.4146 23.7682 10.2676C23.7919 10.1206 23.7512 9.99429 23.6713 9.9275L23.964 10.0437ZM22.9708 10.6024L22.7347 10.4797C22.8607 10.0393 22.8567 9.84741 22.863 9.72727C22.8662 9.65152 22.6581 9.60533 22.6712 9.60802C22.8468 9.55377 23.5041 9.16366 23.6546 9.06348L23.9196 9.1936C23.6348 9.38795 23.0406 9.67225 22.8932 9.67071C22.7479 9.66879 22.8845 9.67596 22.8845 9.67596L23.0167 9.65101C23.1996 9.79444 22.9831 10.475 22.9708 10.6024ZM22.0948 10.2357L21.9014 10.1555C21.9094 9.99263 21.9587 9.77678 22.1325 9.39627L22.3395 9.46651C22.1386 9.90473 22.076 10.1636 22.0948 10.2357Z" fill="#F9A983"/>
<path d="M23.0477 8.83633L22.8185 8.74805C22.5214 8.88559 22.2059 9.08941 21.9385 9.30845L22.1361 9.40531C22.5042 9.15313 22.8465 8.89992 23.0477 8.83633Z" fill="#F9A983"/>
<path d="M32.8247 14.0839L32.6365 14.1274C32.5794 13.9122 32.5469 13.591 32.3158 13.3663C32.4129 13.1541 32.4795 12.9817 32.3588 12.72L32.5299 12.726C32.5839 13.0097 32.5556 13.1476 32.4711 13.3416C32.625 13.5066 32.8002 13.7431 32.8247 14.0839ZM32.3623 14.1956L32.139 14.2276C32.0816 14.0084 32.0052 13.6656 31.774 13.4397C31.9677 13.2345 31.9614 12.9937 31.9227 12.7541L32.1274 12.7459C32.1813 13.0293 32.0934 13.2267 31.9936 13.4205C32.1482 13.5866 32.2882 13.8573 32.3623 14.1956ZM32.794 13.3265C33.0263 13.5531 32.9932 13.7717 33.0503 13.9903L33.1212 13.9733C33.1082 13.8139 33.0905 13.655 33.0681 13.4967C33.0311 13.4229 32.9823 13.3558 32.9236 13.298C32.9692 13.142 32.9742 13.0336 32.9665 12.9154C32.95 12.8325 32.9286 12.7497 32.9113 12.6673L32.7906 12.6631C32.8469 12.8487 32.8371 13.1369 32.794 13.3265ZM31.3312 13.4727C31.5393 13.7404 31.665 13.9733 31.7424 14.2794L31.5176 14.2865C31.4582 14.0694 31.3178 13.7107 31.0869 13.4842L31.3312 13.4727Z" fill="#F9A983"/>
<path d="M31.0258 13.4822C31.1737 13.3357 31.319 12.9634 31.2845 12.7505L31.5146 12.7893C31.5221 13.1581 31.4222 13.2531 31.2944 13.4788L31.0258 13.4822ZM30.7868 13.4427C30.9248 13.6693 31.0691 13.9285 31.091 14.2696L30.8687 14.2609C30.8088 14.043 30.758 13.6542 30.5488 13.4272L30.7868 13.4427Z" fill="#F9A983"/>
<path d="M30.5193 13.4281C30.6693 13.2814 30.8232 12.8851 30.7873 12.6738L31.0174 12.7123C31.0708 12.995 30.9083 13.2186 30.7566 13.442L30.5193 13.4281ZM30.0729 13.3769C30.1939 13.3711 30.2952 13.8944 30.3284 14.2158L30.0796 14.1656C30.0071 13.695 30.1435 13.7375 29.8535 13.2889L30.0729 13.3769Z" fill="#F9A983"/>
<path d="M29.7769 13.2612C30.12 12.9323 30.2442 12.7459 30.196 12.5802L30.4259 12.6332C30.484 12.8443 30.1524 13.1568 29.9944 13.35L29.7769 13.2612ZM28.9951 13.1321C29.199 12.9761 29.482 12.5488 29.5059 12.3271L29.7245 12.4278C29.7085 12.7294 29.3512 13.0973 29.2524 13.2173L28.9951 13.1321Z" fill="#F9A983"/>
<path d="M28.5671 12.8103C28.6901 12.9938 28.6906 13.4165 28.6584 13.7657L28.3994 13.6377C28.4531 13.3973 28.467 12.9715 28.3086 12.7251L28.5671 12.8103ZM29.3035 13.2279C29.4265 13.4106 29.4294 13.8357 29.3958 14.182L29.1358 14.0533C29.1915 13.8147 29.2047 13.3891 29.0487 13.1414L29.3035 13.2279Z" fill="#F9A983"/>
<path d="M28.2344 12.7055C28.4383 12.5495 28.8015 12.2427 28.8213 12.0215L29.0808 12.1494C28.9553 12.4491 28.7773 12.537 28.4894 12.791L28.2344 12.7055Z" fill="#F9A983"/>
<path d="M27.7529 12.3782C27.8649 12.5809 27.8233 13.03 27.7544 13.3939L27.4947 13.2319C27.5758 12.9849 27.6314 12.5361 27.4912 12.2603L27.7529 12.3782Z" fill="#F9A983"/>
<path d="M27.416 12.2319C27.6451 12.0872 28.0598 11.799 28.1022 11.5684L28.3617 11.7301C28.2022 12.0329 28.0041 12.1089 27.6773 12.3451L27.416 12.2319Z" fill="#F9A983"/>
<path d="M26.866 11.8669C26.9639 12.0777 26.889 12.5201 26.7979 12.8784L26.5469 12.6991C26.6459 12.4584 26.7343 12.0161 26.6133 11.73L26.866 11.8669Z" fill="#F9A983"/>
<path d="M26.5381 11.6954C26.7792 11.5682 27.2104 11.3128 27.2719 11.085L27.519 11.2638C27.3356 11.5544 27.1331 11.6167 26.7909 11.832L26.5381 11.6954Z" fill="#F9A983"/>
<path d="M25.9835 11.3356C26.0819 11.547 26.0076 11.9896 25.9136 12.3485L25.666 12.1688C25.7639 11.9287 25.8514 11.4843 25.7314 11.1987L25.9835 11.3356Z" fill="#F9A983"/>
<path d="M25.6572 11.1658C25.8983 11.0381 26.3282 10.781 26.3903 10.5542L26.6366 10.732C26.4537 11.0236 26.2533 11.0839 25.9088 11.3003L25.6572 11.1658Z" fill="#F9A983"/>
<path d="M25.0069 10.7144C25.1037 10.9238 25.0309 11.3682 24.937 11.7273L24.6885 11.5467C24.7872 11.3073 24.875 10.8637 24.7548 10.5781L25.0069 10.7144Z" fill="#F9A983"/>
<path d="M24.6797 10.5444C24.9213 10.4164 25.3535 10.1591 25.4116 9.93018L25.6601 10.1111C25.4763 10.4022 25.2771 10.4646 24.9307 10.6778L24.6797 10.5444Z" fill="#F9A983"/>
<path d="M23.6786 9.91023C23.9189 9.78189 24.3523 9.52511 24.4132 9.29672L24.6598 9.4784C24.4774 9.76769 24.2753 9.82911 23.932 10.0439L23.6786 9.91023ZM22.4223 8.59685L22.1824 8.50997C21.8701 8.66351 21.5405 8.891 21.3216 9.09636L21.4827 9.16174C21.8062 8.91992 22.2149 8.66927 22.4223 8.59685ZM21.7731 8.34249L21.5237 8.27174C21.0242 8.57216 20.9027 8.68283 20.6852 8.88998L20.8899 8.93975C20.9753 8.83048 21.0886 8.71546 21.7731 8.34249ZM21.098 8.1475L20.8096 8.11871C20.5119 8.26419 20.2169 8.56704 19.9979 8.77265L20.2203 8.79491C20.4249 8.56678 20.8241 8.25843 21.098 8.1475ZM20.3133 8.05001L20.066 8.04297C19.7416 8.24628 19.4469 8.72569 19.5699 8.76062L19.7064 8.75742C19.8144 8.46762 20.0106 8.2615 20.3133 8.05001ZM19.6977 8.06357L19.4761 8.10336C19.0405 8.47492 18.9941 8.81129 19.1133 8.76561L19.205 8.77687C19.2224 8.66351 19.2356 8.46711 19.6977 8.06357ZM19.1479 8.14162L18.9054 8.21787C18.6486 8.4025 18.5052 8.83368 18.6203 8.8127L18.7326 8.79018C18.7547 8.63703 18.8198 8.43832 19.1479 8.14162ZM20.8359 9.83602L20.6284 9.77371C20.6423 9.53662 20.7666 9.14587 20.887 8.95395L21.0785 8.99387C20.922 9.20409 20.8323 9.65011 20.8359 9.83602Z" fill="#F9A983"/>
<path d="M21.4575 9.99086L21.253 9.92855C21.2663 9.69121 21.3889 9.30085 21.5088 9.10892L21.6986 9.14641C21.5456 9.35893 21.4558 9.80393 21.4575 9.99086ZM20.1667 9.66524L19.9798 9.60011C19.9913 9.35471 20.0785 8.99915 20.2031 8.80467L20.4012 8.81989C20.2458 9.03267 20.1699 9.53243 20.1667 9.66524ZM19.575 9.51554L19.3844 9.47626C19.3982 9.23866 19.5327 8.95603 19.6556 8.76385L19.8291 8.77089C19.6747 8.98456 19.5766 9.32797 19.575 9.51554ZM19.0326 9.44005L18.8589 9.4238C18.8723 9.1871 18.9965 8.96601 19.1167 8.7723L19.3054 8.77281C19.1519 8.98418 19.0338 9.25261 19.0326 9.44005ZM18.555 9.42572L18.4076 9.42444C18.4677 9.1198 18.5503 8.99185 18.6723 8.79814L18.8315 8.78164C18.6463 9.01041 18.6071 9.14526 18.555 9.42572ZM18.134 9.44376L18.0052 9.47268C18.0822 9.15998 18.1013 9.085 18.2251 8.89001L18.3621 8.8776C18.2081 9.08845 18.1689 9.23687 18.134 9.44376ZM18.2854 8.87273C18.2917 8.78535 18.317 8.68862 18.3775 8.56592C18.311 8.63271 18.2448 8.69847 18.1796 8.76884L18.1419 8.89205L18.2854 8.87273ZM17.7594 9.49596C17.8088 9.32631 17.8634 9.15831 17.9925 8.97138C17.8916 9.08584 17.7938 9.20291 17.699 9.32247C17.6807 9.37147 17.6639 9.4357 17.6406 9.52744L17.7594 9.49596Z" fill="#F9A983"/>
<path d="M19.8749 8.20749C18.8157 8.65313 17.3653 8.99602 15.1306 8.91427C15.1306 8.91427 11.6681 8.66131 9.80293 8.81984V8.82163C9.07381 8.83967 5.98321 9.15353 3.15131 10.2065C2.83664 10.3235 2.68627 10.4289 2.54395 10.5746C2.48237 10.6556 2.34963 10.883 2.28294 11.0221C2.28294 11.0221 1.41788 11.1251 0.890878 11.3427C0.141063 11.6523 -0.139878 12.0564 0.0649188 12.7641C0.54478 14.4166 2.50575 14.741 2.50575 14.741C2.50575 14.741 2.03419 13.576 2.47176 13.5674C2.66915 13.5637 3.23934 13.7029 3.65723 13.8981C3.88797 13.9977 4.93929 14.5038 5.98257 15.3941L4.75212 19.289H18.9359C19.3907 19.2828 19.8408 19.1952 20.2648 19.0304C20.1818 19.1298 20.1214 19.189 20.0557 19.3038L19.009 21.1404H24.7766C26.2204 21.1196 27.4595 20.3879 27.9698 19.2891H41.0316C42.656 19.2891 43.9012 18.5712 44.3698 17.4803C44.931 16.2161 44.2852 15.5339 44.2852 15.5339C44.9258 15.1395 45.2322 14.6085 45.347 14.2371L46 12.2122H33.3315L34.0182 10.0211H32.3319C30.7527 10.0356 29.561 10.9589 29.1596 12.2083H18.0434C19.1016 11.7482 20.8065 10.6655 21.6656 7.29395C21.6656 7.29395 20.9187 7.81571 19.8749 8.20749Z" fill="black"/>
<path d="M13.2912 16.116C14.1086 16.1003 14.7209 15.7555 14.9929 15.523C14.9929 15.523 14.575 18.0065 11.6455 18.0207H5.75967L6.7641 14.8142C6.7641 14.8142 5.58425 13.434 3.4075 12.9007C2.63942 12.6803 1.52153 12.6131 1.44066 12.982C1.40872 13.0944 1.47158 13.4605 1.54453 13.7539C1.54453 13.7539 1.19869 13.5934 0.987884 13.3355C0.918894 13.2663 0.587105 12.8562 0.559893 12.4063C0.544945 12.162 0.660183 11.9887 0.84505 11.8623C1.31341 11.5582 2.62894 11.4195 2.62894 11.4195L2.74916 11.1526C2.86989 10.8826 2.98066 10.7599 3.14918 10.693C6.14831 9.49773 9.69322 9.2916 9.72401 9.2916L9.70332 9.29212C9.95705 9.27625 10.2882 9.26512 10.6615 9.25885C12.2644 9.15432 14.4437 9.36134 14.6023 9.37682C16.1758 9.47649 17.1998 9.42979 17.8796 9.32653C18.9147 9.21496 19.8517 8.57715 19.8517 8.57715C19.8517 8.57715 18.9649 10.5786 16.85 11.1399C15.9636 11.3895 15.0535 11.4013 14.2106 11.4034H12.6114C11.813 11.4034 11.6037 11.7062 11.5134 11.9684L11.3032 12.6679H13.9759C14.9653 12.7022 15.6443 12.295 15.9485 12.0359C15.9485 12.0359 15.5364 14.4902 12.6112 14.5329L10.7338 14.5335L10.235 16.116H13.2912Z" fill="white"/>
<path d="M12.5037 10.9226C11.6176 10.9226 11.2434 11.2703 11.0849 11.7297L10.7371 12.8699H13.8643C14.399 12.8644 14.9423 12.861 15.3413 12.521C15.0329 13.2687 14.1513 14.0964 12.5041 14.0596L10.3759 14.0603L9.67709 16.3199H12.9418C13.4761 16.3146 13.9836 16.2884 14.4084 15.9927C14.1141 16.7354 13.1654 17.5648 11.5521 17.5249H6.14687L7.0758 14.5436C7.0758 14.5436 5.1193 12.5004 2.29661 12.3567C1.77446 12.3487 1.43219 12.396 1.22216 12.5072C0.974433 12.6388 1.12263 13.0638 1.12263 13.0638C1.12263 13.0638 0.827893 12.7717 0.771296 12.4078C0.714955 12.0472 1.17131 11.8398 1.83949 11.7114C2.33481 11.6229 2.75002 11.5869 2.75002 11.5869L2.93144 11.1938C2.98254 11.0886 3.03978 11.0039 3.10915 10.9421C3.22183 10.8397 3.41181 10.7747 3.41181 10.7747C6.26044 9.7649 9.61615 9.49352 9.61615 9.49352H9.61666C9.86272 9.47843 10.1923 9.46704 10.5628 9.4609C12.1838 9.35342 14.4715 9.57822 14.4715 9.57822C18.2666 9.85357 18.9884 9.21946 19.3515 8.96101C19.357 8.95551 19.3507 8.96702 19.3565 8.96101C17.9983 10.7182 16.3345 10.9328 14.1032 10.9226H12.5037Z" fill="#F15A28"/>
<path d="M7.42204 13.4282L7.74502 12.3959C7.96042 11.6717 8.14682 11.4413 8.81269 11.1576C9.47844 10.874 10.7608 10.7271 10.7608 10.7271C8.89599 10.4574 5.03781 10.6255 3.63387 11.0942C3.33377 11.1946 3.22671 11.4657 3.22671 11.4657L5.19444 11.2998L4.45166 11.7581C3.72177 11.5047 3.16781 11.6212 3.16781 11.6212C2.69881 11.8283 2.62305 12.2294 2.62305 12.2294C5.08023 12.2434 7.42204 13.4282 7.42204 13.4282Z" fill="white"/>
<path d="M32.3406 10.4927C31.1324 10.4979 30.0747 11.2034 29.8074 12.0691L27.9672 18.0192H30.487L32.8254 10.4927H32.3406ZM37.4793 15.4872C37.8174 15.2363 38.0655 14.9149 38.1823 14.5384C38.183 14.5366 38.7452 12.7067 38.7452 12.7067H34.7295C33.2268 12.7374 32.561 13.4578 32.344 14.0693L32.3414 14.0756L31.1091 18.0184H35.2038C36.3139 18.0166 37.2627 17.4929 37.5911 16.4403L37.8833 15.4872H37.4793ZM34.7069 14.5761L34.8406 14.1558H35.7868L35.6525 14.5761H34.7069ZM35.0679 16.543H34.0964C34.1698 16.3076 34.2114 16.1857 34.2621 16.0225H35.4523C35.2655 16.1776 35.1635 16.3099 35.0679 16.543ZM24.7115 18.4035H23.0652C21.8529 18.4035 21.1123 18.7034 20.7463 19.3442L20.4466 19.8709H24.7385C25.9525 19.8531 26.9643 19.2212 27.2615 18.2981L28.9969 12.7067H25.011C25.011 12.7067 23.0836 12.6679 22.5753 14.264L21.4105 18.0185H24.0749C24.4038 18.0158 24.6599 17.9687 24.8718 17.8801L24.7115 18.4035ZM26.0273 14.1355C25.8412 14.734 25.3815 16.1899 25.273 16.5405H24.3976C24.5835 15.9414 25.0435 14.486 25.1521 14.1355H26.0273ZM14.751 18.0192H18.8971C20.021 18.0029 20.9821 17.3807 21.2489 16.5058C21.2492 16.5055 22.4298 12.7067 22.4298 12.7067H18.3471C17.1875 12.6999 16.2106 13.3152 15.9265 14.2342C15.9247 14.2415 15.6107 15.2533 15.6107 15.2533H16.0108C15.6759 15.4877 15.4181 15.8563 15.3014 16.2404L14.751 18.0192ZM17.7404 16.5405L17.8744 16.1055H18.8583L18.7243 16.5405H17.7404ZM19.4678 14.1558L19.3107 14.6658H18.0436C18.2844 14.5198 18.3929 14.3224 18.4675 14.1558H19.4678ZM37.4741 18.0168H41.0155C42.413 18.0168 43.1622 17.2035 43.3976 16.442C43.3976 16.442 43.5294 16.0191 43.3704 15.6541C43.2778 15.4284 43.1348 15.2552 42.8691 15.1173C42.7291 15.0496 42.4544 14.9178 42.2111 14.8006C43.6335 14.6979 44.1268 14.0917 44.2849 13.5809L44.4164 13.1578L44.5591 12.7013H40.9825C39.8028 12.7136 38.9281 13.3015 38.6386 14.2752C38.4103 15.1679 39.0915 15.4825 39.0915 15.4825L39.8921 15.8716C38.4373 15.9268 37.9257 16.5828 37.7655 17.101L37.4741 18.0168ZM41.1647 14.2985L41.2128 14.1558H41.5976L41.4995 14.4594L41.1647 14.2985ZM40.4667 16.5402C40.4976 16.442 40.5371 16.3176 40.5371 16.3176L40.5733 16.2027C40.6943 16.2614 40.8618 16.3427 40.9055 16.3636L40.8505 16.5403L40.4667 16.5402Z" fill="white"/>
<path d="M28.3459 17.5279L30.0284 12.0999C30.2957 11.3244 31.2432 10.7279 32.2323 10.7139L30.1148 17.5278H28.3459V17.5279ZM35.6878 15.554C36.725 15.5086 37.517 14.995 37.7332 14.2997L38.1559 12.9085H34.6161C33.6275 12.9332 32.82 13.3828 32.539 14.1747L31.4897 17.5268H35.091C36.1495 17.5233 36.8467 17.051 37.1364 16.2064L37.2932 15.709C36.3368 15.7064 35.437 15.967 35.2059 16.6964L35.1894 16.7609H33.5048L33.8802 15.5561L35.6878 15.554ZM36.1407 13.69L35.7983 14.7941H34.1162L34.4581 13.69H36.1407ZM25.4182 16.7582H23.8067L24.7589 13.69H26.3708L25.4182 16.7582ZM20.9596 19.3842H24.625C25.6148 19.3702 26.5507 18.8727 26.8137 18.0557L28.4077 12.9085H24.8978C23.9075 12.9332 23.1041 13.472 22.8095 14.2447L21.7897 17.527H23.9611C24.9223 17.527 25.3051 17.124 25.3051 17.124L24.8634 18.6099H22.9555C22.1012 18.61 21.3088 18.7727 20.9596 19.3842ZM18.8695 16.7582H17.1492L17.4966 15.6397H19.2169L18.8695 16.7582ZM18.2337 12.9091C17.2522 12.9075 16.3891 13.4646 16.1601 14.203L15.987 14.763C16.9093 14.792 17.8524 14.4921 18.0728 13.7687L18.0977 13.69H19.8232L19.4522 14.8835H17.6139C16.5631 14.8917 15.7604 15.4855 15.5397 16.2089L15.1299 17.5279H18.7791C19.7684 17.5137 20.5702 16.9912 20.7905 16.2684L21.829 12.9091H18.2337ZM42.9483 16.2037C42.7247 16.9271 42.0263 17.5254 40.9071 17.5254H37.8623L38.0031 17.0708C38.2272 16.3479 39.0993 16.0917 40.0882 16.0774L39.8733 16.7576H40.9959L41.1606 16.2275C41.1925 16.1237 41.1606 16.0388 41.0842 15.9803L39.1596 15.0427C38.9418 14.9337 38.7763 14.5716 38.8776 14.2435V14.2415C39.1114 13.4549 39.8096 12.9298 40.8846 12.9083H43.9678L43.8361 13.3424C43.6117 14.0656 42.79 14.3235 41.7522 14.3298L41.9525 13.6898H40.8302L40.6825 14.1669C40.65 14.2709 40.6825 14.3561 40.7589 14.4143L42.6483 15.3217C43.1234 15.6077 42.9483 16.2037 42.9483 16.2037Z" fill="#F15A28"/>
<path d="M24.1128 25.9452L24.5123 25.9358C24.5981 25.9337 24.6615 25.9225 24.703 25.9025C24.7714 25.8687 24.8048 25.8071 24.8025 25.7166C24.7999 25.6311 24.7654 25.5761 24.7 25.5501C24.6624 25.5347 24.5974 25.5279 24.5058 25.5307L24.1742 25.5382C24.06 25.5412 23.9776 25.5613 23.9298 25.5993C23.8854 25.6352 23.8637 25.6915 23.8654 25.7676C23.8743 25.891 23.9565 25.95 24.1128 25.9452ZM24.9233 26.6132L24.1759 26.631C23.9651 26.6363 23.8138 26.5758 23.7213 26.4509C23.6696 26.3819 23.6453 26.3014 23.6341 26.2162C23.6184 26.103 23.6235 25.8248 23.6218 25.7614C23.6181 25.5982 23.6719 25.4977 23.7273 25.4342C23.7853 25.3682 23.8872 25.309 23.9763 25.3068C24.0544 25.3038 24.0549 25.3045 24.1321 25.3031L24.5142 25.2939C24.6899 25.2901 24.8125 25.3099 24.885 25.3558C24.9837 25.4172 25.0352 25.5404 25.0399 25.7266C25.0412 25.9012 24.9895 26.0212 24.892 26.0865C24.8211 26.1342 24.7016 26.1597 24.5336 26.1635C24.5336 26.1635 23.8819 26.1743 23.8823 26.1785C23.8837 26.2448 23.903 26.3222 23.9708 26.3579C24.0365 26.3933 24.1169 26.3979 24.1897 26.3964L24.9239 26.3791L24.9233 26.6132ZM23.1732 25.8555C23.1078 25.8013 23.0074 25.7678 22.9005 25.7481L22.4288 25.6603C22.3658 25.6488 22.2263 25.6105 22.2478 25.4933L22.2667 25.3892C22.2819 25.3077 22.3214 25.272 22.4823 25.3019C22.4823 25.3019 23.2793 25.4493 23.3091 25.4551C23.3143 25.4254 23.3396 25.2884 23.3451 25.2587L22.5443 25.1108C22.4108 25.0856 22.3073 25.0833 22.2366 25.1037C22.1246 25.1349 22.0566 25.2202 22.0298 25.3659L22.0104 25.4708C21.9903 25.5802 22.0174 25.6695 22.092 25.7432C22.1522 25.8014 22.2287 25.8399 22.3203 25.8564L22.8662 25.9576C23.0195 25.9864 23.039 26.0336 23.0233 26.1173L23.0069 26.2068C22.9929 26.2842 22.9641 26.3345 22.8282 26.309L21.9208 26.1409C21.9156 26.1706 21.889 26.3139 21.8834 26.3438C21.9195 26.3503 22.7584 26.506 22.7584 26.506C22.9769 26.5465 23.1193 26.5165 23.1827 26.418C23.2079 26.3787 23.2282 26.316 23.2434 26.2326L23.2604 26.1409C23.2831 26.0187 23.262 25.9305 23.1732 25.8555ZM21.1612 25.4804L20.7801 25.3567C20.6975 25.3302 20.634 25.3192 20.5879 25.3247C20.5118 25.3339 20.4599 25.3816 20.4319 25.4679C20.4065 25.5499 20.4204 25.6136 20.4743 25.6593C20.505 25.6868 20.5639 25.7145 20.6508 25.7427L20.9679 25.8454C21.0774 25.8811 21.1619 25.8889 21.2202 25.869C21.2742 25.8504 21.3127 25.8045 21.3366 25.7313C21.3694 25.6117 21.3108 25.5281 21.1612 25.4804ZM20.6156 24.5781L21.3285 24.8098C21.5307 24.8753 21.6537 24.9828 21.6995 25.1326C21.7602 25.3243 21.659 25.5307 21.601 25.7099C21.5812 25.7714 21.5616 25.8319 21.5415 25.8932C21.5114 25.9868 21.4563 26.0664 21.3869 26.1158C21.3197 26.1633 21.238 26.1827 21.1533 26.1553C21.0786 26.1315 21.0044 26.1073 20.9301 26.0832L20.5643 25.9642C20.3965 25.9102 20.2873 25.8499 20.2344 25.783C20.1611 25.6918 20.1533 25.5573 20.2109 25.3797C20.2669 25.214 20.3555 25.1173 20.4704 25.0881C20.5529 25.0666 20.6745 25.0824 20.835 25.1343C20.835 25.1343 21.4554 25.3399 21.4568 25.3365C21.477 25.2733 21.4853 25.1941 21.4328 25.137C21.3825 25.0817 21.3076 25.0505 21.2376 25.028L20.5368 24.8004L20.6156 24.5781ZM28.0251 25.387L27.6426 25.5082C27.5605 25.5344 27.5021 25.5624 27.468 25.5936C27.4116 25.6458 27.3966 25.7148 27.424 25.8013C27.4505 25.8828 27.4994 25.9263 27.5698 25.9324C27.6107 25.9369 27.6746 25.9249 27.7622 25.8973L28.0796 25.7971C28.1893 25.7624 28.2625 25.7194 28.2982 25.6694C28.3316 25.6227 28.3361 25.5629 28.3131 25.4897C28.2704 25.3728 28.1741 25.3388 28.0251 25.387ZM27.0572 24.9702L27.7722 24.7436C27.9743 24.6796 28.1369 24.6951 28.2612 24.7903C28.4217 24.9114 28.4594 25.1381 28.5157 25.318L28.5736 25.5015C28.6035 25.5952 28.6048 25.6927 28.5768 25.7724C28.5501 25.8508 28.4949 25.914 28.4098 25.9413C28.3352 25.9651 28.2603 25.9887 28.1862 26.0118L27.8197 26.1282C27.6519 26.1814 27.5278 26.1961 27.4459 26.1727C27.3333 26.1405 27.2487 26.0363 27.1919 25.8581C27.1419 25.6906 27.1579 25.5597 27.2346 25.4695C27.2895 25.4035 27.3975 25.3461 27.5587 25.2951C27.5587 25.2951 28.1828 25.1014 28.1815 25.098C28.1616 25.0348 28.1221 24.965 28.0465 24.9496C27.9731 24.9336 27.8946 24.9522 27.8244 24.9745L27.1215 25.1966L27.0572 24.9702Z" fill="white"/>
<path d="M28.4414 24.0312L28.6612 23.947L29.29 25.5933L29.0702 25.6775L28.4414 24.0312ZM29.8811 25.3171L29.663 25.4075L28.989 23.7792L29.2062 23.689L29.8811 25.3171Z" fill="white"/>
<path d="M19.8479 24.7565L19.8374 24.7455C19.9353 24.751 20.01 24.7494 20.0812 24.6731C20.1168 24.6351 20.1615 24.5676 20.2143 24.4719C20.2658 24.3777 20.2864 24.2818 20.2751 24.1858C20.2651 24.0971 20.2261 24.0141 20.1641 23.9499C20.1204 23.9042 20.0505 23.8547 19.9565 23.8022L19.0964 23.3256L18.2498 24.8587L19.1359 25.3495C19.2574 25.4172 19.3761 25.4457 19.4866 25.434C19.6279 25.4174 19.7364 25.337 19.8184 25.1883C19.8581 25.117 19.8861 25.0456 19.9022 24.9746C19.9235 24.8828 19.9113 24.8247 19.8479 24.7565ZM19.5846 25.1166C19.5227 25.2003 19.4064 25.1953 19.2463 25.1067L18.5792 24.7373L18.8069 24.3252L18.8335 24.3396L19.4945 24.7059C19.6485 24.7909 19.7051 24.8806 19.6624 24.9746L19.5846 25.1166ZM19.939 24.4743C19.8906 24.5621 19.7899 24.5651 19.6408 24.4824L18.9399 24.0941L19.1737 23.671L19.2002 23.6857L19.8498 24.0456C20.0154 24.1373 20.0725 24.233 20.0191 24.3295L19.939 24.4743ZM26.8313 25.8663L26.7951 25.6127C26.7719 25.4457 26.7035 25.3223 26.5901 25.2436C26.476 25.1641 26.3688 25.1321 26.1769 25.1591L26.0122 25.1827L25.5397 25.2492L25.4813 24.8384L25.2452 24.8716L25.3036 25.2827L25.3352 25.5106L25.3892 25.8937L25.4138 26.0669C25.4373 26.2341 25.5062 26.3573 25.6196 26.4368C25.7337 26.516 25.8407 26.5485 26.0322 26.521L26.2306 26.4927L26.3626 26.4742C26.5539 26.4467 26.6487 26.3861 26.7359 26.2788C26.8238 26.1709 26.8547 26.0335 26.8313 25.8663ZM26.592 25.8773C26.6057 25.9758 26.5857 26.0585 26.5318 26.1267C26.4784 26.1949 26.4415 26.2302 26.3312 26.2454L26.1985 26.2643L26.165 26.2691L25.9993 26.2926C25.8891 26.3083 25.8431 26.2844 25.7732 26.2336C25.7028 26.183 25.6604 26.1086 25.6465 26.0107L25.6255 25.86L25.5713 25.4769L26.0771 25.4054L26.2104 25.3867C26.3206 25.3713 26.3661 25.3952 26.436 25.446C26.5062 25.4963 26.5486 25.5707 26.5622 25.6684L26.592 25.8773ZM31.2377 22.2313L32.4048 23.5391C32.4223 23.5236 32.5517 23.4074 32.5812 23.3814C32.5495 23.3468 31.4461 22.1099 31.4139 22.0739C31.3781 22.1058 31.2464 22.2233 31.2377 22.2313ZM30.2707 23.5025C30.2867 23.3818 30.3066 23.3003 30.4411 23.1921C30.4411 23.1921 31.0814 22.68 31.1396 22.6331C31.0902 22.5711 31.0407 22.5092 30.9911 22.4474C30.933 22.4944 30.2939 23.0059 30.2939 23.0059C30.0829 23.1748 30.0272 23.3066 30.0012 23.4767C29.9748 23.6527 30.0314 23.8301 30.1687 24.0018L30.3896 24.2792C30.5279 24.4517 30.6881 24.5454 30.866 24.5587C31.037 24.5704 31.177 24.545 31.3878 24.3757C31.3878 24.3757 32.0269 23.8644 32.0852 23.8172C32.0523 23.7763 31.9703 23.673 31.9375 23.6323C31.8789 23.6788 31.2391 24.1916 31.2391 24.1916C31.1043 24.2993 31.021 24.3003 30.8995 24.2898C30.7702 24.2783 30.6574 24.2138 30.5654 24.0984L30.3835 23.8708C30.2915 23.7557 30.2536 23.6312 30.2707 23.5025ZM34.4783 20.057L34.2642 19.9162C34.1231 19.8237 33.9565 19.839 33.8222 19.8722C33.6882 19.9055 33.5927 19.9656 33.4869 20.1274L33.3958 20.2671L33.1338 20.6674L32.7871 20.4401L32.6564 20.6398L33.0033 20.8674L33.1957 20.9933L33.5188 21.2049L33.6648 21.3009C33.8059 21.3934 33.9439 21.4226 34.0783 21.3895C34.2125 21.3558 34.3073 21.2963 34.4136 21.1342L34.5231 20.966L34.596 20.8549C34.7022 20.6929 34.7187 20.5814 34.6957 20.445C34.6725 20.3081 34.6196 20.1488 34.4783 20.057ZM34.3002 20.2886C34.383 20.3428 34.4317 20.4123 34.4474 20.4983C34.4636 20.5835 34.4656 20.6344 34.4042 20.7282L34.3311 20.8396L34.3126 20.8682L34.221 21.0081C34.1594 21.1021 34.1115 21.1209 34.0273 21.1403C33.9432 21.1595 33.8592 21.1426 33.777 21.0886L33.6493 21.0052L33.3267 20.7936L33.6062 20.3647L33.6795 20.2527C33.7407 20.1591 33.7888 20.1408 33.873 20.1216C33.9573 20.1019 34.0411 20.119 34.1232 20.1733L34.3002 20.2886ZM33.3052 22.6236C33.1961 22.7473 33.0727 22.8118 32.9366 22.8153C32.8007 22.8182 32.6955 22.7867 32.5531 22.6603L31.9832 22.1572L32.1452 21.9735L32.7151 22.4771C32.7976 22.55 32.8476 22.555 32.9324 22.5516C33.0178 22.5481 33.0916 22.5096 33.1562 22.4367L33.2685 22.309C33.3329 22.2363 33.3621 22.157 33.3546 22.072C33.3476 21.9873 33.336 21.9381 33.2541 21.8651L32.6839 21.3618L32.8454 21.1786L33.4151 21.6814C33.5573 21.8073 33.6017 21.9085 33.6159 22.044C33.6298 22.1792 33.5817 22.3096 33.4722 22.4341L33.3052 22.6236ZM16.2646 20.8147C16.258 20.7043 16.2194 20.591 16.1498 20.4775C16.1498 20.4775 15.6578 19.6761 15.6274 19.627C15.5769 19.6552 14.1511 20.456 14.1016 20.4841C14.1242 20.5218 14.2039 20.6518 14.227 20.6894C14.2747 20.6624 14.771 20.3835 14.771 20.3835L15.1618 21.0214C15.2414 21.1509 15.3325 21.2424 15.4333 21.2941C15.5673 21.3636 15.7075 21.3551 15.8616 21.2689L16.0936 21.1384C16.2175 21.069 16.2736 20.9628 16.2646 20.8147ZM15.7461 21.063C15.668 21.1065 15.547 21.1133 15.4139 20.8958L15.0152 20.2463L15.5087 19.9695L15.5247 19.9949L15.9077 20.6184C15.9369 20.6661 15.9575 20.7217 15.9693 20.7818C15.9875 20.8748 15.9688 20.9378 15.9122 20.9692L15.7461 21.063ZM15.2261 22.1551L15.923 21.556C16.1341 21.3743 16.3372 21.4058 16.5424 21.6547L16.866 22.0475C16.837 22.0724 16.7165 22.1762 16.688 22.2003C16.6636 22.1704 16.3652 21.8084 16.3652 21.8084C16.2445 21.6618 16.1301 21.7067 16.0798 21.7502L15.385 22.3475C15.3323 22.2832 15.2793 22.219 15.2261 22.1551ZM17.8975 23.1482C17.8821 23.0087 17.8354 22.9057 17.689 22.7778L17.5624 22.6674L17.3333 22.4679C17.1871 22.3402 17.0783 22.3082 16.9387 22.3127C16.7996 22.3174 16.6744 22.3837 16.5633 22.5116L16.3939 22.7063C16.2827 22.8342 16.235 22.9674 16.2494 23.1063C16.2644 23.2453 16.311 23.3485 16.4578 23.476L16.6616 23.6537L16.6615 23.654L16.8131 23.7864C16.9598 23.9141 17.0686 23.9455 17.2083 23.9416C17.3473 23.9366 17.4722 23.8708 17.5835 23.7426L17.7528 23.5484C17.8642 23.4198 17.9121 23.2866 17.8975 23.1482ZM17.4175 23.5675C17.3521 23.6427 17.2756 23.682 17.1887 23.6865C17.1018 23.6907 17.0502 23.6854 16.9657 23.6117L16.8385 23.5008L16.8132 23.4788L16.6092 23.3011C16.5241 23.2271 16.5122 23.1768 16.5043 23.0902C16.4965 23.0032 16.5253 22.9225 16.5907 22.8471L16.7298 22.6872C16.7951 22.612 16.8711 22.5725 16.9582 22.5679C17.0451 22.5642 17.0966 22.569 17.1811 22.6427L17.3852 22.8204L17.4106 22.8426L17.5379 22.9533C17.6225 23.0273 17.6347 23.0776 17.6419 23.1642C17.6502 23.2514 17.6222 23.3322 17.5563 23.4073L17.4175 23.5675Z" fill="white"/>
<path d="M17.5311 6.97154L17.3709 7.13672L16.7152 6.49826L15.9504 7.28616L16.6056 7.92462L16.4452 8.08941L15.1846 6.86176L15.3448 6.69658L15.76 7.10064L16.5245 6.31248L16.1101 5.90881L16.2704 5.7435L17.5311 6.97154ZM25.5803 3.79142L25.181 3.7593C25.0949 3.75239 25.0303 3.75674 24.9871 3.77274C24.915 3.79948 24.8756 3.85769 24.8683 3.94828C24.8625 4.03375 24.891 4.09209 24.9536 4.12446C24.9898 4.14404 25.0539 4.15735 25.1453 4.16438L25.4769 4.19112C25.5917 4.20046 25.6753 4.18818 25.7275 4.15543C25.7754 4.12523 25.8026 4.07124 25.8088 3.99447C25.8131 3.87049 25.7367 3.80293 25.5803 3.79142ZM24.8411 3.04063L25.5877 3.1005C25.799 3.11727 25.9438 3.19288 26.0228 3.32799C26.1259 3.50021 26.0757 3.72437 26.0605 3.9122C26.0555 3.97643 26.0503 4.04015 26.0448 4.10412C26.0373 4.20174 26.0027 4.29207 25.9463 4.35618C25.8921 4.41797 25.8173 4.45546 25.7287 4.44881C25.6504 4.4428 25.5727 4.43653 25.4944 4.43013L25.1117 4.39968C24.9365 4.38586 24.8162 4.35298 24.7491 4.30026C24.6565 4.22848 24.618 4.09964 24.6332 3.91374C24.6492 3.73986 24.7131 3.62509 24.8177 3.56981C24.8933 3.52977 25.0148 3.51697 25.183 3.53053C25.183 3.53053 25.834 3.58632 25.834 3.58261C25.8398 3.51659 25.8288 3.43713 25.7646 3.39453C25.7031 3.3523 25.6232 3.33925 25.55 3.3335L24.8156 3.27464L24.8411 3.04063ZM19.216 4.27966C19.3656 4.20123 19.5052 4.18498 19.6354 4.23066C19.7666 4.2771 19.8556 4.34568 19.9459 4.51777L20.3054 5.20293L20.1017 5.3104L19.7411 4.62346C19.6896 4.52494 19.6433 4.50152 19.5613 4.47402C19.4796 4.44651 19.3943 4.45572 19.3071 4.50152L19.1202 4.60004C19.0325 4.64623 18.977 4.71123 18.9534 4.79427C18.929 4.8773 18.9223 4.92874 18.9741 5.02751L19.3344 5.71382L19.1305 5.8213L18.771 5.13588C18.6812 4.96367 18.6749 4.85171 18.7111 4.71711C18.7472 4.58367 18.8401 4.47747 18.9896 4.39904L19.216 4.27966ZM22.1562 3.25059L22.366 3.97297C22.3977 4.08045 22.3804 4.12881 22.3403 4.20558C22.3003 4.28261 22.2335 4.33455 22.1382 4.36245L22.0005 4.40249C21.9057 4.43 21.8209 4.42232 21.7463 4.37869C21.6713 4.33519 21.6305 4.30346 21.5996 4.19624L21.3897 3.47385L21.1581 3.54128L21.3677 4.26367C21.3993 4.37102 21.3824 4.41951 21.342 4.49666C21.3019 4.57343 21.2345 4.62538 21.1394 4.6534L21.0023 4.69344C20.9076 4.72082 20.8223 4.71289 20.7474 4.66977C20.6723 4.6264 20.6322 4.59429 20.6006 4.48694L20.3909 3.76455L20.17 3.82878L20.3856 4.57241C20.4398 4.75844 20.5133 4.84353 20.6323 4.91492C20.7511 4.98644 20.8913 4.9986 21.0538 4.95113L21.2344 4.89842C21.3964 4.85146 21.5085 4.76548 21.5706 4.64201C21.5779 4.6273 21.5845 4.61258 21.5904 4.59774C21.6033 4.60695 21.6172 4.61552 21.631 4.62422C21.7498 4.69524 21.8904 4.70739 22.0521 4.66031L22.2335 4.60721C22.395 4.56051 22.5068 4.47478 22.5691 4.3508C22.6312 4.22657 22.6476 4.11512 22.5935 3.92896L22.3778 3.18546L22.1562 3.25059ZM24.101 3.20056C23.9989 3.10729 23.8637 3.06711 23.696 3.08055L23.4405 3.10127C23.3182 3.11125 23.2187 3.14657 23.1393 3.20645L23.0967 2.67969L22.8663 2.69837L23.0086 4.46519L23.2428 4.44625L23.1805 3.6732C23.1715 3.56188 23.1982 3.51774 23.2524 3.45018C23.3072 3.38365 23.3837 3.34578 23.4824 3.33785L23.6927 3.32096C23.7909 3.31277 23.8729 3.33785 23.9376 3.39491C24.002 3.45261 24.0354 3.49228 24.0444 3.60359L24.1062 4.37678L24.3363 4.3581L24.274 3.58619C24.2584 3.39299 24.2028 3.29473 24.101 3.20056ZM18.111 5.72649L17.7896 5.96677C17.7205 6.01821 17.6747 6.0644 17.6524 6.10534C17.6165 6.17251 17.6249 6.2425 17.6791 6.31543C17.7312 6.38324 17.7912 6.40832 17.8595 6.3913C17.8994 6.38234 17.9559 6.34984 18.0301 6.29508L18.2965 6.09561C18.3888 6.02665 18.4433 5.96268 18.4613 5.90344C18.477 5.84868 18.4621 5.79046 18.4161 5.72866C18.3384 5.63296 18.236 5.63232 18.111 5.72649ZM17.0603 5.65164L17.6617 5.20267C17.8311 5.07575 17.99 5.03673 18.1381 5.08624C18.3292 5.14766 18.4388 5.34917 18.5511 5.50041C18.5895 5.5521 18.6283 5.60353 18.6659 5.65471C18.7245 5.7334 18.7582 5.82398 18.7576 5.90945C18.758 5.99198 18.7265 6.06977 18.6556 6.12351L18.4675 6.26374L18.1593 6.4934C18.0188 6.59909 17.9061 6.65359 17.8213 6.65832C17.7042 6.66536 17.5903 6.59435 17.4787 6.44465C17.3764 6.30327 17.3492 6.17481 17.3911 6.06427C17.422 5.9843 17.5047 5.8941 17.6398 5.79315C17.6398 5.79315 18.1663 5.40521 18.1635 5.40201C18.1244 5.34904 18.0641 5.29646 17.9875 5.30657C17.9129 5.31578 17.8453 5.35877 17.7864 5.40278L17.1954 5.84407L17.0603 5.65164ZM32.9251 5.95295L31.6889 7.3216C31.7076 7.33811 31.8421 7.46081 31.8735 7.48857C31.9065 7.45185 33.075 6.15792 33.1092 6.12018C33.0478 6.06453 32.9864 6.00878 32.9251 5.95295ZM32.9361 7.60321L33.2151 7.91771C33.2751 7.98539 33.3277 8.02851 33.3719 8.04834C33.4452 8.08058 33.5172 8.06485 33.5882 8.00138C33.655 7.94189 33.6756 7.87638 33.6518 7.80601C33.6384 7.76558 33.5997 7.70877 33.5353 7.63661L33.3037 7.37547C33.2243 7.2859 33.1518 7.23345 33.089 7.22091C33.0299 7.20952 32.9697 7.22974 32.9102 7.28373C32.8168 7.37432 32.8259 7.48077 32.9361 7.60321ZM32.9516 8.70855L32.4296 8.12025C32.2824 7.95456 32.2272 7.79193 32.2649 7.63264C32.2851 7.54436 32.3332 7.46976 32.3934 7.40285C32.4738 7.31277 32.6995 7.12763 32.7495 7.08311C32.8777 6.96898 32.9945 6.94441 33.0828 6.94595C33.1754 6.94774 33.2919 6.98894 33.3548 7.05905C33.41 7.12021 33.4095 7.1206 33.4636 7.18188L33.7309 7.48281C33.8537 7.62125 33.9213 7.73346 33.9335 7.82239C33.9515 7.9433 33.8877 8.06945 33.7421 8.19906C33.6026 8.31895 33.4719 8.35912 33.3531 8.32509C33.2662 8.3004 33.1649 8.22158 33.0474 8.08967C33.0474 8.08967 32.596 7.5734 32.5924 7.57634C32.5403 7.62253 32.4911 7.69098 32.5089 7.76954C32.5251 7.84606 32.576 7.91425 32.6274 7.97157L33.1408 8.55002L32.9516 8.70855ZM34.4106 9.65088C34.4056 9.56157 34.36 9.45998 34.2985 9.36299L34.0291 8.9354C33.9934 8.8782 33.9236 8.74271 34.0291 8.67605L34.1234 8.61655C34.1967 8.57036 34.2529 8.57484 34.3444 8.7207C34.3444 8.7207 34.7993 9.44309 34.816 9.46983L34.9932 9.35788L34.5368 8.6328C34.4604 8.51164 34.3883 8.42988 34.3224 8.3897C34.2177 8.32483 34.1038 8.33353 33.9724 8.41632L33.8773 8.47658C33.778 8.53927 33.7286 8.62321 33.7255 8.73401C33.723 8.82216 33.7483 8.90904 33.8004 8.99169L34.1123 9.48698C34.1996 9.62567 34.1766 9.67403 34.1015 9.72189L34.0207 9.77255C33.9503 9.81733 33.8914 9.83026 33.8138 9.7073C33.8138 9.7073 33.3167 8.91812 33.2968 8.88563L33.1131 9.00142C33.1338 9.03379 33.6123 9.79366 33.6123 9.79366C33.7372 9.9916 33.8616 10.081 33.9826 10.0595C34.0307 10.0508 34.0936 10.0215 34.1695 9.97432L34.2519 9.92187C34.3629 9.85226 34.4158 9.77281 34.4106 9.65088ZM29.9445 5.15124L29.5725 4.95151C29.4924 4.90878 29.4282 4.88575 29.3798 4.88293C29.299 4.87807 29.2366 4.91761 29.1916 5.00205C29.1497 5.08202 29.1527 5.15009 29.1998 5.20792C29.2263 5.24234 29.2826 5.28174 29.3673 5.32742L29.6762 5.49311C29.7828 5.5503 29.8689 5.57436 29.933 5.56476C29.9919 5.55568 30.0406 5.51486 30.079 5.44372C30.1351 5.32563 30.0899 5.22852 29.9445 5.15124ZM29.5469 4.115L30.2423 4.48809C30.4387 4.59377 30.5468 4.72773 30.5662 4.89138C30.5929 5.10121 30.4499 5.29569 30.3565 5.47047C30.3241 5.5306 30.2927 5.58971 30.261 5.64946C30.212 5.74005 30.1405 5.81234 30.0591 5.8506C29.9811 5.88757 29.8926 5.89205 29.8101 5.84804C29.7373 5.80927 29.6646 5.77037 29.5925 5.73161L29.236 5.5402C29.0731 5.45268 28.9705 5.37003 28.9283 5.29083C28.8697 5.18258 28.8862 5.04223 28.9789 4.86873C29.0677 4.70777 29.1776 4.62435 29.302 4.6154C29.3913 4.60862 29.5144 4.64777 29.6706 4.73157C29.6706 4.73157 30.2748 5.06027 30.2767 5.05694C30.3099 4.99553 30.3328 4.91479 30.289 4.84608C30.2476 4.77942 30.1756 4.73324 30.1078 4.69664L29.4243 4.33007L29.5469 4.115ZM32.1484 5.99697L32.1507 5.99428L32.1472 5.99121C32.1412 5.96511 32.1362 5.93811 32.1252 5.91111C32.0836 5.80287 32.0111 5.70819 31.9096 5.62899L31.5664 5.35992C31.2905 5.14407 31.0784 5.13883 30.9177 5.34444L30.559 5.8039C30.3823 6.03036 30.4303 6.2448 30.7043 6.45962L31.1062 6.77412C31.1619 6.80674 31.2397 6.85651 31.3298 6.84091L31.2557 6.93456C31.2156 6.97947 31.1641 7.0208 31.091 7.01875C31.0135 7.01645 30.9243 6.97026 30.8643 6.9233L30.2492 6.44145L30.1197 6.60766L30.766 7.11369C30.8623 7.18866 30.949 7.23319 31.033 7.25059C31.1014 7.26525 31.1724 7.2619 31.2391 7.24087C31.32 7.21643 31.3815 7.16359 31.4385 7.10294L31.4954 7.03001L32.0703 6.29329C32.1423 6.20079 32.1667 6.10265 32.1484 5.99697ZM31.5777 6.5204C31.4222 6.71961 31.235 6.54509 31.235 6.54509L31.2337 6.54714L30.8674 6.26054C30.8622 6.25632 30.858 6.25222 30.8525 6.24825L30.8538 6.24672C30.8538 6.24672 30.6362 6.10534 30.7974 5.90459L30.7962 5.90344L31.0462 5.58344L31.0475 5.58447C31.2032 5.37834 31.3933 5.55645 31.3933 5.55645L31.3956 5.55286C31.4717 5.61313 31.7192 5.80684 31.7192 5.80684C31.7331 5.81771 31.7529 5.83384 31.7747 5.85354L31.7739 5.85469C31.7739 5.85469 31.7809 5.85955 31.7906 5.86761C31.8084 5.88348 31.8258 5.90139 31.8417 5.92122C31.8876 5.98046 31.9243 6.07655 31.8328 6.19375L31.5777 6.5204ZM27.7027 3.47846C27.7352 3.38404 27.823 3.32057 28.0014 3.35422C28.0626 3.3628 28.9332 3.66833 29.068 3.71388L29.1591 3.44852C29.1179 3.43457 28.1674 3.10741 28.1674 3.10741C28.104 3.08546 28.038 3.07217 27.971 3.06788C27.7674 3.05662 27.5653 3.13236 27.4949 3.33785L27.4412 3.4942C27.3776 3.67882 27.2795 3.96581 27.2681 3.99856C27.239 4.08409 27.2097 4.16951 27.1801 4.25484C27.1561 4.32534 27.1489 4.40057 27.1678 4.4735C27.215 4.65749 27.3992 4.79184 27.5691 4.85044C27.5691 4.85044 28.5195 5.17747 28.5613 5.19154C28.5746 5.15213 28.6388 4.96508 28.6524 4.92631C28.5178 4.87961 27.6437 4.58392 27.5902 4.55449C27.4287 4.47056 27.3983 4.36616 27.4302 4.27224L27.5001 4.06778C27.5163 4.02096 27.5119 4.03439 27.5119 4.03439C27.5119 4.03439 28.6275 4.41797 28.6756 4.43474C28.689 4.3952 28.7525 4.21006 28.7665 4.17014C28.7183 4.15338 27.603 3.76967 27.603 3.76967L27.6703 3.57276L27.7027 3.47846Z" fill="white"/>
<path d="M18.3601 23.907L18.2259 24.1003L17.9053 23.8872L18.0397 23.6938L18.3601 23.907Z" fill="white"/>
</svg>
