<svg width="46" height="32" viewBox="0 0 46 32" fill="none" xmlns="http://www.w3.org/2000/svg">
<path d="M34.8032 15.8093C34.8032 21.7561 29.9898 26.5771 24.0522 26.5771C18.1146 26.5771 13.3008 21.7561 13.3008 15.8093C13.3008 9.86215 18.1146 5.0411 24.0522 5.0411C29.9898 5.0411 34.8032 9.86215 34.8032 15.8093Z" fill="white"/>
<path d="M29.0935 11.499C29.0935 11.499 29.6796 11.304 29.9437 11.3683L30.0233 11.1594C29.7963 11.0489 29.2269 11.1819 29.2269 11.1819C29.2269 11.1819 28.956 10.6866 28.7616 10.6431L28.666 10.8794C28.9371 11.0353 29.0935 11.499 29.0935 11.499Z" fill="#C7A079"/>
<path d="M26.8769 25.4042C26.8769 25.4042 26.638 25.0737 26.4883 25.043L26.418 25.2175C26.6281 25.3491 26.7619 25.625 26.7619 25.625C26.7619 25.625 27.2888 25.5159 27.4981 25.5776L27.5732 25.407C27.3948 25.3106 26.8769 25.4042 26.8769 25.4042Z" fill="#C7A079"/>
<path d="M27.9469 22.7814C27.9469 22.7814 27.4869 22.3299 27.2948 22.3398L27.2686 22.5811C27.5676 22.6728 27.8791 23.0972 27.8791 23.0972C27.8791 23.0972 28.425 22.7141 28.6956 22.7185L28.7352 22.4791C28.4887 22.4224 27.9469 22.7814 27.9469 22.7814Z" fill="#C7A079"/>
<path d="M29.4934 10.73C29.4934 10.73 30.0771 10.6377 30.3454 10.6735L30.4665 10.4311C30.2293 10.3455 29.6243 10.4411 29.6243 10.4411C29.6243 10.4411 29.3659 9.96732 29.1691 9.94433L29.0732 10.179C29.3579 10.3067 29.4934 10.73 29.4934 10.73Z" fill="#C7A079"/>
<path d="M29.964 9.97072C29.964 9.97072 30.4246 9.94773 30.688 9.99951L30.8253 9.76354C30.5962 9.66324 30.1209 9.67794 30.1209 9.67794C30.1209 9.67794 29.8141 9.29426 29.6352 9.22193L29.5254 9.43247C29.7995 9.57515 29.964 9.97072 29.964 9.97072Z" fill="#C7A079"/>
<path d="M30.384 9.28045C30.384 9.28045 30.8246 9.23391 31.0826 9.30371L31.2395 9.0594C31.0195 8.94638 30.5604 8.99844 30.5604 8.99844C30.5604 8.99844 30.3156 8.57823 30.1254 8.53082L30.0107 8.72336C30.2727 8.88377 30.384 9.28045 30.384 9.28045Z" fill="#C7A079"/>
<path d="M30.8221 8.63127C30.8221 8.63127 31.2107 8.6631 31.4619 8.74902L31.6039 8.56032C31.3918 8.43127 30.9672 8.40907 30.9672 8.40907C30.9672 8.40907 30.7488 8.00161 30.5627 7.94149L30.4434 8.11767C30.6936 8.29329 30.8221 8.63127 30.8221 8.63127Z" fill="#C7A079"/>
<path d="M26.5917 25.9148C26.5917 25.9148 26.3497 25.5893 26.2111 25.5583L26.1465 25.732C26.341 25.8639 26.4852 26.1367 26.4852 26.1367C26.4852 26.1367 26.955 26.0303 27.1497 26.0927L27.2185 25.9215C27.0542 25.8253 26.5917 25.9148 26.5917 25.9148Z" fill="#C7A079"/>
<path d="M27.16 24.8396C27.16 24.8396 26.8304 24.4218 26.6562 24.3974L26.5918 24.6169C26.8451 24.7578 27.0491 25.1196 27.0491 25.1196C27.0491 25.1196 27.617 24.9138 27.862 24.9709L27.9327 24.7545C27.7198 24.6548 27.16 24.8396 27.16 24.8396Z" fill="#C7A079"/>
<path d="M27.4644 24.2538C27.4644 24.2538 27.0543 23.7725 26.8629 23.7671L26.8184 24.0066C27.1065 24.128 27.3752 24.5654 27.3752 24.5654C27.3752 24.5654 27.9529 24.2183 28.2223 24.2485L28.2758 24.0114C28.0364 23.9308 27.4644 24.2538 27.4644 24.2538Z" fill="#C7A079"/>
<path d="M27.7265 23.4991C27.7265 23.4991 27.2935 23.0295 27.1022 23.0309L27.0654 23.2711C27.3582 23.3788 27.6478 23.8115 27.6478 23.8115C27.6478 23.8115 28.2117 23.4486 28.4817 23.4675L28.5284 23.2281C28.286 23.1586 27.7265 23.4991 27.7265 23.4991Z" fill="#C7A079"/>
<path d="M19.3032 8.04932L19.5021 7.87922C19.3355 7.78395 19.159 7.23206 19.159 7.23206C19.159 7.23206 18.7735 7.22045 18.5975 7.16641L18.3438 7.34872L18.9513 7.4199C18.9513 7.4199 19.0927 7.94294 19.3032 8.04932Z" fill="#C7A079"/>
<path d="M19.9897 7.56201L20.1984 7.40357C19.9869 7.29687 19.8444 6.7689 19.8444 6.7689C19.8444 6.7689 19.4484 6.72983 19.3007 6.6434L19.0957 6.80133C19.2303 6.90633 19.6442 6.94922 19.6442 6.94922C19.6442 6.94922 19.771 7.46978 19.9897 7.56201Z" fill="#C7A079"/>
<path d="M18.6462 8.60156C18.7048 8.54266 18.7654 8.48574 18.8278 8.43092C18.6351 8.18992 18.5679 7.73418 18.5679 7.73418C18.5679 7.73418 18.118 7.71479 17.902 7.7018C17.8358 7.76132 17.7422 7.87742 17.7422 7.87742L18.3343 7.94694C18.3343 7.94694 18.4532 8.38245 18.6462 8.60156Z" fill="#C7A079"/>
<path d="M18.0991 9.21289C18.1529 9.15834 18.2156 9.08855 18.2793 9.0334C18.0861 8.79125 17.9916 8.2987 17.9916 8.2987C17.9916 8.2987 17.559 8.27991 17.3451 8.26576C17.2768 8.32589 17.2187 8.37518 17.1846 8.44249L17.765 8.50648C17.765 8.50648 17.9049 8.99488 18.0991 9.21289Z" fill="#C7A079"/>
<path d="M20.6534 7.07324L20.8761 6.92641C20.6161 6.87293 20.4853 6.30312 20.4853 6.30312C20.4853 6.30312 20.1364 6.29897 20.0198 6.22194C19.9301 6.27041 19.8361 6.30395 19.7461 6.36237C19.8784 6.42613 20.2689 6.45631 20.2689 6.45631C20.2689 6.45631 20.4543 6.9846 20.6534 7.07324Z" fill="#C7A079"/>
<path d="M17.6782 9.67108C17.4963 9.47242 17.3361 8.96412 17.3361 8.96412C17.3361 8.96412 16.9274 8.98434 16.7113 8.97905L16.5215 9.18075C16.7358 9.21622 17.1262 9.1971 17.1262 9.1971C17.1262 9.1971 17.2594 9.63837 17.5077 9.89355L17.6782 9.67108Z" fill="#C7A079"/>
<path d="M21.2916 6.55029C21.3484 6.50846 21.4975 6.42788 21.4975 6.42788C21.2592 6.33533 21.243 5.92036 21.243 5.92036C21.243 5.92036 20.7197 5.91175 20.5977 5.85444C20.5232 5.90373 20.4434 5.93032 20.3721 5.99099C20.4719 6.07576 21.0019 6.09958 21.0019 6.09958C21.0019 6.09958 21.057 6.50072 21.2916 6.55029Z" fill="#C7A079"/>
<path d="M16.2112 9.69092C16.1499 9.77431 16.1037 9.8272 16.0449 9.91003L16.6009 9.93689C16.6009 9.93689 16.7187 10.4489 16.9062 10.6309L17.0625 10.3993C16.9037 10.212 16.802 9.68871 16.802 9.68871C16.802 9.68871 16.398 9.70562 16.2112 9.69092Z" fill="#C7A079"/>
<path d="M16.2045 10.468C16.2045 10.468 15.8508 10.5171 15.6665 10.4725L15.5088 10.6675C15.6546 10.7204 16.0429 10.7212 16.0429 10.7212C16.0429 10.7212 16.2446 11.3914 16.4033 11.4736L16.5476 11.2224C16.3437 11.0542 16.2045 10.468 16.2045 10.468Z" fill="#C7A079"/>
<path d="M15.1886 11.3102L15.0439 11.5378L15.5647 11.5373C15.5647 11.5373 15.6902 12.0858 15.9166 12.2598L16.0531 12.0177C15.9028 11.8572 15.7465 11.2971 15.7465 11.2971L15.1886 11.3102Z" fill="#C7A079"/>
<path d="M14.7288 12.1962L14.6211 12.4389L15.1298 12.4117C15.1298 12.4117 15.3321 12.9137 15.5204 13.0894C15.571 13.006 15.596 12.8921 15.6413 12.8104C15.4188 12.5943 15.2769 12.1705 15.2769 12.1705L14.7288 12.1962Z" fill="#C7A079"/>
<path d="M21.6312 5.70902C21.6557 5.92454 21.875 6.14697 21.875 6.14697L22.0617 6.02148C21.8933 5.87967 21.8253 5.58021 21.8253 5.58021L21.4866 5.54225C21.3166 5.53285 20.9561 5.65857 20.9561 5.65857C21.1251 5.65277 21.6312 5.70902 21.6312 5.70902Z" fill="#C7A079"/>
<path d="M41.0576 16.7599L41.0334 16.8912C41.015 16.9871 39.9541 17.1763 38.8935 17.3968C38.9271 17.0771 38.9491 16.7541 38.9624 16.4292C40.05 16.6006 41.0576 16.7599 41.0576 16.7599ZM32.0701 14.6366L31.6803 17.8448C31.6486 18.0414 31.5796 18.2869 31.4125 18.3351L30.3526 18.447L30.7423 15.2396C30.7719 15.0396 30.8434 14.7956 31.0087 14.7476L32.0701 14.6366ZM24.0516 26.8289C20.7457 26.8286 17.7825 25.3667 15.7655 23.0547C15.8864 23.0425 15.9766 23.0325 16.0233 23.0278C16.0492 23.0256 16.0637 23.0063 16.068 22.9716C16.1613 22.2051 17.2438 13.319 17.2459 13.3016C17.2463 13.2827 17.224 13.2755 17.2074 13.2786C17.1914 13.2811 16.6185 13.3852 16.0831 13.4866C15.7789 13.5454 15.4787 13.6526 15.1902 13.7977C15.1933 13.7853 15.1961 13.7731 15.1989 13.7637C14.9757 13.5506 14.9349 13.0713 14.9349 13.0713L14.3218 13.1597L14.2484 13.3963L14.7364 13.3254C14.7364 13.3254 14.7655 13.657 14.9584 13.9249C14.1311 14.4127 13.4269 15.218 13.0571 16.1272C13.054 16.0211 13.0491 15.9156 13.0491 15.8087C13.0491 9.72217 17.9751 4.78977 24.0516 4.78867C28.5835 4.78867 32.4738 7.53316 34.1599 11.4527C32.4467 11.6336 30.3831 11.8522 30.3831 11.8522C30.1241 11.8794 29.8705 11.9384 29.6235 12.0189L29.6529 11.9326C29.4216 11.8378 28.8602 12.0101 28.8602 12.0101C28.8602 12.0101 28.5458 11.5242 28.3508 11.494L28.2643 11.7311C28.5422 11.8688 28.741 12.327 28.741 12.327C28.741 12.327 28.9743 12.2359 29.212 12.1816C28.935 12.3088 28.6725 12.4657 28.4291 12.6495C28.3081 12.5137 28.1441 12.3542 28.0325 12.3445L27.9569 12.5841C28.0578 12.6265 28.1531 12.7118 28.2345 12.8035C27.431 13.4841 26.8589 14.4582 26.7307 15.5147C26.7307 15.5147 25.9739 21.7422 25.9696 21.7874C25.9644 21.8325 25.9617 21.8707 26.0243 21.8671C26.0431 21.8657 26.6451 21.8023 27.4611 21.7161L27.4578 21.7821C27.7615 21.8533 28.1051 22.2622 28.1051 22.2622C28.1051 22.2622 28.6254 21.8521 28.8954 21.8369L28.9227 21.5976C28.6736 21.5566 28.1539 21.9444 28.1539 21.9444C28.1539 21.9444 27.9829 21.797 27.8032 21.6799C29.5768 21.4928 32.0376 21.2317 32.0376 21.2317C32.7734 21.1544 33.4718 20.8432 34.0603 20.3803C34.0215 20.4593 33.9854 20.5395 33.952 20.6208C32.168 24.2958 28.4055 26.8286 24.0516 26.8289ZM45.9545 10.1352C44.0045 10.3412 42.0545 10.5471 40.1044 10.7527C39.4676 10.8197 38.8591 11.0627 38.3247 11.4259C36.4542 5.30839 30.7725 0.859368 24.0508 0.859368C17.4493 0.859368 11.8526 5.1535 9.88356 11.104C8.26876 11.2677 4.18077 11.6959 4.18077 11.6959C1.2057 12.0101 0.363025 14.3268 0.126583 15.6815C-0.0777036 16.8425 0.0236816 17.6616 0.0358716 17.8913C0.0373437 17.9304 0.0522949 17.978 0.077871 17.9861C0.113153 17.9971 0.160717 17.9788 0.22199 17.9085C0.287816 17.8329 1.39711 16.4571 1.56101 16.2754C1.7245 16.094 2.43327 15.2452 3.81654 15.1L8.50359 14.605C8.49407 14.7044 7.88834 20.008 7.88834 20.008C7.78332 20.7067 7.32323 21.1399 6.46463 21.294C6.46463 21.294 7.20068 14.874 7.20137 14.8634C7.20441 14.8526 7.20137 14.8393 7.18385 14.8426C7.16517 14.8462 6.12267 15.0244 6.12267 15.0244C4.47968 15.3787 3.0867 16.9117 2.8837 18.5877L2.52619 21.705C1.53819 21.8059 0.891062 21.7148 0.485432 21.6838C0.34826 21.6741 0.219504 21.6569 0.109564 21.6439C0.0639313 21.6383 0.0289274 21.6813 0.0543655 21.7192C0.221438 21.9793 0.620856 22.6863 1.13725 23.2323C1.83457 23.9731 2.85247 24.3407 4.11554 24.3407L7.25699 24.0564C9.13398 23.8581 10.2575 23.4709 10.945 22.9672C13.4778 27.6098 18.3969 30.7593 24.0508 30.7593C30.6562 30.7593 36.2547 26.461 38.2217 20.5066C40.1214 20.3067 41.926 20.1158 41.926 20.1158C44.8206 19.8102 44.9312 18.4437 44.991 17.7099C44.997 17.6409 45.1333 16.4466 45.151 16.1114C45.2081 15.2227 44.5577 14.4235 43.6091 14.2135C43.2245 14.1279 41.661 13.8556 40.6586 13.6833C40.6767 13.6694 40.6973 13.6592 40.7193 13.6534L43.5381 13.3523C44.5188 13.249 45.2816 12.5278 45.6345 11.3732L45.9996 10.1781C45.9996 10.1781 46.0072 10.1286 45.9545 10.1352Z" fill="#C7A079"/>
<path d="M26.7946 12.2986C26.7497 12.303 20.7842 12.9319 20.7842 12.9319C18.9612 13.126 17.3569 14.735 17.1295 16.5968C17.1295 16.5968 16.3636 22.9033 16.3614 22.9177C16.3599 22.9321 16.3745 22.9468 16.3946 22.944C16.411 22.9423 19.9286 22.5775 20.3483 22.5351C20.3743 22.5324 20.3898 22.5038 20.3938 22.4861C20.3964 22.4678 21.1543 16.2148 21.1543 16.2148C21.1899 16.0655 21.2594 15.8755 21.3919 15.8334L22.4705 15.7198C22.4705 15.7198 21.6818 22.2127 21.6694 22.3077C21.6623 22.3603 21.6889 22.3924 21.7415 22.3877C22.311 22.3273 25.6172 21.9783 25.6338 21.9761C25.6508 21.975 25.69 21.9561 25.6919 21.9262C25.7782 21.2284 26.8509 12.411 26.8536 12.3617C26.8607 12.3105 26.8441 12.2928 26.7946 12.2986Z" fill="#C7A079"/>
<path d="M11.9811 12.0124C11.5466 11.5633 10.9379 11.3539 10.2351 11.429L4.19575 12.0683C2.08852 12.2894 0.938285 13.7488 0.592824 14.9314C0.378187 15.671 0.336971 16.1226 0.3119 16.4237C0.3119 16.4237 0.270178 17.1141 0.279746 17.3293C0.279746 17.3595 0.278182 17.373 0.295616 17.3816C0.305598 17.3861 0.320226 17.3827 0.34111 17.3603C0.453397 17.2351 0.736068 16.8423 0.803873 16.7561C1.03512 16.4691 1.46053 15.9262 1.74136 15.6835C2.09197 15.3813 2.82319 14.858 3.80438 14.7549L8.68109 14.2408C8.76794 14.2297 8.82411 14.2468 8.83027 14.2574C8.90525 14.3344 8.86238 14.4804 8.86238 14.4804L8.24115 20.0386C8.10659 20.9516 7.41466 21.4982 6.10857 21.6664L6.81753 15.2968C6.81969 15.266 6.80272 15.2489 6.76978 15.2558C6.73606 15.2619 6.17523 15.3785 6.17523 15.3785C4.68464 15.6993 3.42294 17.0872 3.2371 18.6047L2.92678 21.3231L2.83713 22.0096L2.66012 22.0296C2.30233 22.0669 1.84858 22.0936 0.942426 22.0296C0.785059 22.0185 0.705938 22.0002 0.687676 22.0238C0.674566 22.047 0.682018 22.0755 0.727236 22.1517C0.745636 22.1841 1.10301 22.8609 1.87789 23.4307C2.35988 23.7837 3.12297 23.9814 4.0876 23.9814C4.61743 23.9814 5.17854 23.9304 5.70865 23.8737L6.5189 23.7881C10.29 23.3894 11.4389 22.888 11.7693 20.3264L12.536 13.8357C12.6241 13.1171 12.4273 12.4703 11.9811 12.0124Z" fill="#071D3D"/>
<path d="M10.2537 11.7822L4.21337 12.4207C1.13223 12.7454 0.75383 15.6594 0.733912 15.7771C0.711924 15.8949 0.662014 16.3658 0.65884 16.401C0.652308 16.4345 0.666016 16.4483 0.692558 16.414C0.720204 16.3768 1.07188 15.914 1.07188 15.914C1.07979 15.9013 2.07624 14.6084 3.7852 14.4283L8.66394 13.9133C8.84973 13.8936 8.99174 13.9299 9.08272 14.0269C9.26475 14.2192 9.20706 14.599 9.15039 15.0009C9.13558 15.0984 8.57852 20.0832 8.57852 20.0832C8.34437 21.7148 6.54291 21.9057 5.94933 21.9675L5.77862 21.986C5.77862 21.986 6.46379 15.6791 6.46504 15.6516C6.46651 15.6239 6.44015 15.6134 6.41356 15.6192C6.38867 15.6251 6.22091 15.6608 6.22091 15.6608C4.85107 15.9572 3.6909 17.2301 3.52231 18.6222L3.06511 22.2716C2.72959 22.3032 2.35961 22.3331 2.04276 22.3331C1.8508 22.3331 1.25114 22.2916 1.20551 22.2872C1.16268 22.283 1.1509 22.3065 1.17745 22.3373C1.20385 22.3692 1.39388 22.6082 1.39388 22.6082C2.01704 23.3487 2.93953 23.7321 4.02739 23.6781C5.11424 23.6257 5.90908 23.5144 6.68712 23.4462C8.94983 23.2451 11.0843 23.0171 11.4365 20.3203L12.2014 13.8236C12.2763 13.2097 12.1091 12.657 11.7347 12.2719C11.3735 11.8988 10.8358 11.7196 10.2537 11.7822Z" fill="#1D467D"/>
<path d="M40.6734 13.3106L43.5252 13.0076C44.2411 12.9317 44.8964 12.3331 45.1646 11.661C45.2675 11.4009 45.4562 10.7291 45.4993 10.5742C45.5045 10.5529 45.4883 10.5443 45.4634 10.5454C45.4382 10.5507 40.1182 11.1241 40.1182 11.1241C38.4939 11.2959 37.0066 12.786 36.8063 14.4451C36.8063 14.4451 36.6672 15.6698 36.6656 15.6823C36.6656 15.6939 36.6703 15.7006 36.6786 15.7016C36.6841 15.7028 41.4548 16.5134 41.4548 16.5134C41.4548 16.5134 41.4194 16.7139 41.3739 17.0217C41.3255 17.3278 39.2647 17.5743 38.4317 17.8134C37.1724 18.1738 35.9069 18.4874 34.7333 19.8888C34.5548 20.1044 34.418 20.4069 34.3447 20.5221C34.3297 20.5471 34.3392 20.5778 34.3756 20.575C34.4149 20.572 42.0355 19.7584 42.0355 19.7584C43.6 19.5936 44.461 18.9985 44.5925 17.991L44.6078 17.8683C44.6654 17.4472 44.7687 16.6615 44.7977 16.1269C44.8413 15.418 44.2887 14.7515 43.5125 14.5775C43.0434 14.4747 40.8089 14.0902 40.1377 13.9761C40.2221 13.6004 40.4063 13.376 40.6734 13.3106Z" fill="#071D3D"/>
<path d="M40.6421 12.988L43.5089 12.6828C44.4262 12.5847 44.8196 11.7306 44.9742 11.2317C44.9742 11.2317 45.0395 11.0107 45.0427 10.9896C45.047 10.9682 45.0316 10.9616 45.0021 10.9641C44.9737 10.9666 40.1386 11.478 40.1386 11.478C38.668 11.6323 37.3266 12.9825 37.143 14.4887C37.143 14.4887 37.0324 15.4311 37.0318 15.4422C37.0318 15.453 37.0368 15.4608 37.0464 15.463C37.0567 15.4635 41.8204 16.3098 41.8204 16.3098C41.8179 16.3413 41.8146 16.3727 41.8106 16.404L41.7542 16.8672C41.6481 17.519 41.1838 17.6071 39.2528 17.9678C38.7978 18.0529 36.124 18.6587 35.1942 19.8427C35.0948 19.9729 35.0243 20.0729 34.9866 20.1344C34.9608 20.1759 34.9712 20.1953 35.0139 20.192C35.51 20.136 40.837 19.5618 41.5585 19.4853C43.2408 19.3081 44.0743 19.0219 44.2602 17.8675C44.366 17.2018 44.434 16.6195 44.4618 16.1378C44.4952 15.5851 44.0503 15.0663 43.4248 14.9264C42.8875 14.8072 39.8749 14.2928 39.8458 14.2892C39.8198 14.2854 39.7602 14.254 39.765 14.1942C39.8598 13.3387 40.2912 13.0653 40.6421 12.988Z" fill="#1D467D"/>
<path d="M40.3735 11.8903L44.7006 11.4324C44.7376 11.3398 44.7691 11.2514 44.7919 11.1761L40.16 11.6659C38.7709 11.8116 37.5019 13.0884 37.3313 14.5092L37.2393 15.304L37.4754 15.3467L37.546 14.7325C37.731 13.2311 38.9862 12.0365 40.3735 11.8903Z" fill="white"/>
<path d="M40.0291 14.7011C40.3422 14.7529 43.1003 15.2247 43.5997 15.3357C43.7918 15.3779 43.9641 15.4621 44.1039 15.5737C43.945 15.351 43.692 15.1704 43.3845 15.11C42.8588 15.0089 40.1262 14.5296 39.8128 14.4748C39.8069 14.4748 39.8009 14.4723 39.7979 14.4714C39.8176 14.5936 39.9203 14.6817 40.0291 14.7011Z" fill="white"/>
<path d="M42.1556 17.1215L42.2087 16.6929C42.2268 16.5489 42.2635 16.3854 42.1239 16.3585L42.0079 16.3373C42.0047 16.3805 41.9401 16.8966 41.9401 16.8966C41.8022 17.739 41.4563 17.7606 39.2865 18.1529C38.4548 18.3049 35.8989 19.1033 35.3555 19.9443C35.5115 19.9274 35.6656 19.913 35.8158 19.897C36.6517 19.1595 38.7602 18.5122 39.5023 18.3781C41.6746 17.9869 42.0188 17.9619 42.1556 17.1215Z" fill="white"/>
<path d="M15.7979 13.9438C14.5161 14.3225 13.325 15.7303 13.1554 17.1243C13.1554 17.1243 12.4477 22.9465 12.4435 22.9955C12.4414 23.0451 12.4741 23.0564 12.505 23.0551C12.5331 23.0506 15.4523 22.7432 15.7271 22.7141C15.7396 22.7113 15.7482 22.703 15.7503 22.6886C15.8139 22.1755 16.8379 13.7327 16.8389 13.7125C16.8396 13.697 16.8218 13.6773 16.7974 13.6845C16.7748 13.6892 16.3069 13.7931 15.7979 13.9438Z" fill="#071D3D"/>
<path d="M16.1888 14.1994C14.8208 14.495 13.6622 15.7674 13.4924 17.1614C13.4924 17.1614 12.8321 22.6079 12.8284 22.6398C12.8208 22.6736 12.8312 22.6916 12.8812 22.6874C12.9266 22.6808 15.1978 22.4409 15.4269 22.4176C15.4401 22.4154 15.4453 22.4082 15.4471 22.3957C15.5026 21.9447 16.4433 14.1947 16.4445 14.1781C16.4482 14.1615 16.435 14.146 16.4138 14.1504C16.3925 14.1556 16.1888 14.1994 16.1888 14.1994Z" fill="#1D467D"/>
<path d="M16.1957 14.6763L16.2317 14.3831C14.9491 14.6627 13.8416 15.8694 13.6821 17.1841L13.0381 22.48L13.2846 22.454L13.8965 17.4072C14.0423 16.0813 15.0238 15.0458 16.1957 14.6763Z" fill="white"/>
<path d="M20.7975 13.3041C19.171 13.4761 17.6842 14.9673 17.4814 16.6292C17.4814 16.6292 16.7667 22.5129 16.7652 22.5303C16.7624 22.5505 16.7707 22.5652 16.7936 22.5627C16.8162 22.5602 19.6864 22.2583 20.0383 22.2184C20.0619 22.2181 20.0758 22.1937 20.0785 22.1754C20.08 22.1594 20.8053 16.1901 20.8053 16.1901C20.8943 15.7914 21.0808 15.5562 21.3447 15.4909L22.8763 15.328C22.8763 15.328 22.0865 21.8652 22.0734 21.9211C22.0617 21.9746 22.0888 22.0048 22.1377 21.9992C22.6227 21.948 25.3207 21.6613 25.3391 21.6599C25.3488 21.6597 25.3581 21.6557 25.3651 21.6489C25.372 21.642 25.3762 21.6328 25.3766 21.623C25.4503 21.0305 26.4498 12.837 26.4498 12.7844C26.4531 12.7287 26.406 12.7112 26.3714 12.7151C26.3358 12.7204 20.7975 13.3041 20.7975 13.3041Z" fill="#071D3D"/>
<path d="M20.8156 13.6571C19.3475 13.8131 18.0031 15.1627 17.8216 16.6664C17.8216 16.6664 17.1566 22.1343 17.154 22.1612C17.1515 22.1864 17.1556 22.1975 17.1773 22.195C17.1992 22.1925 19.4286 21.9565 19.737 21.924C19.7619 21.9213 19.7754 21.9038 19.7796 21.8816C19.7805 21.8683 20.472 16.1614 20.472 16.1614C20.6318 15.4276 21.0632 15.2231 21.3121 15.1669L23.1627 14.9697C23.1812 14.9697 23.2062 14.9697 23.2307 14.9918C23.2488 15.0101 23.2549 15.0348 23.2498 15.063C23.2498 15.063 22.4622 21.5118 22.4622 21.5603C22.4586 21.6074 22.4796 21.6351 22.5319 21.629C22.9673 21.5836 25.0097 21.3667 25.0295 21.3661C25.0643 21.3639 25.0775 21.3309 25.0799 21.3121C25.1417 20.8016 26.0671 13.1646 26.0746 13.1407C26.0751 13.1169 26.0562 13.1044 26.0358 13.1061C26.0125 13.1089 20.8156 13.6571 20.8156 13.6571Z" fill="#1D467D"/>
<path d="M21.0516 14.0702L25.8307 13.5669L25.8589 13.317L20.8358 13.8463C19.4457 13.9935 18.18 15.2672 18.007 16.6898L17.3652 21.9858L17.6112 21.9593L18.2249 16.9147C18.3957 15.493 19.6641 14.2168 21.0516 14.0702Z" fill="white"/>
<path d="M23.5803 15.0854C23.5439 15.0449 23.4914 15.0194 23.4367 15.0108C23.4401 15.0359 23.4406 15.0613 23.4381 15.0865L22.666 21.4253L22.9129 21.399L23.6533 15.3128C23.6644 15.2258 23.6366 15.1444 23.5803 15.0854Z" fill="white"/>
<path d="M3.45032 22.6693L3.92495 18.8704C4.07601 17.638 5.056 16.5033 6.2343 16.1359C6.2549 15.9387 6.26139 15.8461 6.26139 15.8461C4.97771 16.1229 3.87034 17.331 3.70842 18.6452L3.23517 22.4446C2.5966 22.5094 1.92463 22.521 1.53809 22.4861C1.61757 22.5809 1.7415 22.6983 1.75341 22.7111C2.15753 22.7825 2.81399 22.7324 3.45032 22.6693Z" fill="white"/>
<path d="M4.44931 12.8327L10.4905 12.1953C10.9644 12.1452 11.3908 12.2643 11.709 12.5308C11.6753 12.4861 11.6388 12.4436 11.5996 12.4036C11.2742 12.0692 10.8033 11.915 10.2763 11.9704L4.23302 12.6095C1.2672 12.9228 0.921875 15.7988 0.921875 15.7988C0.921875 15.7988 1.04718 15.6334 1.2867 15.4096C1.57213 14.5439 2.36003 13.0535 4.44931 12.8327Z" fill="white"/>
<path d="M6.18678 22.3804C6.80024 22.3153 8.72512 22.1134 8.9818 20.3349C8.9818 20.3349 9.5379 15.3487 9.55395 15.2551C9.61978 14.8055 9.67981 14.3789 9.43679 14.1215C9.3991 14.0826 9.35601 14.0494 9.30886 14.0229C9.44617 14.2838 9.39336 14.6465 9.33931 15.0288C9.32229 15.1252 8.76592 20.1108 8.76592 20.1108C8.51034 21.8901 6.58657 22.0915 5.96993 22.1554L5.7846 22.1718L5.75488 22.4233L6.18678 22.3804Z" fill="white"/>
<path d="M31.4658 18.7014L29.9509 18.8615L30.3912 15.2289C30.4404 14.9048 30.579 14.4984 30.9581 14.4087L32.475 14.2486L32.031 17.8781C31.9839 18.2044 31.8434 18.6114 31.4658 18.7014ZM30.3971 12.223C28.7725 12.3942 27.2847 13.8853 27.0831 15.5478C27.0831 15.5478 26.3723 21.4054 26.3707 21.4312C26.3675 21.4567 26.3773 21.4846 26.4127 21.4799C26.4476 21.4766 32.029 20.8874 32.029 20.8874C33.6503 20.7151 35.1383 19.2236 35.3411 17.562C35.3411 17.562 36.0506 11.7152 36.0551 11.6813C36.0574 11.6448 36.0226 11.6279 35.9937 11.6324C35.9609 11.6345 30.3971 12.223 30.3971 12.223Z" fill="#071D3D"/>
<path d="M32.3723 17.8986L32.3668 17.9277C32.2523 18.7222 31.8367 18.9795 31.506 19.0538L29.6672 19.248C29.6478 19.2505 29.6245 19.2496 29.5996 19.2244C29.5818 19.2075 29.5754 19.1826 29.5789 19.1535L30.0572 15.212C30.1744 14.4095 30.5942 14.1552 30.9204 14.0845L30.9453 14.0815L32.7566 13.8892C32.7845 13.887 32.8083 13.8953 32.8259 13.9117C32.8431 13.9297 32.8503 13.9552 32.8463 13.9848L32.3723 17.8986ZM35.6331 12.0249C35.614 12.0271 30.4153 12.5756 30.4153 12.5756C28.9478 12.731 27.6008 14.082 27.4218 15.5855C27.4218 15.5855 26.7581 21.0314 26.7561 21.06C26.7526 21.0902 26.7838 21.1129 26.8096 21.1101C26.8346 21.1085 32.0083 20.5622 32.0083 20.5622C33.4773 20.4062 34.8233 19.0568 35.0074 17.5515C35.0074 17.5515 35.6663 12.0814 35.6719 12.0567C35.6746 12.0318 35.6525 12.0221 35.6331 12.0249Z" fill="#1D467D"/>
<path d="M33.0349 14.0057L32.5551 17.9541C32.4149 18.9121 31.8555 19.1711 31.534 19.2401L29.6847 19.4365C29.6588 19.4391 29.6327 19.4371 29.6074 19.4307C29.6165 19.4877 29.6399 19.5406 29.6797 19.5819C29.7364 19.6407 29.8191 19.6697 29.9034 19.6611L31.7509 19.4659C32.0714 19.3977 32.6295 19.137 32.7704 18.1793L33.2503 14.2296C33.2635 14.1459 33.235 14.0631 33.1757 14.0038C33.1379 13.9644 33.088 13.939 33.0334 13.9287C33.0349 13.9545 33.0378 13.9808 33.0349 14.0057Z" fill="white"/>
<path d="M30.6507 12.9896L35.4278 12.4851L35.4582 12.2355L30.4351 12.7644C29.0468 12.91 27.7791 14.1857 27.6079 15.6088L26.9648 20.9038L27.2113 20.8775L27.8233 15.8321C27.9949 14.4112 29.2647 13.1353 30.6507 12.9896Z" fill="white"/>
<path d="M39.5498 16.5219C39.3605 16.4922 39.1628 16.4609 38.9624 16.4293V16.4296C38.9572 16.5507 38.9505 16.6716 38.9424 16.7925C38.9351 16.9067 38.9265 17.0207 38.9164 17.1346C38.9088 17.2219 38.9028 17.3097 38.8936 17.397C39.0973 17.3543 39.3009 17.3133 39.4975 17.2737C39.5206 17.0241 39.5386 16.7734 39.5498 16.5219Z" fill="#071D3D"/>
<path d="M9.88304 11.1037C10.1264 10.3687 10.4267 9.65382 10.7812 8.96561C10.7842 8.95981 10.7873 8.95372 10.7903 8.94792C10.8771 8.78019 10.9669 8.61405 11.0597 8.44957C11.0618 8.44593 11.0639 8.44261 11.0656 8.43902C11.4352 7.78759 11.853 7.16485 12.3156 6.57605C12.3337 6.55306 12.3514 6.53007 12.3695 6.50708C12.4742 6.37565 12.5808 6.24588 12.6896 6.11783C12.7115 6.09207 12.734 6.0666 12.7561 6.04112C13.1037 5.63785 13.4725 5.25336 13.8608 4.88925C13.8777 4.8735 13.8941 4.85737 13.911 4.84134C14.0196 4.74049 14.1306 4.64268 14.2421 4.5452C14.2922 4.50115 14.3421 4.45766 14.3926 4.41445C14.4979 4.32473 14.6045 4.23654 14.7123 4.14991C14.7711 4.10256 14.8305 4.05592 14.8904 4.00999C14.9969 3.9266 15.1036 3.84321 15.2123 3.76314C15.2702 3.72048 15.3297 3.6792 15.3884 3.63764C15.5803 3.50048 15.7754 3.36786 15.9736 3.23987C16.0555 3.18665 16.1366 3.13321 16.2195 3.08194C16.3162 3.02209 16.4143 2.96505 16.5124 2.90714C16.6981 2.79746 16.8863 2.69209 17.0768 2.5911C17.1797 2.53668 17.2832 2.48357 17.3874 2.43178C17.4773 2.38686 17.5668 2.34088 17.6578 2.29799C17.8055 2.22709 17.9553 2.16056 18.1058 2.09491C18.1973 2.05501 18.2893 2.01595 18.3818 1.97798C18.5344 1.91481 18.688 1.85414 18.8426 1.796C18.9242 1.76555 19.0068 1.73726 19.089 1.70819C19.2193 1.66217 19.3504 1.61729 19.4825 1.57491C19.5676 1.54782 19.6525 1.52096 19.7379 1.49516C19.8771 1.45305 20.017 1.41398 20.1577 1.37579C20.2344 1.35497 20.3107 1.33363 20.3878 1.31396C20.5977 1.26065 20.8088 1.21189 21.0208 1.16773C21.0416 1.16331 21.0623 1.15939 21.0832 1.15552C21.2914 1.11378 21.5005 1.07628 21.7102 1.04307C21.7838 1.03169 21.8576 1.02229 21.9315 1.01178C22.0875 0.9893 22.2442 0.969075 22.4016 0.95189C22.4828 0.943045 22.5643 0.934476 22.6458 0.926736C22.8063 0.911717 22.9672 0.900107 23.1287 0.890156C23.2018 0.885687 23.2744 0.880158 23.3477 0.877117C23.5806 0.86606 23.8147 0.859104 24.0503 0.859104C24.2876 0.859104 24.5231 0.86606 24.7574 0.877117C24.8315 0.880434 24.9051 0.885963 24.9789 0.890709C25.1398 0.900084 25.3006 0.912264 25.461 0.927243C25.6982 0.949987 25.9349 0.978174 26.1708 1.01178C26.2496 1.02312 26.3287 1.03362 26.4071 1.04611C26.583 1.07429 26.7583 1.1056 26.9331 1.14C26.9833 1.15 27.0343 1.15829 27.0845 1.16856C27.3058 1.21437 27.526 1.26535 27.7449 1.32147C27.8055 1.337 27.8651 1.35414 27.9253 1.37049C28.084 1.41348 28.2419 1.45752 28.3984 1.50511C28.4771 1.52936 28.5557 1.5543 28.634 1.57993C28.7721 1.62468 28.9096 1.67133 29.0464 1.71985C29.1264 1.74792 29.2061 1.77681 29.2854 1.80651C29.4262 1.8596 29.5661 1.91483 29.7051 1.97218C29.7736 2.00047 29.843 2.02733 29.9112 2.05644C30.1116 2.14199 30.3102 2.23185 30.5067 2.32596C30.5491 2.34618 30.5904 2.36917 30.6324 2.38967C30.7883 2.4667 30.9431 2.54507 31.0958 2.62708C31.1714 2.6678 31.2456 2.71046 31.3203 2.75202C31.4386 2.81832 31.5561 2.88601 31.6729 2.95506C31.7522 3.00257 31.8311 3.05068 31.9097 3.0994C32.0214 3.16891 32.1322 3.24002 32.242 3.3127C32.3176 3.3626 32.3938 3.41185 32.4683 3.46313C32.5917 3.5479 32.7126 3.63488 32.833 3.72269C32.8902 3.76452 32.9485 3.80442 33.0049 3.84708C33.171 3.97213 33.3345 4.1007 33.4951 4.2327C33.5673 4.29199 33.6373 4.35322 33.7085 4.41385C33.8034 4.49475 33.8981 4.57537 33.9907 4.65876C34.0674 4.7269 34.1427 4.79697 34.2177 4.86682C34.3024 4.946 34.3862 5.02606 34.4692 5.10698C34.5444 5.18005 34.6189 5.25385 34.6928 5.32835C34.7745 5.4117 34.8543 5.49702 34.9341 5.58207C35.004 5.65661 35.0748 5.73055 35.1432 5.80676C35.2637 5.94087 35.3817 6.07719 35.4972 6.21564C35.5771 6.31247 35.6559 6.41017 35.7336 6.50874C35.8033 6.59627 35.8733 6.68353 35.9408 6.77305C36.0095 6.8633 36.0759 6.95503 36.1425 7.04726C36.2036 7.13124 36.2636 7.21592 36.3227 7.3013C36.3888 7.39656 36.4538 7.49259 36.5176 7.58938C36.5733 7.67431 36.6282 7.75983 36.682 7.84595C36.7446 7.94537 36.8075 8.04428 36.8677 8.14509C36.9194 8.23207 36.9686 8.32043 37.0187 8.40857C37.126 8.5964 37.229 8.78666 37.3276 8.9792C37.3726 9.06595 37.4186 9.15234 37.4616 9.24098C37.515 9.35012 37.5653 9.46124 37.6163 9.57177C37.6569 9.66041 37.6977 9.74909 37.7367 9.83884C37.7854 9.9512 37.8328 10.0641 37.8788 10.1776C37.9154 10.2679 37.9511 10.3586 37.9859 10.4496C38.0302 10.5646 38.0733 10.68 38.1151 10.7959C38.1474 10.8876 38.1777 10.9802 38.2085 11.0727C38.2476 11.1901 38.288 11.3068 38.3242 11.4253C38.4911 11.3127 38.6657 11.2118 38.8466 11.1234C38.7012 10.6632 38.5359 10.2084 38.3467 9.76043C37.5651 7.90934 36.4472 6.24747 35.0224 4.82111C33.5969 3.39443 31.9381 2.27251 30.0907 1.49101C28.1771 0.680717 26.1438 0.270732 24.0503 0.270732C21.9568 0.270732 19.9254 0.680717 18.0117 1.49101C16.1647 2.27251 14.505 3.39443 13.08 4.82111C11.6556 6.24747 10.5371 7.90934 9.75512 9.76043C9.5609 10.2216 9.38907 10.6919 9.24023 11.1696C9.48008 11.145 9.6983 11.1228 9.88304 11.1037Z" fill="#071D3D"/>
<path d="M38.2214 20.5066C37.9788 21.2407 37.6794 21.9548 37.3259 22.6422C37.3215 22.6505 37.3172 22.6589 37.3132 22.6674C37.2271 22.8341 37.1378 22.9991 37.0455 23.1624C37.0433 23.1663 37.041 23.1705 37.0386 23.1743C36.6698 23.8252 36.2528 24.4475 35.791 25.0359C35.7723 25.06 35.7532 25.0844 35.7338 25.1085C35.63 25.2397 35.5239 25.3689 35.4156 25.4964C35.3933 25.5224 35.3704 25.5485 35.3479 25.5747C35.0034 25.9742 34.6382 26.3552 34.2538 26.7164C34.2329 26.736 34.2129 26.7563 34.1917 26.7756C34.0841 26.8754 33.9742 26.9726 33.864 27.0693C33.8128 27.1139 33.762 27.1587 33.7102 27.2025C33.6055 27.2918 33.4996 27.3795 33.3924 27.4657C33.3328 27.5137 33.2726 27.5611 33.2119 27.6078C33.1061 27.6904 33.0003 27.7732 32.8921 27.853C32.8326 27.897 32.7713 27.9386 32.7113 27.9818C32.5221 28.1169 32.33 28.2477 32.135 28.3741C32.051 28.4281 31.9679 28.4832 31.8827 28.5359C31.7866 28.5947 31.6898 28.6524 31.5923 28.709C31.4998 28.7638 31.4067 28.8175 31.3129 28.87C31.2182 28.9231 31.1229 28.975 31.027 29.0259C30.9234 29.0806 30.8192 29.134 30.7143 29.1861C30.6249 29.2312 30.5361 29.2764 30.4458 29.3196C30.2936 29.3917 30.1401 29.4611 29.9854 29.5276C29.8976 29.566 29.8093 29.6034 29.7206 29.6398C29.5682 29.7024 29.4148 29.7642 29.2596 29.8218C29.1781 29.852 29.0956 29.8803 29.0137 29.909C28.8832 29.956 28.7518 30.0006 28.6197 30.0428C28.535 30.0703 28.45 30.0968 28.3647 30.1224C28.2248 30.1644 28.0843 30.2043 27.9432 30.242C27.8671 30.2628 27.7913 30.2844 27.7145 30.3038C27.5033 30.3575 27.291 30.4067 27.0777 30.4512C27.0563 30.4556 27.0351 30.4589 27.0139 30.4634C26.8072 30.5048 26.5997 30.5419 26.3916 30.5747C26.3178 30.5864 26.2437 30.5961 26.1699 30.6063C26.0136 30.6289 25.857 30.6489 25.7001 30.6662C25.6186 30.675 25.5371 30.6834 25.4556 30.6914C25.2949 30.706 25.1339 30.7181 24.9729 30.7276C24.8999 30.7321 24.8268 30.7376 24.7536 30.7412C24.5205 30.7517 24.2865 30.7592 24.0505 30.7592C23.8214 30.7592 23.5936 30.7517 23.3668 30.7418C23.3071 30.7387 23.2474 30.736 23.1879 30.7327C22.9872 30.721 22.7875 30.706 22.5892 30.687C22.5618 30.6842 22.5341 30.6825 22.5069 30.6797C22.2868 30.6567 22.0672 30.6287 21.8483 30.5958C21.7913 30.5872 21.7344 30.5778 21.6774 30.5689C21.4958 30.5399 21.3148 30.5076 21.1344 30.472C21.0924 30.4634 21.0502 30.4562 21.0084 30.4473C20.7969 30.4034 20.5864 30.3547 20.3771 30.3013C20.324 30.2883 20.2717 30.2737 20.219 30.2598C20.049 30.2146 19.8803 30.1664 19.7128 30.1154C19.6629 30.1005 19.6126 30.0858 19.5632 30.0703C19.3608 30.0067 19.1598 29.9387 18.9605 29.8661C18.9137 29.8489 18.8678 29.8307 18.8214 29.8135C18.6601 29.7532 18.5 29.69 18.341 29.624C18.2867 29.6016 18.2321 29.5791 18.1783 29.5558C17.9862 29.4738 17.7959 29.3876 17.6075 29.2974C17.5689 29.2788 17.5314 29.2594 17.493 29.24C17.3374 29.1639 17.1832 29.0848 17.0306 29.0029C16.9741 28.9727 16.9175 28.9428 16.8616 28.9115C16.6807 28.8123 16.5019 28.7094 16.3252 28.6029C16.2993 28.5871 16.2742 28.5705 16.2483 28.5547C16.0362 28.4233 15.8271 28.287 15.6214 28.1458C15.4773 28.047 15.335 27.9457 15.1945 27.8419C15.1641 27.8192 15.1333 27.7984 15.1035 27.7757C14.9425 27.6547 14.7852 27.5297 14.6293 27.4026C14.5746 27.3578 14.5202 27.3126 14.4663 27.2668C14.3461 27.1659 14.2275 27.063 14.1106 26.9582C14.0687 26.9208 14.0261 26.8843 13.9847 26.846C13.8389 26.7124 13.6959 26.5759 13.5556 26.4365C13.5047 26.3862 13.455 26.3349 13.4046 26.2837C13.3011 26.1783 13.1992 26.0712 13.0991 25.9626C13.0533 25.913 13.0068 25.8643 12.9618 25.8138C12.8308 25.6688 12.7029 25.5211 12.5782 25.3706C12.5328 25.316 12.4886 25.2601 12.444 25.2049C12.3537 25.0932 12.265 24.9802 12.178 24.8658C12.1328 24.8063 12.0875 24.7479 12.0431 24.6877C11.9275 24.5312 11.8148 24.3726 11.7051 24.2118C11.6671 24.1556 11.6308 24.0985 11.5937 24.0423C11.5138 23.9214 11.4356 23.7993 11.3593 23.6761C11.3179 23.6093 11.2766 23.5425 11.2365 23.4752C11.1359 23.3078 11.0387 23.1384 10.9447 22.9672C10.7981 23.0747 10.63 23.1766 10.4404 23.2727C11.146 24.5628 12.0291 25.7443 13.0802 26.7978C14.5052 28.2247 16.1649 29.3448 18.0119 30.1271C19.9255 30.9373 21.957 31.3477 24.0505 31.3477C26.144 31.3477 28.1772 30.9373 30.0909 30.1271C31.9383 29.345 33.5971 28.2247 35.0226 26.7978C36.4474 25.37 37.5653 23.7084 38.3469 21.8582C38.544 21.392 38.7161 20.918 38.8656 20.4387C38.6537 20.4609 38.4384 20.4836 38.2214 20.5066Z" fill="#071D3D"/>
<path d="M15.2016 6.00251L15.1134 5.90608C15.0547 5.84319 15.0006 5.80385 14.9506 5.7892C14.8996 5.77395 14.8564 5.78279 14.8216 5.8144C14.7701 5.86342 14.7459 5.90774 14.7495 5.95123C14.7542 5.995 14.7801 6.04351 14.8292 6.09778L15.5125 6.84353C15.5527 6.88702 15.5942 6.91278 15.6349 6.91582C15.676 6.92107 15.7187 6.90223 15.7624 6.86154C15.7909 6.83634 15.8079 6.80889 15.8139 6.77788C15.8192 6.7486 15.8164 6.71843 15.8058 6.69062C15.7955 6.66047 15.7805 6.63214 15.7613 6.60668C15.7415 6.58037 15.7197 6.55236 15.694 6.52606L15.5673 6.38752L15.9208 6.06286L16.0906 6.2471C16.216 6.38365 16.273 6.5302 16.2629 6.68422C16.2524 6.83938 16.1596 6.99782 15.9862 7.15714C15.8277 7.30258 15.676 7.36736 15.5302 7.35238C15.3843 7.33718 15.2384 7.25103 15.0926 7.09314L14.5248 6.47423C14.374 6.31109 14.3025 6.15514 14.3068 6.00582C14.3126 5.85678 14.3953 5.70636 14.5563 5.55838C14.7112 5.41464 14.8636 5.34065 15.0105 5.33402C15.1583 5.32849 15.3009 5.39994 15.4382 5.55096L15.5551 5.67642L15.2016 6.00251Z" fill="#071D3D"/>
<path d="M17.1542 6.12061L16.0645 4.38866L16.4698 4.13241L16.8887 4.79754L17.1709 4.62026L16.7512 3.95536L17.158 3.69833L18.2471 5.43194L17.8416 5.68652L17.387 4.96625L17.106 5.14303L17.56 5.86436L17.1542 6.12061Z" fill="#071D3D"/>
<path d="M19.0143 3.23408L19.0093 3.23629L19.218 4.14048L19.4773 4.03687L19.0143 3.23408ZM18.949 5.06494L18.6084 2.99668L19.1455 2.78365L20.315 4.52057L19.8635 4.69955L19.6535 4.35545L19.3037 4.49481L19.3976 4.88596L18.949 5.06494Z" fill="#071D3D"/>
<path d="M21.2677 3.09738L21.2635 3.10346L21.5268 4.2146L21.0808 4.30273L20.6855 2.29372L21.1691 2.19872L21.7534 3.24918L21.7622 3.24808L21.496 2.13417L21.9412 2.04553L22.337 4.0545L21.8555 4.1501L21.2677 3.09738Z" fill="#071D3D"/>
<path d="M24.1736 3.95407L24.1513 3.77287H24.1449C24.0961 3.85847 24.0423 3.9186 23.9819 3.9532C23.9216 3.98729 23.8383 4.00447 23.7335 4.00586C23.6361 4.00613 23.5515 3.99286 23.4821 3.96153C23.4152 3.93213 23.3571 3.88572 23.3136 3.82692C23.2698 3.76818 23.2388 3.70059 23.2186 3.62218C23.1999 3.54293 23.1903 3.45738 23.1887 3.35957L23.1788 2.51933C23.1767 2.29718 23.2259 2.13321 23.3297 2.02485C23.4332 1.91714 23.5945 1.86227 23.8145 1.8595C24.0257 1.85614 24.187 1.90299 24.3004 1.99661C24.4134 2.09082 24.4706 2.24037 24.4738 2.444L24.4754 2.59664L23.9947 2.60272L23.9931 2.48943C23.9931 2.39609 23.9819 2.32818 23.9616 2.2875C23.9408 2.24926 23.9008 2.22959 23.841 2.2271C23.7699 2.22959 23.7212 2.2465 23.6956 2.2811C23.6703 2.31574 23.657 2.37029 23.6588 2.4429L23.6703 3.4554C23.671 3.51552 23.6858 3.56012 23.7141 3.59089C23.7446 3.62245 23.7892 3.6377 23.8491 3.6366C23.8871 3.63544 23.9179 3.62826 23.9425 3.61361C23.9652 3.59891 23.9819 3.57869 23.9931 3.55653C24.0029 3.531 24.0102 3.50497 24.0124 3.47761C24.0144 3.44849 24.0156 3.41384 24.0156 3.37201L24.0141 3.21053L23.8421 3.21302L23.8367 2.84431L24.4885 2.83713L24.5012 3.95048L24.1736 3.95407Z" fill="#071D3D"/>
<path d="M26.8529 3.66094L26.8593 3.66232L27.2835 2.28415L27.7288 2.37196L27.0007 4.31445L26.4709 4.20918L26.6042 2.7678L26.5994 2.76619L26.1655 4.14989L25.6445 4.04655L25.7019 1.97221L26.1572 2.06144L26.0213 3.50084L26.0277 3.49531L26.494 2.1271L26.9484 2.21712L26.8529 3.66094Z" fill="#071D3D"/>
<path d="M29.4065 3.64076C29.4224 3.6045 29.4355 3.57207 29.4434 3.5424C29.4515 3.51489 29.4555 3.48635 29.4553 3.45768C29.4553 3.42967 29.4485 3.40364 29.4342 3.37871C29.4188 3.35512 29.395 3.33716 29.3593 3.32163C29.3257 3.30643 29.2961 3.30306 29.2671 3.30864C29.239 3.31527 29.2155 3.32665 29.1949 3.34683C29.1738 3.36799 29.1553 3.39161 29.1398 3.41718C29.1224 3.44619 29.1068 3.47627 29.0931 3.50725L28.7639 4.28069C28.7509 4.31161 28.7394 4.34313 28.7293 4.37513C28.7215 4.40644 28.7168 4.43847 28.7155 4.47073C28.7155 4.50229 28.7227 4.5303 28.7374 4.55688C28.752 4.58347 28.7761 4.60314 28.8083 4.61756C28.8423 4.63138 28.8736 4.63525 28.9025 4.62834C28.9308 4.62122 28.9563 4.60555 28.9754 4.58347C28.9965 4.56086 29.0149 4.53586 29.0301 4.50897C29.0459 4.48128 29.0614 4.44995 29.0767 4.41475L29.4065 3.64076ZM29.5337 4.56601C29.4394 4.78655 29.3249 4.92974 29.1902 4.99543C29.0554 5.06302 28.8801 5.04883 28.6639 4.95664C28.4481 4.8627 28.3143 4.74444 28.2681 4.59927C28.222 4.45493 28.2452 4.27235 28.3384 4.05328L28.6649 3.28869C28.7421 3.10694 28.8542 2.99172 29 2.93906C29.1458 2.88584 29.3138 2.90082 29.5063 2.98421C29.6989 3.06538 29.8257 3.17701 29.885 3.31831C29.9457 3.45846 29.9374 3.61943 29.8611 3.80063L29.5337 4.56601Z" fill="#071D3D"/>
<path d="M31.0335 4.86392L31.0262 4.8653L30.4311 5.83878L30.0518 5.58723L31.1852 3.88325L31.5953 4.15613L31.271 5.31408L31.2774 5.31938L31.8723 4.34148L32.2516 4.59491L31.1176 6.29834L30.7099 6.02495L31.0335 4.86392Z" fill="#071D3D"/>
<path d="M13.8511 7.15042L14.0161 7.6297L14.4387 7.35267L14.2574 7.82499L14.7596 7.88511L14.3165 8.13053L14.6631 8.49952L14.1667 8.40258L14.1945 8.90844L13.8764 8.51394L13.5731 8.91895L13.5829 8.4123L13.0907 8.52946L13.4224 8.14689L12.9707 7.91778L13.4708 7.83913L13.2721 7.374L13.7055 7.63522L13.8511 7.15042Z" fill="#071D3D"/>
<path d="M32.9052 5.6528L33.0693 6.13203L33.4928 5.85532L33.3113 6.32737L33.8133 6.38744L33.3705 6.63346L33.7168 7.00189L33.2201 6.90524L33.2485 7.41077L32.9299 7.01631L32.6276 7.42188L32.6367 6.91574L32.1448 7.03156L32.4763 6.64922L32.0254 6.42071L32.5253 6.34091L32.3258 5.87606L32.7584 6.13756L32.9052 5.6528Z" fill="#071D3D"/>
<path d="M17.2636 26.8072L17.7074 26.5613L17.204 26.5005L17.386 26.0279L16.9633 26.3061L16.7993 25.8274L16.6524 26.3105L16.2194 26.0496L16.4187 26.5158L15.9189 26.595L16.3697 26.823L16.0381 27.2056L16.5302 27.0895L16.521 27.5962L16.8234 27.1904L17.1419 27.5843L17.1139 27.0787L17.6104 27.1754L17.2636 26.8072Z" fill="#071D3D"/>
<path d="M33.5772 24.8139L33.7603 24.3424L33.336 24.6194L33.1711 24.1401L33.0254 24.6249L32.5931 24.3626L32.792 24.8291L32.292 24.9086L32.7425 25.1366L32.4105 25.5178L32.9026 25.4022L32.8939 25.9087L33.1969 25.5034L33.5147 25.8973L33.487 25.3915L33.983 25.4887L33.637 25.1197L34.0799 24.8743L33.5772 24.8139Z" fill="#071D3D"/>
<path d="M18.7567 26.5838L19.842 27.0483L19.6757 27.4387L19.0674 27.1789L18.9339 27.4921L19.5037 27.7359L19.3435 28.111L18.7737 27.8673L18.6184 28.2324L19.2494 28.5024L19.0831 28.8931L17.9746 28.4185L18.7567 26.5838Z" fill="#071D3D"/>
<path d="M21.0618 27.9997L21.0733 27.9531C21.1018 27.8395 21.0794 27.7332 20.982 27.7085C20.8736 27.6814 20.8039 27.7534 20.7822 27.8401C20.6868 28.2227 21.5566 28.2418 21.3798 28.9498C21.2766 29.3624 20.9895 29.4859 20.5454 29.3748C20.1284 29.2701 19.9314 29.0682 20.0316 28.6665L20.0487 28.5989L20.536 28.7211L20.5245 28.7667C20.4832 28.9324 20.536 29.0094 20.6335 29.0338C20.7364 29.0595 20.8163 28.9931 20.8427 28.8872C20.9383 28.5047 20.0999 28.4964 20.2716 27.8102C20.3692 27.4196 20.6313 27.2572 21.0564 27.3639C21.4952 27.4741 21.6367 27.7024 21.533 28.1177L21.0618 27.9997Z" fill="#071D3D"/>
<path d="M22.5502 28.1263L22.1611 28.09L22.2018 27.6504L23.4968 27.7701L23.4565 28.21L23.0672 28.174L22.9243 29.7217L22.4072 29.674L22.5502 28.1263Z" fill="#071D3D"/>
<path d="M23.8271 29.2072L24.2964 29.1995L24.3055 29.7533L23.8363 29.7607L23.8271 29.2072Z" fill="#071D3D"/>
<path d="M25.5733 28.3659C25.5397 28.1648 25.5349 27.9983 25.6077 27.8656C25.6804 27.7332 25.8274 27.6385 26.0914 27.5908C26.6019 27.4986 26.7601 27.7171 26.8126 28.0085C26.8602 28.2726 26.7946 28.4576 26.6753 28.6297L26.4261 28.9784C26.39 29.0305 26.3373 29.0995 26.3286 29.1607L26.9985 29.0397L27.0679 29.425L25.7883 29.6558C25.74 29.3865 25.7641 29.1264 25.9451 28.8582L26.2232 28.4499C26.3042 28.3332 26.3296 28.252 26.3029 28.1063C26.2731 27.9415 26.2117 27.8986 26.1322 27.913C26.0609 27.9258 25.9963 27.977 26.0359 28.1972L26.0509 28.2795L25.5733 28.3659Z" fill="#071D3D"/>
<path d="M28.2039 28.4233C28.2971 28.6898 28.364 28.746 28.4667 28.71C28.5698 28.6743 28.5867 28.5881 28.4937 28.3216L28.2777 27.7044C28.1847 27.4379 28.1176 27.3814 28.015 27.4174C27.9121 27.4534 27.8949 27.5393 27.988 27.8058L28.2039 28.4233ZM27.9081 27.1113C28.345 26.9579 28.6116 27.0867 28.8757 27.841C29.1394 28.5959 29.0112 28.8629 28.5737 29.0164C28.1367 29.1696 27.87 29.0408 27.6062 28.2865C27.3423 27.5319 27.4708 27.2648 27.9081 27.1113Z" fill="#071D3D"/>
<path d="M30.3705 28.1982L29.7318 27.012L29.4027 27.1902L29.249 26.9042C29.5279 26.7505 29.6154 26.6303 29.5604 26.3868L29.8895 26.2092L30.8277 27.9517L30.3705 28.1982Z" fill="#071D3D"/>
<path d="M31.9783 27.2188L31.1863 26.1295L30.8841 26.35L30.6934 26.0879C30.9489 25.8982 31.0196 25.7669 30.9325 25.5333L31.2347 25.3126L32.3983 26.9124L31.9783 27.2188Z" fill="#071D3D"/>
<path d="M34.0601 20.3801C33.9284 20.4829 33.7911 20.5783 33.6488 20.6657C33.2138 21.526 32.6657 22.3239 32.019 23.0384C31.9002 23.1695 31.7783 23.2979 31.6536 23.4234C31.5424 23.5338 31.429 23.642 31.3136 23.7478C31.3024 23.7584 31.2917 23.7689 31.2804 23.7791C31.2447 23.8121 31.2068 23.8423 31.1706 23.8745C29.2742 25.5548 26.7826 26.5768 24.0518 26.5768H24.0515C21.0816 26.5768 18.3955 25.3714 16.4487 23.4234C16.3135 23.288 16.1833 23.1481 16.0556 23.0057C16.0479 23.0179 16.0379 23.0262 16.0231 23.0276C15.9764 23.0323 15.8862 23.0423 15.7656 23.0544C15.7658 23.055 15.7663 23.0556 15.7666 23.0561C16.6463 24.0639 17.7061 24.9103 18.8957 25.5443C18.9104 25.5518 18.9255 25.5593 18.9401 25.5668C19.0892 25.6455 19.2401 25.7208 19.3927 25.7925C19.4286 25.8094 19.4652 25.825 19.5012 25.8413C19.6339 25.9021 19.7678 25.9602 19.9028 26.0156C19.9523 26.0358 20.0024 26.0549 20.0522 26.0746C20.1763 26.1232 20.3012 26.1695 20.427 26.2136C20.4854 26.2341 20.5443 26.2538 20.6033 26.2735C20.723 26.3128 20.8433 26.3501 20.9642 26.3854C21.0293 26.4045 21.0944 26.4236 21.1602 26.4413C21.2772 26.4732 21.3952 26.5026 21.5136 26.5305C21.5837 26.5472 21.6534 26.5638 21.7238 26.579C21.8408 26.6045 21.9589 26.6266 22.0772 26.6482C22.1496 26.6613 22.2218 26.6754 22.2947 26.687C22.4153 26.7062 22.5367 26.722 22.6584 26.7372C22.7302 26.7466 22.8013 26.7571 22.8732 26.7649C23.0047 26.7788 23.1376 26.7887 23.2704 26.7976C23.3334 26.8023 23.3957 26.8087 23.459 26.8123C23.6552 26.8228 23.8527 26.8286 24.0514 26.8286C24.2211 26.8286 24.3895 26.8231 24.5574 26.8156C24.6047 26.8136 24.6517 26.8109 24.6987 26.8081C24.8315 26.8001 24.9637 26.7901 25.095 26.7777C25.1333 26.7743 25.1717 26.7715 25.2098 26.7674C25.3731 26.7502 25.5355 26.7294 25.6966 26.7053C25.7335 26.6998 25.7701 26.6931 25.8069 26.6873C25.9355 26.6666 26.0633 26.6435 26.1903 26.6189C26.2373 26.6092 26.2839 26.6001 26.3305 26.5904C26.4785 26.5594 26.6258 26.5254 26.7724 26.4884C26.7837 26.4857 26.7954 26.4832 26.8066 26.4799C26.9615 26.4402 27.1143 26.3956 27.2666 26.3493C27.4286 26.2992 27.5894 26.2458 27.7491 26.189C27.7901 26.174 27.8315 26.1601 27.8721 26.1449C28.0177 26.0912 28.162 26.0341 28.305 25.9737C28.3426 25.9585 28.3794 25.9413 28.4169 25.9253C28.5266 25.8776 28.6355 25.8283 28.7436 25.7773C28.7913 25.7546 28.839 25.7319 28.8863 25.7089C29.0031 25.6516 29.1188 25.5921 29.2334 25.5305C29.2586 25.5172 29.2842 25.5047 29.3091 25.4911C29.4413 25.4186 29.572 25.3433 29.701 25.2654C29.748 25.2371 29.7945 25.208 29.841 25.1795C29.9323 25.1224 30.023 25.0641 30.1129 25.0047C30.1571 24.975 30.2016 24.9468 30.2452 24.9169C30.3669 24.8338 30.4869 24.7484 30.6052 24.6607C30.6453 24.631 30.6843 24.5997 30.7239 24.5692C30.8083 24.5047 30.8918 24.4389 30.9742 24.372C31.0219 24.3337 31.0693 24.2949 31.1164 24.255C31.1999 24.1848 31.2823 24.1132 31.3637 24.0404C31.403 24.0055 31.4431 23.9708 31.482 23.9351C31.583 23.8422 31.6823 23.7473 31.7796 23.6506C31.8249 23.606 31.8692 23.5606 31.9138 23.5151C31.9797 23.4475 32.0448 23.3791 32.1092 23.3101C32.1522 23.263 32.1959 23.2171 32.2384 23.1697C32.3326 23.0647 32.4251 22.9578 32.5153 22.8491C32.5533 22.8035 32.5897 22.7569 32.6269 22.7104C32.6866 22.6363 32.7453 22.5614 32.8031 22.4857C32.8449 22.4308 32.8862 22.3755 32.927 22.3198C32.9831 22.2428 33.0383 22.1651 33.0927 22.0868C33.1333 22.0281 33.1741 21.9699 33.2137 21.9104C33.2845 21.8038 33.3536 21.696 33.4208 21.5871C33.4571 21.5278 33.4923 21.4677 33.5277 21.4079C33.5723 21.3322 33.616 21.2561 33.659 21.1796C33.693 21.1183 33.7273 21.0574 33.7601 20.9959C33.8225 20.8791 33.8828 20.7611 33.941 20.6421C33.9444 20.6349 33.9482 20.628 33.9518 20.6206C33.9852 20.5392 34.0213 20.459 34.0601 20.3801Z" fill="#071D3D"/>
<path d="M13.5767 13.388C14.0356 11.387 15.0475 9.59833 16.4487 8.19464C17.422 7.21978 18.5805 6.43197 19.8667 5.88732C21.153 5.34211 22.5672 5.04072 24.0518 5.04072C28.4516 5.04072 32.2318 7.68934 33.8956 11.4801C33.9844 11.4707 34.0726 11.4616 34.1597 11.4524C34.0707 11.2455 33.9746 11.043 33.8737 10.843C33.8455 10.7878 33.8178 10.7325 33.789 10.6776C33.7463 10.5965 33.7025 10.516 33.6577 10.436C33.6274 10.3818 33.5965 10.328 33.565 10.2745C33.4643 10.1009 33.3589 9.93001 33.2491 9.76202C33.2371 9.74373 33.2255 9.72461 33.2133 9.70637C33.164 9.63182 33.1124 9.55926 33.0611 9.48583C33.0238 9.43208 32.9859 9.37871 32.9475 9.32573C32.8959 9.25488 32.8435 9.18461 32.7903 9.11491C32.7488 9.06088 32.7067 9.00733 32.6639 8.95426C32.5902 8.86102 32.515 8.76902 32.4382 8.67829C32.3732 8.60186 32.3081 8.52511 32.2411 8.45033C32.1867 8.39021 32.1312 8.3312 32.0755 8.27195C32.0246 8.21727 31.9731 8.16315 31.921 8.10959C31.8649 8.052 31.8083 7.99502 31.751 7.93867C31.6932 7.88213 31.6347 7.82635 31.5755 7.77134C31.5197 7.71845 31.4642 7.66552 31.4072 7.61401C31.306 7.52306 31.2032 7.43384 31.0989 7.34638C31.044 7.30096 30.9883 7.25664 30.933 7.21204C30.8652 7.15761 30.7969 7.10386 30.728 7.05079C30.6713 7.0073 30.6148 6.96464 30.5572 6.92225C30.478 6.86401 30.3979 6.80693 30.317 6.75105C30.2697 6.71811 30.2233 6.68457 30.1755 6.65219C30.054 6.57069 29.9308 6.49161 29.8062 6.41501C29.7539 6.38295 29.7006 6.35217 29.6476 6.32057C29.5622 6.26974 29.4761 6.22015 29.3893 6.1718C29.3346 6.14119 29.2797 6.11099 29.2245 6.08123C29.121 6.02621 29.0167 5.97273 28.9116 5.92081C28.8748 5.90257 28.839 5.88372 28.802 5.86599C28.6639 5.79978 28.5244 5.73651 28.3836 5.67622C28.3339 5.65516 28.2837 5.63494 28.2339 5.61416C28.1318 5.57222 28.0291 5.53178 27.9258 5.49286C27.8738 5.47318 27.8221 5.45351 27.7696 5.43467C27.6414 5.38855 27.5124 5.34486 27.3825 5.30364C27.359 5.29613 27.3355 5.28784 27.3122 5.2801C27.1595 5.23322 27.0058 5.18961 26.8512 5.14931C26.8034 5.13659 26.7552 5.12526 26.7069 5.11332C26.5918 5.08453 26.476 5.05767 26.3593 5.0327C26.3091 5.02192 26.2593 5.01137 26.2089 5.00114C26.0588 4.97119 25.9077 4.94378 25.7556 4.92024C25.7443 4.91831 25.7334 4.91609 25.7221 4.91444C25.5594 4.88947 25.3949 4.86956 25.2298 4.85183C25.181 4.8463 25.1322 4.8427 25.0835 4.83768C24.9597 4.82607 24.8354 4.81663 24.7102 4.80972C24.6604 4.80635 24.6103 4.80336 24.5604 4.80082C24.3916 4.79336 24.222 4.78839 24.0513 4.78839C17.9749 4.78949 13.0488 9.72189 13.0488 15.8083C13.0488 15.9153 13.0538 16.0208 13.0569 16.127C13.1271 15.954 13.213 15.7865 13.3061 15.6224C13.3195 14.8556 13.4116 14.108 13.5767 13.388Z" fill="#071D3D"/>
<path d="M25.2467 8.71186L27.2364 8.49394C27.2874 8.48832 27.3339 8.44151 27.3403 8.38931L27.4783 7.25413C27.4846 7.20193 27.4484 7.16415 27.3974 7.16972L24.7947 7.45476C24.7543 7.45923 24.7136 7.48043 24.6821 7.51341L23.8606 8.37397L23.229 7.67254C23.2048 7.64564 23.1682 7.63297 23.1278 7.63734L20.7197 7.9011C20.6793 7.90552 20.6385 7.92676 20.607 7.95989L19.8317 8.7741C19.8023 8.80501 19.7833 8.8438 19.7785 8.88246L19.3913 12.0674C19.385 12.1196 19.4212 12.1574 19.4723 12.1518L20.5817 12.0303C20.6327 12.0247 20.6793 11.9779 20.6856 11.9256L20.9988 9.34888C21.0093 9.26277 21.086 9.18551 21.1702 9.1763L22.3521 9.04684C22.4363 9.03762 22.496 9.09996 22.4856 9.18606L22.1723 11.7628C22.1659 11.815 22.2021 11.8528 22.2532 11.8472L23.3626 11.7257C23.4136 11.7201 23.4602 11.6733 23.4665 11.6211L23.5554 10.8894L24.1866 11.5893C24.2108 11.6161 24.2474 11.6288 24.2878 11.6244L26.8905 11.3393C26.9415 11.3338 26.988 11.2869 26.9944 11.2347L27.1324 10.0995C27.1387 10.0473 27.1025 10.0095 27.0514 10.0151L25.0617 10.233C24.9776 10.2422 24.9179 10.1799 24.9283 10.0938L25.0753 8.88448C25.0858 8.79833 25.1625 8.72107 25.2467 8.71186Z" fill="#071D3D"/>
</svg>
