<svg width="46" height="28" viewBox="0 0 46 28" fill="none" xmlns="http://www.w3.org/2000/svg">
<path d="M43.4758 15.3514C43.7101 15.0206 43.8805 14.6365 43.987 14.2418L44.2214 13.3563C44.3066 13.0362 44.3492 12.7054 44.3492 12.3854C44.3492 12.172 44.3279 11.9586 44.2853 11.7559L44.658 11.7239L45.6272 8.09642L43.8805 6.01595L37.1919 6.60275C36.8085 6.13331 36.3825 5.67454 35.9245 5.24778C35.7435 3.27401 34.082 1.71632 32.0583 1.71632C31.5791 1.71632 31.1317 1.80168 30.7057 1.96171C28.0537 0.85213 24.9863 0.222656 21.706 0.222656C15.9759 0.222656 10.8636 2.15375 7.60454 5.15176L1.18222 5.72789L4.2922 8.54452L0 24.5908L1.89581 26.6606L14.4209 24.4094C16.6469 25.1242 19.1072 25.519 21.706 25.519C26.2005 25.519 30.3116 24.3347 33.4536 22.3716L34.3376 27.3967L37.8203 19.5443L46 15.9275L43.4758 15.3514Z" fill="#D5D5D6"/>
<path d="M44.9984 8.24583L43.6351 6.61346L36.9359 7.20026C36.4779 6.60279 35.9454 6.02666 35.3596 5.49321C35.3063 3.71148 33.8472 2.28183 32.0472 2.28183C31.568 2.28183 31.11 2.38852 30.6946 2.56989C28.0746 1.44964 24.9965 0.798828 21.7055 0.798828C16.0181 0.798828 10.9697 2.72993 7.82775 5.70659L2.52374 6.1867L4.92013 8.36319L0.62793 24.4308L2.10837 26.0418L14.4631 23.8226C16.6678 24.5375 19.128 24.9429 21.7161 24.9429C26.4557 24.9429 30.7585 23.5986 33.8792 21.4221L34.5927 25.455L37.4045 19.1069L44.1996 16.0982L42.3996 15.6928C42.8896 15.2874 43.273 14.7219 43.4328 14.0925L43.6671 13.2069C43.7416 12.9295 43.7736 12.6521 43.7736 12.3854C43.7736 12.0974 43.7203 11.82 43.6351 11.5639C43.6032 11.4572 43.5499 11.3505 43.5073 11.2545L44.2102 11.1905L44.9984 8.24583Z" fill="#CF0022"/>
<path d="M32.7501 20.0138C30.5987 21.4861 27.9147 22.4677 24.9858 22.8944C26.4663 22.3503 27.8402 21.6568 29.065 20.8246C29.1396 20.7713 29.2248 20.7179 29.2993 20.6646L26.8284 21.102C24.0912 22.5103 20.6936 23.3425 16.9979 23.3425C16.6464 23.3425 16.2949 23.3319 15.9541 23.3212C17.7434 23.78 19.6818 24.036 21.6948 24.036C26.4343 24.036 30.6946 22.6597 33.6767 20.4619L33.4957 19.459C33.272 19.6404 33.0164 19.8324 32.7501 20.0138Z" fill="white"/>
<path d="M2.15137 24.0359L2.60934 24.548L34.2843 18.9041L34.1884 18.3386L2.15137 24.0359ZM36.3611 18.0612L34.7742 21.6353L35.2109 22.0728L36.7978 18.4986L40.2699 16.9623L39.8332 16.5249L36.3611 18.0612ZM43.0391 8.04297L42.677 9.3766L40.3658 9.57931C40.2699 9.58998 40.1741 9.67533 40.1528 9.77135L39.8971 10.7102C39.8758 10.8063 39.9291 10.8809 40.0143 10.8703L40.451 10.8276L40.6001 10.2728C40.6214 10.1768 40.6959 10.1341 40.7705 10.1234L43.1136 9.92072L43.4757 8.58709L43.0391 8.04297ZM28.6288 14.167L29.0655 14.1243L29.2465 13.4308L32.3459 13.1641L32.889 11.1263C32.9316 10.9663 32.9529 10.8169 32.9529 10.6782C32.9529 10.5395 32.9316 10.4008 32.889 10.2835C32.8464 10.1661 32.7932 10.0594 32.708 9.9634C32.6334 9.87805 32.3565 9.5473 32.2713 9.45128C32.4843 9.72868 32.5589 10.1341 32.4311 10.5929L31.8879 12.6307L28.7886 12.8974L28.4903 14.007C28.4797 14.103 28.5329 14.1777 28.6288 14.167Z" fill="#970022"/>
<path d="M36.1162 10.5289L38.1504 10.3475L38.4593 9.17388C38.47 9.12054 38.4913 9.07786 38.5126 9.02452L38.0439 8.46973L37.6925 9.80336L35.7115 9.97406C35.6156 9.98473 35.5197 10.0701 35.4984 10.1661L34.2097 14.9778L32.3246 15.1486L32.495 14.5191L31.9518 15.1912L27.8193 15.554C27.191 15.6073 26.7436 15.2873 26.6265 14.7645L25.8383 15.7354L24.6987 15.8314C24.4111 15.8527 24.1768 15.778 24.0384 15.618C23.9106 15.7887 23.7082 15.9167 23.5165 15.9274L21.7059 16.0874C21.0775 16.1408 20.6302 15.8207 20.513 15.2979L19.7249 16.2688L18.6918 16.3648C18.2657 16.3968 17.9249 16.2688 17.7119 16.0127C17.7971 16.1194 18.074 16.4502 18.1486 16.5355C18.2231 16.6209 18.3083 16.6956 18.4042 16.7596C18.5001 16.8129 18.6172 16.8663 18.7344 16.8876C18.8622 16.9089 18.99 16.9196 19.1391 16.9089L20.0124 16.8343L20.8112 15.8527C20.9284 15.9914 21.1095 16.2048 21.1627 16.2688C21.2373 16.3542 21.3225 16.4288 21.4183 16.4929C21.5142 16.5462 21.6313 16.5995 21.7485 16.6209C21.8763 16.6422 22.0041 16.6529 22.1532 16.6422L23.9638 16.4822C24.1555 16.4608 24.3579 16.3435 24.4857 16.1728C24.6242 16.3221 24.8478 16.4075 25.146 16.3862L26.1259 16.3008L26.9247 15.3193C27.0419 15.458 27.2229 15.6713 27.2762 15.7354C27.3507 15.8207 27.4359 15.8954 27.5318 15.9594C27.6276 16.0127 27.7448 16.0661 27.862 16.0874C27.9898 16.1088 28.1176 16.1194 28.2667 16.1088L32.3991 15.746L32.5802 15.522L32.7719 15.714L34.657 15.5433L35.9564 10.6889C35.9777 10.5929 36.0523 10.5395 36.1162 10.5289ZM42.1657 11.6918C42.0912 11.6064 41.8143 11.2757 41.729 11.1797C41.9421 11.4571 42.0166 11.8625 41.8888 12.3213L41.548 13.6015C41.4415 14.0176 41.0368 14.3911 40.664 14.4231L36.4996 14.7858L36.6807 15.8207L37.2877 15.9594L37.1706 15.3086L40.7066 14.9992C41.3243 14.9458 41.9208 14.4017 42.0912 13.7509L42.3255 12.8654C42.3681 12.7053 42.3894 12.556 42.3894 12.4173C42.3894 12.2786 42.3681 12.1399 42.3255 12.0225C42.2935 11.8945 42.2403 11.7878 42.1657 11.6918Z" fill="#970022"/>
<path d="M36.2758 13.495L36.8509 13.4524L36.8083 13.2283L36.1054 12.5241L36.2758 13.495ZM38.2994 11.6279C38.374 11.724 38.6722 12.0654 38.7467 12.1614C38.8213 12.2467 38.9065 12.3214 39.0023 12.3854C39.0982 12.4388 39.2154 12.4921 39.3325 12.5135C39.4603 12.5348 39.5881 12.5455 39.7372 12.5348L40.0035 12.5135L40.1207 12.0974C40.142 12.0014 40.0887 11.9267 40.0035 11.9373L39.3006 12.0014C38.8532 12.0227 38.5124 11.884 38.2994 11.6279ZM25.6039 14.4339L26.0405 14.3912L28.3304 5.82398L27.8831 5.29053L25.4761 14.2739C25.4548 14.3699 25.508 14.4446 25.6039 14.4339ZM29.8322 11.2439C29.8535 11.1478 29.9493 11.0625 30.0452 11.0518L30.4712 11.0091L30.5884 10.593C30.6097 10.497 30.5564 10.4223 30.4712 10.433L29.5979 10.5077C29.502 10.5184 29.4061 10.6037 29.3848 10.6997L29.0866 11.8093L29.6937 11.756L29.8322 11.2439ZM9.35104 7.53103L8.90371 6.98691L5.65527 19.1283L6.26236 19.0749L9.35104 7.53103ZM11.8113 16.6851C11.6835 16.8558 11.4812 16.9838 11.2894 16.9945L9.47884 17.1545C9.07412 17.1865 8.7333 17.0692 8.52029 16.8238L8.93566 17.3252C9.01022 17.4106 9.09542 17.4853 9.19128 17.5493C9.28713 17.6026 9.40429 17.656 9.52145 17.6773C9.64925 17.6986 9.77706 17.7093 9.92617 17.6986L11.7368 17.5386C11.9285 17.5173 12.1308 17.3999 12.2587 17.2292C12.3971 17.3786 12.6208 17.4639 12.919 17.4426L14.0586 17.3466L14.261 17.1012L14.4314 17.3145L16.3165 17.1438L17.6479 12.1614L18.2443 12.1081L18.3615 11.692C18.3828 11.5959 18.3295 11.5213 18.2443 11.5319L17.2112 11.6279L15.8692 16.5891L13.9841 16.7598L14.1545 16.1303L13.6113 16.7918L12.4717 16.8878C12.1734 16.9198 11.9391 16.8344 11.8113 16.6851ZM12.1415 12.6308L12.2587 12.2147C12.28 12.1187 12.2267 12.044 12.1415 12.0547L9.21258 12.3108L9.6599 12.8442L12.1415 12.6308Z" fill="#970022"/>
<path d="M10.2886 15.7779L10.7252 15.7352L10.885 15.1591C10.9063 15.0631 11.0021 14.9777 11.098 14.9671L11.524 14.9244L11.6838 14.3376L10.6507 14.4336C10.5548 14.4443 10.459 14.5296 10.4377 14.6257L10.1714 15.6285C10.1394 15.7139 10.1927 15.7886 10.2886 15.7779ZM22.5155 14.7003L22.9521 14.6577L23.719 11.777C23.7403 11.681 23.8361 11.5956 23.932 11.585L24.358 11.5423L24.5178 10.9555L23.4847 11.0515C23.3888 11.0622 23.293 11.1475 23.2717 11.2436L22.3877 14.5403C22.3664 14.6363 22.4196 14.711 22.5155 14.7003ZM13.3772 15.5005L13.8139 15.4578L14.5488 12.7266C14.5914 12.5665 14.6127 12.4172 14.6127 12.2785C14.6127 12.1398 14.5914 12.0011 14.5488 11.8837C14.5062 11.7663 14.4529 11.6597 14.3677 11.5636C14.2932 11.4783 14.0163 11.1475 13.9311 11.0515C14.1441 11.3289 14.2186 11.7343 14.0908 12.1931L13.2494 15.3405C13.2281 15.4365 13.2814 15.5112 13.3772 15.5005ZM19.4907 14.9671L19.9274 14.9244L20.6623 12.1931C20.7049 12.0331 20.7262 11.8837 20.7262 11.745C20.7262 11.6063 20.7049 11.4676 20.6623 11.3503C20.6197 11.2329 20.5664 11.1262 20.4812 11.0302C20.4066 10.9448 20.1297 10.6141 20.0445 10.5181C20.2575 10.7955 20.3321 11.2009 20.2043 11.6597L19.3629 14.807C19.3416 14.903 19.3948 14.9777 19.4907 14.9671Z" fill="#970022"/>
<path d="M40.1528 9.77144C40.1741 9.67542 40.2699 9.59006 40.3658 9.5794L42.677 9.37668L43.0391 8.04305L39.354 8.36312C38.9705 8.39513 38.5765 8.76855 38.47 9.18464L38.1291 10.4649C37.8842 11.3825 38.4061 12.0653 39.2901 11.9799L39.993 11.9159C40.0889 11.9052 40.1421 11.9799 40.1102 12.076L39.8545 13.0148C39.8332 13.1109 39.7374 13.1962 39.6415 13.2069L36.2653 13.5056L36.0949 12.5241L34.5079 16.0982L33.0914 16.7277L5.65542 19.1282L8.90386 6.98682L5.45306 7.29622L6.40096 8.16041L2.15137 24.036L34.1884 18.3387L34.7742 21.6354L36.3611 18.0613L39.8439 16.5249L36.6913 15.8208L36.5102 14.7859L40.6746 14.4231C41.0581 14.3911 41.4521 14.0177 41.5586 13.6016L41.8995 12.3213C42.1444 11.4038 41.6225 10.721 40.7385 10.7957L40.0356 10.8597C39.9397 10.8704 39.8865 10.7957 39.9184 10.6996L40.1528 9.77144Z" fill="white"/>
<path d="M32.0478 8.3418C33.5595 8.3418 34.785 7.11419 34.785 5.59986C34.785 4.08552 33.5595 2.85791 32.0478 2.85791C30.536 2.85791 29.3105 4.08552 29.3105 5.59986C29.3105 7.11419 30.536 8.3418 32.0478 8.3418Z" fill="white"/>
<path d="M30.3858 3.41262C27.8723 2.33504 24.9008 1.70557 21.7056 1.70557C20.5553 1.70557 19.437 1.79092 18.3613 1.94029C22.6854 2.13233 26.5516 3.47663 29.3101 5.53576C29.3314 4.67156 29.7468 3.90339 30.3858 3.41262ZM37.6921 9.81405L38.0436 8.48042L34.6993 8.77915C34.3159 8.81116 33.9218 9.18457 33.8153 9.60067L32.6864 13.8256L28.6285 14.1777C28.5326 14.1884 28.4794 14.1137 28.5113 14.0177L28.8095 12.9081L31.9089 12.6413L32.452 10.6036C32.697 9.68602 32.1751 9.0032 31.2911 9.07788L28.5965 9.3126C28.2131 9.34461 27.819 9.71803 27.7125 10.1341L26.6688 14.039C26.6368 14.1457 26.6262 14.2524 26.6155 14.3591L25.625 14.4444C25.5291 14.4551 25.4759 14.3804 25.5078 14.2844L27.9149 5.30104L24.8156 5.57843L25.7635 6.44263L24.9114 9.64334L22.5044 9.85672C22.1209 9.88873 21.7269 10.2621 21.6204 10.6782L20.5766 14.5831C20.5447 14.6898 20.534 14.7965 20.5234 14.9032L19.5328 14.9885C19.437 14.9992 19.3837 14.9245 19.4157 14.8285L20.2571 11.6811C20.5021 10.7636 19.9802 10.0808 19.0962 10.1555L15.7199 10.4542L14.3886 15.4366L13.4194 15.522C13.3235 15.5327 13.2703 15.458 13.3022 15.362L14.1436 12.2146C14.3886 11.297 13.8667 10.6142 12.9827 10.6889L9.60647 10.9876L9.24435 12.3213L12.1733 12.0652C12.2691 12.0545 12.3224 12.1292 12.2904 12.2253L12.0135 13.2708L9.62777 13.4842C9.24435 13.5162 8.83963 13.8683 8.73312 14.2737L8.371 15.65C8.12604 16.5676 8.64792 17.2504 9.53192 17.1757L11.3425 17.0157C11.5342 16.9943 11.7366 16.877 11.8644 16.7063C12.0029 16.8556 12.2265 16.941 12.5247 16.9196L13.6644 16.8236L14.2075 16.1621L14.0371 16.7916L15.9223 16.6209L17.2536 11.6385L18.2867 11.5424C18.3826 11.5318 18.4358 11.6064 18.4039 11.7025L17.5625 14.8498C17.3175 15.7674 17.8394 16.4502 18.7234 16.3755L19.7565 16.2795L20.5447 15.3086C20.6618 15.8314 21.1091 16.1515 21.7375 16.0981L23.5481 15.9381C23.7398 15.9167 23.9422 15.7994 24.07 15.6287C24.2085 15.778 24.4321 15.8634 24.7303 15.8421L25.87 15.746L26.6581 14.7752C26.7753 15.2979 27.2226 15.618 27.851 15.5647L31.9834 15.2019L32.5266 14.5298L32.3562 15.1592L34.2413 14.9885L35.5301 10.1768C35.5514 10.0808 35.6472 9.99542 35.7431 9.98475L37.6921 9.81405ZM29.3847 10.7102C29.406 10.6142 29.5018 10.5289 29.5977 10.5182L30.471 10.4435C30.5669 10.4329 30.6201 10.5075 30.5882 10.6036L30.29 11.7131L29.0864 11.8198L29.3847 10.7102ZM11.3638 15.5113C11.3425 15.6073 11.2467 15.6927 11.1508 15.7034L10.2775 15.778C10.1816 15.7887 10.1284 15.714 10.1603 15.618L10.4266 14.6151C10.4479 14.5191 10.5437 14.4337 10.6396 14.4231L11.6727 14.3271L11.3638 15.5113ZM23.5907 14.4444C23.5694 14.5404 23.4736 14.6258 23.3777 14.6365L22.5044 14.7111C22.4085 14.7218 22.3553 14.6471 22.3872 14.5511L23.2712 11.2544C23.2925 11.1583 23.3884 11.073 23.4842 11.0623L24.5173 10.9663L23.5907 14.4444Z" fill="white"/>
<path d="M9.884 16.461C9.39407 16.5036 9.1065 16.1302 9.24496 15.6181L9.56448 14.4339C9.59643 14.3058 9.68164 14.1885 9.77749 14.1031L9.03195 13.719C8.87219 13.8577 8.74438 14.0498 8.69113 14.2525L8.32901 15.6288C8.08404 16.5463 8.60592 17.2291 9.48992 17.1545L11.3005 16.9944C11.4922 16.9731 11.6946 16.8557 11.8224 16.685C11.9609 16.8344 12.1845 16.9197 12.4827 16.8984L13.6011 16.8024L13.3454 16.1729L9.884 16.461ZM16.4448 11.0198L15.6779 10.433L13.9845 16.7597L15.8696 16.589L15.1028 16.0022L16.4448 11.0198ZM24.7949 5.56787L25.7428 6.4214L24.8801 9.63278L25.6469 10.2196L26.7546 6.07999L24.7949 5.56787ZM31.0894 12.172L28.0007 12.4387L28.7995 12.8975L31.8988 12.6308L31.0894 12.172ZM34.1568 9.03531C33.997 9.18468 33.8692 9.37672 33.8159 9.5901L32.3248 15.1487L34.21 14.978L33.4432 14.3912L34.6467 9.87817C34.6786 9.75014 34.7638 9.63278 34.8597 9.53676L34.1568 9.03531ZM35.2112 9.37672C35.094 9.38739 34.9768 9.45141 34.8703 9.53676L35.5839 10.0382C35.6265 10.0062 35.6691 9.98486 35.7117 9.97419L37.6928 9.80349L37.0963 9.20602L35.2112 9.37672ZM19.4589 15.6288L19.0861 15.6608C18.5962 15.7035 18.3086 15.3301 18.4471 14.8179L19.2885 11.6706C19.4269 11.1691 19.1394 10.785 18.6495 10.8277L16.4448 11.0198L17.2116 11.6066L18.2447 11.5105C18.3406 11.4999 18.3938 11.5745 18.3619 11.6706L17.5205 14.8179C17.2755 15.7355 17.7974 16.4183 18.6814 16.3436L19.7145 16.2476L19.4589 15.6288Z" fill="#D5D5D6"/>
<path d="M12.7701 13.7191L10.1075 13.9538C9.99029 13.9645 9.86249 14.0285 9.76663 14.1138L10.5122 14.4979C10.5548 14.4659 10.5974 14.4446 10.64 14.4339L11.6731 14.3379L11.3642 15.5115C11.3536 15.5541 11.3216 15.6075 11.279 15.6395L11.8329 16.2903C11.9713 16.2796 12.1098 16.1516 12.1417 16.0129L12.7701 13.7191ZM12.5358 11.3612L10.1607 11.5639L9.56427 10.9665L9.20215 12.3001L12.1311 12.044C12.2269 12.0334 12.2802 12.108 12.2482 12.2041L11.9713 13.2496L12.7701 13.7084L13.1748 12.1934C13.3133 11.7026 13.0257 11.3185 12.5358 11.3612ZM30.8762 9.76085L29.0975 9.92089C28.9803 9.93155 28.8632 9.99557 28.7567 10.0809L29.4703 10.5824C29.5129 10.5504 29.5555 10.529 29.5981 10.5184L30.4714 10.4437C30.5673 10.433 30.6205 10.5077 30.5886 10.6037L30.2904 11.7133L31.0892 12.1721L31.5152 10.593C31.6536 10.0916 31.3661 9.71817 30.8762 9.76085ZM42.0806 8.7793L39.8546 8.97134C39.7375 8.98201 39.6203 9.04602 39.5138 9.13138L40.2274 9.63282C40.27 9.60081 40.3126 9.57948 40.3552 9.56881L42.6664 9.36609L42.0806 8.7793Z" fill="#D5D5D6"/>
<path d="M38.8105 8.62988L39.524 9.13133C39.4282 9.22735 39.343 9.34471 39.311 9.47274L39.0128 10.5823C38.8744 11.0838 39.1619 11.4679 39.6518 11.4252L40.3548 11.3612C40.8447 11.3185 41.1323 11.6919 40.9938 12.204L40.6956 13.3136C40.6637 13.4416 40.5785 13.559 40.4826 13.655L39.769 13.1536C39.8116 13.1216 39.8329 13.0789 39.8542 13.0255L40.1098 12.0867C40.1311 11.9906 40.0779 11.916 39.9927 11.9266L39.2897 11.9906C38.4057 12.0653 37.8838 11.3932 38.1288 10.4756L38.4696 9.18467" fill="#D5D5D6"/>
<path d="M40.4934 13.6444C40.3976 13.7404 40.2698 13.7938 40.1526 13.8045L36.9894 14.0819L36.2651 13.4951L36.4888 14.786L40.6532 14.4233C40.8449 14.4019 41.0366 14.3059 41.1964 14.1565L40.4934 13.6444ZM25.5719 15.0847L22.1105 15.3835C21.6205 15.4262 21.333 15.0527 21.4714 14.5406L22.43 10.9452C22.4619 10.8171 22.5471 10.6998 22.643 10.6037L21.9294 10.1023C21.7696 10.2517 21.6418 10.4437 21.5886 10.6571L20.5448 14.562C20.2999 15.4795 20.8217 16.1623 21.7057 16.0876L23.5164 15.9276C23.7081 15.9063 23.9104 15.7889 24.0382 15.6182C24.1767 15.7676 24.4004 15.8529 24.6986 15.8316L25.8382 15.7356L25.5719 15.0847ZM31.6854 14.5513L28.2239 14.85C27.734 14.8927 27.4464 14.5193 27.5849 14.0072L28.5434 10.4117C28.5754 10.2837 28.6606 10.1663 28.7565 10.0703L28.0429 9.56885C27.8831 9.71821 27.7553 9.91026 27.702 10.1236L26.6583 14.0285C26.4133 14.946 26.9352 15.6289 27.8192 15.5542L31.9516 15.1914L31.6854 14.5513Z" fill="#D5D5D6"/>
<path d="M34.1884 18.3389L32.6654 17.9974L3.6105 22.6918L7.57253 7.86185L5.45306 7.29639L6.40096 8.16058L2.15137 24.0361L34.1884 18.3389Z" fill="#D5D5D6"/>
<path d="M22.9844 10.4543C22.8672 10.465 22.7501 10.529 22.6436 10.6143L23.3571 11.1158C23.3997 11.0838 23.4424 11.0624 23.485 11.0518L24.5181 10.9557L23.5915 14.4232C23.5808 14.4659 23.5489 14.5192 23.5063 14.5512L24.0601 15.202C24.1985 15.1914 24.337 15.0633 24.369 14.9246L25.6364 10.1982L22.9844 10.4543Z" fill="#D5D5D6"/>
<path d="M36.2865 16.2263L35.8925 13.9858L34.8167 16.4077L33.1553 17.1439L4.98438 20.3126L6.02814 21.2621L32.9529 17.5706L34.5931 17.9334L34.9872 20.1739L36.0629 17.752L38.4273 16.7064L36.2865 16.2263Z" fill="#FAC109"/>
<path d="M35.6473 15.6289L35.9242 16.5891L36.8402 16.8985L35.7964 17.464L35.2319 18.5309L34.955 17.56L34.0391 17.2506L35.0828 16.6958L35.6473 15.6289Z" fill="#004537"/>
<path d="M29.8639 3.93551C28.5432 3.39139 27.116 2.9753 25.6143 2.71924C27.0095 3.26336 28.2982 3.94618 29.4378 4.75703C29.5337 4.45829 29.6828 4.1809 29.8639 3.93551Z" fill="#FAC109"/>
<path d="M32.6442 7.50967C31.2596 7.50967 30.1413 6.38941 30.1413 5.00244C30.1413 4.19159 30.5247 3.46609 31.1212 3.00732C30.0667 3.39141 29.3105 4.40497 29.3105 5.58924C29.3105 7.10424 30.5354 8.33118 32.0478 8.33118C33.23 8.33118 34.2418 7.57368 34.6252 6.51744C34.1672 7.12558 33.4536 7.50967 32.6442 7.50967Z" fill="#D5D5D6"/>
<path d="M32.7403 6.53881L32.5806 6.17606L32.4634 6.31476L32.6019 6.63483L32.4954 6.75219L32.9001 6.91222L33.0066 6.78419L32.6551 6.63483L32.7403 6.53881ZM33.1237 6.16539L33.0492 5.7813L32.9001 5.89866L32.9746 6.2294L32.8468 6.33609L33.2089 6.57081L33.3474 6.46412L33.0279 6.25074L33.1237 6.16539ZM33.5817 5.88799L33.5711 5.49324L33.422 5.56792V5.92L33.2728 5.99468L33.5817 6.29342L33.7415 6.20807L33.4646 5.94134L33.5817 5.88799ZM34.0823 5.69595L34.1569 5.31187L33.9864 5.35454L33.9225 5.69595L33.7628 5.73863L33.9971 6.09071L34.1675 6.04803L33.9545 5.72796L34.0823 5.69595ZM34.6148 5.6106L34.7533 5.24785L34.5829 5.25852L34.4551 5.57859L34.2847 5.58926L34.4551 5.98402L34.6255 5.97335L34.487 5.62127L34.6148 5.6106ZM32.4315 6.97624L32.2078 6.65617L32.1226 6.8162L32.3143 7.0936L32.2397 7.24296L32.6551 7.31765L32.7403 7.15761L32.3675 7.0936L32.4315 6.97624ZM32.2184 7.46701L31.9309 7.20029L31.8776 7.37099L32.1332 7.60571L32.08 7.76575L32.506 7.75508L32.5593 7.58437L32.1758 7.59504L32.2184 7.46701ZM32.1013 7.9898L31.7711 7.78709L31.7498 7.95779L32.0374 8.13916L32.0267 8.30987L32.4421 8.21385L32.4634 8.04314L32.0906 8.11783L32.1013 7.9898ZM31.5688 4.35165L31.1747 4.19161L31.0682 4.33031L31.4196 4.47968L31.3344 4.5757L31.4942 4.92778L31.6114 4.79975L31.4622 4.47968L31.5688 4.35165ZM30.8658 4.54369L30.7274 4.65038L31.0469 4.86376L30.9404 4.93845L31.0256 5.32253L31.164 5.21584L31.0895 4.87443L31.2279 4.77841L30.8658 4.54369ZM30.493 4.82109L30.3333 4.89577L30.6102 5.17317L30.493 5.22651V5.62127L30.6528 5.53592V5.19451L30.8019 5.11982L30.493 4.82109ZM30.0777 5.01313L29.8966 5.06648L30.1096 5.38655L29.9925 5.41856L29.9179 5.80264L30.0883 5.75997L30.1522 5.41856L30.312 5.37588L30.0777 5.01313ZM29.6516 5.13049L29.4706 5.14116L29.6197 5.49324L29.4919 5.50391L29.3428 5.86666L29.5238 5.85599L29.6516 5.53592L29.8114 5.52525L29.6516 5.13049ZM31.867 4.45834L31.9522 4.29831L31.7498 4.02091L31.835 3.87154L31.4196 3.79686L31.3238 3.94623L31.7072 4.02091L31.6433 4.13827L31.867 4.45834ZM31.8457 3.6795L32.1332 3.9569L32.1865 3.78619L31.9309 3.5408L31.9841 3.39144H31.5581L31.5048 3.56214H31.8883L31.8457 3.6795ZM31.9735 3.18872L32.3036 3.39144L32.3249 3.22073L32.0267 3.03936L32.048 2.86865L31.6327 2.96467L31.6114 3.13538L31.9841 3.0607L31.9735 3.18872Z" fill="#CF0022"/>
<path d="M10.6182 8.23509L11.0655 7.69097C11.3744 7.94702 11.7045 8.11773 12.0986 8.11773C12.4075 8.11773 12.5992 7.9897 12.5992 7.78699V7.77632C12.5992 7.58428 12.482 7.48826 11.8962 7.33889C11.1933 7.15751 10.746 6.96547 10.746 6.27198V6.26131C10.746 5.63184 11.2466 5.21575 11.9601 5.21575C12.4607 5.21575 12.8974 5.37578 13.2489 5.65318L12.8548 6.22931C12.5459 6.01593 12.2477 5.8879 11.9495 5.8879C11.6619 5.8879 11.5022 6.0266 11.5022 6.18663V6.1973C11.5022 6.42135 11.6513 6.49603 12.2477 6.65607C12.9506 6.83744 13.3447 7.0935 13.3447 7.70164V7.71231C13.3447 8.40579 12.8228 8.78988 12.0666 8.78988C11.5661 8.78988 11.0335 8.60851 10.6182 8.23509ZM13.579 8.23509L14.0264 7.69097C14.3352 7.94702 14.6654 8.11773 15.0595 8.11773C15.3683 8.11773 15.5601 7.9897 15.5601 7.78699V7.77632C15.5601 7.58428 15.4429 7.48826 14.8571 7.33889C14.1542 7.15751 13.7068 6.96547 13.7068 6.27198V6.26131C13.7068 5.63184 14.2074 5.21575 14.921 5.21575C15.4216 5.21575 15.8583 5.37578 16.2097 5.65318L15.8157 6.22931C15.5068 6.01593 15.2086 5.8879 14.9104 5.8879C14.6121 5.8879 14.463 6.0266 14.463 6.18663V6.1973C14.463 6.42135 14.6121 6.49603 15.2086 6.65607C15.9115 6.83744 16.3056 7.0935 16.3056 7.70164V7.71231C16.3056 8.40579 15.7837 8.78988 15.0275 8.78988C14.5269 8.78988 13.9944 8.60851 13.579 8.23509ZM16.6251 7.00815C16.6251 6.01593 17.392 5.20508 18.4464 5.20508C19.0748 5.20508 19.4475 5.37578 19.8096 5.68519L19.3304 6.26131C19.0641 6.03726 18.8298 5.90924 18.4251 5.90924C17.8712 5.90924 17.4346 6.40001 17.4346 6.98681V6.99748C17.4346 7.63762 17.8712 8.09639 18.489 8.09639C18.7659 8.09639 19.0109 8.02171 19.2026 7.88301V7.38156H18.4251V6.72008H19.9268V8.22442C19.5753 8.52315 19.0748 8.77921 18.4464 8.77921C17.3707 8.80055 16.6251 8.04305 16.6251 7.00815Z" fill="white"/>
</svg>
