<svg width="46" height="42" viewBox="0 0 46 42" fill="none" xmlns="http://www.w3.org/2000/svg">
<path d="M41.5375 24.0829L46 16.6587H38.656C39.2763 14.5104 40.1502 12.4861 41.3252 10.7251C34.8057 10.5183 27.8588 8.95348 23.0001 4.0752C18.1412 8.95348 11.1946 10.5183 4.6748 10.7251C5.84983 12.4861 6.72369 14.5104 7.34427 16.6587H0L4.46279 24.0829L1.46303 29.9363H8.343C8.18014 31.4143 7.93343 32.8179 7.61656 34.0977C7.61656 34.0977 16.5282 35.7509 23.0001 41.6189C29.4718 35.7509 38.3837 34.0977 38.3837 34.0977C38.0668 32.8176 37.8199 31.414 37.6567 29.9363H44.537L41.5375 24.0829Z" fill="#E2E3E4"/>
<path d="M39.7841 24.0828L42.7163 18.4175H35.6529C36.0485 16.2343 36.6714 14.2035 37.5736 12.5634C33.0136 12.5148 26.0399 10.5235 23.0004 7.22168C19.9608 10.5235 12.9874 12.5148 8.42707 12.5634C9.32905 14.2035 9.9519 16.2343 10.3475 18.4175H3.28418L6.21657 24.0828L3.65703 28.8532H10.7252C10.5826 30.3849 10.3592 31.7999 10.0742 33.0023C10.0742 33.0023 16.4702 34.4458 23.0004 40.1615C29.5305 34.4458 35.9265 33.0023 35.9265 33.0023C35.6413 31.7999 35.4178 30.3849 35.2755 28.8532H42.3434L39.7841 24.0828Z" fill="black"/>
<path d="M23.0002 33.3037C20.522 33.3052 18.3859 34.7643 17.4014 36.8685L23.0002 40.6196L28.599 36.8685C27.6142 34.7643 25.4782 33.3052 23.0002 33.3037Z" fill="#E2E3E4"/>
<path d="M13.4796 27.3305L10.7086 24.152L13.0878 21.5253H11.3646L9.47835 23.5726V19.7139H7.22656C7.6521 20.0728 8.01355 20.5487 8.01355 21.1901V27.3305H9.47835V24.8734L11.6536 27.3305H13.4796ZM32.4585 21.5253V27.3305H30.9939V23.0017C30.9939 22.3606 30.6322 21.8849 30.2064 21.5253H32.4585ZM38.609 26.1069L39.3098 27.3305H33.5494L36.5099 22.7486H33.7455V21.5253H39.1842L35.9737 26.1069H38.609ZM16.2497 25.6558V22.7486H17.2783L17.9797 21.5253H16.2497V19.7139L14.7854 20.5515V21.5255H13.7063V22.7489H14.7854V25.7358C14.7853 25.9452 14.8266 26.1526 14.9068 26.3461C14.9869 26.5396 15.1045 26.7155 15.2527 26.8636C15.4008 27.0117 15.5768 27.1292 15.7704 27.2093C15.964 27.2895 16.1715 27.3307 16.3811 27.3307H17.5425V26.1071H16.701C16.5813 26.1071 16.4665 26.0595 16.3818 25.9748C16.2972 25.8902 16.2497 25.7754 16.2497 25.6558ZM27.9757 21.5253L26.5225 24.583L24.8338 21.3729L23.1441 24.5835L21.6914 21.5253H19.4125C19.93 21.8158 20.5182 22.3054 20.872 23.0233C21.2259 23.7411 23.0732 27.4697 23.0732 27.4697L24.8335 24.1092L26.5937 27.4697L29.5494 21.5253H27.9757Z" fill="white"/>
<path d="M33.2223 15.0613C31.5242 14.2131 30.7957 13.4054 30.7957 13.4054C28.7474 1.26256 14.1579 -1.70587 7.64136 0.842113C11.7845 1.90601 15.4801 3.43465 17.9889 6.17957C14.5175 5.30197 9.74624 5.10529 6.95215 5.96846C10.4481 6.42358 15.7065 8.79387 18.9013 13.3003C21.3775 16.7935 22.7526 18.2839 25.4875 19.8022C27.2268 19.1336 28.7157 17.485 29.2025 16.2824C30.6263 16.3452 32.3717 15.7433 33.2223 15.0613Z" fill="#E2E3E4"/>
<path d="M32.3022 15.0958C25.5628 13.7335 25.1342 6.64795 14.0703 6.64795C20.2669 10.0495 20.335 15.9377 25.5739 18.9414C25.5739 18.9414 26.1676 18.3189 26.7378 16.9556L27.715 17.1869C27.8954 15.9788 27.6727 14.7642 27.6727 14.7642C28.3495 15.0361 30.3701 15.7183 32.3022 15.0958Z" fill="#ED1B23"/>
<path d="M19.9055 6.70416C24.1147 8.0146 27.3465 10.2221 29.2959 12.1474C27.711 4.22857 17.8566 -0.700594 9.46875 0.800202C9.46875 0.800202 16.0032 1.7307 19.9055 6.70416Z" fill="black"/>
<path d="M24.3763 14.9274C24.2438 13.9028 23.5171 12.7366 22.4824 11.8886C23.5979 12.281 24.5635 12.0921 24.9994 11.395C25.1319 12.4199 25.8586 13.5858 26.8933 14.4338C25.778 14.0412 24.8122 14.2308 24.3763 14.9274Z" fill="white"/>
<path d="M29.5595 29.0169C29.2489 29.0169 28.9952 29.1356 28.8323 29.3412L28.7525 29.0701H27.9756C28.1377 29.2068 28.275 29.3877 28.275 29.6323V31.2794H28.8323V29.9515C28.8961 29.7454 29.1542 29.4966 29.4126 29.4966C29.7074 29.4966 29.852 29.7631 29.852 30.0811V31.2794H30.409V30.0175C30.409 29.3176 29.9643 29.0169 29.5595 29.0169ZM19.9234 30.2618C19.9234 30.6271 19.7687 30.862 19.4432 30.862C19.1177 30.862 18.9627 30.6271 18.9627 30.2618V29.0658H18.1055C18.2674 29.2032 18.4052 29.3842 18.4052 29.6285V30.3572H18.4085C18.4085 31.1252 19.066 31.3323 19.4432 31.3323C19.8198 31.3323 20.4779 31.1255 20.4779 30.3572V29.0658H19.9234V30.2618ZM24.1509 29.0701L23.5982 30.2507L22.9553 28.9946L22.3125 30.2512L21.7595 29.0701H20.8923C21.0893 29.1809 21.313 29.367 21.4477 29.6404C21.5822 29.9132 22.2854 31.3662 22.2854 31.3662L22.9551 30.036L23.6251 31.3662L24.7499 29.0701H24.1509ZM26.3282 29.006C25.6458 29.006 25.1046 29.49 25.1046 30.1745C25.1046 30.8587 25.6458 31.3429 26.3282 31.3429C27.0108 31.3429 27.5516 30.8587 27.5516 30.1745C27.5516 29.49 27.0108 29.006 26.3282 29.006ZM26.3282 30.8941C25.9771 30.8941 25.6924 30.5924 25.6924 30.1745C25.6924 29.7576 25.9771 29.4548 26.3282 29.4548C26.6793 29.4548 26.964 29.7573 26.964 30.1745C26.964 30.5921 26.6793 30.8941 26.3282 30.8941ZM16.5348 30.8946C16.1916 30.8946 15.891 30.6544 15.8717 30.4853L15.5908 31.0637C15.778 31.226 16.1232 31.3335 16.5533 31.3335C17.2225 31.3335 17.62 31.0417 17.62 30.64C17.6139 30.3111 17.4211 30.1061 16.8702 29.9601C16.4822 29.8593 16.2583 29.8198 16.2583 29.6786C16.2583 29.5216 16.4523 29.4391 16.701 29.4391C16.9102 29.4391 17.1086 29.4887 17.2879 29.6077L17.5055 29.2189C17.3738 29.1098 16.9718 29.0151 16.7071 29.0151C16.0599 29.0151 15.6633 29.3369 15.6633 29.7292C15.6572 29.9894 15.8436 30.2107 16.4381 30.3618C16.814 30.4575 17.0229 30.503 17.0229 30.6536C17.0232 30.8177 16.8218 30.8946 16.5348 30.8946Z" fill="#E2E3E4"/>
<path d="M26.0743 36.8865C25.9748 36.7974 25.933 36.5671 25.9869 36.3853L25.9877 36.3836L25.9872 36.3838L25.9869 36.3843C25.9061 36.4856 25.763 36.5476 25.6667 36.5451C25.5877 36.543 25.0789 36.5362 25.0789 36.5362C25.0382 36.5356 24.999 36.5511 24.9699 36.5793C24.9407 36.6076 24.924 36.6462 24.9233 36.6868C24.9227 36.7274 24.9382 36.7666 24.9665 36.7957C24.9947 36.8249 25.0334 36.8416 25.074 36.8422C25.074 36.8422 25.5244 36.8506 25.5956 36.8498C25.6802 36.8498 25.7914 36.8017 25.8468 36.7339L25.878 36.6557C25.857 36.7101 25.837 36.765 25.817 36.8197C25.7871 36.9625 25.8215 37.0417 25.9312 37.1349C26.0472 37.2359 26.2232 37.388 26.2232 37.388C26.2515 37.4123 26.2885 37.4244 26.3257 37.4217C26.3629 37.4189 26.3975 37.4015 26.4218 37.3733C26.4462 37.3451 26.4583 37.3083 26.4555 37.2712C26.4528 37.234 26.4354 37.1994 26.4071 37.1751C26.4071 37.1751 26.1285 36.9349 26.0743 36.8865ZM26.4304 36.0565C26.3418 35.9568 26.3261 35.7232 26.4003 35.5485L26.4013 35.5467L26.4005 35.5472L26.4003 35.5475C26.3086 35.6394 26.1594 35.6839 26.0642 35.6705C25.9862 35.6601 25.4808 35.5956 25.4808 35.5956C25.4609 35.593 25.4406 35.5944 25.4212 35.5997C25.4018 35.6049 25.3837 35.614 25.3677 35.6263C25.3518 35.6385 25.3385 35.6538 25.3285 35.6713C25.3185 35.6887 25.312 35.7079 25.3095 35.7278C25.3069 35.7478 25.3083 35.768 25.3136 35.7874C25.3188 35.8068 25.3279 35.825 25.3402 35.8409C25.3524 35.8568 25.3678 35.8701 25.3852 35.8801C25.4026 35.8901 25.4219 35.8965 25.4418 35.8991C25.4418 35.8991 25.8881 35.9581 25.959 35.9659C26.0429 35.9753 26.1592 35.9398 26.2215 35.8791L26.2615 35.8047C26.2351 35.8553 26.2098 35.9062 26.1845 35.9568C26.1353 36.0912 26.1624 36.1813 26.2602 36.2869L26.5219 36.5714C26.5471 36.5988 26.5825 36.615 26.6197 36.6166C26.657 36.6181 26.6933 36.6047 26.7207 36.5795C26.7481 36.5543 26.7644 36.5192 26.7659 36.4819C26.7674 36.4447 26.7541 36.4084 26.7288 36.381C26.7288 36.3813 26.4788 36.1107 26.4304 36.0565ZM25.3448 39.0969C25.3025 39.2191 25.1878 39.3249 25.0966 39.3553C25.0216 39.3796 24.5391 39.5424 24.5391 39.5424C24.5019 39.5563 24.4716 39.5842 24.4546 39.62C24.4376 39.6559 24.4351 39.697 24.4478 39.7346C24.4605 39.7722 24.4873 39.8034 24.5226 39.8217C24.5578 39.8399 24.5988 39.8438 24.6369 39.8324C24.6369 39.8324 25.0644 39.6902 25.1313 39.6666C25.2108 39.638 25.3205 39.5505 25.3291 39.4735L25.3451 39.0981V39.0966L25.3448 39.0969ZM27.1376 35.6282C27.1376 35.6282 26.92 35.3316 26.878 35.2723C26.801 35.163 26.8121 34.9294 26.9056 34.7641L26.9066 34.762L26.9061 34.7625L26.9059 34.7631C26.8045 34.8438 26.651 34.8714 26.5576 34.8476C26.4811 34.8281 25.9867 34.7071 25.9867 34.7071C25.9473 34.6974 25.9057 34.7037 25.871 34.7247C25.8363 34.7456 25.8113 34.7795 25.8016 34.8189C25.7919 34.8582 25.7982 34.8998 25.8192 34.9345C25.8402 34.9691 25.8741 34.9941 25.9135 35.0038C25.9135 35.0038 26.3506 35.1131 26.4198 35.1286C26.5024 35.1473 26.6217 35.125 26.6906 35.0719L26.7384 35.0033C26.707 35.0501 26.6764 35.0967 26.646 35.1435C26.5847 35.265 26.5981 35.3657 26.683 35.4817L26.9107 35.7938C26.9213 35.8094 26.9349 35.8228 26.9507 35.833C26.9666 35.8433 26.9843 35.8502 27.0029 35.8535C27.0216 35.8567 27.0406 35.8562 27.059 35.8519C27.0774 35.8476 27.0947 35.8397 27.11 35.8285C27.1252 35.8174 27.1381 35.8033 27.1478 35.7871C27.1575 35.7709 27.1638 35.753 27.1664 35.7343C27.1689 35.7156 27.1677 35.6965 27.1628 35.6783C27.1579 35.6601 27.1493 35.6431 27.1376 35.6282ZM26.0434 38.847C26.0434 38.847 25.7172 38.6751 25.6538 38.6402C25.5368 38.5759 25.4441 38.3608 25.456 38.1714L25.4563 38.1694L25.456 38.1696V38.1699L25.4558 38.1704C25.4 38.2874 25.2739 38.3795 25.1799 38.3987C25.1027 38.4144 24.6052 38.5217 24.6052 38.5217C24.5848 38.5252 24.5653 38.5327 24.5478 38.5438C24.5304 38.555 24.5154 38.5696 24.5038 38.5867C24.4921 38.6038 24.4841 38.6231 24.4801 38.6434C24.4761 38.6637 24.4763 38.6846 24.4806 38.7048C24.485 38.7251 24.4934 38.7442 24.5053 38.7611C24.5173 38.778 24.5325 38.7923 24.5501 38.8032C24.5678 38.814 24.5874 38.8212 24.6079 38.8243C24.6284 38.8273 24.6492 38.8262 24.6693 38.8209V38.8212C24.6693 38.8212 25.11 38.728 25.1792 38.7118C25.2615 38.6926 25.3592 38.6205 25.3975 38.5425L25.4107 38.4582C25.4026 38.5149 25.3957 38.5716 25.3886 38.6281C25.3934 38.7688 25.4428 38.847 25.57 38.9144L25.9117 39.0951C25.928 39.1044 25.9461 39.1104 25.9648 39.1127C25.9835 39.1149 26.0025 39.1134 26.0206 39.1082C26.0387 39.1029 26.0556 39.0941 26.0702 39.0822C26.0848 39.0704 26.0969 39.0557 26.1058 39.039C26.1146 39.0224 26.12 39.0042 26.1216 38.9854C26.1233 38.9666 26.1211 38.9477 26.1153 38.9298C26.1095 38.9119 26.1001 38.8954 26.0878 38.8811C26.0754 38.8669 26.0603 38.8553 26.0434 38.847ZM25.8144 37.7517C25.7052 37.6743 25.6381 37.4503 25.6711 37.2632L25.6716 37.2609L25.6711 37.2617L25.6708 37.2622C25.6019 37.3725 25.4664 37.4492 25.3706 37.4579C25.2921 37.4649 24.7855 37.5158 24.7855 37.5158C24.7465 37.5214 24.7111 37.5418 24.6868 37.5728C24.6624 37.6038 24.651 37.643 24.6549 37.6822C24.6588 37.7215 24.6777 37.7577 24.7076 37.7833C24.7376 37.8089 24.7763 37.822 24.8157 37.8198C24.8157 37.8198 25.264 37.7773 25.3347 37.7692C25.4185 37.7593 25.5239 37.6988 25.571 37.6257L25.5933 37.5442C25.5789 37.6001 25.5654 37.6563 25.5518 37.7122C25.5363 37.8456 25.5814 37.9337 25.7002 38.0145L26.0193 38.2327C26.0501 38.2537 26.088 38.2617 26.1246 38.2548C26.1428 38.2514 26.1601 38.2445 26.1755 38.2344C26.191 38.2243 26.2043 38.2113 26.2147 38.1961C26.2252 38.1809 26.2325 38.1637 26.2363 38.1457C26.2401 38.1276 26.2403 38.109 26.2369 38.0909C26.2335 38.0727 26.2266 38.0555 26.2165 38.04C26.2064 38.0246 26.1934 38.0112 26.1781 38.0008C26.1781 38.0008 25.8734 37.7935 25.8144 37.7517ZM19.9253 36.8865C20.0249 36.7974 20.0667 36.5671 20.0127 36.3853L20.012 36.3836L20.0125 36.3838L20.0127 36.3843C20.0935 36.4856 20.2366 36.5476 20.3329 36.5451C20.4119 36.543 20.9208 36.5362 20.9208 36.5362C20.9614 36.5356 21.0006 36.5511 21.0297 36.5793C21.0589 36.6076 21.0757 36.6462 21.0763 36.6868C21.0769 36.7274 21.0614 36.7666 21.0332 36.7957C21.0049 36.8249 20.9662 36.8416 20.9256 36.8422C20.9256 36.8422 20.4752 36.8506 20.4041 36.8498C20.3195 36.8498 20.2083 36.8017 20.1528 36.7339L20.1216 36.6557C20.1424 36.7101 20.1627 36.765 20.1824 36.8197C20.2128 36.9625 20.1781 37.0417 20.0684 37.1349C19.9524 37.2359 19.7764 37.388 19.7764 37.388H19.7761C19.7479 37.4123 19.7111 37.4244 19.6739 37.4217C19.6367 37.4189 19.6022 37.4015 19.5778 37.3733C19.5535 37.3451 19.5413 37.3083 19.5441 37.2712C19.5468 37.234 19.5643 37.1994 19.5925 37.1751C19.5925 37.1751 19.8711 36.9349 19.9253 36.8865ZM19.5692 36.0565C19.6581 35.9568 19.6736 35.7232 19.5993 35.5485L19.5983 35.5467L19.5991 35.5472V35.5475C19.691 35.6394 19.8402 35.6839 19.9357 35.6705C20.0137 35.6601 20.5188 35.5956 20.5188 35.5956C20.5392 35.5921 20.5601 35.5927 20.5802 35.5975C20.6003 35.6022 20.6193 35.611 20.6359 35.6233C20.6526 35.6356 20.6666 35.6511 20.677 35.6689C20.6875 35.6867 20.6943 35.7065 20.6969 35.727C20.6996 35.7475 20.698 35.7683 20.6924 35.7882C20.6867 35.8081 20.6771 35.8266 20.6641 35.8427C20.6511 35.8588 20.635 35.8721 20.6167 35.8818C20.5985 35.8915 20.5784 35.8974 20.5578 35.8991C20.5578 35.8991 20.1115 35.9581 20.0403 35.9659C19.9567 35.9753 19.8405 35.9398 19.7782 35.8791L19.7381 35.8047C19.7645 35.8553 19.7898 35.9062 19.8154 35.9568C19.8643 36.0912 19.8369 36.1813 19.7394 36.2869L19.4778 36.5714C19.4653 36.585 19.4502 36.596 19.4334 36.6037C19.4167 36.6115 19.3986 36.6159 19.3801 36.6166C19.3617 36.6174 19.3432 36.6145 19.3259 36.6082C19.3086 36.6018 19.2926 36.5921 19.279 36.5796C19.2655 36.5671 19.2545 36.5521 19.2467 36.5353C19.2389 36.5186 19.2345 36.5005 19.2338 36.482C19.233 36.4636 19.2359 36.4452 19.2422 36.4279C19.2486 36.4105 19.2583 36.3946 19.2708 36.381C19.2708 36.3813 19.5211 36.1107 19.5692 36.0565ZM20.6548 39.0969C20.6971 39.2191 20.8119 39.3249 20.903 39.3553C20.978 39.3796 21.4605 39.5424 21.4605 39.5424C21.4977 39.5563 21.528 39.5842 21.545 39.62C21.5621 39.6559 21.5645 39.697 21.5518 39.7346C21.5391 39.7722 21.5123 39.8034 21.4771 39.8217C21.4418 39.8399 21.4008 39.8438 21.3628 39.8324C21.3628 39.8324 20.9352 39.6902 20.8683 39.6666C20.7888 39.638 20.6791 39.5505 20.6705 39.4735L20.6546 39.0981V39.0966L20.6548 39.0969ZM18.862 35.6282C18.862 35.6282 19.0796 35.3316 19.1214 35.2723C19.1984 35.163 19.1875 34.9294 19.094 34.7641L19.093 34.762L19.0933 34.7625L19.0938 34.7631C19.1951 34.8438 19.3483 34.8714 19.442 34.8476C19.6322 34.8005 19.8224 34.7536 20.0127 34.7071C20.0322 34.7023 20.0525 34.7014 20.0723 34.7044C20.0922 34.7074 20.1112 34.7142 20.1284 34.7246C20.1456 34.735 20.1606 34.7486 20.1725 34.7648C20.1844 34.7809 20.193 34.7993 20.1979 34.8187C20.2027 34.8382 20.2036 34.8585 20.2006 34.8783C20.1976 34.8981 20.1907 34.9172 20.1804 34.9344C20.17 34.9516 20.1563 34.9665 20.1402 34.9784C20.124 34.9903 20.1057 34.999 20.0862 35.0038C20.0862 35.0038 19.649 35.1131 19.5796 35.1286C19.497 35.1473 19.378 35.125 19.3091 35.0719L19.2612 35.0033C19.2926 35.0501 19.3227 35.0967 19.3536 35.1435C19.4147 35.265 19.4013 35.3657 19.3167 35.4817L19.0887 35.7938C19.0778 35.8087 19.0641 35.8213 19.0484 35.8308C19.0326 35.8404 19.0151 35.8468 18.9969 35.8496C18.9787 35.8525 18.9601 35.8517 18.9422 35.8473C18.9243 35.843 18.9074 35.8352 18.8925 35.8243C18.8776 35.8134 18.865 35.7997 18.8554 35.784C18.8459 35.7683 18.8395 35.7508 18.8366 35.7326C18.8338 35.7144 18.8346 35.6958 18.8389 35.6779C18.8433 35.66 18.8511 35.6431 18.862 35.6282ZM19.9562 38.847C19.9562 38.847 20.2825 38.6751 20.3458 38.6402C20.4631 38.5759 20.5555 38.3608 20.5436 38.1714L20.5434 38.1694L20.5436 38.1696V38.1699L20.5441 38.1704C20.5996 38.2874 20.7257 38.3795 20.82 38.3987C20.897 38.4144 21.3944 38.5217 21.3944 38.5217C21.4149 38.5252 21.4344 38.5327 21.4518 38.5438C21.4692 38.555 21.4842 38.5696 21.4959 38.5867C21.5075 38.6038 21.5156 38.6231 21.5195 38.6434C21.5235 38.6637 21.5233 38.6846 21.519 38.7048C21.5147 38.7251 21.5063 38.7442 21.4943 38.7611C21.4824 38.778 21.4671 38.7923 21.4495 38.8032C21.4319 38.814 21.4122 38.8212 21.3917 38.8243C21.3713 38.8273 21.3504 38.8262 21.3304 38.8209V38.8212C21.3304 38.8212 20.8896 38.728 20.8205 38.7118C20.7381 38.6926 20.6404 38.6205 20.6024 38.5425L20.589 38.4582C20.5968 38.5149 20.6039 38.5716 20.6107 38.6281C20.6062 38.7688 20.557 38.847 20.4296 38.9144C20.2939 38.9865 20.0879 39.0951 20.0879 39.0951C20.0716 39.1044 20.0535 39.1104 20.0348 39.1127C20.0161 39.1149 19.9971 39.1134 19.979 39.1082C19.9609 39.1029 19.9441 39.0941 19.9294 39.0822C19.9148 39.0704 19.9027 39.0557 19.8939 39.039C19.885 39.0224 19.8796 39.0042 19.878 38.9854C19.8764 38.9666 19.8785 38.9477 19.8843 38.9298C19.8902 38.9119 19.8995 38.8954 19.9119 38.8811C19.9242 38.8669 19.9393 38.8553 19.9562 38.847ZM20.1855 37.7517C20.2944 37.6743 20.3618 37.4503 20.3288 37.2632L20.3283 37.2609L20.3288 37.2617L20.3291 37.2622C20.3977 37.3725 20.5332 37.4492 20.6292 37.4579C20.7078 37.4649 21.2143 37.5158 21.2143 37.5158C21.2534 37.5214 21.2888 37.5418 21.3131 37.5728C21.3374 37.6038 21.3489 37.643 21.345 37.6822C21.3411 37.7215 21.3222 37.7577 21.2922 37.7833C21.2623 37.8089 21.2236 37.822 21.1842 37.8198C21.1842 37.8198 20.7356 37.7773 20.6652 37.7692C20.5814 37.7593 20.476 37.6988 20.4289 37.6257L20.4063 37.5442C20.4208 37.6001 20.4342 37.6563 20.4479 37.7122C20.4633 37.8456 20.4182 37.9337 20.2997 38.0145L19.9803 38.2327C19.9651 38.2431 19.9479 38.2504 19.9299 38.2542C19.9118 38.258 19.8932 38.2582 19.875 38.2547C19.8569 38.2513 19.8396 38.2444 19.8242 38.2343C19.8087 38.2242 19.7954 38.2112 19.785 38.196C19.7746 38.1807 19.7673 38.1636 19.7635 38.1456C19.7597 38.1275 19.7595 38.1089 19.7629 38.0908C19.7663 38.0727 19.7733 38.0554 19.7834 38.04C19.7935 38.0245 19.8065 38.0112 19.8217 38.0008C19.8217 38.0008 20.1262 37.7935 20.1855 37.7517Z" fill="#ED1B23"/>
</svg>
