<svg width="21" height="18" viewBox="0 0 21 18" fill="none" xmlns="http://www.w3.org/2000/svg">
<g clip-path="url(#clip0_1323_2364)">
<path d="M1.5 15.433C1.5 13.4308 2.95485 11.7254 4.93204 11.4098L5.11013 11.3814C6.69336 11.1287 8.30664 11.1287 9.88987 11.3814L10.068 11.4098C12.0451 11.7254 13.5 13.4308 13.5 15.433C13.5 16.2984 12.7984 17 11.933 17H3.06697C2.20156 17 1.5 16.2984 1.5 15.433Z" stroke="#A2A2A2" stroke-width="1.5"/>
<path d="M11 4.5C11 6.433 9.433 8 7.5 8C5.567 8 4 6.433 4 4.5C4 2.567 5.567 1 7.5 1C9.433 1 11 2.567 11 4.5Z" stroke="#A2A2A2" stroke-width="1.5"/>
<path d="M13.5 8C15.433 8 17 6.433 17 4.5C17 2.567 15.433 1 13.5 1M15.8899 17H17.933C18.7984 17 19.5 16.2984 19.5 15.433C19.5 13.4308 18.0451 11.7254 16.068 11.4098V11.4098C15.9494 11.3909 15.8293 11.3814 15.7093 11.3814C15.3895 11.3814 15.2902 11.3814 14.7412 11.3814" stroke="#A2A2A2" stroke-width="1.5" stroke-linecap="round"/>
</g>
<defs>
<clipPath id="clip0_1323_2364">
<rect width="20" height="18" fill="white" transform="translate(0.5)"/>
</clipPath>
</defs>
</svg>
