<svg width="21" height="20" viewBox="0 0 21 20" fill="none" xmlns="http://www.w3.org/2000/svg">
<g clip-path="url(#clip0_1948_5448)">
<path d="M10.5 8.33333C9.83696 8.33333 9.20107 8.06994 8.73223 7.6011C8.26339 7.13226 8 6.49637 8 5.83333C8 5.17029 8.26339 4.53441 8.73223 4.06557C9.20107 3.59673 9.83696 3.33333 10.5 3.33333C11.163 3.33333 11.7989 3.59673 12.2678 4.06557C12.7366 4.53441 13 5.17029 13 5.83333C13 6.49637 12.7366 7.13226 12.2678 7.6011C11.7989 8.06994 11.163 8.33333 10.5 8.33333V8.33333ZM7.97333 12.7075C8.1447 12.1721 8.48172 11.705 8.93578 11.3736C9.38983 11.0422 9.93744 10.8636 10.4996 10.8636C11.0617 10.8636 11.6093 11.0422 12.0634 11.3736C12.5174 11.705 12.8545 12.1721 13.0258 12.7075C13.0811 12.9217 13.2192 13.1051 13.4097 13.2175C13.6002 13.3298 13.8275 13.3619 14.0417 13.3067C14.2558 13.2514 14.4393 13.1133 14.5516 12.9228C14.664 12.7323 14.6961 12.505 14.6408 12.2908C13.5483 8.16833 7.44917 8.17 6.36 12.2908C6.32991 12.3976 6.32146 12.5094 6.33514 12.6195C6.34882 12.7296 6.38436 12.8359 6.43966 12.9321C6.49497 13.0283 6.56893 13.1125 6.6572 13.1797C6.74548 13.247 6.8463 13.2959 6.95374 13.3236C7.06118 13.3514 7.17308 13.3574 7.28287 13.3413C7.39266 13.3252 7.49814 13.2874 7.59311 13.23C7.68808 13.1726 7.77064 13.0968 7.83593 13.0071C7.90122 12.9174 7.94794 12.8155 7.97333 12.7075V12.7075ZM10.5075 19.7208C10.0964 19.7211 9.69952 19.5701 9.3925 19.2967L6.26917 16.6667H3.83333C2.94928 16.6667 2.10143 16.3155 1.47631 15.6904C0.85119 15.0652 0.5 14.2174 0.5 13.3333V3.33333C0.5 2.44928 0.85119 1.60143 1.47631 0.976311C2.10143 0.35119 2.94928 0 3.83333 0L17.1667 0C18.0507 0 18.8986 0.35119 19.5237 0.976311C20.1488 1.60143 20.5 2.44928 20.5 3.33333V13.3333C20.5 14.2174 20.1488 15.0652 19.5237 15.6904C18.8986 16.3155 18.0507 16.6667 17.1667 16.6667H14.7892L11.5833 19.3167C11.2863 19.5786 10.9035 19.7224 10.5075 19.7208V19.7208ZM3.83333 1.66667C3.39131 1.66667 2.96738 1.84226 2.65482 2.15482C2.34226 2.46738 2.16667 2.89131 2.16667 3.33333V13.3333C2.16667 13.7754 2.34226 14.1993 2.65482 14.5118C2.96738 14.8244 3.39131 15 3.83333 15H6.57417C6.77054 15 6.96061 15.0694 7.11083 15.1958L10.4825 18.0375L13.9592 15.1908C14.1085 15.0674 14.2963 15 14.49 15H17.1667C17.6087 15 18.0326 14.8244 18.3452 14.5118C18.6577 14.1993 18.8333 13.7754 18.8333 13.3333V3.33333C18.8333 2.89131 18.6577 2.46738 18.3452 2.15482C18.0326 1.84226 17.6087 1.66667 17.1667 1.66667H3.83333Z" fill="#A2A2A2"/>
</g>
<defs>
<clipPath id="clip0_1948_5448">
<rect width="20" height="20" fill="white" transform="translate(0.5)"/>
</clipPath>
</defs>
</svg>
