<svg width="19" height="18" viewBox="0 0 19 18" fill="none" xmlns="http://www.w3.org/2000/svg">
<path d="M3 15.3213C3 13.1763 4.57609 11.3493 6.71804 11.0112L6.91098 10.9808C8.62614 10.7101 10.3739 10.7101 12.089 10.9808L12.282 11.0112C14.4239 11.3493 16 13.1763 16 15.3213C16 16.2484 15.24 17 14.3025 17H4.69755C3.76002 17 3 16.2484 3 15.3213Z" stroke="#A2A2A2" stroke-width="1.5"/>
<path d="M13.2917 4.5C13.2917 6.433 11.5941 8 9.50002 8C7.40594 8 5.70835 6.433 5.70835 4.5C5.70835 2.567 7.40594 1 9.50002 1C11.5941 1 13.2917 2.567 13.2917 4.5Z" stroke="#A2A2A2" stroke-width="1.5"/>
</svg>
