<svg width="15" height="18" viewBox="0 0 15 18" fill="none" xmlns="http://www.w3.org/2000/svg">
<path d="M1 15.3213C1 13.1763 2.57609 11.3493 4.71804 11.0112L4.91098 10.9808C6.62614 10.7101 8.37386 10.7101 10.089 10.9808L10.282 11.0112C12.4239 11.3493 14 13.1763 14 15.3213C14 16.2484 13.24 17 12.3025 17H2.69755C1.76002 17 1 16.2484 1 15.3213Z" stroke="#242424" stroke-width="1.5"/>
<path d="M11.2917 4.5C11.2917 6.433 9.5941 8 7.50002 8C5.40594 8 3.70835 6.433 3.70835 4.5C3.70835 2.567 5.40594 1 7.50002 1C9.5941 1 11.2917 2.567 11.2917 4.5Z" stroke="#242424" stroke-width="1.5"/>
</svg>
