<svg width="14" height="14" viewBox="0 0 14 14" fill="none" xmlns="http://www.w3.org/2000/svg">
<g clip-path="url(#clip0_1710_793)">
<path d="M1.18928 7.51042C1.30176 8.84032 1.86554 10.0918 2.78709 11.0572C3.70863 12.0226 4.93255 12.644 6.25578 12.8181C7.57901 12.9923 8.92202 12.7088 10.062 12.0147C11.202 11.3207 12.0704 10.2577 12.5232 9.00221C12.9759 7.74671 12.9859 6.37415 12.5513 5.11223C12.1167 3.85032 11.2638 2.77491 10.1339 2.06442C9.00413 1.35393 7.66536 1.05107 6.33974 1.20609C5.01413 1.3611 3.78136 1.96468 2.84595 2.91667H4.66711C4.82182 2.91667 4.97019 2.97813 5.07959 3.08752C5.18899 3.19692 5.25045 3.34529 5.25045 3.5C5.25045 3.65471 5.18899 3.80308 5.07959 3.91248C4.97019 4.02188 4.82182 4.08333 4.66711 4.08333H2.25036C1.96311 4.08318 1.68768 3.969 1.48456 3.76589C1.28144 3.56277 1.16727 3.28733 1.16711 3.00008V0.583333C1.16711 0.428624 1.22857 0.280251 1.33797 0.170854C1.44736 0.0614582 1.59574 0 1.75045 0V0C1.90516 0 2.05353 0.0614582 2.16293 0.170854C2.27232 0.280251 2.33378 0.428624 2.33378 0.583333V1.7955C3.50705 0.747092 4.99968 0.125116 6.57026 0.0301649C8.14083 -0.0647857 9.69752 0.372842 10.9885 1.27227C12.2796 2.17169 13.2295 3.48033 13.6846 4.98652C14.1397 6.49271 14.0734 8.10838 13.4964 9.57223C12.9195 11.0361 11.8656 12.2625 10.5052 13.0532C9.14487 13.8438 7.55757 14.1525 6.00005 13.9292C4.44253 13.7059 3.00586 12.9637 1.92241 11.8228C0.838959 10.6818 0.172073 9.20865 0.0296125 7.64167C0.0220776 7.56043 0.0315475 7.47852 0.0574169 7.40115C0.0832863 7.32378 0.124989 7.25264 0.179867 7.19228C0.234745 7.13191 0.301595 7.08364 0.376158 7.05053C0.450722 7.01743 0.531364 7.00022 0.612946 7C0.755251 6.99829 0.8931 7.0496 0.99964 7.14396C1.10618 7.23831 1.17378 7.36895 1.18928 7.51042Z" fill="#A2A2A2"/>
</g>
<defs>
<clipPath id="clip0_1710_793">
<rect width="14" height="14" fill="white" transform="matrix(-1 0 0 1 14 0)"/>
</clipPath>
</defs>
</svg>
