<svg width="17" height="16" viewBox="0 0 17 16" fill="none" xmlns="http://www.w3.org/2000/svg">
<path d="M6.50036 7.33372C6.86855 7.33372 7.16703 7.03525 7.16703 6.66706C7.16703 6.29887 6.86855 6.00039 6.50036 6.00039C6.13217 6.00039 5.83369 6.29887 5.83369 6.66706C5.83369 7.03525 6.13217 7.33372 6.50036 7.33372Z" fill="#A2A2A2"/>
<path d="M11.167 6.66706C11.167 7.03525 10.8685 7.33372 10.5004 7.33372C10.1322 7.33372 9.83369 7.03525 9.83369 6.66706C9.83369 6.29887 10.1322 6.00039 10.5004 6.00039C10.8685 6.00039 11.167 6.29887 11.167 6.66706Z" fill="#A2A2A2"/>
<path fill-rule="evenodd" clip-rule="evenodd" d="M8.50039 1.40039C4.85531 1.40039 1.90039 4.35531 1.90039 8.00039C1.90039 11.6455 4.85531 14.6004 8.50039 14.6004C12.1455 14.6004 15.1004 11.6455 15.1004 8.00039C15.1004 4.35531 12.1455 1.40039 8.50039 1.40039ZM3.10039 8.00039C3.10039 5.01805 5.51805 2.60039 8.50039 2.60039C11.4827 2.60039 13.9004 5.01805 13.9004 8.00039C13.9004 10.9827 11.4827 13.4004 8.50039 13.4004C5.51805 13.4004 3.10039 10.9827 3.10039 8.00039Z" fill="#A2A2A2"/>
<path d="M6.12557 11.3022C6.38266 11.5079 6.75703 11.4678 6.96488 11.2135L6.96861 11.2093L6.97446 11.2028C6.98573 11.1905 7.00618 11.169 7.03576 11.1412C7.09514 11.0856 7.18955 11.0064 7.31839 10.9259C7.57369 10.7663 7.965 10.6004 8.50039 10.6004C9.03579 10.6004 9.42709 10.7663 9.68239 10.9259C9.81123 11.0064 9.90564 11.0856 9.96503 11.1412C9.9946 11.169 10.0151 11.1905 10.0263 11.2028C10.0315 11.2084 10.0347 11.2121 10.0359 11.2135C10.2437 11.4678 10.6181 11.5079 10.8752 11.3022C11.134 11.0952 11.1759 10.7177 10.9689 10.4589L10.912 10.3931C10.8816 10.3598 10.8395 10.3162 10.7858 10.2658C10.6785 10.1652 10.5229 10.0361 10.3184 9.90826C9.90703 9.65116 9.29833 9.40039 8.50039 9.40039C7.70245 9.40039 7.09376 9.65116 6.68239 9.90826C6.4779 10.0361 6.32231 10.1652 6.21503 10.2658C6.16126 10.3162 6.11922 10.3598 6.08882 10.3931L6.03187 10.4589C5.82486 10.7177 5.86682 11.0952 6.12557 11.3022Z" fill="#A2A2A2"/>
</svg>
