<svg width="24" height="24" viewBox="0 0 24 24" fill="none" xmlns="http://www.w3.org/2000/svg">
<path d="M12.8 13.4V17C12.8 17.1591 12.8632 17.3117 12.9757 17.4243C13.0883 17.5368 13.2409 17.6 13.4 17.6H17C17.1591 17.6 17.3117 17.5368 17.4243 17.4243C17.5368 17.3117 17.6 17.1591 17.6 17V13.4C17.6 13.2409 17.5368 13.0883 17.4243 12.9757C17.3117 12.8632 17.1591 12.8 17 12.8H13.4C13.2409 12.8 13.0883 12.8632 12.9757 12.9757C12.8632 13.0883 12.8 13.2409 12.8 13.4ZM14 16.4V14H16.4V16.4H14ZM5.6 2C5.51206 2.00003 5.42519 2.0194 5.34557 2.05672C5.26594 2.09405 5.19548 2.14843 5.1392 2.216L2.1392 5.816C2.04932 5.92378 2.00006 6.05966 2 6.2V8C2 9.0656 2.4632 10.0244 3.2 10.6832V20.6C3.2 20.7591 3.26321 20.9117 3.37574 21.0243C3.48826 21.1368 3.64087 21.2 3.8 21.2H19.4C19.5591 21.2 19.7117 21.1368 19.8243 21.0243C19.9368 20.9117 20 20.7591 20 20.6V10.6832C20.7368 10.0232 21.2 9.0656 21.2 8V6.1784C21.2 6.0704 21.2 5.984 21.0608 5.816L18.0608 2.216C18.0045 2.14843 17.9341 2.09405 17.8544 2.05672C17.7748 2.0194 17.6879 2.00003 17.6 2H5.6ZM5.6 10.4C4.96348 10.4 4.35303 10.1471 3.90294 9.69706C3.45286 9.24697 3.2 8.63652 3.2 8V6.8H8V8C8 8.63652 7.74714 9.24697 7.29706 9.69706C6.84697 10.1471 6.23652 10.4 5.6 10.4ZM11.6 10.4C10.9635 10.4 10.353 10.1471 9.90295 9.69706C9.45286 9.24697 9.2 8.63652 9.2 8V6.8H14V8C14 8.63652 13.7471 9.24697 13.2971 9.69706C12.847 10.1471 12.2365 10.4 11.6 10.4ZM17.6 10.4C16.9635 10.4 16.353 10.1471 15.9029 9.69706C15.4529 9.24697 15.2 8.63652 15.2 8V6.8H20V8C20 8.63652 19.7471 9.24697 19.2971 9.69706C18.847 10.1471 18.2365 10.4 17.6 10.4ZM5.6 20H4.4V11.396C5.15636 11.6641 5.98066 11.6715 6.74173 11.4171C7.5028 11.1627 8.15692 10.6611 8.6 9.992C8.92839 10.4869 9.37423 10.8928 9.89773 11.1734C10.4212 11.454 11.0061 11.6005 11.6 11.6C12.1941 11.6004 12.779 11.4537 13.3025 11.1729C13.826 10.892 14.2718 10.4859 14.6 9.9908C15.0431 10.6599 15.6972 11.1615 16.4583 11.4159C17.2193 11.6703 18.0436 11.6629 18.8 11.3948V20H11.6V13.4C11.6 13.2409 11.5368 13.0883 11.4243 12.9757C11.3117 12.8632 11.1591 12.8 11 12.8H6.2C6.04087 12.8 5.88826 12.8632 5.77574 12.9757C5.66321 13.0883 5.6 13.2409 5.6 13.4V20ZM8.168 5.6H3.8816L5.8808 3.2H8.9672L8.168 5.6ZM13.7672 5.6H9.4328L10.232 3.2H12.968L13.7672 5.6ZM15.032 5.6L14.2328 3.2H17.3192L19.3196 5.6H15.032ZM6.8 20V14H10.4V20H6.8Z" fill="#303030"/>
</svg>
