<svg width="34" height="35" viewBox="0 0 34 35" fill="none" xmlns="http://www.w3.org/2000/svg">
<path d="M31.2541 10.3314C31.0847 9.70071 30.7527 9.12552 30.2912 8.66344C29.8297 8.20136 29.2549 7.86859 28.6244 7.69844C26.3035 7.07422 17 7.07422 17 7.07422C17 7.07422 7.69648 7.07422 5.37559 7.69512C4.74479 7.86472 4.16973 8.1973 3.70814 8.65947C3.24656 9.12164 2.9147 9.69712 2.7459 10.3281C2.125 12.6523 2.125 17.5 2.125 17.5C2.125 17.5 2.125 22.3477 2.7459 24.6686C3.08789 25.9502 4.09727 26.9596 5.37559 27.3016C7.69648 27.9258 17 27.9258 17 27.9258C17 27.9258 26.3035 27.9258 28.6244 27.3016C29.9061 26.9596 30.9121 25.9502 31.2541 24.6686C31.875 22.3477 31.875 17.5 31.875 17.5C31.875 17.5 31.875 12.6523 31.2541 10.3314ZM14.0449 21.9492V13.0508L21.748 17.4668L14.0449 21.9492Z" fill="#707070"/>
</svg>
